<svg width="86px" height="90px" viewBox="0 0 86 90" version="1.1" xmlns="http://www.w3.org/2000/svg" xmlns:xlink="http://www.w3.org/1999/xlink">
  <g id="Page-1" stroke="none" stroke-width="1" fill="none" fill-rule="evenodd">
    <g transform="translate(-7.000000, -1.000000)" fill-rule="nonzero" fill="#ffffff">
      <g id="Group" transform="translate(7.000000, 0.000000)">
        <path d="M41.1,48.1 C58.5,48.1 78.6,44.1 80.4,40.5 C82.2,36.9 58,32.1 58,32.1 C52.2,34.8 41,34.8 41,34.8 C41,34.8 29.8,34.8 24,32.1 C24,32.1 -0.1,37 1.7,40.6 C3.6,44.1 23.2,48.1 41.1,48.1 Z" id="Shape"></path>
        <path d="M56.1,25.2 C56.1,25.2 52.7,5.8 50.2,2 C47.7,-1.8 43.9,6.5 40,6.5 C36.1,6.5 35.2,1.2 31.7,1 C28.1,0.8 24.6,25.2 24.6,25.2 C24.6,25.2 43,29.4 56.1,25.2 Z" id="Shape"></path>
        <path d="M24.5,49.3 C24.5,49.3 22.9,56.7 32.5,56.9 C32.5,56.9 36.2,56.9 38.1,53.6 C38.7,52.6 39.6,52 40.8,52 L41.2,52 C42.3,52 43.3,52.6 43.9,53.6 C45.8,56.9 49.5,56.9 49.5,56.9 C59.1,56.7 57.5,49.3 57.5,49.3 C53.1,50.8 46.2,50.7 43.8,50.6 L43.8,50.6 C43.2,50.6 42.9,50.6 42.9,50.6 C42.9,50.6 42.9,50.6 42.9,50.6 L39.1,50.6 C39.2,50.5 29.9,51 24.5,49.3 Z" id="Shape"></path>
        <path d="M20.7,49.3 L13.3,48.2 L0.5,59.2 C0.8,59.2 1.3,59.2 1.7,59.2 C7.4,59.2 22.5,64 22.5,64 L14.5,70.9 C20.5,72.1 39.4,82.2 39.4,82.2 L41.2,75.6 C26.1,64.5 20.7,49.3 20.7,49.3 Z" id="Shape"></path>
        <path d="M85.6,58.9 L70.1,48.1 L61.8,49.2 C62.3,51.9 60.6,56.8 60.6,56.8 C36.7,74.9 40.6,91 40.6,91 C50.1,72.2 71,69.6 71,69.6 L61.5,65.1 C67.7,61.2 85.6,58.9 85.6,58.9 Z" id="Shape"></path>
      </g>
    </g>
  </g>
</svg>
