
<svg width="91px" height="91px" viewBox="0 0 91 91" version="1.1" xmlns="http://www.w3.org/2000/svg" xmlns:xlink="http://www.w3.org/1999/xlink">
  <g id="Page-1" stroke="none" stroke-width="1" fill="none" fill-rule="evenodd">
    <g id="noun_241514_cc" transform="translate(-5.000000, 0.000000)" fill-rule="nonzero" fill="#7F8FA4">
      <path d="M91.2,30.3 L80,30.3 L80,19.2 C80,17.1 78.5,15.3 76.4,15.3 L65,15.3 L65,4.2 C65,2.1 63.5,0.3 61.4,0.3 L8.9,0.3 C6.8,0.3 5,2.1 5,4.2 L5,56.7 C5,58.8 6.8,60.3 8.9,60.3 L20,60.3 L20,71.7 C20,73.8 21.8,75.3 23.9,75.3 L35,75.3 L35,86.5 C35,88.6 36.7,90.3 38.8,90.3 L91.3,90.3 C93.4,90.3 95.1,88.6 95.1,86.5 L95.1,34.1 C95,32 93.3,30.3 91.2,30.3 Z M12.5,52.8 L12.5,7.8 L57.5,7.8 L57.5,52.8 L12.5,52.8 Z M27.5,67.8 L27.5,60.3 L61.4,60.3 C63.5,60.3 65,58.8 65,56.7 L65,22.8 L72.5,22.8 L72.5,67.8 L27.5,67.8 Z M87.5,82.8 L42.5,82.8 L42.5,75.3 L76.4,75.3 C78.5,75.3 80,73.8 80,71.7 L80,37.8 L87.5,37.8 L87.5,82.8 Z" id="Shape"></path>
    </g>
  </g>
</svg>
