<svg width="27px" height="18px" viewBox="0 0 27 18" version="1.1" xmlns="http://www.w3.org/2000/svg" xmlns:xlink="http://www.w3.org/1999/xlink">
  <g id="Page-1" stroke="none" stroke-width="1" fill="none" fill-rule="evenodd">
    <g fill-rule="nonzero" fill="#7F8FA4">
      <path d="M26.105,17.891 C25.876,17.891 25.666,17.76 25.576,17.545 L25.576,17.545 C25.51,17.389 23.86,13.688 17.691,12.955 C16.406,12.799 14.867,12.719 12.998,12.705 L12.998,17.318 C12.998,17.531 12.883,17.724 12.694,17.826 C12.506,17.924 12.281,17.91 12.106,17.793 L0.254,9.815 C0.094,9.708 0,9.528 0,9.339 C0,9.148 0.094,8.974 0.254,8.862 L12.111,0.883 C12.286,0.762 12.509,0.754 12.699,0.854 C12.889,0.956 13.002,1.149 13.002,1.356 L13.002,5.649 C15.58,5.985 26.676,7.979 26.676,17.323 C26.676,17.594 26.485,17.831 26.217,17.885 C26.18,17.891 26.141,17.891 26.105,17.891 Z" id="Shape"></path>
    </g>
  </g>
</svg>
