<svg width="66px" height="90px" viewBox="0 0 66 90" version="1.1" xmlns="http://www.w3.org/2000/svg" xmlns:xlink="http://www.w3.org/1999/xlink">
  <g id="Page-1" stroke="none" stroke-width="1" fill="none" fill-rule="evenodd">
    <g transform="translate(-17.000000, 0.000000)" fill-rule="nonzero" fill="#ffffff">
      <g id="Group" transform="translate(17.000000, 0.000000)">
        <path d="M61.66,66.54 L61.66,66.54 C58.8815329,63.1968778 57.3603139,58.9869926 57.36,54.64 L57.36,30.28 C57.36,17.99 48.49,7.28 36.58,5.54 L36.58,4 C36.58,2.02834344 34.9816566,0.43 33.01,0.43 C31.0383434,0.43 29.44,2.02834344 29.44,4 L29.44,5.6 C17.5527028,7.37996386 8.75075203,17.5801966 8.73,29.6 L8.73,54.6 C8.730162,58.9691517 7.19388545,63.199222 4.39,66.55 L4.39,66.55 C1.56318432,69.9222585 0.00956607351,74.1796679 0,78.58 L0,78.84 L66,78.84 L66,78.54 C65.9974572,74.1561983 64.4622037,69.9112576 61.66,66.54 L61.66,66.54 Z" id="Shape"></path>
        <path d="M27.62,80.28 C27.5908563,80.3813519 27.5707773,80.4850933 27.56,80.59 L27.56,84.16 C27.685015,87.0764972 30.0858247,89.3766012 33.005,89.3766012 C35.9241753,89.3766012 38.324985,87.0764972 38.45,84.16 L38.45,80.59 C38.4392227,80.4850933 38.4191437,80.3813519 38.39,80.28 L27.62,80.28 L27.62,80.28 Z" id="Shape"></path>
      </g>
    </g>
  </g>
</svg>
