<svg width="44px" height="44px" viewBox="0 0 44 44" version="1.1" xmlns="http://www.w3.org/2000/svg" xmlns:xlink="http://www.w3.org/1999/xlink">
  <g id="Page-1" stroke="none" stroke-width="1" fill="none" fill-rule="evenodd">
    <g id="cancel-2" fill-rule="nonzero" fill="#7F8FA4">
      <path d="M22,0 C9.8,0 0,9.8 0,22 C0,34.2 9.8,44 22,44 C34.2,44 44,34.2 44,22 C44,9.8 34.2,0 22,0 Z M25.2,22.4 L32.7,29.9 C32.9,30.1 33,30.4 33,30.6 C33,30.8 32.9,31.1 32.7,31.3 L31.3,32.7 C31.1,32.9 30.8,33 30.6,33 C30.3,33 30.1,32.9 29.9,32.7 L22.4,25.2 C22.2,25 21.9,25 21.7,25.2 L14.2,32.7 C14,32.9 13.7,33 13.5,33 C13.2,33 13,32.9 12.8,32.7 L11.4,31.3 C11.2,31.1 11.1,30.8 11.1,30.6 C11.1,30.4 11.2,30.1 11.4,29.9 L18.9,22.4 C19.1,22.2 19.1,21.9 18.9,21.7 L11.4,14.2 C11.2,14 11.1,13.7 11.1,13.5 C11.1,13.3 11.2,13 11.4,12.8 L12.8,11.4 C13,11.2 13.3,11.1 13.5,11.1 C13.7,11.1 14,11.2 14.2,11.4 L21.7,18.9 C21.9,19.1 22.2,19.1 22.4,18.9 L29.9,11.4 C30.1,11.2 30.4,11.1 30.6,11.1 C30.9,11.1 31.1,11.2 31.3,11.4 L32.7,12.8 C32.9,13 33,13.3 33,13.5 C33,13.7 32.9,14 32.7,14.2 L25.2,21.7 C25,21.8 25,22.2 25.2,22.4 L25.2,22.4 Z" id="Shape"></path>
    </g>
  </g>
</svg>
