
<svg width="44px" height="44px" viewBox="0 0 44 44" version="1.1" xmlns="http://www.w3.org/2000/svg" xmlns:xlink="http://www.w3.org/1999/xlink">
  <g id="Page-1" stroke="none" stroke-width="1" fill="none" fill-rule="evenodd">
    <g id="checked" fill-rule="nonzero" fill="#39B54A">
      <path d="M22,0 C9.8,0 0,9.8 0,22 C0,34.2 9.8,44 22,44 C34.2,44 44,34.2 44,22 C44,9.8 34.2,0 22,0 Z M34.7,15.1 L34.7,15.1 L18.7,31.7 C18.5,31.9 18.3,32 18,32 C17.7,32 17.4,31.9 17.3,31.7 L9.5,23.3 L9.3,23.1 C9.1,22.9 9,22.6 9,22.4 C9,22.2 9.1,21.9 9.3,21.7 L10.7,20.3 C11.1,19.9 11.7,19.9 12.1,20.3 L12.2,20.4 L17.7,26.3 C17.9,26.5 18.2,26.5 18.4,26.3 L31.8,12.4 L31.9,12.4 C32.3,12 32.9,12 33.3,12.4 L34.7,13.8 C35.1,14.1 35.1,14.7 34.7,15.1 L34.7,15.1 Z" id="Shape"></path>
    </g>
  </g>
</svg>
