<svg width="42px" height="42px" viewBox="0 0 42 42" version="1.1" xmlns="http://www.w3.org/2000/svg" xmlns:xlink="http://www.w3.org/1999/xlink">
  <g id="Page-1" stroke="none" stroke-width="1" fill="none" fill-rule="evenodd">
    <g id="close-cross" fill-rule="nonzero" fill="#f03e3e">
      <path d="M27.948,20.878 L40.291,8.536 C42.244,6.583 42.244,3.417 40.291,1.465 C38.34,-0.487 35.172,-0.487 33.221,1.465 L20.878,13.809 L8.535,1.465 C6.584,-0.487 3.416,-0.487 1.465,1.465 C-0.488,3.418 -0.488,6.584 1.465,8.536 L13.807,20.878 L1.465,33.22 C-0.488,35.173 -0.488,38.339 1.465,40.291 C2.44,41.268 3.721,41.755 5,41.755 C6.278,41.755 7.56,41.268 8.535,40.291 L20.878,27.949 L33.221,40.292 C34.197,41.269 35.477,41.756 36.756,41.756 C38.035,41.756 39.316,41.269 40.291,40.292 C42.244,38.339 42.244,35.173 40.291,33.221 L27.948,20.878 Z" id="Shape"></path>
    </g>
  </g>
</svg>
