<svg width="400px" height="400px" viewBox="0 0 400 400" version="1.1" xmlns="http://www.w3.org/2000/svg" xmlns:xlink="http://www.w3.org/1999/xlink">
  <g id="Page-1" stroke="none" stroke-width="1" fill="none" fill-rule="evenodd">
    <g fill-rule="nonzero" fill="#FFFFFF">
      <path d="M341.424,58.579 C303.649,20.804 253.419,0 200,0 C146.581,0 96.351,20.804 58.576,58.579 C20.801,96.354 0,146.577 0,200 C0,253.423 20.801,303.646 58.576,341.421 C96.351,379.196 146.581,400 200,400 C253.419,400 303.649,379.196 341.424,341.421 C379.199,303.646 400,253.423 400,200 C400,146.577 379.199,96.354 341.424,58.579 Z M200,366.38 C108.26,366.38 33.616,291.743 33.616,200 C33.616,108.257 108.26,33.62 200,33.62 C291.74,33.62 366.384,108.257 366.384,200 C366.384,291.743 291.74,366.38 200,366.38 Z" id="Shape"></path>
      <path d="M138.802,306.204 C132.355,302.484 124.104,304.687 120.371,311.135 C116.652,317.59 118.865,325.842 125.312,329.563 C127.434,330.792 129.758,331.377 132.048,331.377 C136.706,331.377 141.236,328.958 143.738,324.633 C147.461,318.176 145.255,309.926 138.802,306.204 Z" id="Shape"></path>
      <path d="M131.806,95.758 C134.104,95.758 136.438,95.172 138.57,93.936 C145.007,90.196 147.203,81.936 143.461,75.498 C139.712,69.052 131.463,66.865 125.023,70.604 C118.577,74.344 116.391,82.595 120.132,89.041 C122.635,93.35 127.154,95.758 131.806,95.758 Z" id="Shape"></path>
      <path d="M75.34,143.814 C77.461,145.031 79.778,145.618 82.066,145.618 C86.727,145.618 91.267,143.2 93.76,138.865 C97.481,132.419 95.266,124.168 88.819,120.447 C82.364,116.717 74.114,118.931 70.392,125.385 C66.67,131.842 68.886,140.084 75.34,143.814 Z" id="Shape"></path>
      <path d="M199.769,77.451 C199.779,77.451 199.779,77.451 199.786,77.451 C207.238,77.432 213.265,71.386 213.259,63.935 C213.238,56.483 207.195,50.456 199.742,50.474 C192.289,50.483 186.263,56.53 186.28,63.98 C186.289,71.423 192.325,77.451 199.769,77.451 Z" id="Shape"></path>
      <path d="M75.461,256.475 C69.014,260.205 66.818,268.455 70.56,274.904 C73.063,279.218 77.593,281.63 82.245,281.63 C84.542,281.63 86.866,281.044 88.998,279.807 C95.444,276.078 97.638,267.816 93.898,261.378 C90.159,254.932 81.907,252.734 75.461,256.475 Z" id="Shape"></path>
      <path d="M77.451,200.141 C77.441,192.688 71.395,186.662 63.945,186.67 C56.494,186.679 50.466,192.725 50.475,200.167 C50.485,207.619 56.521,213.646 63.964,213.646 L63.971,213.646 C71.425,213.637 77.461,207.59 77.451,200.141 Z" id="Shape"></path>
      <path d="M200.064,322.549 C192.624,322.559 186.585,328.596 186.585,336.046 C186.595,343.498 192.634,349.535 200.084,349.525 C207.534,349.525 213.573,343.478 213.563,336.027 C213.564,328.585 207.52,322.549 200.064,322.549 Z" id="Shape"></path>
      <path d="M324.595,256.335 C318.151,252.606 309.902,254.809 306.168,261.256 C302.439,267.702 304.643,275.953 311.089,279.684 C313.221,280.913 315.545,281.497 317.832,281.497 C322.493,281.497 327.023,279.089 329.516,274.762 C333.248,268.316 331.042,260.064 324.595,256.335 Z" id="Shape"></path>
      <path d="M336.01,186.195 C328.56,186.214 322.531,192.27 322.551,199.72 C322.551,199.795 322.551,199.87 322.551,199.934 C322.551,199.963 322.551,199.981 322.551,200 C322.551,207.451 328.586,213.488 336.037,213.488 C343.49,213.488 349.526,207.451 349.526,200 C349.526,199.953 349.526,199.897 349.526,199.842 C349.526,199.786 349.526,199.72 349.526,199.656 C349.509,192.205 343.46,186.186 336.01,186.195 Z" id="Shape"></path>
      <path d="M261.071,93.721 C263.19,94.949 265.508,95.525 267.795,95.525 C272.456,95.525 276.996,93.107 279.489,88.772 C283.211,82.315 280.996,74.065 274.541,70.344 C268.084,66.632 259.832,68.846 256.121,75.303 C252.402,81.758 254.615,90.01 261.071,93.721 Z" id="Shape"></path>
      <path d="M261.312,306.141 C254.866,309.87 252.663,318.12 256.402,324.568 C258.904,328.883 263.432,331.302 268.086,331.302 C270.384,331.302 272.7,330.716 274.829,329.482 C281.276,325.752 283.472,317.5 279.743,311.051 C276.01,304.604 267.758,302.4 261.312,306.141 Z" id="Shape"></path>
      <path d="M317.703,145.219 C320.011,145.219 322.335,144.623 324.474,143.386 C330.913,139.637 333.1,131.386 329.351,124.949 C325.611,118.502 317.35,116.325 310.913,120.065 C304.474,123.804 302.288,132.064 306.029,138.502 C308.532,142.809 313.052,145.219 317.703,145.219 Z" id="Shape"></path>
      <path d="M284.759,209.456 L213.927,204.625 L206.857,100.881 C206.613,97.312 203.645,94.541 200.066,94.541 C196.488,94.541 193.524,97.312 193.278,100.881 L186.333,202.743 L174.996,201.97 C173.484,201.866 171.997,202.395 170.89,203.43 C169.785,204.464 169.156,205.912 169.156,207.428 L169.156,222.4 C169.156,223.917 169.785,225.363 170.89,226.397 C171.906,227.346 173.243,227.871 174.625,227.871 C174.747,227.871 174.871,227.867 174.996,227.859 L184.666,227.199 L183.968,237.408 C183.842,239.289 184.499,241.137 185.785,242.513 C187.071,243.891 188.872,244.673 190.758,244.673 L209.376,244.673 C209.384,244.673 209.393,244.673 209.397,244.673 C213.153,244.673 216.199,241.627 216.199,237.869 C216.199,237.538 215.328,225.104 215.328,225.104 L284.762,220.37 C287.633,220.174 289.863,217.789 289.863,214.912 C289.857,212.037 287.63,209.652 284.759,209.456 Z" id="Shape"></path>
    </g>
  </g>
</svg>
