<svg width="52px" height="65px" viewBox="0 0 52 65" version="1.1" xmlns="http://www.w3.org/2000/svg" xmlns:xlink="http://www.w3.org/1999/xlink">
  <g id="Page-1" stroke="none" stroke-width="1" fill="none" fill-rule="evenodd">
    <g id="computing-script" fill-rule="nonzero" fill="#7F8FA4">
      <path d="M51.506,20.179 L34.34,0.346 C34.15,0.126 33.874,0 33.583,0 L9.417,0 C4.455,0 0.417,4.038 0.417,9 L0.417,55.167 C0.417,60.129 4.455,64.167 9.417,64.167 L42.75,64.167 C47.712,64.167 51.75,60.129 51.75,55.167 L51.75,20.833 C51.75,20.593 51.664,20.361 51.506,20.179 Z M34.583,3.683 L48.562,19.833 L41.583,19.833 C37.723,19.833 34.583,16.693 34.583,12.833 L34.583,3.683 Z M42.75,62.167 L9.417,62.167 C5.557,62.167 2.417,59.027 2.417,55.167 L2.417,9 C2.417,5.14 5.557,2 9.417,2 L32.584,2 L32.584,12.833 C32.584,17.795 36.622,21.833 41.584,21.833 L49.751,21.833 L49.751,55.166 C49.75,59.027 46.61,62.167 42.75,62.167 Z M19.791,28.124 L13.262,34.653 L19.791,41.182 C20.182,41.573 20.182,42.205 19.791,42.596 C19.596,42.791 19.34,42.889 19.084,42.889 C18.828,42.889 18.572,42.791 18.377,42.596 L11.14,35.36 C10.749,34.969 10.749,34.337 11.14,33.946 L18.376,26.71 C18.767,26.319 19.399,26.319 19.79,26.71 C20.181,27.101 20.181,27.733 19.791,28.124 Z M41.027,33.946 C41.418,34.337 41.418,34.969 41.027,35.36 L33.791,42.596 C33.596,42.791 33.34,42.889 33.084,42.889 C32.828,42.889 32.572,42.791 32.377,42.596 C31.986,42.205 31.986,41.573 32.377,41.182 L38.906,34.653 L32.377,28.124 C31.986,27.733 31.986,27.101 32.377,26.71 C32.768,26.319 33.4,26.319 33.791,26.71 L41.027,33.946 Z" id="Shape"></path>
    </g>
  </g>
</svg>
