<svg width="112px" height="128px" viewBox="0 0 112 128" version="1.1" xmlns="http://www.w3.org/2000/svg" xmlns:xlink="http://www.w3.org/1999/xlink">
  <g id="Page-1" stroke="none" stroke-width="1" fill="none" fill-rule="evenodd">
    <g id="noun_14217" fill-rule="nonzero" fill="#FFFFFF">
      <path d="M79.819,21.123 L79.819,33.467 C92.603,41.433 101.116,55.61 101.116,71.78 C101.116,96.698 80.917,116.897 56,116.897 C31.083,116.897 10.884,96.698 10.884,71.78 C10.884,55.609 19.397,41.432 32.181,33.467 L32.181,21.123 C13.181,30.072 0.026,49.387 0.026,71.78 C0.026,102.694 25.087,127.755 56,127.755 C86.915,127.755 111.975,102.694 111.975,71.78 C111.975,49.387 98.819,30.072 79.819,21.123 Z" id="Shape"></path>
      <path d="M71.583,49.079 C71.583,51.84 69.345,54.079 66.583,54.079 L45.417,54.079 C42.655,54.079 40.417,51.84 40.417,49.079 L40.417,5.245 C40.417,2.484 42.655,0.245 45.417,0.245 L66.583,0.245 C69.345,0.245 71.583,2.484 71.583,5.245 L71.583,49.079 Z" id="Shape"></path>
    </g>
  </g>
</svg>
