<svg width="60px" height="20px" viewBox="0 0 60 20" version="1.1" xmlns="http://www.w3.org/2000/svg" xmlns:xlink="http://www.w3.org/1999/xlink">
  <g id="Page-1" stroke="none" stroke-width="1" fill="none" fill-rule="evenodd">
    <g id="noun_60181_cc" transform="translate(-20.000000, 0.000000)" fill-rule="nonzero" fill="#FFFFFF">
      <path d="M80,5 L58.7,5 C57,2 53.7,0 50,0 C46.3,0 43.1,2 41.3,5 L20,5 L20,15 L41.3,15 C43,18 46.3,20 50,20 C53.7,20 56.9,18 58.7,15 L80,15 L80,5 Z M50,16 C46.7,16 44,13.3 44,10 C44,6.7 46.7,4 50,4 C53.3,4 56,6.7 56,10 C56,13.3 53.3,16 50,16 Z" id="Shape"></path>
    </g>
  </g>
</svg>
