<svg width="16px" height="16px" viewBox="0 0 16 16" version="1.1" xmlns="http://www.w3.org/2000/svg" xmlns:xlink="http://www.w3.org/1999/xlink">
  <g id="Source-Sans---UI-Elements-Kit" stroke="none" stroke-width="1" fill="none" fill-rule="evenodd" opacity="0.699999988">
    <g id="Dark-Layout" transform="translate(-91.000000, -3054.000000)" fill="#FFFFFF">
      <g id="Navigations,-Paginations,-Tabs" transform="translate(80.000000, 2591.000000)">
        <g id="Notifications" transform="translate(0.000000, 371.000000)">
          <g id="Blue" transform="translate(0.000000, 82.000000)">
            <g id="Content" transform="translate(11.000000, 9.000000)">
              <path d="M9.619,13.006 L6.38,13.006 C6.167,13.006 5.995,12.805 5.995,12.558 C5.995,12.311 6.167,12.11 6.38,12.11 L7,12 L7,9 L6.38,8.884 C6.167,8.884 5.995,8.683 5.995,8.436 C5.995,8.189 6.167,7.988 6.38,7.988 L8.894,7.988 C8.971,7.988 8.996,7.956 9.007,7.93 C9.004,7.945 9,7.959 9,8 L9,12 L9.619,12.11 C9.832,12.11 10.005,12.311 10.005,12.558 C10.005,12.805 9.832,13.006 9.619,13.006 L9.619,13.006 Z M7,5 L7.98,5 C7.987,5 7.993,4.996 8,4.996 C8.007,4.996 8.013,5 8.02,5 L9,5 L9,5.94 C9.001,5.962 9.012,5.98 9.012,6.001 C9.012,6.023 9.001,6.041 9,6.062 L9,7 L8.033,7 C8.021,7.001 8.011,7.007 8,7.007 C7.988,7.007 7.978,7.001 7.967,7 L7,7 L7,6.061 C6.998,6.04 6.987,6.023 6.987,6.001 C6.987,5.98 6.998,5.962 7,5.941 L7,5 Z M8,1 C3.581,1 0,4.582 0,9 C0,13.418 3.581,17 8,17 C12.418,17 16,13.418 16,9 C16,4.582 12.418,1 8,1 L8,1 Z" id="Info-Icon"></path>
            </g>
          </g>
        </g>
      </g>
    </g>
  </g>
</svg>
