
<svg width="170px" height="384px" viewBox="0 0 170 384" version="1.1" xmlns="http://www.w3.org/2000/svg" xmlns:xlink="http://www.w3.org/1999/xlink">
  <g stroke="none" stroke-width="1" fill="none" fill-rule="evenodd">
    <g transform="translate(0.000000, -1.000000)">
      <g id="Group">
        <path d="M72.6,59.4 L97.5,59.4 C102.1,59.4 105.8,55.7 105.8,51.1 L105.8,40.1 C105.8,35.5 102.1,31.8 97.5,31.8 L72.6,31.8 C68,31.8 64.3,35.5 64.3,40.1 L64.3,51.1 C64.3,55.7 68,59.4 72.6,59.4 Z" id="Shape" fill="#FFFFFF"></path>
        <path d="M119.4,166.6 L107.2,172.5 C105.3,173.4 103.2,173.9 101.2,173.9 L70,173.9 C67.9,173.9 65.9,173.4 64,172.6 L50.1,166 L50.1,350.8 L84.7,385 L119.3,350.8 L102,333.5 L119.3,313.8 L102,294.1 L119.3,274.4 L102,254.4 L119.3,233.4 L119.3,166.6 L119.4,166.6 Z M69.1,341.7 L64.3,341.7 L64.3,189.9 L69.1,189.9 L69.1,341.7 Z" id="Shape" fill="#FFFFFF" fill-rule="nonzero"></path>
        <path d="M161.4,17.4 C144.9,10 118.1,0.8 84.1,1 C51,1.2 24.8,10.1 8.6,17.4 C3.6,19.7 0.4,24.6 0.4,30.1 L0.4,133.6 C0.4,139 3.5,143.9 8.4,146.2 L50,165.9 L63.9,172.5 C65.8,173.4 67.8,173.8 69.9,173.8 L101,173.8 C103.1,173.8 105.2,173.3 107,172.4 L119.2,166.5 L161.5,146.2 C166.3,143.9 169.4,139 169.4,133.6 L169.4,30.2 C169.6,24.7 166.4,19.7 161.4,17.4 Z M64.3,40.2 C64.3,35.6 68,31.9 72.6,31.9 L97.5,31.9 C102.1,31.9 105.8,35.6 105.8,40.2 L105.8,51.2 C105.8,55.8 102.1,59.5 97.5,59.5 L72.6,59.5 C68,59.5 64.3,55.8 64.3,51.2 L64.3,40.2 L64.3,40.2 Z" id="Shape" fill="#FFFFFF" fill-rule="nonzero"></path>
      </g>
    </g>
  </g>
</svg>
