<svg width="436px" height="512px" viewBox="0 0 436 512" version="1.1" xmlns="http://www.w3.org/2000/svg" xmlns:xlink="http://www.w3.org/1999/xlink">
  <g id="Page-1" stroke="none" stroke-width="1" fill="none" fill-rule="evenodd">
    <g id="linux-logo" fill-rule="nonzero" fill="#FFFFFF">
      <path d="M431.584,428.409 C429.497,426.03 426.543,423.7 422.738,421.414 C422.163,421.041 420.595,420.135 418.036,418.714 C415.47,417.284 413.423,416.048 411.893,414.998 C410.373,413.95 408.374,412.144 405.897,409.573 C403.426,407.007 401.476,404.29 400.045,401.435 C398.618,398.584 397.238,394.731 395.904,389.875 C394.569,385.019 393.816,379.643 393.621,373.742 C390.955,376.018 389.483,380.539 389.196,387.301 C388.909,394.057 390.34,400.952 393.481,407.995 C396.619,415.041 401.331,419.602 407.611,421.701 C413.699,423.799 418.599,426.029 422.316,428.408 C426.022,430.79 428.407,433.497 429.455,436.543 C430.502,439.596 428.736,442.877 424.171,446.395 C419.599,449.92 412.273,453.39 402.187,456.827 C388.293,461.58 378.441,465.629 372.633,468.955 C366.829,472.288 358.316,478.619 347.083,487.941 C339.466,494.223 331.379,497.605 322.81,498.081 C314.251,498.56 307.298,495.419 301.973,488.663 C296.641,481.908 294.923,472.347 296.829,459.968 C300.446,436.178 300.357,417.619 296.552,404.297 C293.506,393.828 292.835,384.595 294.554,376.601 C296.265,368.615 298.927,363.954 302.548,362.619 C306.154,361.281 310.063,364.139 314.251,371.178 C314.624,372.129 315.486,373.985 316.814,376.746 C318.145,379.504 319.237,381.462 320.102,382.598 C320.958,383.741 322.242,385.216 323.956,387.027 C325.667,388.84 327.82,390.12 330.383,390.886 C332.95,391.646 335.945,392.121 339.377,392.31 C345.848,392.498 351.648,391.167 356.792,388.313 C361.929,385.459 365.789,382.27 368.355,378.749 C370.921,375.224 373.495,371.85 376.062,368.612 C378.628,365.371 380.867,363.564 382.773,363.181 C384.864,362.808 386.77,360.713 388.484,356.901 C390.196,353.096 391.338,347.815 391.91,341.06 C392.485,334.301 392.006,326.259 390.486,316.937 C387.629,300.371 381.962,282.196 373.495,262.402 C365.022,242.605 355.559,227.093 345.088,215.862 C326.246,195.879 313.594,175.133 307.116,153.623 C300.46,130.975 297.609,110.608 298.557,92.525 C299.511,79.581 296.702,65.543 290.138,50.41 C283.575,35.279 274.862,23.716 264.013,15.722 C257.162,10.585 248.689,6.636 238.607,3.874 C228.519,1.112 218.428,-0.169 208.34,0.019 C195.971,0.019 186.07,2.016 178.65,6.015 C163.423,14.201 153.338,24.145 148.386,35.851 C143.434,47.555 141.154,61.973 141.532,79.104 C142.297,116.791 143.816,146.293 146.102,167.609 C143.435,177.508 131.637,196.063 110.698,223.281 C106.889,227.09 103.177,232.228 99.56,238.699 C95.945,245.172 93.089,250.979 90.996,256.114 C88.9,261.251 86.094,268.674 82.573,278.383 C79.05,288.088 76.531,294.943 75.007,298.937 C73.675,302.369 71.58,306.359 68.727,310.935 C65.871,315.499 63.582,319.976 61.873,324.346 C60.164,328.723 59.21,333.671 59.02,339.192 C58.83,343.38 59.02,346.998 59.592,350.04 C60.351,354.615 61.782,356.039 63.873,354.328 C72.442,347.856 83.196,351.662 96.137,365.751 C105.273,375.648 121.358,398.68 144.388,434.845 C146.291,438.079 148.193,441.552 150.096,445.273 C152.004,448.979 153.807,453.923 155.522,460.111 C157.235,466.305 157.95,471.867 157.663,476.818 C157.375,481.77 155.189,486.339 151.096,490.52 C147.003,494.706 140.864,497.369 132.681,498.511 C128.301,499.082 123.024,498.706 116.835,497.368 C110.649,496.036 102.797,493.849 93.282,490.804 C83.765,487.762 76.724,485.664 72.155,484.521 C65.497,482.995 56.028,481.054 43.749,478.669 C31.471,476.287 23.427,474.528 19.621,473.385 C13.15,471.674 9.63,469.203 9.06,465.963 C8.488,463.297 9.82,458.732 13.057,452.264 C16.296,445.792 17.911,441.124 17.911,438.274 C18.099,436.176 18.005,434.089 17.623,431.992 C17.245,429.897 16.817,428.278 16.34,427.136 C15.864,425.996 15.055,424.282 13.912,421.995 C12.769,419.713 12.009,417.995 11.628,416.859 C8.204,408.861 7.727,403.43 10.201,400.58 C11.912,398.105 16.005,397.154 22.476,397.728 C32.183,398.68 40.081,397.249 46.173,393.441 C56.258,387.161 59.307,377.073 55.308,363.175 C55.308,369.646 54.165,374.495 51.881,377.736 C49.597,380.97 45.598,384.303 39.89,387.732 C36.656,389.635 30.943,390.775 22.761,391.162 C14.578,391.542 9.151,392.876 6.487,395.159 C4.585,396.873 3.587,399.443 3.491,402.869 C3.397,406.302 3.828,409.768 4.778,413.293 C5.728,416.814 6.681,420.855 7.631,425.425 C8.584,429.996 8.962,433.806 8.774,436.848 C8.584,438.939 6.866,444.13 3.632,452.402 C0.398,460.684 -0.268,467.014 1.635,471.388 C2.588,473.486 4.203,475.344 6.488,476.959 C8.771,478.577 11.959,479.957 16.051,481.104 C20.14,482.247 23.901,483.15 27.329,483.814 C30.753,484.474 35.511,485.336 41.601,486.377 C47.692,487.42 52.545,488.331 56.162,489.087 C68.344,491.565 82.237,495.657 97.846,501.365 C113.453,507.077 124.015,510.023 129.535,510.212 C134.865,510.4 139.955,509.309 144.81,506.927 C149.663,504.552 153.802,501.838 157.229,498.792 C160.653,495.746 165.745,492.889 172.5,490.227 C179.26,487.561 186.825,486.134 195.201,485.943 C199.007,485.755 204.527,485.515 211.759,485.231 C218.992,484.943 224.415,484.803 228.032,484.803 C244.4,484.803 256.771,484.895 265.145,485.086 C270.856,485.281 275.329,486.182 278.566,487.801 C281.8,489.416 283.898,491.274 284.846,493.364 C285.797,495.463 287.375,497.885 289.565,500.647 C291.749,503.405 294.555,505.643 297.977,507.354 C305.207,510.783 313.681,512.162 323.39,511.495 C333.095,510.831 339.57,508.973 342.803,505.928 C348.132,500.791 355.315,494.697 364.356,487.657 C373.398,480.618 381.543,475.286 388.77,471.669 C390.29,470.902 392.86,469.667 396.477,467.952 C400.09,466.238 403.133,464.766 405.607,463.524 C408.082,462.286 411.083,460.714 414.597,458.812 C418.121,456.906 420.976,455.147 423.166,453.528 C425.355,451.909 427.587,450.058 429.873,447.96 C432.156,445.869 433.631,443.775 434.302,441.681 C434.959,439.587 435.205,437.445 435.014,435.257 C434.819,433.073 433.682,430.794 431.584,428.409 Z M278.559,152.468 C279.127,152.09 279.511,151.946 279.699,152.04 C279.891,152.136 280.271,152.518 280.839,153.183 C281.414,153.849 281.931,154.47 282.413,155.041 C282.886,155.607 283.55,156.372 284.405,157.322 C285.26,158.275 286.164,159.035 287.112,159.606 C288.261,160.366 289.637,160.893 291.256,161.177 C292.875,161.461 294.113,161.937 294.973,162.602 C295.833,163.267 296.452,164.361 296.825,165.886 C297.201,167.982 296.883,169.881 295.836,171.594 C294.782,173.309 293.406,174.072 291.689,173.88 C288.263,173.118 284.55,170.122 280.556,164.887 C276.564,159.653 275.894,155.514 278.559,152.468 Z M243.154,41.555 C244.102,40.318 244.674,39.319 244.862,38.559 C245.242,37.413 245.29,36.225 245.006,34.988 C244.722,33.751 244.815,32.514 245.29,31.277 C245.769,30.04 246.864,29.326 248.578,29.136 C250.29,29.136 252.575,30.565 255.43,33.419 C255.998,33.801 256.902,34.372 258.133,35.132 C259.372,35.894 260.228,36.559 260.703,37.129 C261.179,37.697 261.415,38.178 261.415,38.556 C261.035,39.506 260.18,40.178 258.852,40.556 C257.525,40.934 256.09,41.128 254.571,41.128 C253.052,41.128 252.189,41.222 252.002,41.412 C250.479,41.984 249.052,42.839 247.717,43.98 C246.386,45.123 245.339,45.979 244.579,46.55 C243.812,47.12 243.053,47.12 242.293,46.55 C241.533,45.407 241.246,44.598 241.438,44.124 C241.631,43.65 242.203,42.792 243.154,41.555 Z M104.972,255.256 C106.3,253.735 107.255,252.498 107.825,251.545 C108.396,250.592 108.918,249.307 109.395,247.691 C109.871,246.071 110.299,244.88 110.68,244.12 C111.063,243.355 111.635,243.071 112.395,243.261 C112.773,243.167 113.057,243.355 113.254,243.832 C113.442,244.308 113.538,244.547 113.538,244.547 L113.538,245.404 C113.538,245.692 113.489,246.07 113.394,246.547 C113.298,247.027 113.154,247.454 112.966,247.832 C112.773,248.215 112.584,248.787 112.395,249.546 C112.205,250.306 112.017,250.973 111.823,251.543 C111.063,253.451 109.871,255.16 108.256,256.684 C106.637,258.206 105.446,258.873 104.685,258.682 C103.543,258.304 103.641,257.157 104.972,255.256 Z M291.683,431.41 C291.303,437.498 290.017,446.067 287.827,457.107 C285.637,468.143 284.255,475.473 283.682,479.087 C279.685,478.892 277.403,477.417 276.831,474.658 C276.263,471.896 276.831,468.331 278.545,463.951 C282.731,451.193 284.914,442.439 285.109,437.685 C285.496,428.928 284.541,423.979 282.261,422.839 C280.159,421.317 276.926,424.174 272.549,431.401 C264.168,445.107 247.327,453.381 222.014,456.243 C199.178,459.289 183.38,455.863 174.622,445.96 C172.719,444.628 170.816,444.392 168.914,445.251 C167.011,446.1 165.774,447.01 165.203,447.954 C165.015,448.338 165.203,448.906 165.775,449.669 C166.346,450.433 167.25,451.571 168.487,453.095 C169.724,454.624 170.723,456.141 171.483,457.67 C178.909,470.609 178.244,479.363 169.486,483.932 C169.486,475.182 168.82,468.471 167.489,463.81 C166.156,459.146 163.494,454.009 159.495,448.39 C155.5,442.777 152.74,438.54 151.219,435.687 C156.927,435.119 161.258,432.928 164.209,429.12 C167.159,425.314 168.49,421.222 168.206,416.845 C167.92,412.465 166.256,408.847 163.21,405.993 C161.497,404.282 152.644,397 136.657,384.152 C120.671,371.305 110.772,362.692 106.967,358.315 C106.202,357.552 103.921,355.649 100.113,352.603 C96.304,349.558 93.924,346.895 92.974,344.609 C84.217,325.394 83.267,309.588 90.118,297.222 L91.259,295.795 C92.209,295.607 92.305,297.317 91.543,300.936 C90.402,306.267 90.023,311.592 90.402,316.924 C91.162,328.918 94.589,337.861 100.679,343.757 C104.678,347.761 107.436,347.474 108.96,342.904 C110.103,341.378 110.625,335.765 110.529,326.053 C110.438,316.351 110.579,309.784 110.96,306.355 C112.484,295.507 117.005,282.085 124.522,266.104 C132.039,250.114 137.99,241.548 142.367,240.407 C138.94,234.887 137.846,228.891 139.084,222.419 C140.319,215.947 142.321,210.424 145.079,205.859 C147.836,201.292 150.647,196.012 153.499,190.015 C156.355,184.019 157.782,178.641 157.782,173.883 C157.782,172.553 157.88,171.6 158.07,171.029 C158.64,169.316 161.02,171.409 165.207,177.308 C173.201,189.111 179.197,196.06 183.195,198.153 C187.382,200.434 192.043,200.34 197.183,197.865 C202.321,195.391 208.649,191.298 216.169,185.59 C223.684,179.882 230.108,175.693 235.439,173.031 C236.014,172.838 236.915,172.41 238.157,171.744 C239.388,171.082 240.34,170.603 241.004,170.315 C241.665,170.031 242.524,169.604 243.574,169.032 C244.614,168.461 245.422,167.985 245.994,167.603 C246.565,167.22 247.137,166.792 247.705,166.316 C248.272,165.838 248.652,165.366 248.848,164.889 C249.039,164.413 249.135,163.986 249.135,163.604 C248.752,161.89 247.945,160.842 246.705,160.464 C245.467,160.084 243.804,160.32 241.709,161.179 C239.615,162.036 237.281,163.179 234.714,164.605 C232.148,166.032 229.294,167.65 226.152,169.459 C223.013,171.268 219.824,172.931 216.59,174.456 C213.356,175.98 209.928,177.312 206.311,178.455 C202.695,179.595 199.269,180.264 196.034,180.454 C188.04,180.645 181.666,178.555 176.908,174.174 C173.863,171.316 172.247,169.509 172.054,168.748 C171.862,167.989 172.72,167.799 174.622,168.177 C184.904,169.51 192.42,169.698 197.179,168.748 C202.127,167.989 208.788,165.798 217.164,162.181 C218.879,161.421 223.204,159.563 230.158,156.613 C237.101,153.667 242.481,151.62 246.287,150.477 C248.576,149.905 250.147,149.002 251.003,147.765 C251.855,146.528 252.143,145.385 251.855,144.337 C251.572,143.292 250.952,142.484 250.004,141.913 C247.905,140.77 246.003,141.533 244.296,144.197 C243.341,145.91 241.339,147.578 238.296,149.194 C235.254,150.814 232.442,152.049 229.874,152.905 C227.305,153.76 224.022,154.76 220.023,155.901 C216.024,157.044 213.839,157.71 213.456,157.9 C202.989,161.134 193.282,162.563 184.335,162.181 C180.147,161.993 176.77,161.372 174.202,160.325 C171.632,159.281 169.869,158.044 168.92,156.614 C167.967,155.189 166.446,153.38 164.352,151.19 C162.256,149 159.876,147.145 157.213,145.62 C155.31,144.67 154.595,142.957 155.072,140.483 C155.548,138.009 157.023,135.437 159.497,132.773 C159.687,132.581 161.639,131.394 165.349,129.204 C169.06,127.014 171.678,124.777 173.203,122.493 C174.912,119.829 177.864,117.067 182.051,114.211 C182.241,113.451 182.385,111.358 182.479,107.932 C182.573,104.508 181.67,100.796 179.767,96.799 C177.864,92.8 175.292,90.804 172.057,90.804 C167.488,90.614 164.253,91.945 162.35,94.801 C160.447,97.653 159.593,101.176 159.782,105.363 C159.975,108.978 160.879,112.164 162.494,114.926 C164.113,117.688 165.589,119.069 166.921,119.069 C169.013,118.876 169.679,119.635 168.918,121.35 C167.777,123.446 166.252,124.781 164.35,125.349 C163.014,125.727 161.538,124.444 159.923,121.494 C158.304,118.544 157.068,114.977 156.212,110.788 C155.357,106.601 155.021,103.08 155.214,100.222 C155.592,94.322 157.161,88.659 159.923,83.234 C162.685,77.81 166.634,75.192 171.771,75.38 C177.101,75.573 181.387,78.811 184.621,85.09 C187.86,91.37 189.381,99.939 189.191,110.787 C189.763,112.12 191.237,112.596 193.618,112.214 C195.993,111.832 199.136,111.783 203.037,112.07 C206.936,112.354 209.743,113.352 211.457,115.066 C211.65,115.066 211.745,113.636 211.745,110.783 C208.318,86.804 216.787,74.051 237.155,72.527 C240.194,73.099 242.764,73.814 244.855,74.668 C246.956,75.523 249.184,76.954 251.566,78.951 C253.951,80.948 255.942,83.85 257.561,87.659 C259.18,91.47 260.466,96.228 261.417,101.936 L261.417,112.498 C261.417,118.588 260.175,122.015 257.701,122.777 C253.707,124.108 250.856,124.062 249.145,122.633 C247.43,121.203 247.616,118.684 249.713,115.067 C251.615,110.309 251.235,104.785 248.569,98.505 C245.907,92.226 241.05,89.37 234.011,89.942 C229.251,90.133 225.825,92.703 223.731,97.65 C221.637,102.599 220.878,107.453 221.449,112.212 C222.02,116.97 223.064,119.444 224.591,119.633 C225.731,119.826 229.114,121.347 234.728,124.203 C240.35,127.058 244.583,128.77 247.434,129.341 C254.857,130.861 259.086,133.241 260.137,136.478 C261.184,139.717 260.756,144.426 258.854,150.611 C256.948,156.8 256.379,161.887 257.146,165.886 C257.906,170.078 259.336,173.88 261.431,177.306 C263.525,180.735 265.756,183.873 268.138,186.73 C270.516,189.579 273.319,194.913 276.563,202.715 C279.794,210.521 282.744,220.322 285.406,232.123 C285.594,232.313 286.306,232.979 287.546,234.122 C288.784,235.263 290.017,236.69 291.259,238.403 C292.501,240.117 293.973,242.448 295.687,245.398 C297.399,248.35 299.26,252.68 301.258,258.392 C303.25,264.1 305.112,270.671 306.822,278.09 C308.917,286.851 310.011,297.025 310.107,308.643 C310.204,320.251 310.963,328.198 312.393,332.482 C313.824,336.77 317.486,338.529 323.385,337.766 C330.808,337.386 335.572,333.389 337.656,325.775 C343.939,303.695 338.806,277.235 322.243,246.405 C315.96,234.413 310.539,226.513 305.967,222.708 C312.627,226.514 319.482,233.649 326.528,244.121 C333.571,254.591 338.04,264.396 339.943,273.526 C340.128,274.481 340.655,277.004 341.51,281.092 C342.365,285.185 342.844,287.567 342.934,288.231 C343.026,288.898 343.413,290.849 344.074,294.084 C344.744,297.32 345.073,299.415 345.073,300.366 C345.073,301.321 345.165,303.176 345.36,305.934 C345.555,308.692 345.504,310.834 345.216,312.357 C344.929,313.883 344.648,315.93 344.361,318.494 C344.074,321.063 343.601,323.538 342.934,325.92 C342.277,328.298 341.561,330.92 340.798,333.771 C351.263,338.339 356.499,342.333 356.499,345.762 C352.505,342.525 346.79,340.386 339.364,339.349 C331.937,338.298 325.046,339.297 318.667,342.343 C312.288,345.389 309.003,350.43 308.811,357.469 C301.96,357.469 297.104,359.18 294.253,362.613 C290.067,367.558 287.881,374.265 287.69,382.739 C287.499,391.205 288.207,400.441 289.825,410.427 C291.451,420.419 292.067,427.41 291.683,431.41 Z M172.062,100.506 C171.49,100.318 171.015,99.743 170.637,98.793 C170.637,97.084 171.491,96.413 173.205,96.796 C174.348,97.174 175.445,98.603 176.489,101.077 C177.536,103.551 177.774,106.407 177.204,109.643 C177.204,110.214 176.92,110.502 176.345,110.497 C174.249,110.497 173.489,108.595 174.061,104.789 C174.63,101.934 173.964,100.506 172.062,100.506 Z M246.008,105.077 L245.44,105.932 C243.92,106.882 243.165,107.073 243.165,106.504 C242.398,101.362 240.686,98.412 238.024,97.65 L236.881,97.08 C235.546,95.937 236.21,95.271 238.872,95.081 C239.443,94.89 240.299,95.174 241.442,95.936 C242.585,96.699 243.632,97.889 244.584,99.507 C245.532,101.127 246.008,102.98 246.008,105.077 Z" id="Shape"></path>
      <path d="M179.484,121.631 C179.484,122.774 179.963,123.25 180.915,123.061 C181.675,123.061 182.48,122.156 183.339,120.348 C184.196,118.544 185.673,117.545 187.764,117.352 L187.764,117.349 L184.908,117.349 C181.293,117.92 179.484,119.347 179.484,121.631 Z" id="Shape"></path>
      <path d="M204.326,118.208 C206.229,117.636 207.897,118.068 209.324,119.495 C210.749,120.92 211.846,121.541 212.608,121.348 C213.746,120.78 214.033,119.921 213.462,118.78 C211.94,116.305 208.896,116.115 204.326,118.208 Z" id="Shape"></path>
    </g>
  </g>
</svg>
