<svg width="50px" height="64px" viewBox="0 0 50 64" version="1.1" xmlns="http://www.w3.org/2000/svg" xmlns:xlink="http://www.w3.org/1999/xlink">
  <g id="Page-1" stroke="none" stroke-width="1" fill="none" fill-rule="evenodd">
    <g transform="translate(-25.000000, 0.000000)" fill-rule="nonzero" fill="#7F8FA4">
      <g id="Group" transform="translate(25.000000, 0.000000)">
        <path d="M40,0.61 L28.38,0.61 C26.170861,0.61 24.38,2.400861 24.38,4.61 C24.38,6.819139 26.170861,8.61 28.38,8.61 L40,8.61 C41.1045695,8.61 42,9.5054305 42,10.61 L42,53.39 C42,54.4945695 41.1045695,55.39 40,55.39 L28.38,55.39 C26.170861,55.39 24.38,57.180861 24.38,59.39 C24.38,61.599139 26.170861,63.39 28.38,63.39 L40,63.39 C42.6521649,63.39 45.195704,62.3364316 47.0710678,60.4610678 C48.9464316,58.585704 50,56.0421649 50,53.39 L50,10.61 C50,5.0871525 45.5228475,0.61 40,0.61 Z" id="Shape"></path>
        <path d="M4,36 L22.15,36 L15.62,43 C14.1177855,44.6209557 14.2140443,47.1527855 15.835,48.655 C17.4559557,50.1572145 19.9877855,50.0609557 21.49,48.44 L34.25,34.72 C34.32,34.64 34.37,34.56 34.44,34.47 C34.51,34.38 34.6,34.27 34.67,34.17 C34.7429284,34.0535872 34.8096872,33.9334214 34.87,33.81 C34.92,33.71 34.98,33.61 35.03,33.5 C35.0851,33.3561514 35.1318445,33.20924 35.17,33.06 C35.17,32.96 35.23,32.87 35.25,32.77 C35.3002302,32.5230778 35.3270159,32.2719617 35.33,32.02 L35.33,32.02 C35.3270159,31.7680383 35.3002302,31.5169222 35.25,31.27 C35.25,31.17 35.19,31.07 35.17,30.98 C35.1235855,30.8165518 35.0668038,30.656227 35,30.5 C35,30.39 34.9,30.29 34.84,30.19 C34.7796709,30.0665871 34.7129126,29.9464221 34.64,29.83 C34.57,29.72 34.49,29.63 34.41,29.53 C34.33,29.43 34.29,29.36 34.22,29.28 L21.49,15.52 C20.5110923,14.4732118 19.0480894,14.0281807 17.6520904,14.3525456 C16.2560914,14.6769104 15.1391817,15.7213925 14.7220904,17.0925456 C14.3049991,18.4636986 14.6510923,19.9532118 15.63,21 L22.16,28 L4,28 C1.790861,28 -3.55271368e-15,29.790861 -3.55271368e-15,32 C-3.55271368e-15,34.209139 1.790861,36 4,36 Z" id="Shape"></path>
      </g>
    </g>
  </g>
</svg>
