
<svg width="22px" height="82px" viewBox="0 0 22 82" version="1.1" xmlns="http://www.w3.org/2000/svg" xmlns:xlink="http://www.w3.org/1999/xlink">
  <g stroke="none" stroke-width="1" fill="none" fill-rule="evenodd">
    <g transform="translate(-39.000000, 0.000000)" fill-rule="nonzero" fill="#FFFFFF">
      <path d="M50,21.167 C55.707,21.167 60.334,16.541 60.334,10.834 C60.334,5.127 55.707,0.5 50,0.5 C44.293,0.5 39.666,5.126 39.666,10.833 C39.666,16.54 44.293,21.167 50,21.167 Z M50,30.5 C44.293,30.5 39.666,35.126 39.666,40.833 C39.666,46.54 44.293,51.167 50,51.167 C55.707,51.167 60.334,46.541 60.334,40.834 C60.334,35.127 55.707,30.5 50,30.5 Z M50,60.833 C44.293,60.833 39.666,65.459 39.666,71.166 C39.666,76.873 44.293,81.5 50,81.5 C55.707,81.5 60.334,76.874 60.334,71.167 C60.334,65.46 55.707,60.833 50,60.833 Z" id="Shape"></path>
    </g>
  </g>
</svg>
