
<svg width="512px" height="512px" viewBox="0 0 512 512" version="1.1" xmlns="http://www.w3.org/2000/svg" xmlns:xlink="http://www.w3.org/1999/xlink">
  <g id="Page-1" stroke="none" stroke-width="1" fill="none" fill-rule="evenodd">
    <g id="login" transform="translate(-1.000000, -1.000000)" fill-rule="nonzero" fill="#7F8FA4">
      <path d="M512.489,21.065 C510.128,9.518 499.662,1 487.881,1 L410.921,1 C406.493,1 402.904,4.588 402.904,9.017 C402.904,13.445 406.492,17.034 410.921,17.034 L487.881,17.034 C492.834,17.034 496.967,21.161 496.967,26.12 L496.967,86.512 L17.033,86.512 L17.033,26.119 C17.033,21.166 21.166,17.033 26.119,17.033 L368.165,17.033 C372.593,17.033 376.182,13.445 376.182,9.016 C376.182,4.588 372.594,0.999 368.165,0.999 L26.119,0.999 C12.429,1 1,12.423 1,26.119 L1,351.063 C1,355.491 4.589,359.08 9.017,359.08 C13.444,359.08 17.034,355.492 17.034,351.063 L17.034,102.545 L496.967,102.545 L496.967,487.881 C496.967,492.891 492.891,496.967 487.881,496.967 L26.119,496.967 C21.109,496.967 17.033,492.891 17.033,487.881 L17.033,393.818 C17.033,389.39 13.444,385.801 9.016,385.801 C4.589,385.801 0.999,389.389 0.999,393.818 L0.999,487.881 C1,501.732 12.268,513 26.119,513 L487.881,513 C501.732,513 513,501.732 513,487.881 L513,26.119 C513,24.422 512.829,22.721 512.489,21.065 Z" id="Shape"></path>
      <path d="M68.875,26.653 C55.024,26.653 43.756,37.921 43.756,51.772 C43.756,65.623 55.024,76.891 68.875,76.891 C82.726,76.891 93.994,65.623 93.994,51.772 C93.994,37.922 82.725,26.653 68.875,26.653 Z M68.875,60.858 C63.865,60.858 59.789,56.782 59.789,51.772 C59.789,46.762 63.865,42.686 68.875,42.686 C73.885,42.686 77.961,46.762 77.961,51.772 C77.96,56.782 73.885,60.858 68.875,60.858 Z" id="Shape"></path>
      <path d="M137.284,26.653 C123.433,26.653 112.165,37.921 112.165,51.772 C112.165,65.623 123.433,76.891 137.284,76.891 C151.135,76.891 162.403,65.623 162.403,51.772 C162.403,37.922 151.135,26.653 137.284,26.653 Z M137.284,60.858 C132.274,60.858 128.198,56.782 128.198,51.772 C128.198,46.762 132.274,42.686 137.284,42.686 C142.294,42.686 146.37,46.762 146.37,51.772 C146.37,56.782 142.294,60.858 137.284,60.858 Z" id="Shape"></path>
      <path d="M205.693,26.653 C191.842,26.653 180.574,37.921 180.574,51.772 C180.574,65.623 191.842,76.891 205.693,76.891 C219.544,76.891 230.812,65.623 230.812,51.772 C230.812,37.922 219.544,26.653 205.693,26.653 Z M205.693,60.858 C200.683,60.858 196.607,56.782 196.607,51.772 C196.607,46.762 200.683,42.686 205.693,42.686 C210.703,42.686 214.779,46.762 214.779,51.772 C214.779,56.782 210.703,60.858 205.693,60.858 Z" id="Shape"></path>
      <path d="M385.267,351.597 L137.284,351.597 C132.857,351.597 129.267,355.185 129.267,359.614 L129.267,393.819 C129.267,398.247 132.856,401.836 137.284,401.836 L385.267,401.836 C389.695,401.836 393.284,398.248 393.284,393.819 L393.284,359.614 C393.284,355.185 389.696,351.597 385.267,351.597 Z M377.251,385.802 L145.301,385.802 L145.301,367.63 L377.251,367.63 L377.251,385.802 Z" id="Shape"></path>
      <path d="M385.267,420.006 L137.284,420.006 C132.857,420.006 129.267,423.594 129.267,428.023 L129.267,462.228 C129.267,466.656 132.856,470.245 137.284,470.245 L385.267,470.245 C389.695,470.245 393.284,466.657 393.284,462.228 L393.284,428.023 C393.284,423.595 389.696,420.006 385.267,420.006 Z M377.251,454.211 L145.301,454.211 L145.301,436.04 L377.251,436.04 L377.251,454.211 Z" id="Shape"></path>
      <path d="M462.228,43.756 L445.126,43.756 C440.698,43.756 437.109,47.344 437.109,51.773 C437.109,56.201 440.697,59.79 445.126,59.79 L462.228,59.79 C466.656,59.79 470.245,56.202 470.245,51.773 C470.244,47.344 466.656,43.756 462.228,43.756 Z" id="Shape"></path>
      <path d="M419.472,43.756 L291.205,43.756 C286.777,43.756 283.188,47.344 283.188,51.773 C283.188,56.201 286.776,59.79 291.205,59.79 L419.472,59.79 C423.9,59.79 427.489,56.202 427.489,51.773 C427.489,47.344 423.9,43.756 419.472,43.756 Z" id="Shape"></path>
      <path d="M308.307,197.676 L307.773,197.676 L307.773,171.488 C307.773,148.207 288.832,129.267 265.552,129.267 L248.45,129.267 C225.169,129.267 206.229,148.208 206.229,171.488 L206.229,180.039 C206.229,184.467 209.818,188.056 214.246,188.056 C218.674,188.056 222.263,184.468 222.263,180.039 L222.263,171.488 C222.263,157.047 234.011,145.3 248.451,145.3 L265.553,145.3 C279.994,145.3 291.741,157.047 291.741,171.488 L291.741,197.676 L205.695,197.676 C191.844,197.676 180.576,208.944 180.576,222.795 L180.576,325.409 C180.576,329.837 184.165,333.426 188.593,333.426 L325.411,333.426 C329.839,333.426 333.428,329.838 333.428,325.409 L333.428,222.795 C333.426,208.945 322.158,197.676 308.307,197.676 Z M317.393,317.393 L196.608,317.393 L196.608,222.796 C196.608,217.786 200.684,213.71 205.694,213.71 L308.308,213.71 C313.318,213.71 317.394,217.786 317.394,222.796 L317.394,317.393 L317.393,317.393 Z" id="Shape"></path>
      <path d="M257,231.881 C243.149,231.881 231.881,243.149 231.881,257 C231.881,268.048 239.053,277.446 248.983,280.8 L248.983,299.756 C248.983,304.184 252.572,307.773 257,307.773 C261.428,307.773 265.017,304.185 265.017,299.756 L265.017,280.8 C274.947,277.446 282.119,268.048 282.119,257 C282.119,243.149 270.851,231.881 257,231.881 Z M257,266.086 C251.99,266.086 247.914,262.01 247.914,257 C247.914,251.99 251.99,247.914 257,247.914 C262.01,247.914 266.086,251.99 266.086,257 C266.086,262.01 262.01,266.086 257,266.086 Z" id="Shape"></path>
    </g>
  </g>
</svg>
