
<svg width="40px" height="40px" viewBox="0 0 40 40" version="1.1" xmlns="http://www.w3.org/2000/svg" xmlns:xlink="http://www.w3.org/1999/xlink">
  <g id="Page-1" stroke="none" stroke-width="1" fill="none" fill-rule="evenodd">
    <g transform="translate(-30.000000, 0.000000)" fill-rule="nonzero" fill="#FFFFFF">
      <g id="Group" transform="translate(30.000000, 0.000000)">
        <g id="Shape">
          <path d="M39.5,20 C39.5,30.7695526 30.7695526,39.5 20,39.5 C9.2304474,39.5 0.5,30.7695526 0.5,20 C0.5,9.2304474 9.2304474,0.5 20,0.5 C30.7695526,0.5 39.5,9.2304474 39.5,20 Z M5.5,20 C5.5,28.0081289 11.9918711,34.5 20,34.5 C28.0081289,34.5 34.5,28.0081289 34.5,20 C34.5,11.9918711 28.0081289,5.5 20,5.5 C11.9918711,5.5 5.5,11.9918711 5.5,20 Z M23.5355339,20 L27.767767,24.232233 C28.7440777,25.2085438 28.7440777,26.7914562 27.767767,27.767767 C26.7914562,28.7440777 25.2085438,28.7440777 24.232233,27.767767 L20,23.5355339 L15.767767,27.767767 C14.7914562,28.7440777 13.2085438,28.7440777 12.232233,27.767767 C11.2559223,26.7914562 11.2559223,25.2085438 12.232233,24.232233 L16.4644661,20 L12.232233,15.767767 C11.2559223,14.7914562 11.2559223,13.2085438 12.232233,12.232233 C13.2085438,11.2559223 14.7914562,11.2559223 15.767767,12.232233 L20,16.4644661 L24.232233,12.232233 C25.2085438,11.2559223 26.7914562,11.2559223 27.767767,12.232233 C28.7440777,13.2085438 28.7440777,14.7914562 27.767767,15.767767 L23.5355339,20 Z"></path>
        </g>
      </g>
    </g>
  </g>
</svg>
