
<svg width="15px" height="14px" viewBox="0 0 15 14" version="1.1" xmlns="http://www.w3.org/2000/svg" xmlns:xlink="http://www.w3.org/1999/xlink">
  <g id="Page-1" stroke="none" stroke-width="1" fill="none" fill-rule="evenodd">
    <g id="icon" fill-rule="nonzero" fill="#FFFFFF">
      <path d="M12.083,1.887 C11.288,1.093 10.353,0.528 9.356,0.19 L9.356,2.325 C9.836,2.564 10.291,2.875 10.69,3.275 C12.683,5.269 12.683,8.511 10.69,10.504 C8.697,12.494 5.457,12.494 3.461,10.504 C1.47,8.509 1.47,5.269 3.461,3.275 C3.466,3.269 3.482,3.259 3.489,3.25 L3.491,3.25 L4.672,4.429 L4.665,0.685 L0.923,0.68 L2.099,1.856 C2.092,1.868 2.081,1.88 2.072,1.887 C-0.691,4.649 -0.691,9.13 2.072,11.892 C4.839,14.657 9.317,14.657 12.083,11.892 C14.844,9.13 14.847,4.649 12.083,1.887 Z" id="Shape"></path>
    </g>
  </g>
</svg>
