<svg width="74px" height="74px" viewBox="0 0 74 74" version="1.1" xmlns="http://www.w3.org/2000/svg" xmlns:xlink="http://www.w3.org/1999/xlink">
    <g id="Page-1" stroke="none" stroke-width="1" fill="none" fill-rule="evenodd">
        <g transform="translate(-13.000000, -1.000000)" fill-rule="nonzero" fill="#D5D6E3">
            <g id="Group" transform="translate(12.000000, 0.637820)">
                <path d="M31.998153,0.36039 C14.912952,0.36039 0.998153,14.27506 0.998153,31.36039 C0.998153,48.4455 14.912853,62.3604 31.998153,62.3604 C39.464252,62.3604 46.327052,59.6845 51.685652,55.2666 L69.873152,73.4854 C71.044552,74.6568 72.951647,74.6569 74.123147,73.4854 C75.294747,72.3139 75.294747,70.4069 74.123147,69.2354 L55.904353,51.0479 C60.322253,45.6892 62.998153,38.8265 62.998153,31.36039 C62.998153,14.27505 49.083252,0.36039 31.998153,0.36039 Z M31.998153,6.36039 C45.840652,6.36039 56.998152,17.51773 56.998152,31.36039 C56.998152,45.2028 45.840552,56.3604 31.998152,56.3604 C18.155652,56.3604 6.998152,45.2028 6.998152,31.36039 C6.998152,17.51772 18.155552,6.36039 31.998152,6.36039 L31.998153,6.36039 Z" id="Shape"></path>
            </g>
        </g>
    </g>
</svg>
