<svg width="92px" height="72px" viewBox="0 0 92 72" version="1.1" xmlns="http://www.w3.org/2000/svg" xmlns:xlink="http://www.w3.org/1999/xlink">
    <g id="Page-1" stroke="none" stroke-width="1" fill="none" fill-rule="evenodd">
        <g transform="translate(-4.000000, 0.000000)" fill-rule="nonzero" fill="#FFFFFF">
            <path d="M87.83,0.83 L12.17,0.83 C7.751722,0.83 4.17,4.411722 4.17,8.83 L4.17,63.5 C4.17,67.918278 7.751722,71.5 12.17,71.5 L87.83,71.5 C92.248278,71.5 95.83,67.918278 95.83,63.5 L95.83,8.83 C95.83,4.411722 92.248278,0.83 87.83,0.83 Z M91.83,63.5 C91.83,65.709139 90.039139,67.5 87.83,67.5 L12.17,67.5 C9.960861,67.5 8.17,65.709139 8.17,63.5 L8.17,8.83 C8.17,6.620861 9.960861,4.83 12.17,4.83 L87.83,4.83 C90.039139,4.83 91.83,6.620861 91.83,8.83 L91.83,63.5 Z M31.83,23.17 C32.2055541,23.5451365 32.4165733,24.0541815 32.4165733,24.585 C32.4165733,25.1158185 32.2055541,25.6248635 31.83,26 L23,34.83 C22.2185171,35.6114829 20.9514829,35.6114829 20.17,34.83 C19.3885171,34.0485171 19.3885171,32.7814829 20.17,32 L27.59,24.58 L20.09,17.08 C19.3085171,16.2985171 19.3085171,15.0314829 20.09,14.25 C20.8714829,13.4685171 22.1385171,13.4685171 22.92,14.25 L31.83,23.17 Z M53,33.42 C53,34.5245695 52.1045695,35.42 51,35.42 L36.5,35.42 C35.3954305,35.42 34.5,34.5245695 34.5,33.42 C34.5,32.3154305 35.3954305,31.42 36.5,31.42 L51,31.42 C52.1045695,31.42 53,32.3154305 53,33.42 Z" id="Shape"></path>
        </g>
    </g>
</svg>
