
<svg width="456px" height="456px" viewBox="0 0 456 456" version="1.1" xmlns="http://www.w3.org/2000/svg" xmlns:xlink="http://www.w3.org/1999/xlink">
  <g id="Page-1" stroke="none" stroke-width="1" fill="none" fill-rule="evenodd">
    <g id="arrow-right-circle" fill-rule="nonzero" fill="#FFFFFF">
      <path d="M227.996,0 C102.081,0 0,102.081 0,227.996 C0,353.941 102.081,455.992 227.996,455.992 C353.941,455.992 455.992,353.941 455.992,227.996 C455.992,102.081 353.941,0 227.996,0 Z M299.435,238.788 L200.85,337.373 C194.922,343.27 185.285,343.27 179.358,337.373 C173.43,331.445 173.43,321.778 179.358,315.881 L267.243,227.996 L179.358,140.111 C173.43,134.183 173.43,124.546 179.358,118.619 C185.286,112.692 194.923,112.691 200.85,118.619 L299.435,217.204 C302.475,220.183 303.904,224.105 303.873,227.996 C303.873,231.918 302.414,235.809 299.435,238.788 Z" id="Shape"></path>
    </g>
  </g>
</svg>
