
<svg width="509px" height="509px" viewBox="0 0 509 509" version="1.1" xmlns="http://www.w3.org/2000/svg" xmlns:xlink="http://www.w3.org/1999/xlink">
  <g id="Page-1" stroke="none" stroke-width="1" fill="none" fill-rule="evenodd">
    <g id="stop-button" fill-rule="nonzero" fill="#FFFFFF">
      <path d="M254.26,0 C113.845,0 0,113.845 0,254.26 C0,394.675 113.845,508.52 254.26,508.52 C394.675,508.52 508.52,394.675 508.52,254.26 C508.52,113.845 394.675,0 254.26,0 Z M254.26,476.737 C131.58,476.737 31.783,376.908 31.783,254.26 C31.783,131.58 131.58,31.783 254.26,31.783 C376.909,31.783 476.737,131.58 476.737,254.26 C476.737,376.908 376.908,476.737 254.26,476.737 Z" id="Shape"></path>
      <path d="M317.825,158.912 L190.695,158.912 C173.151,158.912 158.913,173.151 158.913,190.694 L158.913,317.824 C158.913,335.368 173.152,349.607 190.695,349.607 L317.825,349.607 C335.369,349.607 349.608,335.368 349.608,317.824 L349.608,190.694 C349.607,173.151 335.369,158.912 317.825,158.912 Z" id="Shape"></path>
    </g>
  </g>
</svg>
