<svg width="76px" height="100px" viewBox="0 0 76 100" version="1.1" xmlns="http://www.w3.org/2000/svg" xmlns:xlink="http://www.w3.org/1999/xlink">
  <g stroke="none" stroke-width="1" fill="none" fill-rule="evenodd">
    <g transform="translate(-12.000000, 0.000000)" fill-rule="nonzero" fill="#FFFFFF">
      <path d="M83.273,24.174 L82.921,24.174 C80.352,24.174 78.271,26.236 78.271,28.804 L76.603,49.676 C75.326,48.887 73.552,48.195 73.552,47.6 L73.552,15.004 C73.552,12.439 72.055,10.4 69.49,10.4 L69.137,10.4 C66.571,10.4 64.488,12.459 64.488,15.027 L62.825,45.168 C61.479,44.984 63.22,44.83 59.776,44.736 L59.776,5.357 C59.776,2.787 58.274,0.068 55.709,0.068 L55.358,0.068 C52.788,0.068 50.71,2.47 50.71,5.036 L49.043,44.575 C47.632,44.669 46.002,44.972 46.002,45.157 L46.002,10.868 C46.002,8.302 44.493,3.512 41.925,3.512 L41.575,3.512 C39.008,3.512 36.926,6.945 36.926,9.514 C36.926,9.514 35.441,58.575 33.677,59.933 C33.145,60.338 32.603,60.981 32.057,61.224 L21.782,41.933 C20.941,39.504 18.289,38.309 15.866,39.149 L15.532,39.306 C13.109,40.146 11.827,42.819 12.668,45.244 L23.726,74.109 C26.585,88.813 39.735,99.931 55.533,99.931 C72.97,99.931 86.883,86.399 87.59,69.434 C87.6,69.329 87.328,28.785 87.328,28.785 C87.328,26.217 85.841,24.174 83.273,24.174 Z" id="Shape"></path>
    </g>
  </g>
</svg>
