<svg width="20px" height="16px" viewBox="0 0 20 16" version="1.1" xmlns="http://www.w3.org/2000/svg" xmlns:xlink="http://www.w3.org/1999/xlink">
  <g id="Page-1" stroke="none" stroke-width="1" fill="none" fill-rule="evenodd">
    <g id="noun_1096891_cc" fill-rule="nonzero" fill="#FFFFFF">
      <g id="Group">
        <path d="M19.7,5.3 C19.3,4.9 18.7,4.9 18.3,5.3 L17,6.6 L17,4 C17,1.8 15.2,0 13,0 L7,0 C6.4,0 6,0.5 6,1 C6,1.5 6.4,2 7,2 L13,2 C14.1,2 15,2.9 15,4 L15,6.6 L13.7,5.3 C13.3,4.9 12.7,4.9 12.3,5.3 C11.9,5.7 11.9,6.3 12.3,6.7 L15.3,9.7 C15.8,10.2 16.5,10 16.7,9.7 L19.7,6.7 C20.1,6.3 20.1,5.7 19.7,5.3 Z" id="Shape"></path>
        <path d="M13,14 L7,14 C5.9,14 5,13.1 5,12 L5,9.4 L6.3,10.7 C6.5,10.9 7.1,11.3 7.7,10.7 C8.1,10.3 8.1,9.7 7.7,9.3 L4.7,6.3 C4.3,5.9 3.7,5.9 3.3,6.3 L0.3,9.3 C-0.1,9.7 -0.1,10.3 0.3,10.7 C0.7,11.1 1.3,11.1 1.7,10.7 L3,9.4 L3,12 C3,14.2 4.8,16 7,16 L13,16 C13.6,16 14,15.6 14,15 C14,14.4 13.6,14 13,14 Z" id="Shape"></path>
      </g>
    </g>
  </g>
</svg>
