
<svg width="99px" height="90px" viewBox="0 0 99 90" version="1.1" xmlns="http://www.w3.org/2000/svg" xmlns:xlink="http://www.w3.org/1999/xlink">
  <g id="Page-1" stroke="none" stroke-width="1" fill="none" fill-rule="evenodd">
    <g fill-rule="nonzero" fill="#7F8FA4">
      <g id="Group">
        <circle id="Oval" cx="50.3" cy="7.8" r="7.7"></circle>
        <path d="M40.7,36.1 C43.7,37.1 46.9,37.6 50.3,37.6 C53.7,37.6 56.9,37.1 59.9,36.1 C61.5,35.6 62.6,34.2 62.6,32.5 L63.2,19.7 C63.4,17.7 61.8,16 59.9,16 L56.4,16 C55.8,16 55.3,16.4 55.1,17 L51.7,32 L51.2,19.7 C51.7,19.5 52.1,19.1 52.1,18.5 L52.1,17.9 C52.1,17.2 51.5,16.6 50.8,16.6 L49.6,16.6 C48.9,16.6 48.3,17.2 48.3,17.9 L48.3,18.5 C48.3,19.1 48.7,19.5 49.2,19.7 L48.7,32 L45.3,17 C45.2,16.4 44.6,16 44,16 L40.5,16 C38.5,16 37,17.7 37.2,19.7 L37.8,32.5 C38,34.2 39.1,35.6 40.7,36.1 Z" id="Shape"></path>
        <circle id="Oval" cx="14" cy="60" r="7.7"></circle>
        <path d="M23.6,68.3 L20.1,68.3 C19.5,68.3 19,68.7 18.8,69.3 L15.4,84.3 L14.9,72 C15.4,71.8 15.8,71.4 15.8,70.8 L15.8,70.2 C15.8,69.5 15.2,68.9 14.5,68.9 L13.3,68.9 C12.6,68.9 12,69.5 12,70.2 L12,70.8 C12,71.4 12.4,71.8 12.9,72 L12.4,84.3 L9,69.3 C8.9,68.7 8.3,68.3 7.7,68.3 L4.2,68.3 C2.2,68.3 0.7,70 0.9,72 L1.5,84.8 C1.6,86.5 2.7,87.9 4.2,88.4 C7.2,89.4 10.4,89.9 13.8,89.9 C17.2,89.9 20.4,89.4 23.4,88.4 C25,87.9 26.1,86.5 26.1,84.8 L26.7,72 C27.1,70.1 25.6,68.3 23.6,68.3 Z" id="Shape"></path>
        <circle id="Oval" cx="86" cy="60" r="7.7"></circle>
        <path d="M95.6,68.3 L92.1,68.3 C91.5,68.3 91,68.7 90.8,69.3 L87.4,84.3 L86.9,72 C87.4,71.8 87.8,71.4 87.8,70.8 L87.8,70.2 C87.8,69.5 87.2,68.9 86.5,68.9 L85.3,68.9 C84.6,68.9 84,69.5 84,70.2 L84,70.8 C84,71.4 84.4,71.8 84.9,72 L84.4,84.3 L81,69.3 C80.9,68.7 80.3,68.3 79.7,68.3 L76.2,68.3 C74.2,68.3 72.7,70 72.9,72 L73.5,84.8 C73.6,86.5 74.7,87.9 76.2,88.4 C79.2,89.4 82.4,89.9 85.8,89.9 C89.2,89.9 92.4,89.4 95.4,88.4 C97,87.9 98.1,86.5 98.1,84.8 L98.7,72 C99.2,70.1 97.6,68.3 95.6,68.3 Z" id="Shape"></path>
        <path d="M67,68.9 L52.9,60.8 L52.9,44.5 C52.9,43.1 51.7,41.9 50.3,41.9 C48.9,41.9 47.7,43.1 47.7,44.5 L47.7,60.8 L33.6,68.9 C32.4,69.6 31.9,71.2 32.6,72.5 C33.1,73.3 34,73.8 34.9,73.8 C35.3,73.8 35.8,73.7 36.2,73.4 L50.3,65.3 L64.4,73.4 C64.8,73.6 65.3,73.8 65.7,73.8 C66.6,73.8 67.5,73.3 68,72.5 C68.7,71.2 68.3,69.6 67,68.9 Z" id="Shape"></path>
      </g>
    </g>
  </g>
</svg>
