<svg width="66px" height="86px" viewBox="0 0 66 86" version="1.1" xmlns="http://www.w3.org/2000/svg" xmlns:xlink="http://www.w3.org/1999/xlink">
  <g id="Page-1" stroke="none" stroke-width="1" fill="none" fill-rule="evenodd">
    <g transform="translate(-17.000000, -1.000000)" fill-rule="nonzero" fill="#FFFFFF">
      <g id="Group" transform="translate(17.000000, 0.637820)">
        <path d="M33,0.36218 C20.275297,0.36218 10,10.63748 10,23.36218 L10,50.36218 L5,50.36218 C2.247299,50.36218 0,52.60948 0,55.36218 L0,81.36218 C0,84.11488 2.247299,86.36218 5,86.36218 L61,86.36218 C63.752701,86.36218 66,84.11488 66,81.36218 L66,55.36218 C66,52.60948 63.752701,50.36218 61,50.36218 L17,50.36218 C16.6393641,50.3570797 16.3039186,50.5465553 16.1221123,50.8580528 C15.9403059,51.1695504 15.9403059,51.5548096 16.1221123,51.8663072 C16.3039186,52.1778047 16.6393641,52.3672803 17,52.36218 L61,52.36218 C62.679295,52.36218 64,53.68288 64,55.36218 L64,81.36218 C64,83.04148 62.679295,84.36218 61,84.36218 L5,84.36218 C3.320705,84.36218 2,83.04148 2,81.36218 L2,55.36218 C2,53.68288 3.320705,52.36218 5,52.36218 L11,52.36218 C11.5522619,52.3621248 11.9999448,51.9144419 12,51.36218 L12,23.36218 C12,11.71088 21.348703,2.36218 33,2.36218 C44.651297,2.36218 54,11.71088 54,23.36218 C53.9948997,23.7228159 54.1843753,24.0582614 54.4958728,24.2400677 C54.8073704,24.4218741 55.1926296,24.4218741 55.5041272,24.2400677 C55.8156247,24.0582614 56.0051003,23.7228159 56,23.36218 C56,10.63748 45.724703,0.36218 33,0.36218 Z M33,60.36218 C28.593566,60.36218 25,63.95568 25,68.36218 C25,72.76858 28.593566,76.36218 33,76.36218 C37.406434,76.36218 41,72.76858 41,68.36218 C41,63.95568 37.406434,60.36218 33,60.36218 Z M33,62.36218 C36.325554,62.36218 39,65.03658 39,68.36218 C39,71.68768 36.325554,74.36218 33,74.36218 C29.674446,74.36218 27,71.68768 27,68.36218 C27,65.03658 29.674446,62.36218 33,62.36218 Z" id="Shape"></path>
      </g>
    </g>
  </g>
</svg>
