
<svg width="239px" height="266px" viewBox="0 0 239 266" version="1.1" xmlns="http://www.w3.org/2000/svg" xmlns:xlink="http://www.w3.org/1999/xlink">
    <!-- Generator: Sketch 50.2 (55047) - http://www.bohemiancoding.com/sketch -->
    <desc>Created with Sketch.</desc>
    <defs>
        <path d="M124,144.610951 L124,163 L128,163 C167.764502,163 200,195.235498 200,235 L200,244 L0,244 L0,235 C-4.86974701e-15,195.235498 32.235498,163 72,163 L76,163 L76,144.610951 C58.7626345,136.422372 46.3722246,119.687011 44.3051388,99.8812385 C38.4803105,99.0577866 34,94.0521096 34,88 L34,74 C34,68.0540074 38.3245733,63.1180731 44,62.1659169 L44,56 C44,25.072054 69.072054,5.68137151e-15 100,0 C130.927946,-5.68137151e-15 156,25.072054 156,56 L156,62.1659169 C161.675427,63.1180731 166,68.0540074 166,74 L166,88 C166,94.0521096 161.51969,99.0577866 155.694861,99.8812385 C153.627775,119.687011 141.237365,136.422372 124,144.610951 Z" id="path-1"></path>
        <path d="M165.960472,29.2949161 C202.936473,32.3249982 232,63.2942856 232,101.051724 L232,110 L32,110 L32,101.051724 C32,62.9525631 61.591985,31.7649812 99.0454063,29.2195264 C99.0152598,29.5931145 99,29.9692272 99,30.3476251 C99,42.2107177 113.998461,51.8276544 132.5,51.8276544 C151.001539,51.8276544 166,42.2107177 166,30.3476251 C166,29.9946691 165.986723,29.6437014 165.960472,29.2949161 Z" id="path-3"></path>
        <rect id="path-5" x="0" y="0" width="264" height="280"></rect>
        <path d="M85.718098,185.073467 C86.3887166,188.510775 86.8096981,192.003861 86.5299011,195.413459 C86.1200644,200.404213 85.1851583,205.067237 85.6835937,210.116466 C86.7201436,220.618354 91.0924599,230.599863 94.7010885,240.623528 C96.435013,245.438857 104.057505,251.106306 100.930715,255.083614 C97.8039252,259.060923 87.115848,249.613685 84.725315,245.034067 C82.2918416,240.371497 80.078506,235.625521 77.5455629,230.999667 C79.1724081,238.077382 79.9846038,241.070655 81.6679782,248.139757 C82.5468986,251.830921 86.9474795,260.885627 80.0666799,262.354749 C71.124195,264.264472 70.7774101,249.766172 69.8925107,245.444931 C68.4211208,238.262053 66.7870774,235.472308 64.3834993,228.474826 C63.9046317,233.818695 64.7346326,239.386945 63.5785017,244.677325 C62.8816706,247.867147 59.2224919,250.505765 57.0243756,253.211017 C49.4918595,262.485842 47.6992316,246.926565 45.7886533,242.659719 C42.4838692,245.061265 35.2888976,249.820386 30.8812505,246.798736 C27.6264731,244.567629 29.6941373,240.525616 30.4502154,237.765516 C31.668311,233.320073 32.3923196,228.923586 29.1359115,224.896532 C26.0490909,227.900051 19.2177543,229.649308 15.258536,226.778604 C10.2513533,223.149088 14.6426939,217.842389 16.8870119,214.076432 C20.5407551,207.947459 20.7005588,201.806248 21.5686081,195.131511 C21.691994,194.184582 21.8735397,193.288422 21.996382,192.265793 C22.3024007,189.72146 23.6232272,184.435613 22.6269,182.014575 C21.5278419,179.343321 20.328227,179.316576 17.8920358,179.924895 C14.443211,180.786605 11.6020751,182.715366 11.0188459,185.502664 C10.1763434,189.527451 14.5872518,191.114429 14.9476254,194.622463 C15.7238148,202.173415 6.24484612,198.627758 3.42490864,195.240301 C-0.684329469,190.304395 -0.815325022,184.841763 1.54639979,179.227278 C2.81124068,176.221946 4.80389503,173.548878 6.77100254,170.849066 C9.32731826,167.341033 10.0942673,166.919017 9.65073052,163.202016 C8.88486854,156.786109 7.14822625,151.019317 7.77222166,144.475128 C8.40763163,137.818976 10.4144183,131.887186 13.4023127,125.704271 C15.6553275,121.042608 19.8145722,116.686464 21.5539323,111.946834 C23.0198867,107.95151 22.6997357,103.444873 23.4503783,99.3303337 C24.4238764,93.9946236 26.0170215,88.7645307 26.9622549,83.4183949 C28.8027153,73.0171372 33.1206766,63.0274694 37.9642508,53.3460408 C40.5678554,48.1435988 42.992632,42.8881215 46.5441878,38.0655389 C48.3677981,35.5901066 50.3582782,33.0471337 52.7922952,30.954734 C55.0219374,29.0377585 59.0317058,28.154744 60.95696,26.3007763 C64.5237352,22.8666297 61.397779,16.8074642 65.9103313,12.9118655 C68.7020041,10.5017074 71.6083661,9.9681817 75.2887432,9.38026087 C78.8865008,8.80593884 77.6972133,9.66084915 80.1584078,7.07481345 C82.5435053,4.56991717 84.3524397,1.30167574 88.4018873,0.357013447 C93.5645254,-0.846479064 97.6906135,2.53871192 102.06293,4.16059373 C108.488235,6.54355423 112.508874,5.8486563 118.817859,3.85507435 C123.056462,2.51559399 125.824219,1.61762086 129.78996,3.93032097 C132.352254,5.42437419 134.324254,9.87616325 137.446405,10.3027118 C141.249081,10.823092 146.585112,7.26247669 150.804147,7.39438491 C157.252824,7.59700681 160.386934,11.6367527 163.055221,15.951194 C164.553244,18.373591 165.399552,17.9706136 167.213378,19.672275 C168.829352,21.1885396 169.557166,23.1372455 171.278589,24.7101717 C177.590835,30.4783232 185.862036,34.9554966 192.648801,40.3918378 C205.315147,50.5387982 208.309564,64.2703984 209.129238,78.2191259 C209.78639,89.3991407 208.763972,102.531035 215.871976,112.532035 C219.523001,117.668749 223.561578,121.532617 225.582497,127.51291 C226.321725,129.699141 227.944765,133.306899 226.413041,135.494944 C224.604107,138.079166 220.053506,138.105004 218.096726,135.636824 C216.20028,141.510593 222.669068,149.991702 226.135287,154.862787 C230.969077,161.653567 237.232404,168.863643 238.377664,176.915484 C238.833159,180.113465 239.08591,193.151981 230.835907,188.347077 C230.56685,192.711833 229.869476,193.331485 231.17617,197.553001 C232.061613,200.411919 233.255792,206.168285 227.311529,205.648358 C229.568892,211.82266 233.19274,220.412559 229.795009,226.807615 C224.207315,237.325369 217.902135,224.075166 216.224196,219.322843 C216.32584,222.602417 212.799287,228.512903 208.385661,223.95323 C208.733533,229.366 210.898493,237.730613 207.724704,242.806586 C201.565196,252.659813 194.748535,240.185647 194.5197,234.910224 C193.409228,238.475373 194.245208,247.046687 186.927937,245.060811 C180.603189,243.344644 182.888817,234.970512 184.111805,231.19141 C182.101213,234.747946 179.630235,240.043766 179.240509,244.059941 C178.905139,247.513126 182.182202,255.630241 173.685972,254.109896 C167.166089,252.943574 166.932906,243.218176 167.044334,238.930932 C167.135107,235.453723 170.498594,227.504326 168.22112,224.674872 C155.493353,230.015568 168.828809,247.982737 157.268587,251.977153 C153.73062,253.199684 150.944383,251.382887 149.488756,248.789145 C149.308297,248.305028 149.128382,247.821818 148.948467,247.337701 C149.350151,245.644199 148.591355,244.77569 146.671536,244.732627 C145.455615,243.254893 144.65714,243.298862 143.870623,241.081807 C141.557817,234.561189 146.062216,225.891963 149.2996,220.076669 C145.947527,223.133676 143.247171,227.332528 139.609734,229.99245 C137.149083,231.79157 133.524148,232.304244 131.224932,229.817026 C128.707208,227.093643 131.086326,224.482676 132.444114,221.999991 C135.443967,216.514694 140.170678,213.319433 145.111547,208.917959 C149.430596,205.07041 153.280561,200.738743 157.112045,196.551224 C159.66929,193.757151 162.113115,190.752042 164.1633,187.578199 C158.061736,185.89767 151.635699,185 145,185 L141,185 L141,166.610951 C152.097197,161.339247 161.185514,152.525228 166.803718,141.630125 C167.218859,128.656014 168.700138,107.043152 167.747424,95.0917937 C166.476604,79.1499376 166.355804,70.2471725 155.554378,56.4493915 C146.671683,45.1030183 122.400941,48.8499369 113.317676,38.4387068 C109.194306,43.2191332 103.17612,45.7598396 96.5828586,47.4293172 C90.0678681,49.0779432 83.5224388,49.3467459 79.1631677,53.9925443 C71.3610508,62.3068417 67.9263583,67.8722634 65.5369124,78.2476834 C62.8887367,89.7481762 62.1957105,101.145772 63.000708,112.826222 C63.6113966,121.686985 63.4467803,131.013632 66.2110974,139.621749 C71.7176526,151.441235 81.2286384,161.018987 93,166.610951 L93,185 L89,185 C87.900098,185 86.8059563,185.024663 85.718098,185.073467 Z" id="path-7"></path>
    </defs>
    <g id="Changelog" stroke="none" stroke-width="1" fill="none" fill-rule="evenodd">
        <g transform="translate(-256.000000, -2093.000000)" id="Avataaar/Default">
            <g transform="translate(241.000000, 2079.000000)">
                <g id="Body" stroke-width="1" fill-rule="evenodd" transform="translate(32.000000, 36.000000)">
                    <mask id="mask-2" fill="white">
                        <use xlink:href="#path-1"></use>
                    </mask>
                    <use fill="#D0C6AC" xlink:href="#path-1"></use>
                    <g id="Skin/ðŸ‘¶ðŸ½-03-Brown" mask="url(#mask-2)" fill="#D08B5B">
                        <g transform="translate(-32.000000, 0.000000)" id="Color">
                            <rect x="0" y="0" width="264" height="244"></rect>
                        </g>
                    </g>
                    <path d="M156,94 L156,102 C156,132.927946 130.927946,158 100,158 C69.072054,158 44,132.927946 44,102 L44,94 C44,124.927946 69.072054,150 100,150 C130.927946,150 156,124.927946 156,94 Z" id="Neck-Shadow" fill-opacity="0.100000001" fill="#000000" mask="url(#mask-2)"></path>
                </g>
                <g id="Clothing/Shirt-Crew-Neck" transform="translate(0.000000, 170.000000)">
                    <mask id="mask-4" fill="white">
                        <use xlink:href="#path-3"></use>
                    </mask>
                    <use id="Clothes" fill="#E6E6E6" fill-rule="evenodd" xlink:href="#path-3"></use>
                    <g id="Color/Palette/Gray-01" mask="url(#mask-4)" fill="#E6E6E6" fill-rule="evenodd">
                        <rect id="ðŸ–Color" x="0" y="0" width="264" height="110"></rect>
                    </g>
                    <g id="Shadowy" opacity="0.599999964" stroke-width="1" fill-rule="evenodd" mask="url(#mask-4)" fill="#000000" fill-opacity="0.16">
                        <g transform="translate(92.000000, 4.000000)" id="Hola-ðŸ‘‹ðŸ¼">
                            <ellipse cx="40.5" cy="27.8476251" rx="39.6351047" ry="26.9138272"></ellipse>
                        </g>
                    </g>
                </g>
                <g id="Face" stroke-width="1" fill-rule="evenodd" transform="translate(76.000000, 82.000000)" fill="#000000">
                    <g id="Mouth/Default" transform="translate(2.000000, 52.000000)" fill-opacity="0.699999988">
                        <path d="M40,15 C40,22.7319865 46.2680135,29 54,29 C61.7319865,29 68,22.7319865 68,15" id="Mouth"></path>
                    </g>
                    <g id="Nose/Default" transform="translate(28.000000, 40.000000)" fill-opacity="0.16">
                        <path d="M16,8 C16,12.418278 21.372583,16 28,16 C34.627417,16 40,12.418278 40,8" id="Nose"></path>
                    </g>
                    <g id="Eyes/Default-ðŸ˜€" transform="translate(0.000000, 8.000000)" fill-opacity="0.599999964">
                        <circle id="Eye" cx="30" cy="22" r="6"></circle>
                        <circle id="Eye" cx="82" cy="22" r="6"></circle>
                    </g>
                    <g id="Eyebrow/Outline/Default" fill-opacity="0.599999964">
                        <g id="I-Browse" transform="translate(12.000000, 6.000000)">
                            <path d="M3.63024536,11.1585767 C7.54515501,5.64986673 18.2779197,2.56083721 27.5230268,4.83118046 C28.5957248,5.0946055 29.6788665,4.43856013 29.9422916,3.36586212 C30.2057166,2.2931641 29.5496712,1.21002236 28.4769732,0.94659732 C17.7403633,-1.69001789 5.31209962,1.88699832 0.369754639,8.84142326 C-0.270109626,9.74178291 -0.0589363917,10.9903811 0.84142326,11.6302454 C1.74178291,12.2701096 2.9903811,12.0589364 3.63024536,11.1585767 Z" id="Eyebrow" fill-rule="nonzero"></path>
                            <path d="M61.6302454,11.1585767 C65.545155,5.64986673 76.2779197,2.56083721 85.5230268,4.83118046 C86.5957248,5.0946055 87.6788665,4.43856013 87.9422916,3.36586212 C88.2057166,2.2931641 87.5496712,1.21002236 86.4769732,0.94659732 C75.7403633,-1.69001789 63.3120996,1.88699832 58.3697546,8.84142326 C57.7298904,9.74178291 57.9410636,10.9903811 58.8414233,11.6302454 C59.7417829,12.2701096 60.9903811,12.0589364 61.6302454,11.1585767 Z" id="Eyebrow" fill-rule="nonzero" transform="translate(73.000154, 6.039198) scale(-1, 1) translate(-73.000154, -6.039198) "></path>
                        </g>
                    </g>
                </g>
                <g id="Top" stroke-width="1" fill-rule="evenodd">
                    <mask id="mask-6" fill="white">
                        <use xlink:href="#path-5"></use>
                    </mask>
                    <g id="Mask"></g>
                    <g id="Top/Long-Hair/Dreads" mask="url(#mask-6)">
                        <g transform="translate(-1.000000, 0.000000)">
                            <g id="template-for-hairstyles" transform="translate(63.000000, 87.000000)"></g>
                            <g id="Hair" transform="translate(16.000000, 14.000000)">
                                <mask id="mask-8" fill="white">
                                    <use xlink:href="#path-7"></use>
                                </mask>
                                <use id="No-Woman" fill="#8D5A5A" xlink:href="#path-7"></use>
                                <g id="Color/Hair/Black" mask="url(#mask-8)" fill="#2C1B18">
                                    <g transform="translate(-15.000000, -14.000000)" id="Color">
                                        <rect x="0" y="0" width="264" height="280"></rect>
                                    </g>
                                </g>
                                <path d="M85.718098,185.073467 C85.3569126,183.222183 84.9233139,181.387079 84.4877837,179.589912 C81.4183567,166.92083 73.916823,156.341882 68.1617154,144.509125 C67.3851037,142.912325 66.7437304,141.280375 66.2110974,139.621749 C71.7176526,151.441235 81.2286384,161.018987 93,166.610951 L93,185 L89,185 C87.900098,185 86.8059563,185.024663 85.718098,185.073467 Z M164.1633,187.578199 C158.061736,185.89767 151.635699,185 145,185 L141,185 L141,166.610951 C151.900717,161.432585 160.863061,152.836228 166.502046,142.206866 C166.424719,145.200638 166.492065,148.178617 166.874747,151.055581 C167.944997,159.099715 170.876362,166.366 169.515856,174.635875 C168.770949,179.167686 166.790265,183.511457 164.1633,187.578199 Z" id="Shadows" fill-opacity="0.24" fill="#000000" mask="url(#mask-8)"></path>
                                <path d="M49.3607552,108.248307 C49.2357387,105.826133 47.3806025,97.711311 49.6885159,96.3093564 C52.2181977,94.7715832 51.6909542,104.01582 51.7170446,104.962941 C51.7605286,106.500263 52.928074,118.098087 50.7897482,118.046647 C48.6579451,117.995659 49.4428313,109.828495 49.3607552,108.248307 Z M57.7950752,165.998415 C57.7863784,167.012316 56.722651,166.95095 55.9633116,166.68563 C55.0256879,166.358041 55.5996767,164.201639 55.5502136,163.49457 C55.4197616,161.635525 54.5272525,156.156756 55.8904759,154.62169 C58.6158357,151.553363 57.8059462,164.569838 57.7950752,165.998415 Z M32.1210881,179.161492 C34.0501471,179.106894 32.2645853,141.329473 29.29952,141.371437 C27.2171799,141.400766 30.6611128,179.198041 32.1210881,179.161492 Z M34.3531219,198.516092 C31.9555228,198.516092 32.3963419,206.978357 33.8084848,207.654742 C35.9484412,208.679924 37.0349977,198.516092 34.3531219,198.516092 Z M49.5898072,202.054956 C49.6110057,203.112626 48.4113908,203.129321 47.6107416,202.798574 C46.701926,202.423155 47.082411,199.293461 47.0465367,198.598576 C46.9334783,196.41149 45.0299661,187.926664 46.7611729,186.367683 C48.7353466,184.59031 48.7782871,186.540953 49.3093354,187.8662 C50.8731288,191.768841 49.505557,197.898275 49.5898072,202.054956 Z M190.242397,122.33319 C190.352194,123.795609 191.311016,133.35074 189.717871,134.079016 C186.975661,135.332969 188.156795,129.428696 188.167666,128.666127 C188.274745,121.229044 187.19906,113.85423 186.381017,106.456855 C186.225562,105.052193 183.755671,94.2318284 185.564605,93.3352452 C188.272028,91.9937546 187.86817,95.5809897 188.023082,96.7451491 C189.152035,105.213731 189.651014,113.824449 190.242397,122.33319 Z M187.023004,155.587221 C184.490605,155.085459 183.16543,163.680835 184.321017,164.602687 C186.238118,166.132789 189.670093,156.113348 187.023004,155.587221 Z M186.754925,193.385172 C185.616188,193.158658 177.321615,209.117567 178.004314,210.020016 C179.303942,211.738731 190.833725,194.199633 186.754925,193.385172 Z M166.332555,200.758587 C164.551342,199.95631 156.998715,211.509915 158.926686,212.377619 C160.674743,213.163653 168.488275,201.725562 166.332555,200.758587 Z M208.425286,157.447168 C206.274459,157.447168 206.370123,169.269251 208.025233,170.015125 C209.736329,170.785817 210.967469,157.447168 208.425286,157.447168 Z M178.139603,48.8435128 C177.531371,47.9735519 170.964743,40.2233192 175.668081,41.3306242 C177.959145,41.8698375 181.116083,48.6833281 182.149372,50.7413632 C182.743472,51.9235715 186.133593,57.2006425 182.541271,56.8270286 C181.563968,56.7259543 178.951667,50.0063184 178.139603,48.8435128 Z M155.04775,33.3564939 C154.201443,33.7373274 154.215575,34.0946972 155.090147,34.4281522 C155.936998,34.0473186 155.922322,33.6904 155.04775,33.3564939 Z M70.6188876,41.486432 C68.6137316,43.3296843 61.07578,54.0047545 58.4928303,54.1116947 C53.7862308,54.3066237 62.7711125,45.0867526 63.7902688,43.9135688 C64.2452201,43.387441 66.275923,40.8222295 67.5119557,40.1914176 C68.7729918,39.5475202 72.9556091,39.3322861 70.6188876,41.486432 Z M43.2540252,69.9805849 C41.0711283,69.5519216 37.4190158,80.245492 38.693097,81.5359942 C40.6167205,83.4857354 45.7005438,70.4661025 43.2540252,69.9805849 Z M68.1928608,188.992366 C68.6054153,190.333405 72.8244505,200.071733 71.7639844,201.353211 C70.1425747,203.310623 69.6772959,200.536495 69.1467911,199.385872 C67.9689182,196.830588 64.9087316,190.540066 65.4006444,187.850317 C65.8784249,185.241788 67.775958,187.648619 68.1928608,188.992366 Z M59.986234,211.816206 C57.6913658,211.816206 57.9560747,221.618156 59.3225594,222.200687 C61.4391432,223.102685 62.8012795,211.816206 59.986234,211.816206 Z M221.791072,203.446532 C221.927503,204.049819 223.845148,209.009228 221.128485,208.290879 C219.566322,207.878008 219.325529,203.506094 218.926564,202.180847 C217.697597,198.095009 213.646519,193.018282 213.294842,188.98659 C212.955123,185.090266 215.135302,186.575246 216.80998,189.875503 C219.046145,194.283064 220.722996,198.746577 221.791072,203.446532 Z M202.089015,202.950817 C199.957212,202.941341 199.853937,213.724254 201.187265,214.35281 C203.051098,215.231344 204.808395,202.950817 202.089015,202.950817 Z M208.249611,114.654432 C209.831341,114.242012 204.839921,101.328868 203.071753,101.471004 C200.377376,101.688494 205.847663,115.273512 208.249611,114.654432 Z M181.434114,170.746831 C180.587263,171.127665 180.601939,171.485034 181.476511,171.818489 C182.322818,171.437656 182.308686,171.080286 181.434114,170.746831 Z M157.216135,225.987499 C158.009718,225.987499 158.337478,224.763778 157.165041,224.736253 C156.389939,224.742571 155.980645,225.987499 157.216135,225.987499 Z M58.6844317,170.628746 C58.7137834,168.720066 56.215084,170.119764 56.230847,171.730185 C56.26346,174.943806 58.6317074,173.476424 58.6844317,170.628746 Z M52.5187808,122.883143 C51.7148704,122.883143 51.3854791,124.119498 52.5698745,124.148828 C53.3536737,124.142962 53.7673152,122.883143 52.5187808,122.883143 Z M33.3865269,185.392722 C33.3087993,183.451554 31.6863025,185.43604 31.7770753,185.438747 C32.0651568,185.445967 33.4474045,186.856043 33.3865269,185.392722 Z M37.5995831,84.0632577 C35.2318792,84.0632577 35.5754028,89.8168218 37.0864719,90.1859235 C39.6063697,90.801845 39.9509805,84.0632577 37.5995831,84.0632577 Z M50.212933,208.325849 C47.9273051,208.325849 47.7729369,216.139704 49.3503191,216.625673 C51.8011861,217.379669 52.5931385,208.325849 50.212933,208.325849 Z M31.4567613,213.932223 C30.5849071,214.323435 30.5990394,214.691634 31.4991582,215.035467 C32.371556,214.644256 32.3568801,214.276959 31.4567613,213.932223 Z M201.455507,217.282881 C199.135636,217.282881 199.226409,226.836207 200.65051,227.481458 C202.64099,228.383907 204.139014,217.282881 201.455507,217.282881 Z M177.94561,226.161536 C175.534966,225.679629 174.272299,233.567034 175.395817,234.451885 C177.248236,235.910694 180.42148,226.656078 177.94561,226.161536 Z M157.46508,233.451204 C155.467534,233.451204 155.95836,237.025805 157.110686,237.557799 C159.104971,238.478297 159.694179,233.451204 157.46508,233.451204 Z M86.479514,19.5090896 C84.8080977,19.5090896 74.3192131,24.2532644 78.2392958,25.6588288 C80.6358078,26.5179603 90.7371413,19.5090896 86.479514,19.5090896 Z" id="Highlights" fill-opacity="0.300000012" fill="#FFFFFF" mask="url(#mask-8)"></path>
                            </g>
                            <g id="Accessory" transform="translate(44.000000, 33.000000)"></g>
                        </g>
                    </g>
                </g>
            </g>
        </g>
    </g>
</svg>
