<svg width="200px" height="277px" viewBox="0 0 200 277" version="1.1" xmlns="http://www.w3.org/2000/svg" xmlns:xlink="http://www.w3.org/1999/xlink">
    <!-- Generator: Sketch 50.2 (55047) - http://www.bohemiancoding.com/sketch -->
    <desc>Created with Sketch.</desc>
    <defs>
        <path d="M124,144.610951 L124,163 L128,163 C167.764502,163 200,195.235498 200,235 L200,244 L0,244 L0,235 C-4.86974701e-15,195.235498 32.235498,163 72,163 L76,163 L76,144.610951 C58.7626345,136.422372 46.3722246,119.687011 44.3051388,99.8812385 C38.4803105,99.0577866 34,94.0521096 34,88 L34,74 C34,68.0540074 38.3245733,63.1180731 44,62.1659169 L44,56 C44,25.072054 69.072054,5.68137151e-15 100,0 C130.927946,-5.68137151e-15 156,25.072054 156,56 L156,62.1659169 C161.675427,63.1180731 166,68.0540074 166,74 L166,88 C166,94.0521096 161.51969,99.0577866 155.694861,99.8812385 C153.627775,119.687011 141.237365,136.422372 124,144.610951 Z" id="path-1"></path>
        <path d="M105.192402,29.0517235 C105.065362,30.0353144 105,31.0364513 105,32.0517235 C105,45.8588423 117.088312,57.0517235 132,57.0517235 C146.911688,57.0517235 159,45.8588423 159,32.0517235 C159,31.0364513 158.934638,30.0353144 158.807598,29.0517235 L160,29.0517235 C199.764502,29.0517235 232,61.2872215 232,101.051724 L232,110 L32,110 L32,101.051724 C32,61.2872215 64.235498,29.0517235 104,29.0517235 L105.192402,29.0517235 Z" id="path-3"></path>
        <rect id="path-5" x="0" y="0" width="264" height="280"></rect>
        <path d="M83.4984286,93.8410391 C72.1241067,94.2191416 67.0502492,99.7213834 63.2291365,94.1296214 C60.3611827,89.9323547 61.5611932,82.8739117 64.2409566,78.9027173 C68.0539313,73.2512381 73.2266239,75.9847769 79.010342,75.3400279 C80.5830033,75.1648137 82.1627854,74.7228407 83.4984286,74 C84.8340717,74.7228407 86.4135147,75.1648137 87.986176,75.3400279 C93.7702332,75.9847769 98.9425868,73.2512381 102.755901,78.9027173 C105.435325,82.8739117 106.635335,89.9323547 103.767382,94.1296214 C99.9462689,99.7213834 94.8727504,93.4629366 83.4984286,93.8410391 Z M138.719768,26 C135.335967,40.0748212 133.781202,54.4337754 131.327683,68.6711471 C130.816435,71.6390145 130.256705,74.5963095 129.662396,77.5496398 C129.537635,78.1697764 129.414569,80.4725746 128.810767,80.7643064 C126.981731,81.6484223 123.254159,76.9466834 122.257428,75.8851496 C119.754073,73.219256 117.272077,70.5292442 114.223231,68.437233 C108.062822,64.2102603 100.85042,61.7108818 93.3454397,61.117837 C90.2053971,60.8693859 85.9594573,61.3025234 83.0001146,63.1104016 C80.0407719,61.3025234 75.7948321,60.8693859 72.6544504,61.117837 C65.1494705,61.7108818 57.9370685,64.2102603 51.7766588,68.437233 C48.7278137,70.5292442 46.2461561,73.219256 43.742462,75.8851496 C42.7457307,76.9466834 39.018159,81.6484223 37.1891231,80.7643064 C36.5853209,80.4725746 36.4622551,78.1697764 36.3374942,77.5496398 C35.7431847,74.5963095 35.1834557,71.6390145 34.6722071,68.6711471 C32.2190276,54.4337754 30.6642623,40.0748212 27.2804612,26 C26.2959348,26 25.432101,44.7478165 25.3222572,46.4945731 C24.8750842,53.5889755 24.3529868,60.5254529 25.0201865,67.6261326 C26.1704958,79.8749043 27.3696246,95.2339402 36.5917624,104.58753 C44.9246396,113.039493 57.0232778,114.806417 67.4585647,120.141327 C68.8021178,120.828202 70.5843683,121.676306 72.5062968,122.37111 C74.5309497,123.934171 78.546353,125 83.1719999,125 C88.024115,125 92.2046231,123.827456 94.1201102,122.137856 C95.8006534,121.49261 97.3452479,120.752874 98.5413255,120.141327 C108.975814,114.805245 121.075251,113.039493 129.408128,104.58753 C138.630266,95.2339402 139.829394,79.8749043 140.980043,67.6261326 C141.646903,60.5254529 141.124806,53.5889755 140.677972,46.4945731 C140.567789,44.7478165 139.703955,26 138.719768,26 Z" id="path-7"></path>
        <path d="M83.9715662,55.8170722 C60.5101967,69.4143577 22.8618971,82.1112789 29.0002187,138 C9.62244645,132.999216 -0.0442202163,117.440393 0.00021866091,91.3235294 C0.0804892181,44.1482783 52.0737254,6.80154462e-15 82.0002187,0 C82.6684563,0 83.3328225,0.0296343217 83.9916927,0.0880667845 C84.6559706,0.0296343787 85.3259486,0 86,0 C115.850571,6.80154462e-15 167.918252,44.1482824 168,91.3235294 C168.044149,116.801277 158.377483,132.360101 139,138 C145.114919,82.1112884 107.404232,69.414362 83.9715543,55.8170792 Z" id="path-9"></path>
    </defs>
    <g id="Introduction" stroke="none" stroke-width="1" fill="none" fill-rule="evenodd">
        <g id="Intro" transform="translate(-327.000000, -332.000000)">
            <g id="back" transform="translate(295.000000, 329.000000)">
                <g id="Avataaar/Default">
                    <g id="Body" stroke-width="1" fill-rule="evenodd" transform="translate(32.000000, 36.000000)">
                        <mask id="mask-2" fill="white">
                            <use xlink:href="#path-1"></use>
                        </mask>
                        <use fill="#D0C6AC" xlink:href="#path-1"></use>
                        <g id="Skin/ðŸ‘¶ðŸ½-03-Brown" mask="url(#mask-2)" fill="#D08B5B">
                            <g transform="translate(-32.000000, 0.000000)" id="Color">
                                <rect x="0" y="0" width="264" height="244"></rect>
                            </g>
                        </g>
                        <path d="M156,94 L156,102 C156,132.927946 130.927946,158 100,158 C69.072054,158 44,132.927946 44,102 L44,94 C44,124.927946 69.072054,150 100,150 C130.927946,150 156,124.927946 156,94 Z" id="Neck-Shadow" fill-opacity="0.100000001" fill="#000000" mask="url(#mask-2)"></path>
                    </g>
                    <g id="Clothing/Blazer-+-Sweater" transform="translate(0.000000, 170.000000)">
                        <mask id="mask-4" fill="white">
                            <use xlink:href="#path-3"></use>
                        </mask>
                        <use id="Clothes" fill="#E6E6E6" fill-rule="evenodd" xlink:href="#path-3"></use>
                        <g id="Color/Palette/Black" mask="url(#mask-4)" fill="#262E33" fill-rule="evenodd">
                            <rect id="ðŸ–Color" x="0" y="0" width="264" height="110"></rect>
                        </g>
                        <g id="Blazer" stroke-width="1" fill-rule="evenodd" transform="translate(32.000000, 28.000000)">
                            <path d="M68.784807,1.12222847 C65.7399891,12.7311115 64,26.1729736 64,40.5 C64,55.7087296 65.9607412,69.9199941 69.3616767,82 L0,82 L0,73.0517235 C-4.73780084e-15,34.3646437 30.512317,2.80409739 68.784807,1.12222847 Z M131.638323,82 C135.039259,69.9199941 137,55.7087296 137,40.5 C137,26.1942016 135.265163,12.7709464 132.228719,1.17384225 C170.024954,3.36285166 200,34.7067641 200,73.0517235 L200,82 L131.638323,82 Z" id="Saco" fill="#3A4C5A"></path>
                            <path d="M149,58 L158.555853,50.83311 C159.998897,49.7508275 161.987779,49.7682725 163.411616,50.8757011 L170,56 L149,58 Z" id="Pocket-hanky" fill="#E6E6E6"></path>
                            <path d="M69,1.13686838e-13 C65,19.3333333 66.6666667,46.6666667 74,82 L58,82 L44,46 L50,37 L44,31 L63,1 C65.027659,0.369238637 67.027659,0.0359053037 69,1.13686838e-13 Z" id="Wing" fill="#2F4351"></path>
                            <path d="M151,1.13686838e-13 C147,19.3333333 148.666667,46.6666667 156,82 L140,82 L126,46 L132,37 L126,31 L145,1 C147.027659,0.369238637 149.027659,0.0359053037 151,1.13686838e-13 Z" id="Wing" fill="#2F4351" transform="translate(141.000000, 41.000000) scale(-1, 1) translate(-141.000000, -41.000000) "></path>
                        </g>
                        <path d="M156,21.5390062 C162.772319,26.1359565 167,32.6563196 167,39.8878801 C167,47.2887711 162.572015,53.9447688 155.520105,58.5564942 L149.57933,53.8764929 L145,54.207887 L146,51.0567821 L145.922229,50.995516 C152.022491,47.8530505 156,42.7003578 156,36.8768102 L156,21.5390062 Z M108,21.5390062 L108,36.8768102 C108,42.7003578 111.977509,47.8530505 118.077771,50.995516 L118,51.0567821 L119,54.207887 L114.42067,53.8764929 L108.479895,58.5564942 C101.427985,53.9447688 97,47.2887711 97,39.8878801 C97,32.6563196 101.227681,26.1359565 108,21.5390062 Z" id="Collar" fill="#F2F2F2" fill-rule="evenodd"></path>
                    </g>
                    <g id="Face" stroke-width="1" fill-rule="evenodd" transform="translate(76.000000, 82.000000)" fill="#000000">
                        <g id="Mouth/Default" transform="translate(2.000000, 52.000000)" fill-opacity="0.699999988">
                            <path d="M40,15 C40,22.7319865 46.2680135,29 54,29 C61.7319865,29 68,22.7319865 68,15" id="Mouth"></path>
                        </g>
                        <g id="Nose/Default" transform="translate(28.000000, 40.000000)" fill-opacity="0.16">
                            <path d="M16,8 C16,12.418278 21.372583,16 28,16 C34.627417,16 40,12.418278 40,8" id="Nose"></path>
                        </g>
                        <g id="Eyes/Closed-ðŸ˜Œ" transform="translate(0.000000, 8.000000)" fill-opacity="0.599999964">
                            <path d="M16.1601674,32.4473116 C18.006676,28.648508 22.1644225,26 26.9975803,26 C31.8136766,26 35.9591217,28.629842 37.8153518,32.4071242 C38.3667605,33.5291977 37.5821037,34.4474817 36.790607,33.7670228 C34.3395063,31.6597833 30.8587163,30.3437884 26.9975803,30.3437884 C23.2572061,30.3437884 19.8737584,31.5787519 17.4375392,33.5716412 C16.5467928,34.3002944 15.6201012,33.5583844 16.1601674,32.4473116 Z" id="Closed-Eye" transform="translate(27.000000, 30.000000) scale(1, -1) translate(-27.000000, -30.000000) "></path>
                            <path d="M74.1601674,32.4473116 C76.006676,28.648508 80.1644225,26 84.9975803,26 C89.8136766,26 93.9591217,28.629842 95.8153518,32.4071242 C96.3667605,33.5291977 95.5821037,34.4474817 94.790607,33.7670228 C92.3395063,31.6597833 88.8587163,30.3437884 84.9975803,30.3437884 C81.2572061,30.3437884 77.8737584,31.5787519 75.4375392,33.5716412 C74.5467928,34.3002944 73.6201012,33.5583844 74.1601674,32.4473116 Z" id="Closed-Eye" transform="translate(85.000000, 30.000000) scale(1, -1) translate(-85.000000, -30.000000) "></path>
                        </g>
                        <g id="Eyebrow/Outline/Default" fill-opacity="0.599999964">
                            <g id="I-Browse" transform="translate(12.000000, 6.000000)">
                                <path d="M3.63024536,11.1585767 C7.54515501,5.64986673 18.2779197,2.56083721 27.5230268,4.83118046 C28.5957248,5.0946055 29.6788665,4.43856013 29.9422916,3.36586212 C30.2057166,2.2931641 29.5496712,1.21002236 28.4769732,0.94659732 C17.7403633,-1.69001789 5.31209962,1.88699832 0.369754639,8.84142326 C-0.270109626,9.74178291 -0.0589363917,10.9903811 0.84142326,11.6302454 C1.74178291,12.2701096 2.9903811,12.0589364 3.63024536,11.1585767 Z" id="Eyebrow" fill-rule="nonzero"></path>
                                <path d="M61.6302454,11.1585767 C65.545155,5.64986673 76.2779197,2.56083721 85.5230268,4.83118046 C86.5957248,5.0946055 87.6788665,4.43856013 87.9422916,3.36586212 C88.2057166,2.2931641 87.5496712,1.21002236 86.4769732,0.94659732 C75.7403633,-1.69001789 63.3120996,1.88699832 58.3697546,8.84142326 C57.7298904,9.74178291 57.9410636,10.9903811 58.8414233,11.6302454 C59.7417829,12.2701096 60.9903811,12.0589364 61.6302454,11.1585767 Z" id="Eyebrow" fill-rule="nonzero" transform="translate(73.000154, 6.039198) scale(-1, 1) translate(-73.000154, -6.039198) "></path>
                            </g>
                        </g>
                    </g>
                    <g id="Top" stroke-width="1" fill-rule="evenodd">
                        <mask id="mask-6" fill="white">
                            <use xlink:href="#path-5"></use>
                        </mask>
                        <g id="Mask"></g>
                        <g id="Top/Accesories/Turban" mask="url(#mask-6)">
                            <g transform="translate(-1.000000, 0.000000)">
                                <g id="Facial-Hair/Beard-Medium" transform="translate(50.000000, 72.000000)">
                                    <mask id="mask-8" fill="white">
                                        <use xlink:href="#path-7"></use>
                                    </mask>
                                    <use id="Beardness" fill="#252E32" fill-rule="evenodd" xlink:href="#path-7"></use>
                                    <g id="Color/Hair/Brown" mask="url(#mask-8)" fill="#724133" fill-rule="evenodd">
                                        <rect id="Color" x="0" y="0" width="166" height="152"></rect>
                                    </g>
                                </g>
                                <g id="Turban" stroke-width="1" fill-rule="evenodd" transform="translate(1.000000, 0.000000)">
                                    <path d="M74.5304294,97.5 C73.529284,95.0905557 73,92.5798498 73,90 C73,71.7746033 99.4151998,57 132,57 C164.5848,57 191,71.7746033 191,90 C191,92.5798498 190.470716,95.0905557 189.469571,97.5 C183.398106,82.8878805 159.972341,72 132,72 C104.027659,72 80.6018941,82.8878805 74.5304294,97.5 Z" id="Band" fill="#EDECE3"></path>
                                    <g transform="translate(48.000000, 3.000000)">
                                        <mask id="mask-10" fill="white">
                                            <use xlink:href="#path-9"></use>
                                        </mask>
                                        <use id="Turban-Mask" fill="#124C74" xlink:href="#path-9"></use>
                                        <g id="Color/Palette/Blue-03" mask="url(#mask-10)" fill="#25557C">
                                            <g transform="translate(-48.000000, -3.000000)" id="ðŸ–Color">
                                                <rect x="0" y="0" width="264" height="280"></rect>
                                            </g>
                                        </g>
                                    </g>
                                    <path d="M48.0110963,96.0123559 C48.3807929,121.112082 58.0438337,136.107963 77.0002187,141 C57.6224465,136.289117 47.9557798,121.632254 48.0002187,97.0294118 C48.0008313,96.6902213 48.0044682,96.351197 48.0110963,96.0123559 Z M152.645822,30.4681115 C153.39011,36.1953086 152.126202,42.8891982 148.000219,50.135763 C136.847465,71.5667661 76.561434,72.0039826 76.3339794,129.679698 C76.1051437,67.7612631 136.805324,67.3799133 148.000219,44.5441176 C150.669864,39.5668152 152.141299,34.8351296 152.645822,30.4681115 Z" id="Shadow" fill-opacity="0.16" fill="#000000"></path>
                                </g>
                                <g id="Top/_Resources/Blank" transform="translate(62.000000, 85.000000)"></g>
                            </g>
                        </g>
                    </g>
                </g>
            </g>
        </g>
    </g>
</svg>
