<svg width="233" height="267" xmlns="http://www.w3.org/2000/svg" xmlns:xlink="http://www.w3.org/1999/xlink"><defs><path d="M124 144.611V163h4c39.765 0 72 32.235 72 72v9H0v-9c0-39.765 32.235-72 72-72h4v-18.389c-17.237-8.189-29.628-24.924-31.695-44.73C38.48 99.058 34 94.052 34 88V74c0-5.946 4.325-10.882 10-11.834V56c0-30.928 25.072-56 56-56s56 25.072 56 56v6.166c5.675.952 10 5.888 10 11.834v14c0 6.052-4.48 11.058-10.305 11.881-2.067 19.806-14.458 36.541-31.695 44.73z" id="a"/><path d="M165.624 29.268C202.76 32.138 232 63.18 232 101.052V110H32v-8.948c0-38.217 29.775-69.48 67.393-71.855A14.107 14.107 0 0099 32.5C99 44.374 113.998 54 132.5 54c18.502 0 33.5-9.626 33.5-21.5 0-1.098-.128-2.178-.376-3.232z" id="c"/><path id="e" d="M0 0h264v280H0z"/><path d="M217 267v-9c0-39.765-32.235-72-72-72h-4v-18.389c17.53-8.328 30.048-25.496 31.791-45.744C178.57 121.002 183 116.02 183 110V97c0-.568-.04-1.128-.116-1.675-21.52-11.588-39.994-28.18-52.038-47.023C112.764 73.924 76.53 78.535 51.224 94.68A12.06 12.06 0 0051 97v13c0 6.019 4.43 11.002 10.209 11.867 1.743 20.248 14.26 37.416 31.791 45.744V186h-4c-39.765 0-72 32.235-72 72v9h-.995c-38.439-21.949 4.852-57.111 5.17-69C21.54 186.256-.278 183.561.002 155c.941-29.028 31.369-26.412 31.2-46 .169-19-11.39-26.84 0-63C42.84 9.54 72.917.768 116.003.016V0l.5.008.5-.008v.016c43.086.752 73.163 9.523 84.8 45.984 11.388 36.16-.17 44 0 63-.17 19.588 30.258 16.972 31.2 46 .28 28.561-21.537 31.256-21.172 43 .317 11.889 43.608 47.051 5.169 69z" id="g"/><path d="M217 267v-9c0-39.765-32.235-72-72-72h-4v-46H93v46h-4c-39.765 0-72 32.235-72 72v9h-.995c-38.439-21.949 4.852-57.111 5.17-69C21.54 186.256-.278 183.561.002 155c.941-29.028 31.369-26.412 31.2-46 .169-19-11.39-26.84 0-63C42.84 9.54 72.917.768 116.003.016V0l.5.008.5-.008v.016c43.086.752 73.163 9.523 84.8 45.984 11.388 36.16-.17 44 0 63-.17 19.588 30.258 16.972 31.2 46 .28 28.561-21.537 31.256-21.172 43 .317 11.889 43.608 47.051 5.169 69z" id="i"/></defs><g fill="none" fill-rule="evenodd"><g transform="translate(17 23)"><mask id="b" fill="#fff"><use xlink:href="#a"/></mask><use fill="#D0C6AC" xlink:href="#a"/><g mask="url(#b)" fill="#EDB98A"><path d="M-32 0h264v244H-32z"/></g><path d="M156 94v8c0 30.928-25.072 56-56 56s-56-25.072-56-56v-8c0 30.928 25.072 56 56 56s56-25.072 56-56z" fill-opacity=".1" fill="#000" mask="url(#b)"/></g><g transform="translate(-15 157)"><mask id="d" fill="#fff"><use xlink:href="#c"/></mask><use fill="#E6E6E6" xlink:href="#c"/><g mask="url(#d)" fill="#25557C"><path d="M0 0h264v110H0z"/></g><g mask="url(#d)" fill="#FFF"><path d="M164.685 71.403c-1.393-6.431-6.21-10.15-12.5-11.586-2.526-.577-10.913-2.387-9.607 2.408.593 2.172.263 3.964-1.553 5.766-1.77 1.755-5.231 2.2-6.952-.011-1.474-1.895.427-4.721-.721-6.567-.446-.717-1.216-1.083-2.028-.732-1.141.494-.534 1.555-1.073 2.318-.849 1.203-1.245.826-2.01-.373-.48-.754-.008-1.575-1.246-1.897-1.433-.372-1.903.828-2.032 1.923-.082.687.322 1.792.336 2.488.027 1.364-.09 3.323-.725 4.529-1.125 2.137-2.704 1.453-4.383.096-1.98-1.602-2.561-3.385-2.178-5.817.459-2.917.292-5.709-3.28-3.884-5.02 2.564-9.68 7.135-12.588 11.919-2.445 4.02-4.37 8.893-2.203 13.473 2.21 4.675 5.862 8.69 10.966 9.883 1.321.31 5.092 1.811 6.345.552 1.947-1.957-2.548-3.783-3.435-4.975-1.258-1.69-2.337-4.915-.957-6.822 1.76-2.427 3.6-1.074 5.045.644 1.136 1.348 2.75 4.826 4.506 2.022 1.21-1.931 1.101-5.102 4.4-3.717 4.715 1.978 4.86 11.112 5.7 15.291.367 1.83 2.035 4.064 3.47 1.525.79-1.396.364-4.421.22-5.863-.296-2.985-1.08-5.92-.11-8.877.562-1.71 2.001-4.16 4.13-2.844 1.725 1.066 1.006 5.816 3.353 5.807 2.066-.007 1.502-3.791 2.603-5.039 1.68-1.904 4.916-.999 5.91 1.249 1.336 3.025-2.203 5.126-2.044 7.785.154 2.591 3.494 1.58 4.89.923 2.872-1.35 5.119-3.853 6.676-6.571 2.407-4.204 4.125-10.222 3.075-15.026"/></g></g><path d="M103 137c0 5.372 6.158 9 14 9s14-3.628 14-9c0-1.105-.95-2-2-2-1.293 0-1.87.905-2 2-1.242 2.938-4.317 4.716-10 5-5.683-.284-8.758-2.062-10-5-.13-1.095-.707-2-2-2-1.05 0-2 .895-2 2z" fill="#000" fill-opacity=".6" fill-rule="nonzero"/><path d="M105 117c0 4.418 5.373 8 12 8s12-3.582 12-8" fill="#000" fill-opacity=".16"/><g transform="translate(61 77)"><circle fill="#FFF" cx="30" cy="22" r="14"/><circle fill="#FFF" cx="82" cy="22" r="14"/><circle fill-opacity=".7" fill="#000" cx="30" cy="14" r="6"/><circle fill-opacity=".7" fill="#000" cx="82" cy="14" r="6"/></g><g fill-rule="nonzero" fill="#000" fill-opacity=".6"><path d="M76.976 86.128c1.495-9.523 14.083-16.02 23.188-11.827a2 2 0 001.672-3.633c-11.487-5.29-26.9 2.664-28.812 14.84a2 2 0 103.952.62zM157.024 86.128c-1.495-9.523-14.082-16.02-23.187-11.827a2 2 0 01-1.673-3.633c11.487-5.29 26.9 2.664 28.812 14.84a2 2 0 01-3.952.62z"/></g><g transform="translate(-15 -13)"><mask id="f" fill="#fff"><use xlink:href="#e"/></mask><g mask="url(#f)"><g transform="translate(15 13)"><mask id="h" fill="#fff"><use xlink:href="#g"/></mask><use fill="#314756" xlink:href="#g"/><g mask="url(#h)" fill="#4A312C"><path d="M-15-13h264v280H-15z"/></g></g><g transform="translate(15 13)"><mask id="j" fill="#fff"><use xlink:href="#i"/></mask><path d="M30.099 115.057c-2.374 3.026-5.57 7.471-5.737 7.137 1.873-2.383 3.013-5.182 2.979-8.758.177-18.101-11.904-25.569 0-60.017.669-1.91 1.766-3.715 3.245-5.414-10.343 34.454.783 42.35.617 60.995.02 2.295-.38 4.285-1.104 6.057zm172.32-67.052c1.48 1.7 2.577 3.504 3.245 5.414 10.158 29.394 2.852 39.144.6 52.617-.3.805-.069 1.754-.384 2.567-30.673-10.458-58.29-30.043-74.385-52.991-22.784 29.424-73.14 29.761-97.821 55.324.387-.544.754-1.051 1.084-1.49 22.536-29.919 73.489-29.122 96.088-61.144 15.398 24.088 41.818 44.648 71.163 55.625.301-.854.08-1.85.367-2.694 2.108-13.833 8.84-23.926.043-53.228z" fill-opacity=".16" fill="#000" mask="url(#j)"/></g><path d="M49.758 122.446c22.536-29.919 73.489-29.122 96.088-61.144 15.398 24.088 41.818 44.648 71.163 55.625.301-.854.08-1.85.367-2.694 2.155-14.144 9.144-24.378-.573-55.233-11.637-36.46-41.714-45.232-84.8-45.984l-1-.016c-43.086.768-73.163 9.54-84.8 46-11.39 36.16.169 44 0 63 .032 3.753-1.059 6.691-2.85 9.193.183.402 4.153-5.756 6.405-8.747z" fill-opacity=".1" fill="#FFF"/></g></g></g></svg>