<svg width="200" height="262" xmlns="http://www.w3.org/2000/svg" xmlns:xlink="http://www.w3.org/1999/xlink"><defs><path d="M124 144.611V163h4c39.765 0 72 32.235 72 72v9H0v-9c0-39.765 32.235-72 72-72h4v-18.389c-17.237-8.189-29.628-24.924-31.695-44.73C38.48 99.058 34 94.052 34 88V74c0-5.946 4.325-10.882 10-11.834V56c0-30.928 25.072-56 56-56s56 25.072 56 56v6.166c5.675.952 10 5.888 10 11.834v14c0 6.052-4.48 11.058-10.305 11.881-2.067 19.806-14.458 36.541-31.695 44.73z" id="a"/><path d="M165.624 29.268C202.76 32.138 232 63.18 232 101.052V110H32v-8.948c0-38.217 29.775-69.48 67.393-71.855A14.107 14.107 0 0099 32.5C99 44.374 113.998 54 132.5 54c18.502 0 33.5-9.626 33.5-21.5 0-1.098-.128-2.178-.376-3.232z" id="c"/><path id="e" d="M0 0h264v280H0z"/><path d="M133.506 81.335a53.863 53.863 0 01-2.326-.91c-.386-.105-.78-.192-1.18-.26v-.248c-12.776-5.683-25.122-16.846-33.89-32.032a86.921 86.921 0 01-7.044-15.488c-8.635 10.544-21.321 21.205-36.724 30.098C42.778 68.017 33.147 72.291 24 75.266v61.98a56.234 56.234 0 0026 25.365V181h-4c-7.673 0-15.065 1.2-22 3.423V230c0 14.106-10.43 25.776-24 27.716V74C0 33.13 33.13 0 74 0s74 33.13 74 74v123.608C135.525 187.237 119.49 181 102 181h-4v-18.389c17.53-8.328 30.048-25.496 31.791-45.744C135.57 116.002 140 111.02 140 105V92a12 12 0 00-6.494-10.665z" id="g"/><path d="M83.998 74.84a6.042 6.042 0 01-2.048 1.85c-8.902 4.82-18.073.642-23.074.94-2.416.144-5.535 1.785-6.66.05-1.24-1.913 2.852-12.46 12.505-14.216 7.01-1.275 16.776.138 19.277 3.474 2.5-3.336 12.267-4.749 19.276-3.474 9.654 1.757 13.745 12.303 12.506 14.215-1.125 1.736-4.244.095-6.66-.05-5.001-.297-14.172 3.881-23.074-.94a6.042 6.042 0 01-2.048-1.85z" id="i"/></defs><g fill="none" fill-rule="evenodd"><g transform="translate(0 18)"><mask id="b" fill="#fff"><use xlink:href="#a"/></mask><use fill="#D0C6AC" xlink:href="#a"/><g mask="url(#b)" fill="#EDB98A"><path d="M-32 0h264v244H-32z"/></g><path d="M156 94v8c0 30.928-25.072 56-56 56s-56-25.072-56-56v-8c0 30.928 25.072 56 56 56s56-25.072 56-56z" fill-opacity=".1" fill="#000" mask="url(#b)"/></g><g transform="translate(-32 152)"><mask id="d" fill="#fff"><use xlink:href="#c"/></mask><use fill="#E6E6E6" xlink:href="#c"/><g mask="url(#d)" fill="#262E33"><path d="M0 0h264v110H0z"/></g><g fill="#FFF" mask="url(#d)"><path d="M87.272 88.132c3.273-.559 5.73-3.554 5.18-6.788-.464-2.724-1.745-.343-2.976.853-1.335 1.298-2.45 2.574-4.536 2.054-3.607-.9-4.858-5.4-3.84-8.48a5.941 5.941 0 013.478-3.696c1.852-.746 3.204.09 4.748 1.094.289.187 1.73 1.37 1.994 1.25.462-.211.115-2.43.045-2.725-.338-1.421-1.266-2.575-2.617-3.238-3.333-1.635-7.514.489-9.64 3.055-4.884 5.897-.92 18.164 8.164 16.62M97.283 69.038c-.001.003 0 .001 0 0m-1.594 12.865c.503 3.474 2.977 6.5 6.952 6.357 4.278-.155 6.056-4.098 7.008-7.486.957-3.399 2.052-7.683.664-11.093-.42-1.032-.685-2.38-1.716-1.53-1.252 1.033-1.409 4.039-1.515 5.442-.2 2.647-.781 9.97-4.108 10.944-4.179 1.222-4.048-5.847-4-7.977.04-1.896.246-3.734-.342-5.584-.313-.985-.59-2.44-1.528-1.634-1.29 1.108-1.453 3.828-1.544 5.327-.144 2.405-.214 4.842.129 7.234M114.783 84.746c.188.412.624 1.402 1.02 1.679.944.66-.055.708.8-.059.813-.729 1.13-2.717 1.254-3.67.385-2.96-.12-6.108-.087-9.093 1.024 2.218 1.584 4.584 2.386 6.874.554 1.582 1.396 4.804 3.654 4.753 2.443-.055 2.57-3.145 2.894-4.819.461-2.37.97-4.721 1.676-7.037.092 3.91-1.427 10.995 2.108 13.92.014.013 1.432-4.15 1.467-4.406.223-1.691.083-3.444.107-5.148.051-3.597.718-8.003-.3-11.506-.328-1.134-.975-2.264-2.409-2.233-1.825.04-2.233 1.985-2.698 3.298-1.28 3.614-2.445 7.224-3.357 10.94-.548-1.68-5.339-16.421-8.789-10.901-.555.888-.315 2.218-.338 3.196-.044 1.879-.155 3.756-.196 5.635-.061 2.843-.41 5.907.808 8.577M139.02 71.71c.72-.135 5.735-1.727 5.523-.136-.223 1.675-4.633 3.309-5.816 3.876a10.629 10.629 0 00-.643-3.567l.936-.173m5.717-.64s-.027-.035 0 0m.122 8.341c2.272 1.22 1.287 3.417-.426 4.608-.649.45-6.53 1.802-6.513 1.663 0 .004 0 .005-.004.005.18-1.694-.257-5.018 1-6.02 1.304-1.04 4.5-.808 5.943-.256m.062-7.995c.009.022.001.002 0 0m-9.977 16.844c.224.551.86 1.912 1.566 1.945.86.04.794-1.043.929-1.71 3.441 1.721 8.498-.047 10.907-3.03 2.787-3.45 1.348-8.27-2.579-9.745 2.113-1.688 4.026-5.399 1.255-7.49-2.196-1.655-5.828-1.747-8.123-.302-2.735 1.723-3.85 5.833-4.09 9.006-.255 3.382-1.158 8.125.135 11.326M153.05 79.871c.074 2.07-.15 4.287.332 6.306.171.717.433 1.511.76 2.162.611 1.215.31 1.05 1.032.36 2.172-2.083 1.209-8.575 1.157-11.249-.041-2.078.064-4.28-.513-6.283-.162-.562-1.123-3.348-1.655-3.284-.816.098-1.376 3.93-1.423 4.693-.148 2.396.226 4.895.31 7.295M171.748 80.43c-1.582-.137-3.622.075-5.117.557.697-1.916 1.475-4.054 2.238-5.79.474-1.09.972-2.17 1.494-3.24 1.278 2.686 1.992 5.828 2.832 8.666-.48-.087-.962-.151-1.447-.193m5.44.725c-.727-2.78-1.579-5.532-2.426-8.28-.538-1.743-1.13-3.911-2.6-5.168-4.163-3.561-6.527 5.85-7.548 8.232-.985 2.296-2.216 4.634-2.85 7.049a9.478 9.478 0 00-.244 3.652c.205 1.519-.004 1.741 1.294.914 1-.636 1.414-1.792 2.227-2.562.144-.136.218-.668.39-.755.188-.096 1.504.253 1.815.274 2.17.151 4.712-.218 6.715-1.054.205.842 1.627 5.962 2.977 5.773.597-.083.965-3.064.992-3.537.087-1.553-.352-3.049-.742-4.538M186.302 67.432c-.264-1.203-.814-3.292-1.842-2.112-1.39 1.596-1.09 5.173-1.111 7.177-.015 1.451-1.552 12.062.556 11.883-.09 0 .845-1.668.98-1.922.815-1.524 1.131-2.97 1.329-4.722.365-3.237.783-7.111.088-10.304M185.164 88.301c-2.24-2.728-6.311.658-5.041 3.374 1.729 3.7 7.331-.56 5.041-3.374M171.898 92.545c-2.891-.738-6.297-.24-9.249-.152-3.081.092-6.16.264-9.24.357-6.568.198-13.124.092-19.692.038-12.454-.103-24.935.69-37.383.168-2.672-.112-5.545-.713-8.198-.209-.727.139-3.009.543-3.329 1.266-.336.76 1.402 1.555 2.331 1.955 2.422 1.044 5.329.858 7.9.964 2.93.12 5.887.058 8.819-.014 12.075-.297 24.089-1.343 36.18-1.165 6.976.103 13.937.038 20.912.001 3.32-.017 7 .526 10.273-.062.552-.1 3.763-.854 3.807-1.836.02-.453-2.806-1.228-3.13-1.311"/></g></g><g fill="#000"><path d="M86 132c0 5.372 6.158 9 14 9s14-3.628 14-9c0-1.105-.95-2-2-2-1.293 0-1.87.905-2 2-1.242 2.938-4.317 4.716-10 5-5.683-.284-8.758-2.062-10-5-.13-1.095-.707-2-2-2-1.05 0-2 .895-2 2z" fill-opacity=".6" fill-rule="nonzero"/><path d="M88 112c0 4.418 5.373 8 12 8s12-3.582 12-8" fill-opacity=".16"/><g fill-opacity=".6"><path d="M60.16 94.447C62.007 90.65 66.164 88 70.998 88c4.816 0 8.961 2.63 10.817 6.407.552 1.122-.233 2.04-1.024 1.36-2.451-2.107-5.932-3.423-9.793-3.423-3.74 0-7.124 1.235-9.56 3.228-.891.728-1.818-.014-1.278-1.125zM118.16 94.447C120.007 90.65 124.164 88 128.998 88c4.816 0 8.961 2.63 10.817 6.407.552 1.122-.233 2.04-1.024 1.36-2.451-2.107-5.932-3.423-9.793-3.423-3.74 0-7.124 1.235-9.56 3.228-.891.728-1.818-.014-1.278-1.125z"/></g><g fill-rule="nonzero" fill-opacity=".6"><path d="M59.63 81.159c3.915-5.51 14.648-8.598 23.893-6.328a2 2 0 00.954-3.884c-10.737-2.637-23.165.94-28.107 7.894a2 2 0 003.26 2.318zM140.37 81.159c-3.915-5.51-14.648-8.598-23.893-6.328a2 2 0 01-.954-3.884c10.737-2.637 23.165.94 28.108 7.894a2 2 0 01-3.26 2.318z"/></g></g><g transform="translate(-32 -18)"><mask id="f" fill="#fff"><use xlink:href="#e"/></mask><g mask="url(#f)"><g transform="translate(58 18)"><mask id="h" fill="#fff"><use xlink:href="#g"/></mask><use fill="#944F23" xlink:href="#g"/><g mask="url(#h)" fill="#A55728"><path d="M-58-18h264v280H-58z"/></g></g><path d="M191.506 99.335c4.869 1.773 9.757 2.737 14.494 2.813v113.46C193.525 205.237 177.49 199 160 199h-4v-18.389c17.53-8.328 30.048-25.496 31.791-45.744C193.57 134.002 198 129.02 198 123v-13a12 12 0 00-6.494-10.665zm-2.326-.91c-.386-.105-.78-.192-1.18-.26v-.248c.393.175.786.344 1.18.509zM82 155.246a56.234 56.234 0 0026 25.366V199h-4c-7.673 0-15.065 1.2-22 3.423v-47.177z" fill-opacity=".24" fill="#000"/><g transform="translate(48 72)"><mask id="j" fill="#fff"><use xlink:href="#i"/></mask><use fill="#28354B" xlink:href="#i"/><g mask="url(#j)" fill="#A55728"><path d="M0 0h168v152H0z"/></g></g></g></g></g></svg>