<svg width="200" height="280" xmlns="http://www.w3.org/2000/svg" xmlns:xlink="http://www.w3.org/1999/xlink"><defs><path d="M124 144.611V163h4c39.765 0 72 32.235 72 72v9H0v-9c0-39.765 32.235-72 72-72h4v-18.389c-17.237-8.189-29.628-24.924-31.695-44.73C38.48 99.058 34 94.052 34 88V74c0-5.946 4.325-10.882 10-11.834V56c0-30.928 25.072-56 56-56s56 25.072 56 56v6.166c5.675.952 10 5.888 10 11.834v14c0 6.052-4.48 11.058-10.305 11.881-2.067 19.806-14.458 36.541-31.695 44.73z" id="a"/><path d="M165.96 29.295c36.976 3.03 66.04 34 66.04 71.757V110H32v-8.948c0-38.1 29.592-69.287 67.045-71.832-.03.373-.045.75-.045 1.128 0 11.863 14.998 21.48 33.5 21.48 18.502 0 33.5-9.617 33.5-21.48 0-.353-.013-.704-.04-1.053z" id="c"/><path id="e" d="M0 0h264v280H0z"/><path d="M153.503 98.874c-.531.374-1.27 0-1.503-.842.463-1.506-3.296-27.854-13-34.876-3.58-2.411-22.591-2.592-41.687-2.606-19.305-.013-38.695.168-42.313 2.606-9.704 7.022-13.463 33.37-13 34.876-.233.843-.972 1.216-1.503.842C36.1 100.654 33 104.965 33 110v13c0 5.288 3.42 9.776 8.168 11.375 1.032 13.345 6.74 25.379 15.49 34.464-.326.687-1.035.597-1.311 1.234-.011.025-.654 2.671-.565 2.536-.77 1.168-1.772 1.08-2.795 1.586-1.416.701-2.558 1.998-4.266 1.893-.337-.02-1.824-.44-1.948-.41-.554-1.05-1.06-.977-1.519.22l-.821 1.546c-.677.799-.424 2.245-2.05 1.765-4.36-1.288 2.757-8.528 5.258-8.648-1.418-3.35-2.565-4.922-5.729-6.217-2.232-.913-5.054-1.271-6.592-3.604-.88-1.332-1.165-2.529-.532-4.078.544-1.332 3.102-1.876 3.293-2.828.22-1.1-4.439-3.983-5.45-5.265-2.026-2.569-2.378-6.076-5.881-5.646-3.033.372-3.242 4.625-5.418 5.373-7.612 2.619 3.241-10.687 3.158-9.49-2.24.696-9.298 2.5-10.48-1.515-1.099-3.722 1.88-1.904 3.238-1.748 2.6.3 4.722.148 7.277-.607-2.197-1.39-6.965-5.175-5.92-8.262 1.525-4.49 4.444 1.232 5.633 2.462.702-2.486 2.69-3.723 4.702-4.72-3.515-.035-6.877-1.238-9.674-3.676-3.47 1.261-6.702.037-9.948-1.607-1.166-.59-3.498-1.355-4.036-2.767-.775-2.028.586-3.11 2.2-3.022 2.959.16 6.287 5.09 9.586 3.775.53-.212.42-1.654 1.248-1.929.51-.17 1.213.142 1.617-.014.556-.214.489.82 1.102.41-1.663-1.5-3.385-2.459-4.778-4.322-.706-.944-1.107-2.275-1.818-3.144-.638-.778-1.857-1.138-2.436-1.994-1.838-2.714-.741-4.073 2.199-3.512.633.12 3.691 1.324 4.11 1.878 1.807-2.519 4.501-5.719 3.083-9.314-.393-.995-2.254-2.314-2.957-3.254-.797-1.065-1.285-2.502-2.12-3.495-1.12-1.33-2.871-2.257-4.64-2.326-3.686-.144-4.132 3.222-6.583 4.96-2.06 1.464-3.661.732-2.904-2.142.619-2.34 3.936-4.831 5.906-5.65 2.669-1.109 5.748-.293 8.11.318 1.35.35 1.624-.202 3.09.868 1.597 1.165 1.185 2.286 3.553 3.043-1.314-5.072-3.977-7.124-8.2-8.992-1.237-.547-5.977-3.284-2.538-4.698.874-.36 5.34 1.717 6.246 2.16-.74-1.561-2.271-4.249-1.374-5.822 1.324-2.317 3.25-.454 3.746 1.444.268-3.55-1.884-8.62-5.967-8.847-2.28-.126-4.62 4.884-6.598 2.251-3.8-5.045 10.967-7.802 14.396-4.502.383-3.056 2.196-6.374.828-9.125-1.487-2.983-3.277-4.146-3.778-7.734-.267-1.913.118-8.071 3.406-4.791 1.123 1.122.732 3.497 1.808 4.987.553.765 1.61 1.775 2.468 2.077.567-5.048-.53-10.22-2.949-14.504-.927-1.64-3.715-9.572 1.005-7.374 1.538.717 1.093 3.864 2.315 4.989.666.613 7.248 3.83 8.271 3.14.73-.49 2.746-5.97 3.365-6.933.742-1.154 4.119-7.035 5.312-2.87.636 2.223-2.569 4.586-1.77 7.38 1.468-1.213 3.357-2.083 4.336-3.86.598-1.083 1.033-7.435 4.017-4.385.452-2.737.198-5.486-.183-8.173-.353-2.48-2.211-9.457 1.296-10.453 3.58-1.017 2.474 3.37 2.384 5.53-.12 2.902 1.032 7.653 3.456 9.526 1.806 1.398 1.248 1.236 2.821-.823 1.253-1.637 2.178-3.603 2.974-5.524.496-1.196.917-2.338.996-3.618.087-1.412-1.343-3.241-.05-4.478 4.517-4.32 3.411 9.818 2.964 11.237 2.506-3.154 5.274-6.801 9.48-4.252.58-2.768.115-10.956 4.855-10.44 3.843.418.234 3.774-.462 5.063-.85 1.573-.392 3.76-.649 5.52 3.287-.856 2.717-1.413 3.508-4.448.31-1.19 1.195-4.052 2.441-4.541C90.91-.301 87.84 6.006 87.425 7.76c2.71-.12 5.715 4.156 8.244 1.992 1.362-1.164.432-4.352 2.581-5.002 1.709-.517 2.413 1.416 2.055 2.91.573-.053 2.58.139 3.05.548.957.837.326 2.641 1.027 3.128 2.02 1.405 8.319-3.23 9.9-4.64 1.25-1.113 5.993-7.999 7.573-3.832.544 1.439-2.007 5.829-2.388 7.244-.547 2.036-1.329 4.599-.82 6.666.953-1.173 2.646-3.326 3.342-4.77.72-1.494.34-3.616 1.693-4.887 5.444-5.103 3.024 6.204 3.08 7.817 1.745-.722 3.695-.857 4.918.738 1.137 1.483-.034 2.556 1.065 3.596 2.407-2.357-2.823-11.777 3.97-11.491 1.461.061 2.806.869 1.985 2.772-.5 1.158-1.626.424-2.18 1.459-1.222 2.291 1.244 8.01 1.036 10.727 2.536-.256 2.62-2.116 3.233-4 .683-2.092 2.169-5.112 4.506-2.523 1.368 1.518.02 6.147.113 8.347.06 1.447.162 2.893.248 4.338 1.31-.666 3.04-3.94 5.1-1.692.962 1.049-.877 5.071.23 5.564.496-1.489.187-5.924 1.083-7.183 2.25-3.158 3.39 1.522 3.262 3.263-.229 3.138-3.45 7.974 1.215 7.868 4.059-.091 2.312-4.58 3.158-7.466.491-1.676 1.686-4.533 3.842-3.168 1.772 1.122.569 2.368.374 3.767-.37 2.655-.507 5.194-.734 7.891 3.39-2.387 3.633 2.782 3.483 4.785-.14 1.878-2.066 8.645-.587 8.967.374.081 1.686-1.17 2.495-1.119 1.621.104 2.284 1.198 2.06 2.929-.245 1.904-5.017 6.33-3.283 8.351.127.15 2.772-.082 2.948-.193 1.217-.768 1.774-3.286 2.139-4.846.478-2.043-.716-8.34 2.677-7 2.487.984 1.052 6.514.511 8.562-.889 3.374-3.892 6.02-3.103 9.431.467-1.48 2.164-5.795 3.94-2.652.725 1.286-.487 3.717-.943 5.046-.53 1.547-2.6 4.668-2.532 6.248.105 2.437.209.654 2.247 2.191.492-1.724.75-5.097 1.682-6.427 1.436-2.047 3.243-1.958 3.789.568.37 1.719-2.074 8.494-2.95 10.122 1.112-1.004 4.486-4.733 5.792-2.09.725 1.469-.178 1.766-.746 2.633-1.682 2.57-7.635 5.042-7.214 8.4 1.793-.674 5.612-.781 5.081 2.402-.461 2.767-3.742 1.925-5.434 2.942 1.875-.458 6.715-1.373 7.278 1.61.714 3.793-4.724 2.535-6.565 2.995 1.272 2.551 3.766 4.57 6.257 5.562.986.393 2.929.583 3.467 1.655 2.229 4.43-7.68 2.67-9.208 4.327.93 1.006 2.57 2.286 1.275 3.893 3.64 1.522 5.064 4.484 5.623 8.51.253 1.831-.121 8.775-3.157 4.572-.808-1.115-.595-4.005-1.068-5.353-.638-1.819-2.961-4.77-5.25-4.044-2.991.949 4.221 7.094 3.514 9.894-1.34 5.328-4.105-1.181-5.198-1.599.526 2.82-2.583 6.984-1.639 8.854.395.784 2.285 1.42 2.912 2.427.581.934 1.571 3.253 1.45 4.338-.51 4.537-2.825 1.074-3.707-.64-1.091-2.12-.959-2.189-3.255-2.437-1.505-.164-4.553-.515-5.413.62.134-.177-.712 5.325-.7 4.938-.03.99 1.587 1.455 1.097 3.014-.455 1.444-2.159 2.18-3.244 1.015-.367 2.128-.028.924 1.474 2.134.813.655 2.892.926 1.927 2.777-1.052 2.018-4.523-.924-5.71-.866-2.143.104-3.29 2.708-4.55 4.501-1.54 2.196-3.492 3.08-5.196 4.746.776.517 11.87 3.005 7.438 5.453-1.918 1.06-7.703-1.156-9.448-2.316-.079 3.593.858 4.272 2.383 7.044.778 1.418 2.51 7.384-.597 7.384-2.181 0-1.416-3.18-1.95-4.595-.338-.897-1.064-1.364-1.521-2.144-1.765-3-1.094-5.766-1.645-9.093a28.521 28.521 0 00-.556-2.504 55.713 55.713 0 0011.076-29.289C157.58 132.776 161 128.288 161 123v-13c0-5.035-3.1-9.345-7.497-11.126z" id="g"/></defs><g fill="none" fill-rule="evenodd"><g transform="translate(0 36)"><mask id="b" fill="#fff"><use xlink:href="#a"/></mask><use fill="#D0C6AC" xlink:href="#a"/><g mask="url(#b)" fill="#D08B5B"><path d="M-32 0h264v244H-32z"/></g><path d="M156 94v8c0 30.928-25.072 56-56 56s-56-25.072-56-56v-8c0 30.928 25.072 56 56 56s56-25.072 56-56z" fill-opacity=".1" fill="#000" mask="url(#b)"/></g><g transform="translate(-32 170)"><mask id="d" fill="#fff"><use xlink:href="#c"/></mask><use fill="#E6E6E6" xlink:href="#c"/><g mask="url(#d)" fill="#E6E6E6"><path d="M0 0h264v110H0z"/></g><g opacity=".6" mask="url(#d)" fill="#000" fill-opacity=".16"><ellipse cx="40.5" cy="27.848" rx="39.635" ry="26.914" transform="translate(92 4)"/></g></g><g fill="#000"><path d="M86 149c0 7.732 6.268 14 14 14s14-6.268 14-14" fill-opacity=".7"/><path d="M88 130c0 4.418 5.373 8 12 8s12-3.582 12-8" fill-opacity=".16"/><g transform="translate(44 90)" fill-opacity=".6"><circle cx="30" cy="22" r="6"/><circle cx="82" cy="22" r="6"/></g><g fill-rule="nonzero" fill-opacity=".6"><path d="M59.63 99.159c3.915-5.51 14.648-8.598 23.893-6.328a2 2 0 00.954-3.884c-10.737-2.637-23.165.94-28.107 7.894a2 2 0 003.26 2.318zM140.37 99.159c-3.915-5.51-14.648-8.598-23.893-6.328a2 2 0 01-.954-3.884c10.737-2.637 23.165.94 28.108 7.894a2 2 0 01-3.26 2.318z"/></g></g><g transform="translate(-32)"><mask id="f" fill="#fff"><use xlink:href="#e"/></mask><g mask="url(#f)"><g transform="translate(35)"><mask id="h" fill="#fff"><use xlink:href="#g"/></mask><use fill="#2E3257" xlink:href="#g"/><g mask="url(#h)" fill="#2C1B18"><path d="M-35 0h264v280H-35z"/></g></g></g></g></g></svg>