<svg width="232" height="280" xmlns="http://www.w3.org/2000/svg" xmlns:xlink="http://www.w3.org/1999/xlink"><defs><path d="M124 144.611V163h4c39.765 0 72 32.235 72 72v9H0v-9c0-39.765 32.235-72 72-72h4v-18.389c-17.237-8.189-29.628-24.924-31.695-44.73C38.48 99.058 34 94.052 34 88V74c0-5.946 4.325-10.882 10-11.834V56c0-30.928 25.072-56 56-56s56 25.072 56 56v6.166c5.675.952 10 5.888 10 11.834v14c0 6.052-4.48 11.058-10.305 11.881-2.067 19.806-14.458 36.541-31.695 44.73z" id="a"/><path d="M165.624 29.268C202.76 32.138 232 63.18 232 101.052V110H32v-8.948c0-38.217 29.775-69.48 67.393-71.855A14.107 14.107 0 0099 32.5C99 44.374 113.998 54 132.5 54c18.502 0 33.5-9.626 33.5-21.5 0-1.098-.128-2.178-.376-3.232z" id="c"/><path d="M29 15.609C30.41 25.23 41.062 33 54 33c12.968 0 23.646-7.817 25-18.26.101-.4-.225-1.74-2.174-1.74H31.174c-1.79 0-2.304 1.24-2.174 2.609z" id="e"/><path id="g" d="M0 0h264v280H0z"/><path d="M180.666 104.495c-2.699-.804-5.67-3.054-8.646-6.326a12.022 12.022 0 00-.02-.003v-.018c-6.846-7.538-13.712-20.484-17.332-33.71-10.985 1.674-24.155 2.649-38.314 2.649-14.449 0-27.868-1.015-38.985-2.752C73.755 77.602 66.866 90.6 60 98.157v.009l-.01.002c-2.98 3.277-5.955 5.528-8.657 6.33A11.949 11.949 0 0050 110v13c0 6.019 4.43 11.002 10.209 11.867 1.743 20.248 14.26 37.416 31.791 45.744v9.443C88.168 191.95 83.941 193 79.5 193c-7.621 0-14.61-3.093-20.059-8.242-1.461.16-2.943.242-4.441.242-18.39 0-34.26-12.316-41.622-30.116C7.1 149.814 3 141.454 3 132c0-1.785.146-3.531.426-5.223C1.214 120.339 0 113.33 0 106c0-12.866 3.739-24.736 10.046-34.275C10.016 71.155 10 70.58 10 70c0-10.957 5.507-20.443 13.53-25.043 7.31-17.588 22.73-29.966 40.773-30.9C68.726 9.075 74.799 6 81.5 6c.95 0 1.89.062 2.812.182C94.09 2.196 104.789 0 116 0c11.211 0 21.91 2.196 31.688 6.182.923-.12 1.861-.182 2.812-.182 6.701 0 12.774 3.075 17.197 8.057 18.044.934 33.463 13.312 40.774 30.9C216.493 49.557 222 59.043 222 70c0 .58-.015 1.155-.046 1.725C228.261 81.265 232 93.135 232 106c0 7.331-1.214 14.34-3.426 20.777A32.06 32.06 0 01229 132c0 9.454-4.1 17.814-10.378 22.884C211.26 172.684 195.39 185 177 185c-1.498 0-2.98-.082-4.441-.242-5.448 5.149-12.438 8.242-20.059 8.242-4.441 0-8.668-1.05-12.5-2.946v-9.443c17.53-8.328 30.048-25.496 31.791-45.744C177.57 134.002 182 129.02 182 123v-13c0-1.984-.482-3.856-1.334-5.505z" id="i"/></defs><g fill="none" fill-rule="evenodd"><g transform="translate(16 36)"><mask id="b" fill="#fff"><use xlink:href="#a"/></mask><use fill="#D0C6AC" xlink:href="#a"/><g mask="url(#b)" fill="#614335"><path d="M-32 0h264v244H-32z"/></g><path d="M156 94v8c0 30.928-25.072 56-56 56s-56-25.072-56-56v-8c0 30.928 25.072 56 56 56s56-25.072 56-56z" fill-opacity=".1" fill="#000" mask="url(#b)"/></g><g transform="translate(-16 170)"><mask id="d" fill="#fff"><use xlink:href="#c"/></mask><use fill="#E6E6E6" xlink:href="#c"/><g mask="url(#d)" fill="#65C9FF"><path d="M0 0h264v110H0z"/></g><g mask="url(#d)" font-family="Avenir-Heavy, Avenir" font-size="28" font-weight="600" letter-spacing="-.459"><text transform="translate(77 58)"><tspan x="22.432" y="31" fill="#FFF">Hola!</tspan></text></g></g><g transform="translate(62 134)"><mask id="f" fill="#fff"><use xlink:href="#e"/></mask><use fill-opacity=".7" fill="#000" xlink:href="#e"/><rect fill="#FFF" mask="url(#f)" x="39" y="2" width="31" height="16" rx="5"/><path d="M65.984 23.747c.01.083.016.167.016.253v9c0 6.075-4.925 11-11 11h-1c-6.075 0-11-4.925-11-11v-9c0-.086.005-.17.016-.253A1.922 1.922 0 0143 23.5c0-1.933 2.91-3.5 6.5-3.5 2.01 0 3.808.491 5 1.263 1.192-.772 2.99-1.263 5-1.263 3.59 0 6.5 1.567 6.5 3.5 0 .083-.005.165-.016.247z" fill="#FF4F6D"/></g><path d="M104 130c0 4.418 5.373 8 12 8s12-3.582 12-8" fill="#000" fill-opacity=".16"/><g transform="translate(60 90)" fill="#000" fill-opacity=".6"><circle cx="30" cy="22" r="6"/><circle cx="82" cy="22" r="6"/></g><g fill-rule="nonzero" fill="#000" fill-opacity=".6"><path d="M75.63 99.159c3.915-5.51 14.648-8.598 23.893-6.328a2 2 0 00.954-3.884c-10.737-2.637-23.165.94-28.107 7.894a2 2 0 003.26 2.318zM156.37 99.159c-3.915-5.51-14.648-8.598-23.893-6.328a2 2 0 01-.954-3.884c10.737-2.637 23.165.94 28.108 7.894a2 2 0 01-3.26 2.318z"/></g><g transform="translate(-16)"><mask id="h" fill="#fff"><use xlink:href="#g"/></mask><g mask="url(#h)"><path d="M66 109.778V89c0-22.887 11.65-43.054 29.343-54.893.535 2.51.889 5.285 1.047 8.286 10.492-1.464 22.8-2.306 35.964-2.306 12.874 0 24.93.806 35.27 2.21.16-2.962.512-5.702 1.04-8.184C186.354 45.953 198 66.116 198 89v20.777c-9.022-1.07-21.87-20.386-27.332-40.339-10.985 1.674-24.155 2.649-38.314 2.649-14.449 0-27.868-1.015-38.985-2.752C87.922 89.33 75.038 108.717 66 109.778z" fill-opacity=".16" fill="#000"/><g transform="translate(16)"><mask id="j" fill="#fff"><use xlink:href="#i"/></mask><use fill="#314756" xlink:href="#i"/><g mask="url(#j)" fill="#2C1B18"><path d="M-16 0h264v280H-16z"/></g></g></g></g></g></svg>