<svg width="200" height="262" xmlns="http://www.w3.org/2000/svg" xmlns:xlink="http://www.w3.org/1999/xlink"><defs><path d="M124 144.611V163h4c39.765 0 72 32.235 72 72v9H0v-9c0-39.765 32.235-72 72-72h4v-18.389c-17.237-8.189-29.628-24.924-31.695-44.73C38.48 99.058 34 94.052 34 88V74c0-5.946 4.325-10.882 10-11.834V56c0-30.928 25.072-56 56-56s56 25.072 56 56v6.166c5.675.952 10 5.888 10 11.834v14c0 6.052-4.48 11.058-10.305 11.881-2.067 19.806-14.458 36.541-31.695 44.73z" id="a"/><path d="M181.544 32.33C210.784 41.488 232 68.792 232 101.052V110H32v-8.948c0-32.655 21.739-60.232 51.534-69.05A18.001 18.001 0 0083 36.348c0 16.281 22.162 29.48 49.5 29.48S182 52.629 182 36.348c0-1.363-.155-2.704-.456-4.018z" id="c"/><path id="e" d="M0 0h264v280H0z"/><path d="M59 102.34c-1.676-.142-3.242-.457-4.147-1.067C51.695 99.143 50 95.051 50 90.5 50 83.596 54.477 78 60 78c6.863-34.172 36.915-60 73-60 37.556 0 68.577 27.976 73.36 64.226.264 1.998.468 9.128.612 21.39.019.105.028.192.028.259V158c0 17.673-14.327 32-32 32h-18v-9.389c17.53-8.328 30.048-25.496 31.791-45.744C194.57 134.002 199 129.02 199 123v-13c0-1.516-.281-3.487-.794-5.597-17.888-5.384-35.506-21.71-45.762-44.745-.41-.92-.803-1.84-1.18-2.762-4.586 12.236-13.217 21.116-25.892 26.639 4.873-5.947 9.022-12.875 12.449-20.783-7.977 8.506-18.348 16.74-30.48 23.743-12.37 7.143-24.932 12.06-36.472 14.68A11.968 11.968 0 0067 110v13c0 6.019 4.43 11.002 10.209 11.867 1.743 20.248 14.26 37.416 31.791 45.744V190H67a8 8 0 01-8-8v-79.66z" id="g"/></defs><g fill="none" fill-rule="evenodd"><g transform="translate(0 18)"><mask id="b" fill="#fff"><use xlink:href="#a"/></mask><use fill="#D0C6AC" xlink:href="#a"/><g mask="url(#b)" fill="#EDB98A"><path d="M-32 0h264v244H-32z"/></g><path d="M156 94v8c0 30.928-25.072 56-56 56s-56-25.072-56-56v-8c0 30.928 25.072 56 56 56s56-25.072 56-56z" fill-opacity=".1" fill="#000" mask="url(#b)"/></g><g transform="translate(-32 152)"><mask id="d" fill="#fff"><use xlink:href="#c"/></mask><use fill="#E6E6E6" xlink:href="#c"/><g mask="url(#d)" fill="#E6E6E6"><path d="M0 0h264v110H0z"/></g></g><g fill="#000"><path d="M86 131c0 7.732 6.268 14 14 14s14-6.268 14-14" fill-opacity=".7"/><path d="M88 112c0 4.418 5.373 8 12 8s12-3.582 12-8" fill-opacity=".16"/><g transform="translate(44 72)" fill-opacity=".6"><circle cx="30" cy="22" r="6"/><circle cx="82" cy="22" r="6"/></g><g fill-rule="nonzero" fill-opacity=".6"><path d="M59.63 81.159c3.915-5.51 14.648-8.598 23.893-6.328a2 2 0 00.954-3.884c-10.737-2.637-23.165.94-28.107 7.894a2 2 0 003.26 2.318zM140.37 81.159c-3.915-5.51-14.648-8.598-23.893-6.328a2 2 0 01-.954-3.884c10.737-2.637 23.165.94 28.108 7.894a2 2 0 01-3.26 2.318z"/></g></g><g transform="translate(-32 -18)"><mask id="f" fill="#fff"><use xlink:href="#e"/></mask><g mask="url(#f)"><g transform="translate(-1)"><mask id="h" fill="#fff"><use xlink:href="#g"/></mask><use fill="#944F23" xlink:href="#g"/><g mask="url(#h)" fill="#A55728"><path d="M0 0h266v280H0z"/></g></g><path d="M60.899 102.775a8.113 8.113 0 01-1.946.225 79.78 79.78 0 01-.953.093v-.155c-5.053-.627-9-5.956-9-12.438C49 83.596 53.477 78 59 78c.107 0 .215.002.321.006C65.863 43.828 95.915 18 132 18c40.87 0 74 33.13 74 74v14.151c-20.704-1.957-42.618-19.68-54.556-46.493-.41-.92-.803-1.84-1.18-2.762-4.586 12.236-13.217 21.116-25.892 26.639 4.873-5.947 9.022-12.875 12.449-20.783-7.977 8.506-18.348 16.74-30.48 23.743-15.662 9.043-31.63 14.52-45.442 16.28z" fill="#FFF" opacity=".44" fill-opacity=".16"/></g></g></g></svg>