<svg width="200" height="280" xmlns="http://www.w3.org/2000/svg" xmlns:xlink="http://www.w3.org/1999/xlink"><defs><path d="M124 144.611V163h4c39.765 0 72 32.235 72 72v9H0v-9c0-39.765 32.235-72 72-72h4v-18.389c-17.237-8.189-29.628-24.924-31.695-44.73C38.48 99.058 34 94.052 34 88V74c0-5.946 4.325-10.882 10-11.834V56c0-30.928 25.072-56 56-56s56 25.072 56 56v6.166c5.675.952 10 5.888 10 11.834v14c0 6.052-4.48 11.058-10.305 11.881-2.067 19.806-14.458 36.541-31.695 44.73z" id="a"/><path d="M181.544 32.33C210.784 41.488 232 68.792 232 101.052V110H32v-8.948c0-32.655 21.739-60.232 51.534-69.05A18.001 18.001 0 0083 36.348c0 16.281 22.162 29.48 49.5 29.48S182 52.629 182 36.348c0-1.363-.155-2.704-.456-4.018z" id="c"/><path d="M29 15.609C30.41 25.23 41.062 33 54 33c12.968 0 23.646-7.817 25-18.26.101-.4-.225-1.74-2.174-1.74H31.174c-1.79 0-2.304 1.24-2.174 2.609z" id="e"/><path id="g" d="M0 0h264v280H0z"/><path d="M114.94 28.337c-3.094-2.98-4.94-6.745-4.94-10.837C110 7.835 120.297 0 133 0s23 7.835 23 17.5c0 4.068-1.824 7.811-4.883 10.783 5.321 1.404 10.75 3.57 16.192 6.723 20.188 11.7 23.875 38.105 24.593 48.153.317 4.451-.154 8.95-1.15 13.279-.588 2.549-1.66 2.612-2.133-.237-1.241-7.494.629-15.986-3.436-22.9-3.434-5.84-14.948-33.165-52.183-31.63-37.235 1.535-41.812 18.85-48.213 27.177-2.586 3.365-4.275 7.689-5.602 11.677-.929 2.79-1.45 5.662-1.65 8.59-.108 1.566-.19 3.154-.113 4.723.058 1.195.667 2.746.5 3.87-.499 3.379-2.317-.802-2.654-2.008-.92-3.285-1.38-6.807-1.245-10.219.343-8.69 2.573-17.978 6.334-25.833 7.66-15.997 16.588-26.81 31.68-30.618.949-.24 1.917-.471 2.903-.693z" id="i"/></defs><g fill="none" fill-rule="evenodd"><g transform="translate(0 36)"><mask id="b" fill="#fff"><use xlink:href="#a"/></mask><use fill="#D0C6AC" xlink:href="#a"/><g mask="url(#b)" fill="#D08B5B"><path d="M-32 0h264v244H-32z"/></g><path d="M156 94v8c0 30.928-25.072 56-56 56s-56-25.072-56-56v-8c0 30.928 25.072 56 56 56s56-25.072 56-56z" fill-opacity=".1" fill="#000" mask="url(#b)"/></g><g transform="translate(-32 170)"><mask id="d" fill="#fff"><use xlink:href="#c"/></mask><use fill="#E6E6E6" xlink:href="#c"/><g mask="url(#d)" fill="#FFF"><path d="M0 0h264v110H0z"/></g></g><g transform="translate(46 134)"><mask id="f" fill="#fff"><use xlink:href="#e"/></mask><use fill-opacity=".7" fill="#000" xlink:href="#e"/><rect fill="#FFF" mask="url(#f)" x="39" y="2" width="31" height="16" rx="5"/><path d="M65.984 23.747c.01.083.016.167.016.253v9c0 6.075-4.925 11-11 11h-1c-6.075 0-11-4.925-11-11v-9c0-.086.005-.17.016-.253A1.922 1.922 0 0143 23.5c0-1.933 2.91-3.5 6.5-3.5 2.01 0 3.808.491 5 1.263 1.192-.772 2.99-1.263 5-1.263 3.59 0 6.5 1.567 6.5 3.5 0 .083-.005.165-.016.247z" fill="#FF4F6D"/></g><path d="M88 130c0 4.418 5.373 8 12 8s12-3.582 12-8" fill="#000" fill-opacity=".16"/><g transform="translate(44 90)"><circle fill="#FFF" cx="82" cy="22" r="12"/><circle fill-opacity=".7" fill="#000" cx="82" cy="22" r="6"/><path d="M16.16 25.447C18.007 21.65 22.164 19 26.998 19c4.816 0 8.961 2.63 10.817 6.407.552 1.122-.233 2.04-1.024 1.36-2.451-2.107-5.932-3.423-9.793-3.423-3.74 0-7.124 1.235-9.56 3.228-.891.728-1.818-.014-1.278-1.125z" fill-opacity=".6" fill="#000"/></g><g fill-rule="nonzero" fill="#000" fill-opacity=".6"><path d="M59.63 99.159c3.915-5.51 14.648-8.598 23.893-6.328a2 2 0 00.954-3.884c-10.737-2.637-23.165.94-28.107 7.894a2 2 0 003.26 2.318zM140.37 99.159c-3.915-5.51-14.648-8.598-23.893-6.328a2 2 0 01-.954-3.884c10.737-2.637 23.165.94 28.108 7.894a2 2 0 01-3.26 2.318z"/></g><g transform="translate(-32)"><mask id="h" fill="#fff"><use xlink:href="#g"/></mask><g mask="url(#h)"><g transform="translate(-1)"><mask id="j" fill="#fff"><use xlink:href="#i"/></mask><use fill="#28354B" xlink:href="#i"/><g mask="url(#j)"><path d="M1 0h264v280H1z" fill="#724133"/></g></g></g></g></g></svg>