<svg width="200" height="261" xmlns="http://www.w3.org/2000/svg" xmlns:xlink="http://www.w3.org/1999/xlink"><defs><path d="M124 144.611V163h4c39.765 0 72 32.235 72 72v9H0v-9c0-39.765 32.235-72 72-72h4v-18.389c-17.237-8.189-29.628-24.924-31.695-44.73C38.48 99.058 34 94.052 34 88V74c0-5.946 4.325-10.882 10-11.834V56c0-30.928 25.072-56 56-56s56 25.072 56 56v6.166c5.675.952 10 5.888 10 11.834v14c0 6.052-4.48 11.058-10.305 11.881-2.067 19.806-14.458 36.541-31.695 44.73z" id="a"/><path d="M165.96 29.295c36.976 3.03 66.04 34 66.04 71.757V110H32v-8.948c0-38.1 29.592-69.287 67.045-71.832-.03.373-.045.75-.045 1.128 0 11.863 14.998 21.48 33.5 21.48 18.502 0 33.5-9.617 33.5-21.48 0-.353-.013-.704-.04-1.053z" id="c"/><path id="e" d="M0 0h264v280H0z"/><path d="M185.832 73.929c1.757.988 3.148 10.899 3.216 14.689.042 2.338.08 11.256-2.394 10.485-.753-.235-1.902-4.956-2.066-7.719-.163-2.763-1.733-12.164-4.141-16.49-.55-.988-2.126-2.723-1.445-3.56.844-1.036 1.664-.434 2.695-.02 1.115.45 3.937 2.504 4.135 2.615zm.805-2.972c-.746.962-5.841-1.74-7.966-2.913-17.845-9.86-21.31-12.995-49.425-12.586-28.116.409-47.379 13.582-48.462 14.93-.754.937-1.716 3.44-2.508 10.413-.791 6.972.22 19.477-2.646 19.462-2.438-.013-2.97-23.786-1.916-33.217.161-1.448.784-4.038.333-5.34-.394-1.138-2.322-1.135-2.014-3.03.35-2.159 2.525-1.087 3.473-2.119 1.795-1.954-.974-2.417-1.433-4.126-.682-2.542 1.29-3.197 3.067-4 1.966-.887 1.71-.108 3.306-1.846-2.131-1.563-2.902-3.691.016-4.833 1.24-.485 4.465.157 5.436-.572.253-.19.353-1.28.51-1.502 1.55-2.219 1.168-3.825 1.01-6.316-.129-2.038-.112-3.909 2.329-4.112 1.628-.136 2.952 1.194 4.411 1.586 1.619.435 1.01.752 2.279-.121 2.226-1.533.711-4.52 2.476-6.303 2.423-2.446 4.01 1.14 5.956 1.41 4.222.588 2.867-3.7 5.367-5.272 2.988-1.876 3.277 2.251 5.143 2.398 1.617.127 4.529-2.993 5.938-3.575 4.183-1.726 6.255 3.13 10.237 2.511 2.89-.45 3.67-.816 6.277.828 2.53 1.595 3.132.454 5.998.432 2.025-.016 3.265 1.676 4.959 1.853.844.088 1.653-.792 2.56-.737 3.237.197 3.442 4.383 6.014 5.536 2.35 1.053 5.112-.427 7.445-.7 5.69-.668 1.793 4.647 1.954 7.819 2.233.52 4.5-1.564 6.724-1.18 3.502.604 2.18 4.233 1.368 6.68 2.427-.044 8.76-2.737 10.332.707.81 1.776-1.078 4.147-1.047 5.952.043 2.542 1.91 4.645 2.571 7.05.892 3.247 2.163 11.95-.072 14.833z" id="g"/></defs><g fill="none" fill-rule="evenodd"><g transform="translate(0 17)"><mask id="b" fill="#fff"><use xlink:href="#a"/></mask><use fill="#D0C6AC" xlink:href="#a"/><g mask="url(#b)" fill="#D08B5B"><path d="M-32 0h264v244H-32z"/></g><path d="M156 94v8c0 30.928-25.072 56-56 56s-56-25.072-56-56v-8c0 30.928 25.072 56 56 56s56-25.072 56-56z" fill-opacity=".1" fill="#000" mask="url(#b)"/></g><g transform="translate(-32 151)"><mask id="d" fill="#fff"><use xlink:href="#c"/></mask><use fill="#E6E6E6" xlink:href="#c"/><g mask="url(#d)" fill="#E6E6E6"><path d="M0 0h264v110H0z"/></g><g opacity=".6" mask="url(#d)" fill="#000" fill-opacity=".16"><ellipse cx="40.5" cy="27.848" rx="39.635" ry="26.914" transform="translate(92 4)"/></g></g><g fill="#000"><path d="M86 130c0 7.732 6.268 14 14 14s14-6.268 14-14" fill-opacity=".7"/><path d="M88 111c0 4.418 5.373 8 12 8s12-3.582 12-8" fill-opacity=".16"/><g transform="translate(44 71)" fill-opacity=".6"><circle cx="30" cy="22" r="6"/><circle cx="82" cy="22" r="6"/></g><g fill-rule="nonzero" fill-opacity=".6"><path d="M59.63 80.159c3.915-5.51 14.648-8.598 23.893-6.328a2 2 0 00.954-3.884c-10.737-2.637-23.165.94-28.107 7.894a2 2 0 003.26 2.318zM140.37 80.159c-3.915-5.51-14.648-8.598-23.893-6.328a2 2 0 01-.954-3.884c10.737-2.637 23.165.94 28.108 7.894a2 2 0 01-3.26 2.318z"/></g></g><g transform="translate(-32 -19)"><mask id="f" fill="#fff"><use xlink:href="#e"/></mask><g mask="url(#f)"><g><mask id="h" fill="#fff"><use xlink:href="#g"/></mask><use fill="#2E3257" xlink:href="#g"/><g mask="url(#h)" fill="#2C1B18"><path d="M0 0h264v280H0z"/></g></g></g></g></g></svg>