<svg width="200" height="257" xmlns="http://www.w3.org/2000/svg" xmlns:xlink="http://www.w3.org/1999/xlink"><defs><path d="M124 144.611V163h4c39.765 0 72 32.235 72 72v9H0v-9c0-39.765 32.235-72 72-72h4v-18.389c-17.237-8.189-29.628-24.924-31.695-44.73C38.48 99.058 34 94.052 34 88V74c0-5.946 4.325-10.882 10-11.834V56c0-30.928 25.072-56 56-56s56 25.072 56 56v6.166c5.675.952 10 5.888 10 11.834v14c0 6.052-4.48 11.058-10.305 11.881-2.067 19.806-14.458 36.541-31.695 44.73z" id="a"/><path d="M165.624 29.268C202.76 32.138 232 63.18 232 101.052V110H32v-8.948c0-38.217 29.775-69.48 67.393-71.855A14.107 14.107 0 0099 32.5C99 44.374 113.998 54 132.5 54c18.502 0 33.5-9.626 33.5-21.5 0-1.098-.128-2.178-.376-3.232z" id="c"/><path d="M35.118 15.128C36.176 24.62 44.226 32 54 32c9.804 0 17.874-7.426 18.892-16.96.082-.767-.775-2.04-1.85-2.04H37.088c-1.08 0-2.075 1.178-1.97 2.128z" id="e"/><path id="g" d="M0 0h264v280H0z"/><path d="M65.18 77.737c2.183-1.632 15.227-2.258 17.578-3.648.734-.434 1.303-.873 1.742-1.309.439.436 1.009.875 1.742 1.31 2.351 1.389 15.395 2.015 17.578 3.647 2.21 1.654 3.824 5.448 3.647 8.414-.212 3.56-4.106 12.052-13.795 13.03-2.114-2.353-5.435-3.87-9.172-3.87-3.737 0-7.058 1.517-9.172 3.87-9.69-.978-13.583-9.47-13.795-13.03-.176-2.966 1.437-6.76 3.647-8.414M65.845 94.901l.017.007-.017-.007m79.018-38.916c-.389-5.955-1.585-11.833-2.629-17.699-.281-1.579-1.81-12.286-2.5-12.286-.232 9.11-1.032 18.08-2.064 27.14-.309 2.708-.632 5.416-.845 8.134-.171 2.196.135 4.848-.397 6.972-.679 2.706-4.08 5.232-6.725 6.165-6.6 2.326-12.105-7.303-17.742-10.12-7.318-3.656-19.897-4.527-27.38.239-7.645-4.766-20.224-3.895-27.542-.239-5.637 2.817-11.142 12.446-17.742 10.12-2.645-.933-6.047-3.459-6.725-6.165-.532-2.124-.226-4.776-.397-6.972-.213-2.718-.536-5.426-.845-8.135C30.298 44.08 29.497 35.11 29.265 26c-.689 0-2.218 10.707-2.5 12.286-1.043 5.866-2.24 11.744-2.627 17.7-.4 6.119.077 12.181 1.332 18.177.599 2.865 1.299 5.713 2.049 8.541.834 3.143-.32 9.262.053 12.488.707 6.104 3.582 18.008 6.811 23.259 1.561 2.538 3.39 4.123 5.433 6.168 1.967 1.97 2.788 5.021 4.91 7.118 3.956 3.908 9.72 6.234 15.64 6.806C65.677 143.05 74.506 146 84.5 146c9.995 0 18.823-2.95 24.135-7.457 5.919-.572 11.683-2.898 15.64-6.806 2.121-2.097 2.942-5.149 4.909-7.118 2.042-2.045 3.872-3.63 5.433-6.168 3.229-5.251 6.104-17.155 6.81-23.259.374-3.226-.78-9.345.054-12.488.75-2.828 1.45-5.676 2.05-8.54 1.254-5.997 1.73-12.06 1.332-18.179z" id="i"/><path d="M198.747 37.856c-5.14-3.832-11.219-7.116-17.56-8.378-6.446-1.282-10.358-1.593-16.704-.073-1.633.392-2.184.78-3.62-.148-1.212-.783-9.663-9.49-35.421-4.657-26.035 4.885-33.77 44.075-43.427 45.566-3.48.537-7.781-.384-7.916-2.527-3.963 6.034-5.008 14.007-3.327 21.074 1.447 6.086 4.497 11.804 9.989 15.137 4.726 2.867 11.26 4.116 16.72 3.587 2.486-.24 4.746-.763 7.033-1.766 2.759-1.21 4.957-3.39 7.664-4.543a53.85 53.85 0 01-9.176 6.418c-1.64.907-3.304 1.532-5.113 2.024-1.236.336-3.761 1.481-4.956 1.182 7.807 1.396 15.16.18 22.32-3.163 3.23-1.508 6.338-3.332 9.19-5.476 2.833-2.13 6.095-4.307 8.31-7.11-.93 1.204.698-.586.913-.805a67.183 67.183 0 001.787-1.895c1.002-1.104 1.998-2.228 2.93-3.391 1.995-2.486 3.852-5.082 5.508-7.803 1.678-2.756 8.359-13.873 10.375-16.49-1.905 5.708-3.98 11.418-6.407 16.925 4.713-1.47 9.284-5.544 12.295-9.34 3.392-4.276 5.4-9.268 6.108-14.666 3.826 10.416 12.785 18.63 22.032 24.295-2.003-3.73-5.055-6.885-7.052-10.678 9.191 9.329 24.568 13.893 28.595 27.574 1.033-4.758 4.353-8.58 5.348-13.433 1.104-5.389 1.896-11.11 1.72-16.616-.396-12.242-8.631-23.723-18.158-30.824z" id="l"/><filter x="-.8%" y="-2.4%" width="101.5%" height="109.8%" filterUnits="objectBoundingBox" id="k"><feOffset dy="2" in="SourceAlpha" result="shadowOffsetOuter1"/><feColorMatrix values="0 0 0 0 0 0 0 0 0 0 0 0 0 0 0 0 0 0 0.2 0" in="shadowOffsetOuter1" result="shadowMatrixOuter1"/><feMerge><feMergeNode in="shadowMatrixOuter1"/><feMergeNode in="SourceGraphic"/></feMerge></filter></defs><g fill="none" fill-rule="evenodd"><g transform="translate(0 13)"><mask id="b" fill="#fff"><use xlink:href="#a"/></mask><use fill="#D0C6AC" xlink:href="#a"/><g mask="url(#b)" fill="#EDB98A"><path d="M-32 0h264v244H-32z"/></g><path d="M156 94v8c0 30.928-25.072 56-56 56s-56-25.072-56-56v-8c0 30.928 25.072 56 56 56s56-25.072 56-56z" fill-opacity=".1" fill="#000" mask="url(#b)"/></g><g transform="translate(-32 147)"><mask id="d" fill="#fff"><use xlink:href="#c"/></mask><use fill="#E6E6E6" xlink:href="#c"/><g mask="url(#d)" fill="#262E33"><path d="M0 0h264v110H0z"/></g><g fill="#FFF" mask="url(#d)"><path d="M159.303 65.568c-.156.93-1.922 5.089-3.229 2.95-.509-.832.402-3.46.685-4.209.558-1.472.974-1.638 2.263-2.33.109 1.188.411 2.398.281 3.589m-2.984 3.319c.03.012.158.132 0 0m-.008-.007c-.006-.004 0 0 0 0m-7.281-4.675c.01.008.053.042 0 0m-12.475 4.956c-.207 1.22-.475 2.439-.904 3.6-.17-1.732.103-3.456 1-4.95-.01.45-.042.901-.096 1.35m-.01-2.502c-.004-.016-.159-.24 0 0m-16.637 10.144c.153-1.533.768-3.017 1.906-4.044-.277 1.625-1.072 2.67-1.906 4.044m49.93-13.506c0 .637-2.06 2.335-2.574 2.803-.879.799-1.815 1.44-3.077 1.254-3.462-.51-2.09-4.206-2.641-6.481-.434-1.788-.879-1.114-2.082-1.227-1.118-.104-1.518-.656-2.682.187-2.096 1.519-3.766 3.496-4.659 5.98-.324-1.695-1.245-4.503-3.452-4.093-1.632.303-2.984 2.926-3.663 4.243-.052-1.198-.668-3.076-2.175-2.218-1.036.589-.991 3.381-1.218 4.41-.465 2.111-1.379 7.617-4.644 6.901 1.029-1.918 3.28-7.97 1.35-9.937-2.712-2.762-4.775 4.156-4.886 5.84-.08 1.205.806 3.944.329 4.692-.585.918-2.428 1.313-3.303.641-1.405-1.078-.85-2.83-.53-4.199.422-1.794.62-3.597.734-5.437.085-1.38 1.286-7.548-1.028-7.632-2.095-.075-2.309 5.138-2.458 6.563-.185 1.751-.296 3.525-.235 5.288.062 1.782.394 2.97-.297 4.643-.74 1.793-4.264 7.17-6.373 3.6 2.24-.983 4.911-5.518 3.71-8.067-1.667-3.534-5.416 1.85-5.96 3.656-.877 2.915-.491 6.722 2.864 7.671 3.493.989 6.19-2.286 7.421-5.18 1.002 1.588 2.845 1.986 4.55 1.505a5.763 5.763 0 001.89-.947c1.07-.81.444-.509 1.58-.542 3.297-.094 5.096-1.153 6.332-4.545-.015.934.343 2.36 1.598 1.849.974-.397.968-2.01 1.148-2.87.57-2.713 1.466-5.541 3.599-7.422 1.84 2.002.48 5.427 1.69 7.56 1.868 3.288 2.808-2.532 3.1-3.654.057 4.882 5.861 3.084 7.118-.157 3.3 3.515 10.234.349 8.923-4.678M163.434 73.349c-3.63 0-7.605 1.026-11.127 1.817a97.993 97.993 0 00-10.502 2.97c-3.871 1.339-7.812 2.554-11.59 4.122-3.276 1.36-7.508 2.353-9.512 5.416-.004.008 2.102-.088 2.272-.117 1.05-.174 1.952-.543 2.917-.956 1.747-.746 3.482-1.519 5.224-2.276 3.904-1.698 7.98-3.095 11.988-4.554 3.996-1.453 8.095-2.685 12.255-3.625 3.39-.767 7.182-.914 10.303-2.273-.118.044-.04.014.23-.091-.079.038-2.221-.433-2.458-.433"/><path d="M116.117 78.825c-2.27-.998-5.477-.558-7.835-.239-2.143.29-5.496.935-6.833 1.108-1.106.14-4.406 1.04-5.01-.197-.649-1.331 2.72-5.403 3.456-6.363 3.315-4.32 7.3-9.12 12.08-11.923-.44 1.95-.825 3.918-1.227 5.876-.166.808-.95 5.164.486 5.508.59.14 1.772-2.783 1.87-3.044.823-2.19 1.012-4.71 1.391-7.002.217-1.311 1.2-4.05-.694-4.502-1.629-.389-3.836 1.727-4.923 2.619-3.282 2.692-6.127 5.947-8.787 9.22-1.31 1.613-2.615 3.234-3.714 4.997-.904 1.45-3.09 4.49-2.145 6.282 1.698 3.221 9.84.398 12.432-.032 2.045-.339 4.152-.66 6.227-.376 2.162.295 2.057 1.27 1.339 3.196-1.478 3.96-4.776 7.36-7.724 10.32-1.299 1.303-6.38 7.419-7.66 4.091-.87-2.26-.1-5.035.9-7.114.468-.973 1.089-1.861 1.577-2.824.133-.263.802-2.425.947-2.473-3.87 1.35-6.117 6.585-6.332 10.287-.102 1.741.136 4.324 1.8 5.368 1.664 1.045 3.226-.227 4.549-1.185 3.642-2.64 6.891-5.998 9.865-9.335 1.626-1.824 8.453-10.287 3.965-12.263"/></g></g><g transform="translate(46 111)"><mask id="f" fill="#fff"><use xlink:href="#e"/></mask><use fill-opacity=".7" fill="#000" xlink:href="#e"/><rect fill="#FFF" mask="url(#f)" x="39" y="2" width="31" height="16" rx="5"/><g mask="url(#f)" fill="#FF4F6D"><g transform="translate(38 24)"><circle cx="11" cy="11" r="11"/><circle cx="21" cy="11" r="11"/></g></g></g><path d="M88 107c0 4.418 5.373 8 12 8s12-3.582 12-8" fill="#000" fill-opacity=".16"/><g transform="translate(44 67)" fill="#000" fill-opacity=".6"><circle cx="30" cy="22" r="6"/><circle cx="82" cy="22" r="6"/></g><g fill-rule="nonzero" fill="#000" fill-opacity=".6"><path d="M59.63 76.159c3.915-5.51 14.648-8.598 23.893-6.328a2 2 0 00.954-3.884c-10.737-2.637-23.165.94-28.107 7.894a2 2 0 003.26 2.318zM140.37 76.159c-3.915-5.51-14.648-8.598-23.893-6.328a2 2 0 01-.954-3.884c10.737-2.637 23.165.94 28.108 7.894a2 2 0 01-3.26 2.318z"/></g><g transform="translate(-32 -23)"><mask id="h" fill="#fff"><use xlink:href="#g"/></mask><g mask="url(#h)"><g transform="translate(-1)"><g transform="translate(49 72)"><mask id="j" fill="#fff"><use xlink:href="#i"/></mask><use fill="#5E7AA9" xlink:href="#i"/><g mask="url(#j)" fill="#724133"><path d="M0 0h168v152H0z"/></g></g><g filter="url(#k)" transform="translate(68 93)" fill="#252C2F" fill-rule="nonzero"><path d="M34 41h-2.758C17.315 41 9 33.336 9 20.5 9 10.127 10.817 0 32.53 0h2.94C57.183 0 59 10.127 59 20.5 59 32.569 48.721 41 34 41zM32.385 6C13 6 13 12.841 13 21.502 13 28.572 16.116 37 30.97 37H34c12.365 0 21-6.373 21-15.498C55 12.84 55 6 35.615 6h-3.23zM96 41h-2.758C79.315 41 71 33.336 71 20.5 71 10.127 72.817 0 94.53 0h2.94C119.183 0 121 10.127 121 20.5 121 32.569 110.721 41 96 41zM94.385 6C75 6 75 12.841 75 21.502 75 28.572 78.12 37 92.97 37H96c12.365 0 21-6.373 21-15.498C117 12.84 117 6 97.615 6h-3.23z"/><path d="M2.955 5.772C3.645 5.096 11.21 0 32.5 0c17.851 0 21.63 1.853 27.35 4.652l.419.207c.398.14 2.431.83 4.81.907a16.998 16.998 0 004.563-.869C76.17 1.722 82.562 0 97.5 0c21.29 0 28.854 5.096 29.545 5.772 1.634 0 2.955 1.29 2.955 2.885v2.886c0 1.596-1.32 2.886-2.955 2.886 0 0-6.901 0-6.901 2.886 0 2.885-1.962-4.176-1.962-5.772v-2.81c-3.603-1.38-10.054-3.947-20.682-3.947-11.842 0-17.739 2.1-22.798 4.185l.057.137-.003 1.986-2.217 5.35L69.8 15.36c-.244-.097-.772-.27-1.504-.451-2.04-.503-4.137-.656-5.992-.276-.68.14-1.312.35-1.891.633l-2.643 1.29-2.643-5.16.117-2.295.08-.195c-4.362-2.033-8.385-4.12-22.824-4.12-10.628 0-17.078 2.565-20.682 3.944v2.812c0 1.596-2.954 8.657-2.954 5.772 0-2.886-5.91-2.886-5.91-2.886-1.63 0-2.954-1.29-2.954-2.886V8.657c0-1.595 1.324-2.885 2.955-2.885z"/></g><mask id="m" fill="#fff"><use xlink:href="#l"/></mask><use fill="#28354B" transform="matrix(-1 0 0 1 286.93 0)" xlink:href="#l"/><g mask="url(#m)"><path d="M1 0h264v280H1z" fill="#4A312C"/></g></g></g></g></g></svg>