<svg width="200" height="280" xmlns="http://www.w3.org/2000/svg" xmlns:xlink="http://www.w3.org/1999/xlink"><defs><filter x="-3.8%" y="-6.7%" width="107.7%" height="126.7%" filterUnits="objectBoundingBox" id="g"><feOffset dy="2" in="SourceAlpha" result="shadowOffsetOuter1"/><feColorMatrix values="0 0 0 0 0 0 0 0 0 0 0 0 0 0 0 0 0 0 0.2 0" in="shadowOffsetOuter1" result="shadowMatrixOuter1"/><feMerge><feMergeNode in="shadowMatrixOuter1"/><feMergeNode in="SourceGraphic"/></feMerge></filter><filter x="-6.7%" y="-3.4%" width="113.3%" height="113.8%" filterUnits="objectBoundingBox" id="h"><feOffset dy="2" in="SourceAlpha" result="shadowOffsetOuter1"/><feColorMatrix values="0 0 0 0 0 0 0 0 0 0 0 0 0 0 0 0 0 0 0.2 0" in="shadowOffsetOuter1" result="shadowMatrixOuter1"/><feMerge><feMergeNode in="shadowMatrixOuter1"/><feMergeNode in="SourceGraphic"/></feMerge></filter><filter x="-6.7%" y="-3.4%" width="113.3%" height="113.8%" filterUnits="objectBoundingBox" id="i"><feOffset dy="2" in="SourceAlpha" result="shadowOffsetOuter1"/><feColorMatrix values="0 0 0 0 0 0 0 0 0 0 0 0 0 0 0 0 0 0 0.2 0" in="shadowOffsetOuter1" result="shadowMatrixOuter1"/><feMerge><feMergeNode in="shadowMatrixOuter1"/><feMergeNode in="SourceGraphic"/></feMerge></filter><filter x="-3.8%" y="-3.8%" width="107.7%" height="115.4%" filterUnits="objectBoundingBox" id="j"><feOffset dy="2" in="SourceAlpha" result="shadowOffsetOuter1"/><feColorMatrix values="0 0 0 0 0 0 0 0 0 0 0 0 0 0 0 0 0 0 0.2 0" in="shadowOffsetOuter1" result="shadowMatrixOuter1"/><feMerge><feMergeNode in="shadowMatrixOuter1"/><feMergeNode in="SourceGraphic"/></feMerge></filter><filter x="-2.5%" y="-2.5%" width="105%" height="110%" filterUnits="objectBoundingBox" id="k"><feOffset dy="2" in="SourceAlpha" result="shadowOffsetOuter1"/><feColorMatrix values="0 0 0 0 0 0 0 0 0 0 0 0 0 0 0 0 0 0 0.2 0" in="shadowOffsetOuter1" result="shadowMatrixOuter1"/><feMerge><feMergeNode in="shadowMatrixOuter1"/><feMergeNode in="SourceGraphic"/></feMerge></filter><filter x="-2.7%" y="-2.7%" width="105.4%" height="110.8%" filterUnits="objectBoundingBox" id="l"><feOffset dy="2" in="SourceAlpha" result="shadowOffsetOuter1"/><feColorMatrix values="0 0 0 0 0 0 0 0 0 0 0 0 0 0 0 0 0 0 0.2 0" in="shadowOffsetOuter1" result="shadowMatrixOuter1"/><feMerge><feMergeNode in="shadowMatrixOuter1"/><feMergeNode in="SourceGraphic"/></feMerge></filter><filter x="-1.8%" y="-1.9%" width="103.6%" height="107.4%" filterUnits="objectBoundingBox" id="m"><feOffset dy="2" in="SourceAlpha" result="shadowOffsetOuter1"/><feColorMatrix values="0 0 0 0 0 0 0 0 0 0 0 0 0 0 0 0 0 0 0.2 0" in="shadowOffsetOuter1" result="shadowMatrixOuter1"/><feMerge><feMergeNode in="shadowMatrixOuter1"/><feMergeNode in="SourceGraphic"/></feMerge></filter><path d="M124 144.611V163h4c39.765 0 72 32.235 72 72v9H0v-9c0-39.765 32.235-72 72-72h4v-18.389c-17.237-8.189-29.628-24.924-31.695-44.73C38.48 99.058 34 94.052 34 88V74c0-5.946 4.325-10.882 10-11.834V56c0-30.928 25.072-56 56-56s56 25.072 56 56v6.166c5.675.952 10 5.888 10 11.834v14c0 6.052-4.48 11.058-10.305 11.881-2.067 19.806-14.458 36.541-31.695 44.73z" id="a"/><path d="M181.544 32.33C210.784 41.488 232 68.792 232 101.052V110H32v-8.948c0-32.655 21.739-60.232 51.534-69.05A18.001 18.001 0 0083 36.348c0 16.281 22.162 29.48 49.5 29.48S182 52.629 182 36.348c0-1.363-.155-2.704-.456-4.018z" id="c"/><path id="e" d="M0 0h264v280H0z"/></defs><g fill="none" fill-rule="evenodd"><g transform="translate(0 36)"><mask id="b" fill="#fff"><use xlink:href="#a"/></mask><use fill="#D0C6AC" xlink:href="#a"/><g mask="url(#b)" fill="#FFDBB4"><path d="M-32 0h264v244H-32z"/></g><path d="M156 94v8c0 30.928-25.072 56-56 56s-56-25.072-56-56v-8c0 30.928 25.072 56 56 56s56-25.072 56-56z" fill-opacity=".1" fill="#000" mask="url(#b)"/></g><g transform="translate(-32 170)"><mask id="d" fill="#fff"><use xlink:href="#c"/></mask><use fill="#E6E6E6" xlink:href="#c"/><g mask="url(#d)" fill="#262E33"><path d="M0 0h264v110H0z"/></g></g><g transform="translate(46 134)"><path d="M44.19 16.106c2.565 1.736 6.015 2.8 9.81 2.8 3.795 0 7.245-1.064 9.81-2.8.172-5.11 4.398-9.309 9.896-10.106-3.366 1.959-5.686 5.495-5.686 9.677 0 5.668 5.473 10.568 11.803 10.568H80c-1.358.487-2.84.755-4.392.755-5.322 0-9.821-3.153-11.294-7.486-2.475 2.156-6.177 3.525-10.314 3.525-4.137 0-7.84-1.37-10.314-3.525C42.213 23.847 37.714 27 32.392 27c-1.552 0-3.034-.268-4.392-.756l.177.001c6.33 0 11.803-4.9 11.803-10.568 0-4.182-2.32-7.718-5.686-9.677 5.498.797 9.724 4.996 9.897 10.106z" opacity=".6" fill="#000" fill-opacity=".6"/><circle fill-opacity=".2" fill="#FF4646" cx="17" cy="15" r="9"/><circle fill-opacity=".2" fill="#FF4646" cx="91" cy="15" r="9"/></g><path d="M88 130c0 4.418 5.373 8 12 8s12-3.582 12-8" fill="#000" fill-opacity=".16"/><g transform="translate(44 90)" fill="#000" fill-opacity=".6"><circle cx="30" cy="22" r="6"/><circle cx="82" cy="22" r="6"/></g><g fill-rule="nonzero" fill="#000" fill-opacity=".6"><path d="M59.63 99.159c3.915-5.51 14.648-8.598 23.893-6.328a2 2 0 00.954-3.884c-10.737-2.637-23.165.94-28.107 7.894a2 2 0 003.26 2.318zM140.37 99.159c-3.915-5.51-14.648-8.598-23.893-6.328a2 2 0 01-.954-3.884c10.737-2.637 23.165.94 28.108 7.894a2 2 0 01-3.26 2.318z"/></g><g transform="translate(-32)"><mask id="f" fill="#fff"><use xlink:href="#e"/></mask><g mask="url(#f)"><path d="M188 97.937a7.83 7.83 0 01-.083.063c-2.903-47.147-48.47-30.258-55.917-56.664C124.553 67.742 78.986 50.853 76.083 98a7.825 7.825 0 01-.083-.063v.229a12.008 12.008 0 00-9.893 10.227A16.437 16.437 0 0162 97.5c0-1.645.24-3.233.689-4.733C58.63 89.761 56 84.937 56 79.5c0-6.493 3.75-12.11 9.203-14.803A16.453 16.453 0 0164 58.5c0-7.635 5.185-14.058 12.227-15.941-.15-.998-.227-2.02-.227-3.059C76 28.178 85.178 19 96.5 19c2.63 0 5.143.495 7.453 1.397C107.683 15.306 113.705 12 120.5 12c4.262 0 8.22 1.3 11.5 3.527A20.405 20.405 0 01143.5 12c6.795 0 12.817 3.306 16.547 8.397A20.448 20.448 0 01167.5 19c11.322 0 20.5 9.178 20.5 20.5 0 1.04-.077 2.06-.227 3.059C194.815 44.442 200 50.865 200 58.5c0 2.543-.575 4.951-1.602 7.102C202.97 68.536 206 73.664 206 79.5c0 4.71-1.973 8.959-5.138 11.965A16.458 16.458 0 01202 97.5c0 4.175-1.55 7.987-4.107 10.893A12.008 12.008 0 00188 98.166v-.23zm-80 82.674v4.2a16.63 16.63 0 01-2.5.189c-6.82 0-12.675-4.139-15.188-10.042C81.754 174.348 75 167.213 75 158.5c0-1.471.192-2.897.554-4.254C68.858 152.144 64 145.889 64 138.5c0-3.744 1.247-7.198 3.35-9.967a12.012 12.012 0 008.859 6.334c1.743 20.248 14.26 37.416 31.791 45.744zm48 0c17.53-8.328 30.048-25.496 31.791-45.744a12.012 12.012 0 008.86-6.334A16.427 16.427 0 01200 138.5c0 7.39-4.858 13.644-11.554 15.746.362 1.357.554 2.783.554 4.254 0 8.713-6.754 15.849-15.312 16.458C171.175 180.86 165.321 185 158.5 185c-.85 0-1.685-.064-2.5-.188v-4.201z" fill="#1F3540"/><g filter="url(#g)" opacity=".9" transform="scale(1 -1) rotate(-20 -104.666 -519.066)" fill-rule="nonzero"><path d="M3.611 10S1.95 0 13 0c7.222 0 12.278 5.714 12.278 5.714s-5.417 8.572-13.722 8.572C5.056 14.286 3.61 10 3.61 10z" fill="#5DD362"/><path d="M25.278 5.714s-5.417 8.572-13.722 8.572c-4.334 0-6.428-1.929-7.367-3.215-2.095 1.786-2.817 3.429-2.817 3.5-.072.286-.36.429-.65.429-.072 0-.216 0-.289-.071-.36-.143-.505-.572-.36-.929.071-.214 1.877-4.143 7.366-6.714 7.944-4.143 17.839-1.572 17.839-1.572z" fill="#42BC53"/></g><g filter="url(#h)" transform="rotate(60 77.13 149.592)"><path d="M15 12C15 5.9 9 0 9 0S1.7 4.3 1 13c-.7 8.7 5.8 10.7 5.8 10.7S15 20.8 15 12z" fill="#5DD362"/><path d="M8 29c.1 0 .2 0 .3-.1.5-.2.8-.8.6-1.3-.5-1.5-.9-2.9-1.1-4.4C10 22.2 15 18.9 15 12 15 5.9 9 0 9 0s-.4 1.1-1 3c-.2.5-5.2 13.6-.9 25.3.1.4.5.7.9.7z" fill="#42BC53"/></g><g filter="url(#i)" transform="rotate(-120 64.465 11.775)"><path d="M15 12C15 5.9 9 0 9 0S1.7 4.3 1 13c-.7 8.7 5.8 10.7 5.8 10.7S15 20.8 15 12z" fill="#5DD362"/><path d="M8 29c.1 0 .2 0 .3-.1.5-.2.8-.8.6-1.3-.5-1.5-.9-2.9-1.1-4.4C10 22.2 15 18.9 15 12 15 5.9 9 0 9 0s-.4 1.1-1 3c-.2.5-5.2 13.6-.9 25.3.1.4.5.7.9.7z" fill="#42BC53"/></g><g filter="url(#j)" transform="matrix(-1 0 0 1 92 29)"><path d="M24.424 20.956a5.168 5.168 0 00.997-3.853 5.165 5.165 0 00-2.02-3.43c-.299-.225-.693-.41-1.141-.567.453-.141.854-.313 1.16-.527a5.206 5.206 0 001.277-7.243 5.206 5.206 0 00-7.242-1.277c-.306.215-.604.533-.893.911.006-.475-.033-.909-.143-1.267a5.164 5.164 0 00-2.532-3.07A5.169 5.169 0 009.926.25a5.207 5.207 0 00-3.453 6.493c.11.356.314.735.582 1.124-.448-.151-.869-.243-1.241-.25a5.206 5.206 0 00-5.29 5.11 5.177 5.177 0 00.937 3.066 5.198 5.198 0 004.171 2.223c.373.006.796-.071 1.25-.206-.283.38-.5.75-.621 1.103a5.196 5.196 0 00.662 4.68 5.171 5.171 0 002.561 1.93 5.206 5.206 0 006.61-3.225c.12-.352.178-.779.19-1.252.273.386.56.708.857.932a5.167 5.167 0 003.853.997 5.163 5.163 0 003.43-2.02z" fill="#4ACAD3" fill-rule="nonzero"/><path d="M11.178 8.64a1.444 1.444 0 112.763-.845c.233.763-.232 4.182-.232 4.182s-2.298-2.574-2.53-3.337zm-2.242 5.797a1.444 1.444 0 11.05-2.888c.798.014 3.905 1.513 3.905 1.513s-3.158 1.389-3.955 1.375zm6.057-2.018s1.738-2.98 2.392-3.438a1.444 1.444 0 111.657 2.366c-.654.458-4.049 1.072-4.049 1.072zm-3.073 6.838a1.444 1.444 0 01-.895-1.836c.26-.755 2.646-3.246 2.646-3.246s.345 3.432.086 4.187a1.445 1.445 0 01-1.837.895zm5.32-1.96c-.638-.48-2.27-3.52-2.27-3.52s3.37.732 4.008 1.212a1.444 1.444 0 11-1.738 2.307z" fill="#FFF"/></g><g filter="url(#k)" transform="translate(86 16)"><path d="M30.526 33.098l.258-2.314 2.314-.26c2.847-.319 5.11-2.116 6.054-4.81 1.066-3.042.065-6.359-2.547-8.281l-1.874-1.38.932-2.134c1.229-2.806.645-5.895-1.52-8.061-2.167-2.166-5.256-2.75-8.063-1.522l-2.133.933-1.38-1.875C20.644.786 17.327-.218 14.284.848c-2.692.943-4.49 3.207-4.809 6.054l-.26 2.313-2.313.26c-2.847.319-5.11 2.117-6.054 4.81-.938 2.676-.298 5.56 1.669 7.528a7.7 7.7 0 00.877.753l1.875 1.38-.934 2.134c-1.226 2.807-.643 5.896 1.523 8.062 2.166 2.166 5.255 2.749 8.062 1.523l2.134-.934 1.38 1.875c1.917 2.61 5.24 3.612 8.283 2.547 2.693-.945 4.49-3.208 4.809-6.055z" fill="#FDB599" fill-rule="nonzero"/><path d="M22.882 25.19a1.44 1.44 0 01-2.782.746C19.894 25.17 20 20 20 20s-2.492 4.529-3.055 5.091a1.44 1.44 0 01-2.036-2.036C15.47 22.492 20 20 20 20s-5.168.106-5.936-.1a1.44 1.44 0 01.745-2.782C15.577 17.324 20 20 20 20s-2.676-4.423-2.882-5.19a1.44 1.44 0 012.782-.746c.206.768.1 5.936.1 5.936s2.492-4.529 3.055-5.091a1.44 1.44 0 012.036 2.036C24.53 17.508 20 20 20 20s5.169-.106 5.936.1a1.44 1.44 0 01-.745 2.782C24.423 22.676 20 20 20 20s2.675 4.422 2.882 5.19z" fill="#FFF"/></g><g filter="url(#l)" transform="translate(155 26)"><path d="M34.758 29.822a7.355 7.355 0 001.418-5.483 7.35 7.35 0 00-2.874-4.88c-.426-.321-.987-.584-1.625-.808.645-.201 1.216-.445 1.652-.75 3.342-2.34 4.158-6.964 1.817-10.307-2.34-3.342-6.964-4.157-10.306-1.817-.436.306-.86.758-1.27 1.296.008-.676-.048-1.294-.204-1.803A7.349 7.349 0 0019.763.9a7.355 7.355 0 00-5.638-.543C10.223 1.55 8.019 5.695 9.21 9.597c.156.507.447 1.046.83 1.6-.638-.216-1.237-.346-1.768-.355-4.08-.071-7.456 3.19-7.528 7.27a7.368 7.368 0 001.334 4.363 7.397 7.397 0 005.936 3.164c.53.01 1.133-.1 1.777-.293-.4.54-.71 1.069-.883 1.57a7.395 7.395 0 00.943 6.66 7.36 7.36 0 003.645 2.746c3.858 1.329 8.077-.73 9.405-4.588.173-.502.255-1.109.271-1.782.39.549.797 1.007 1.22 1.326a7.352 7.352 0 005.484 1.418 7.348 7.348 0 004.88-2.874z" fill="#F7D30C" fill-rule="nonzero"/><path d="M15.908 12.295a2.055 2.055 0 113.93-1.202c.332 1.086-.33 5.95-.33 5.95s-3.269-3.662-3.6-4.748zm-3.192 8.25a2.055 2.055 0 11.072-4.11c1.135.02 5.558 2.153 5.558 2.153s-4.495 1.977-5.63 1.957zm8.62-2.872s2.474-4.241 3.404-4.892a2.055 2.055 0 112.358 3.367c-.93.651-5.762 1.525-5.762 1.525zm-4.373 9.731a2.055 2.055 0 01-1.274-2.613c.37-1.073 3.765-4.62 3.765-4.62s.492 4.886.123 5.96a2.056 2.056 0 01-2.614 1.273zm7.57-2.79c-.907-.683-3.23-5.008-3.23-5.008s4.797 1.042 5.704 1.725a2.055 2.055 0 11-2.474 3.283z" fill="#FFF"/></g><g filter="url(#m)" transform="translate(114)"><path d="M54.138 31.546c1.825-6.983-5.994-12.414-8.953-14.184.514-2.934 1.672-12.561-4.468-16.116C34.612-2.288 26.924 3.45 24.6 5.394c-.2-.125-.435-.268-.703-.423C20.83 3.196 13.13-.381 7.85 4.736 2.205 10.204 5.537 18.74 6.805 21.434c-2.16 2.01-8.384 8.592-5.818 15.59.706 1.929 2.011 3.456 3.882 4.538 4.03 2.334 9.607 1.958 11.723 1.707.993 1.88 3.83 6.712 7.888 9.061 1.67.967 3.375 1.413 5.07 1.325 6.905-.358 9.916-9.995 10.67-12.912 2.861-.396 12.086-2.199 13.918-9.197z" fill="#FF7398" fill-rule="nonzero"/><path d="M27.764 25.603s3.685 8.188.354 8.71c-3.334.521-1.46-8.591-1.46-8.591s-7.112 6.007-8.15 3.028c-1.04-2.979 7.7-4.048 7.7-4.048s-7.987-4.692-5.393-6.836c2.594-2.144 6.216 6.092 6.216 6.092s1.945-8.92 4.82-7.254c2.876 1.664-3.857 7.811-3.857 7.811s8.877-.99 8.37 2.352c-.505 3.342-8.6-1.264-8.6-1.264z" fill="#FFF"/></g><g transform="translate(181 129)"><rect fill="#E6E6E6" x="9" width="2" height="39" rx="1"/><path fill="#9177FF" fill-rule="nonzero" d="M20 37h-9.43L17 20H6L0 41h8.636L4 60z"/></g></g></g></g></svg>