<svg width="200" height="262" xmlns="http://www.w3.org/2000/svg" xmlns:xlink="http://www.w3.org/1999/xlink"><defs><path d="M124 144.611V163h4c39.765 0 72 32.235 72 72v9H0v-9c0-39.765 32.235-72 72-72h4v-18.389c-17.237-8.189-29.628-24.924-31.695-44.73C38.48 99.058 34 94.052 34 88V74c0-5.946 4.325-10.882 10-11.834V56c0-30.928 25.072-56 56-56s56 25.072 56 56v6.166c5.675.952 10 5.888 10 11.834v14c0 6.052-4.48 11.058-10.305 11.881-2.067 19.806-14.458 36.541-31.695 44.73z" id="a"/><path d="M181.544 32.33C210.784 41.488 232 68.792 232 101.052V110H32v-8.948c0-32.655 21.739-60.232 51.534-69.05A18.001 18.001 0 0083 36.348c0 16.281 22.162 29.48 49.5 29.48S182 52.629 182 36.348c0-1.363-.155-2.704-.456-4.018z" id="c"/><path id="e" d="M0 0h264v280H0z"/><path d="M133.506 81.335a53.863 53.863 0 01-2.326-.91c-.386-.105-.78-.192-1.18-.26v-.248c-12.776-5.683-25.122-16.846-33.89-32.032a86.921 86.921 0 01-7.044-15.488c-8.635 10.544-21.321 21.205-36.724 30.098C42.778 68.017 33.147 72.291 24 75.266v61.98a56.234 56.234 0 0026 25.365V181h-4c-7.673 0-15.065 1.2-22 3.423V230c0 14.106-10.43 25.776-24 27.716V74C0 33.13 33.13 0 74 0s74 33.13 74 74v123.608C135.525 187.237 119.49 181 102 181h-4v-18.389c17.53-8.328 30.048-25.496 31.791-45.744C135.57 116.002 140 111.02 140 105V92a12 12 0 00-6.494-10.665z" id="g"/></defs><g fill="none" fill-rule="evenodd"><g transform="translate(0 18)"><mask id="b" fill="#fff"><use xlink:href="#a"/></mask><use fill="#D0C6AC" xlink:href="#a"/><g mask="url(#b)" fill="#EDB98A"><path d="M-32 0h264v244H-32z"/></g><path d="M156 94v8c0 30.928-25.072 56-56 56s-56-25.072-56-56v-8c0 30.928 25.072 56 56 56s56-25.072 56-56z" fill-opacity=".1" fill="#000" mask="url(#b)"/></g><g transform="translate(-32 152)"><mask id="d" fill="#fff"><use xlink:href="#c"/></mask><use fill="#E6E6E6" xlink:href="#c"/><g mask="url(#d)" fill="#E6E6E6"><path d="M0 0h264v110H0z"/></g></g><g fill="#000"><path d="M86 131c0 7.732 6.268 14 14 14s14-6.268 14-14" fill-opacity=".7"/><path d="M88 112c0 4.418 5.373 8 12 8s12-3.582 12-8" fill-opacity=".16"/><g transform="translate(44 72)" fill-opacity=".6"><circle cx="30" cy="22" r="6"/><circle cx="82" cy="22" r="6"/></g><g fill-rule="nonzero" fill-opacity=".6"><path d="M59.63 81.159c3.915-5.51 14.648-8.598 23.893-6.328a2 2 0 00.954-3.884c-10.737-2.637-23.165.94-28.107 7.894a2 2 0 003.26 2.318zM140.37 81.159c-3.915-5.51-14.648-8.598-23.893-6.328a2 2 0 01-.954-3.884c10.737-2.637 23.165.94 28.108 7.894a2 2 0 01-3.26 2.318z"/></g></g><g transform="translate(-32 -18)"><mask id="f" fill="#fff"><use xlink:href="#e"/></mask><g mask="url(#f)"><g transform="translate(58 18)"><mask id="h" fill="#fff"><use xlink:href="#g"/></mask><use fill="#944F23" xlink:href="#g"/><g mask="url(#h)" fill="#A55728"><path d="M-58-18h264v280H-58z"/></g></g><path d="M191.506 99.335c4.869 1.773 9.757 2.737 14.494 2.813v113.46C193.525 205.237 177.49 199 160 199h-4v-18.389c17.53-8.328 30.048-25.496 31.791-45.744C193.57 134.002 198 129.02 198 123v-13a12 12 0 00-6.494-10.665zm-2.326-.91c-.386-.105-.78-.192-1.18-.26v-.248c.393.175.786.344 1.18.509zM82 155.246a56.234 56.234 0 0026 25.366V199h-4c-7.673 0-15.065 1.2-22 3.423v-47.177z" fill-opacity=".24" fill="#000"/></g></g></g></svg>