<svg width="260" height="280" xmlns="http://www.w3.org/2000/svg" xmlns:xlink="http://www.w3.org/1999/xlink"><defs><path d="M124 144.611V163h4c39.765 0 72 32.235 72 72v9H0v-9c0-39.765 32.235-72 72-72h4v-18.389c-17.237-8.189-29.628-24.924-31.695-44.73C38.48 99.058 34 94.052 34 88V74c0-5.946 4.325-10.882 10-11.834V56c0-30.928 25.072-56 56-56s56 25.072 56 56v6.166c5.675.952 10 5.888 10 11.834v14c0 6.052-4.48 11.058-10.305 11.881-2.067 19.806-14.458 36.541-31.695 44.73z" id="a"/><path d="M108 13.07V32c0 13.255 10.745 24 24 24s24-10.745 24-24V13.07c17.919 2.006 31.72 7.482 31.996 21.575C213.854 45.568 232 71.165 232 100.999V110H32v-9c0-29.835 18.146-55.432 44.004-66.355.276-14.093 14.077-19.57 31.996-21.574z" id="c"/><path id="e" d="M0 0h264v280H0z"/><path d="M80.02 73.81A55.925 55.925 0 0077 92v6.166c-5.675.952-10 5.888-10 11.834v13c0 6.019 4.43 11.002 10.209 11.867 1.743 20.248 14.26 37.416 31.791 45.744v10.944A36.36 36.36 0 0193.5 195a36.35 36.35 0 01-23.19-8.312 54.1 54.1 0 01-5.81.312c-21.094 0-39.337-12.208-48.049-29.945C8.934 151.924 4 143.288 4 133.5c0-2.115.23-4.175.667-6.159A57.875 57.875 0 011 107c0-12.756 4.118-24.55 11.097-34.127A28.882 28.882 0 0112 70.5c0-11.297 6.573-21.06 16.104-25.67 8.433-18.128 26.454-30.894 47.546-31.78A28.406 28.406 0 0195.5 5c2.327 0 4.589.279 6.754.805C111.776 2.058 122.148 0 133 0c10.346 0 20.255 1.87 29.408 5.292A28.74 28.74 0 01166.5 5a28.406 28.406 0 0119.85 8.05c21.092.886 39.113 13.652 47.546 31.78C243.426 49.44 250 59.203 250 70.5c0 .8-.033 1.59-.097 2.373C256.882 82.45 261 94.243 261 107a57.875 57.875 0 01-3.667 20.341c.437 1.984.667 4.044.667 6.159 0 9.788-4.934 18.424-12.451 23.555C236.837 174.792 218.594 187 197.5 187a54.1 54.1 0 01-5.81-.312A36.35 36.35 0 01168.5 195c-4.018 0-7.884-.65-11.5-1.849v-12.54c17.53-8.328 30.048-25.496 31.791-45.744C194.57 134.002 199 129.02 199 123v-13c0-5.946-4.325-10.882-10-11.834V92c0-5.441-.776-10.702-2.224-15.676l1.377 12.87-11.34-24-45.136-19.523-30.114 10.557L80.065 76.42l-.045-2.609z" id="g"/><path d="M80.465 16.394C84.38 8.46 92.553 3 102 3c8.92 0 16.703 4.866 20.84 12.088.21-.057.432-.088.66-.088h8a2.5 2.5 0 110 5h-6.537A23.998 23.998 0 01126 27c0 13.255-10.745 24-24 24S78 40.255 78 27c0-1.422.124-2.815.36-4.169C78.277 18.455 74.915 15 70.863 15c-3.736 0-6.887 2.94-7.42 6.83.365 1.665.558 3.395.558 5.17 0 13.255-10.745 24-24 24S16 40.255 16 27c0-2.435.363-4.785 1.037-7H10.5a2.5 2.5 0 110-5h8c.228 0 .45.03.66.088C23.297 7.866 31.08 3 40 3c9.352 0 17.455 5.35 21.416 13.155C63.493 13.039 66.949 11 70.862 11c4.013 0 7.545 2.144 9.603 5.394zM40 47c11.046 0 20-8.954 20-20S51.046 7 40 7s-20 8.954-20 20 8.954 20 20 20zm62 0c11.046 0 20-8.954 20-20s-8.954-20-20-20-20 8.954-20 20 8.954 20 20 20z" id="j"/><filter x="-.8%" y="-2.1%" width="101.6%" height="108.3%" filterUnits="objectBoundingBox" id="i"><feOffset dy="2" in="SourceAlpha" result="shadowOffsetOuter1"/><feColorMatrix values="0 0 0 0 0 0 0 0 0 0 0 0 0 0 0 0 0 0 0.1 0" in="shadowOffsetOuter1"/></filter></defs><g fill="none" fill-rule="evenodd"><g transform="translate(32 36)"><mask id="b" fill="#fff"><use xlink:href="#a"/></mask><use fill="#D0C6AC" xlink:href="#a"/><g mask="url(#b)" fill="#AE5D29"><path d="M-32 0h264v244H-32z"/></g><path d="M156 94v8c0 30.928-25.072 56-56 56s-56-25.072-56-56v-8c0 30.928 25.072 56 56 56s56-25.072 56-56z" fill-opacity=".1" fill="#000" mask="url(#b)"/></g><g transform="translate(0 170)"><mask id="d" fill="#fff"><use xlink:href="#c"/></mask><use fill="#B7C1DB" xlink:href="#c"/><g mask="url(#d)" fill="#65C9FF"><path d="M0 0h264v110H0z"/></g><path d="M102 61.74V110h-7V58.15a64.54 64.54 0 007 3.59zm67-3.59V98.5a3.5 3.5 0 11-7 0V61.74a64.54 64.54 0 007-3.59z" fill="#F4F4F4" mask="url(#d)"/><path d="M131.99 68C98.53 67.997 65.5 52.018 65.5 32.308c0-11.065 10.41-16.737 25.46-19.584C81.875 16.074 76 21.706 76 31.077c0 20.39 27.815 36.919 55.99 36.923zm41.05-55.276c15.05 2.847 25.46 8.519 25.46 19.584 0 19.71-33.031 35.689-66.49 35.692C160.185 67.996 188 51.467 188 31.077c0-9.37-5.875-15.003-14.96-18.353z" fill-opacity=".16" fill="#000" mask="url(#d)"/></g><g fill="#000"><path d="M118 150c0 5.372 6.158 9 14 9s14-3.628 14-9c0-1.105-.95-2-2-2-1.293 0-1.87.905-2 2-1.242 2.938-4.317 4.716-10 5-5.683-.284-8.758-2.062-10-5-.13-1.095-.707-2-2-2-1.05 0-2 .895-2 2z" fill-opacity=".6" fill-rule="nonzero"/><path d="M120 130c0 4.418 5.373 8 12 8s12-3.582 12-8" fill-opacity=".16"/><g fill-opacity=".6"><path d="M92.16 117.553c1.847 3.798 6.004 6.447 10.838 6.447 4.816 0 8.961-2.63 10.817-6.407.552-1.122-.233-2.04-1.024-1.36-2.451 2.107-5.932 3.423-9.793 3.423-3.74 0-7.124-1.235-9.56-3.228-.891-.728-1.818.014-1.278 1.125zM150.16 117.553c1.847 3.798 6.004 6.447 10.838 6.447 4.816 0 8.961-2.63 10.817-6.407.552-1.122-.233-2.04-1.024-1.36-2.451 2.107-5.932 3.423-9.793 3.423-3.74 0-7.124-1.235-9.56-3.228-.891-.728-1.818.014-1.278 1.125z"/></g><g fill-rule="nonzero" fill-opacity=".6"><path d="M91.63 99.159c3.915-5.51 14.648-8.598 23.893-6.328a2 2 0 00.954-3.884c-10.737-2.637-23.165.94-28.107 7.894a2 2 0 003.26 2.318zM172.37 99.159c-3.915-5.51-14.648-8.598-23.893-6.328a2 2 0 01-.954-3.884c10.737-2.637 23.165.94 28.108 7.894a2 2 0 01-3.26 2.318z"/></g></g><g><mask id="f" fill="#fff"><use xlink:href="#e"/></mask><g mask="url(#f)"><g transform="translate(-1)"><mask id="h" fill="#fff"><use xlink:href="#g"/></mask><use fill="#314756" xlink:href="#g"/><g mask="url(#h)"><path d="M1 0h264v280H1z" fill="#2C1B18"/></g><path d="M76.631 98.975A48.603 48.603 0 0176 91.152C76 62.35 101.296 39 132.5 39S189 62.35 189 91.152c0 2.659-.216 5.271-.631 7.823-4.09-25.092-27.545-44.33-55.869-44.33-28.324 0-51.78 19.238-55.869 44.33z" fill="#92D9FF"/><g transform="translate(62 85)"><use fill="#000" filter="url(#i)" xlink:href="#j"/><use fill="#252C2F" xlink:href="#j"/></g></g></g></g></g></svg>