<svg width="200" height="277" xmlns="http://www.w3.org/2000/svg" xmlns:xlink="http://www.w3.org/1999/xlink"><defs><path d="M124 144.611V163h4c39.765 0 72 32.235 72 72v9H0v-9c0-39.765 32.235-72 72-72h4v-18.389c-17.237-8.189-29.628-24.924-31.695-44.73C38.48 99.058 34 94.052 34 88V74c0-5.946 4.325-10.882 10-11.834V56c0-30.928 25.072-56 56-56s56 25.072 56 56v6.166c5.675.952 10 5.888 10 11.834v14c0 6.052-4.48 11.058-10.305 11.881-2.067 19.806-14.458 36.541-31.695 44.73z" id="a"/><path d="M105.192 29.052a23.41 23.41 0 00-.192 3c0 13.807 12.088 25 27 25s27-11.193 27-25a23.41 23.41 0 00-.192-3H160c39.765 0 72 32.235 72 72V110H32v-8.948c0-39.765 32.235-72 72-72h1.192z" id="c"/><path id="e" d="M0 0h264v280H0z"/><path d="M83.498 93.841c-11.374.378-16.448 5.88-20.269.289-2.868-4.198-1.668-11.256 1.012-15.227 3.813-5.652 8.986-2.918 14.77-3.563 1.572-.175 3.152-.617 4.487-1.34 1.336.723 2.916 1.165 4.488 1.34 5.784.645 10.957-2.089 14.77 3.563 2.68 3.97 3.88 11.03 1.011 15.227-3.82 5.591-8.894-.667-20.269-.289zM138.72 26c-3.384 14.075-4.939 28.434-7.392 42.671a322.61 322.61 0 01-1.666 8.879c-.124.62-.247 2.923-.851 3.214-1.83.884-5.557-3.817-6.554-4.879-2.503-2.666-4.985-5.356-8.034-7.448-6.16-4.227-13.373-6.726-20.878-7.32-3.14-.248-7.386.186-10.345 1.993-2.96-1.807-7.205-2.24-10.346-1.992-7.505.593-14.717 3.092-20.877 7.32-3.05 2.091-5.53 4.781-8.035 7.447-.996 1.062-4.724 5.763-6.553 4.88-.604-.292-.727-2.595-.852-3.215a322.61 322.61 0 01-1.665-8.879C32.22 54.434 30.664 40.075 27.28 26c-.984 0-1.848 18.748-1.958 20.495-.447 7.094-.969 14.03-.302 21.131 1.15 12.249 2.35 27.608 11.572 36.962 8.333 8.451 20.431 10.218 30.867 15.553 1.343.687 3.125 1.535 5.047 2.23 2.025 1.563 6.04 2.629 10.666 2.629 4.852 0 9.033-1.173 10.948-2.862a46.308 46.308 0 004.421-1.997c10.435-5.336 22.534-7.102 30.867-15.553 9.222-9.354 10.421-24.713 11.572-36.962.667-7.1.145-14.037-.302-21.131-.11-1.747-.974-20.495-1.958-20.495z" id="g"/><path d="M83.972 55.817C60.51 69.414 22.862 82.111 29 138 9.622 133-.044 117.44 0 91.324.08 44.148 52.074 0 82 0c.668 0 1.333.03 1.992.088A22.918 22.918 0 0186 0c29.85 0 81.918 44.148 82 91.324.044 25.477-9.623 41.036-29 46.676 6.115-55.889-31.596-68.586-55.028-82.183z" id="i"/></defs><g fill="none" fill-rule="evenodd"><g transform="translate(0 33)"><mask id="b" fill="#fff"><use xlink:href="#a"/></mask><use fill="#D0C6AC" xlink:href="#a"/><g mask="url(#b)" fill="#D08B5B"><path d="M-32 0h264v244H-32z"/></g><path d="M156 94v8c0 30.928-25.072 56-56 56s-56-25.072-56-56v-8c0 30.928 25.072 56 56 56s56-25.072 56-56z" fill-opacity=".1" fill="#000" mask="url(#b)"/></g><g transform="translate(-32 167)"><mask id="d" fill="#fff"><use xlink:href="#c"/></mask><use fill="#E6E6E6" xlink:href="#c"/><g mask="url(#d)" fill="#262E33"><path d="M0 0h264v110H0z"/></g><path d="M100.785 29.122C97.74 40.732 96 54.173 96 68.5c0 15.209 1.96 29.42 5.362 41.5H32v-8.948c0-38.687 30.512-70.248 68.785-71.93zM163.638 110C167.04 97.92 169 83.709 169 68.5c0-14.306-1.735-27.73-4.771-39.326C202.025 31.363 232 62.707 232 101.052V110h-68.362z" fill="#3A4C5A"/><path d="M181 86l9.556-7.167a4 4 0 014.856.043L202 84l-21 2z" fill="#E6E6E6"/><path d="M101 28c-4 19.333-2.333 46.667 5 82H90L76 74l6-9-6-6 19-30c2.028-.63 4.028-.964 6-1zM163 28c4 19.333 2.333 46.667-5 82h16l14-36-6-9 6-6-19-30c-2.028-.63-4.028-.964-6-1z" fill="#2F4351"/><path d="M156 21.539c6.772 4.597 11 11.117 11 18.349 0 7.4-4.428 14.057-11.48 18.668l-5.94-4.68-4.58.332 1-3.151-.078-.061C152.022 47.853 156 42.7 156 36.876V21.54zm-48 0v15.338c0 5.823 3.978 10.976 10.078 14.119l-.078.06 1 3.152-4.58-.332-5.94 4.68C101.428 53.945 97 47.29 97 39.888c0-7.232 4.228-13.752 11-18.349z" fill="#F2F2F2"/></g><g fill="#000"><path d="M86 146c0 7.732 6.268 14 14 14s14-6.268 14-14" fill-opacity=".7"/><path d="M88 127c0 4.418 5.373 8 12 8s12-3.582 12-8" fill-opacity=".16"/><g fill-opacity=".6"><path d="M60.16 114.553C62.007 118.35 66.164 121 70.998 121c4.816 0 8.961-2.63 10.817-6.407.552-1.122-.233-2.04-1.024-1.36-2.451 2.107-5.932 3.423-9.793 3.423-3.74 0-7.124-1.235-9.56-3.228-.891-.728-1.818.014-1.278 1.125zM118.16 114.553c1.847 3.798 6.004 6.447 10.838 6.447 4.816 0 8.961-2.63 10.817-6.407.552-1.122-.233-2.04-1.024-1.36-2.451 2.107-5.932 3.423-9.793 3.423-3.74 0-7.124-1.235-9.56-3.228-.891-.728-1.818.014-1.278 1.125z"/></g><g fill-rule="nonzero" fill-opacity=".6"><path d="M59.63 96.159c3.915-5.51 14.648-8.598 23.893-6.328a2 2 0 00.954-3.884c-10.737-2.637-23.165.94-28.107 7.894a2 2 0 003.26 2.318zM140.37 96.159c-3.915-5.51-14.648-8.598-23.893-6.328a2 2 0 01-.954-3.884c10.737-2.637 23.165.94 28.108 7.894a2 2 0 01-3.26 2.318z"/></g></g><g transform="translate(-32 -3)"><mask id="f" fill="#fff"><use xlink:href="#e"/></mask><g mask="url(#f)"><g transform="translate(49 72)"><mask id="h" fill="#fff"><use xlink:href="#g"/></mask><use fill="#252E32" xlink:href="#g"/><g mask="url(#h)" fill="#724133"><path d="M0 0h166v152H0z"/></g></g><path d="M74.53 97.5c-1-2.41-1.53-4.92-1.53-7.5 0-18.225 26.415-33 59-33s59 14.775 59 33c0 2.58-.53 5.09-1.53 7.5C183.398 82.888 159.972 72 132 72c-27.972 0-51.398 10.888-57.47 25.5z" fill="#EDECE3"/><g transform="translate(48 3)"><mask id="j" fill="#fff"><use xlink:href="#i"/></mask><use fill="#124C74" xlink:href="#i"/><g mask="url(#j)" fill="#25557C"><path d="M-48-3h264v280H-48z"/></g></g><path d="M48.011 96.012c.37 25.1 10.033 40.096 28.99 44.988-19.379-4.71-29.045-19.368-29-43.97 0-.34.003-.679.01-1.018zm104.635-65.544c.744 5.727-.52 12.421-4.646 19.668-11.153 21.43-71.439 21.868-71.666 79.544-.229-61.919 60.471-62.3 71.666-85.136 2.67-4.977 4.141-9.709 4.646-14.076z" fill-opacity=".16" fill="#000"/></g></g></g></svg>