<svg width="200" height="244" xmlns="http://www.w3.org/2000/svg" xmlns:xlink="http://www.w3.org/1999/xlink"><defs><path d="M124 144.611V163h4c39.765 0 72 32.235 72 72v9H0v-9c0-39.765 32.235-72 72-72h4v-18.389c-17.237-8.189-29.628-24.924-31.695-44.73C38.48 99.058 34 94.052 34 88V74c0-5.946 4.325-10.882 10-11.834V56c0-30.928 25.072-56 56-56s56 25.072 56 56v6.166c5.675.952 10 5.888 10 11.834v14c0 6.052-4.48 11.058-10.305 11.881-2.067 19.806-14.458 36.541-31.695 44.73z" id="a"/><path d="M171.32 29.936C205.706 35.366 232 65.14 232 101.052V110H32v-8.948c0-35.914 26.294-65.686 60.682-71.116a23.896 23.896 0 007.554 13.603l29.085 26.229a4 4 0 005.358 0l29.085-26.229a24 24 0 001.234-1.196 23.888 23.888 0 006.322-12.407z" id="c"/><path id="e" d="M0 0h264v280H0z"/><path d="M100.22 98.169c-2.483 2.294-5.128 3.325-8.472 2.604-.576-.124-2.922-4.538-8.748-4.538-5.826 0-8.172 4.414-8.748 4.538-3.344.721-5.99-.31-8.473-2.604-4.67-4.313-8.552-10.26-6.219-16.75 1.216-3.382 3.194-7.095 6.791-8.173 3.842-1.15 9.235-.002 13.106-.788 1.255-.254 2.625-.707 3.543-1.458.918.75 2.288 1.204 3.542 1.458 3.871.786 9.265-.362 13.106.788 3.598 1.078 5.576 4.79 6.792 8.173 2.333 6.49-1.55 12.437-6.22 16.75M138.414 26c-3.37 8.4-2.068 18.858-2.692 27.676-.506 7.167-1.995 17.91-8.284 22.539-3.215 2.367-9.069 6.345-13.27 5.235-2.893-.764-3.202-9.16-7.003-12.303-4.311-3.565-9.695-5.131-15.124-4.89-2.342.105-7.08.08-9.04 1.903-1.96-1.823-6.698-1.798-9.04-1.902-5.429-.242-10.813 1.324-15.124 4.889-3.801 3.143-4.11 11.54-7.002 12.303-4.202 1.11-10.056-2.868-13.272-5.235-6.288-4.63-7.777-15.372-8.284-22.54-.623-8.817.678-19.275-2.692-27.675-1.639 0-.558 16.129-.558 16.129v20.356c.032 15.288 9.467 38.17 30.388 46.908C62.533 111.53 74.122 115 83 115s20.467-3.14 25.584-5.277c20.92-8.737 30.356-31.95 30.388-47.238V42.13S140.052 26 138.413 26" id="g"/></defs><g fill="none" fill-rule="evenodd"><g><mask id="b" fill="#fff"><use xlink:href="#a"/></mask><use fill="#D0C6AC" xlink:href="#a"/><g mask="url(#b)" fill="#D08B5B"><path d="M-32 0h264v244H-32z"/></g><path d="M156 94v8c0 30.928-25.072 56-56 56s-56-25.072-56-56v-8c0 30.928 25.072 56 56 56s56-25.072 56-56z" fill-opacity=".1" fill="#000" mask="url(#b)"/></g><g transform="translate(-32 134)"><mask id="d" fill="#fff"><use xlink:href="#c"/></mask><use fill="#E6E6E6" xlink:href="#c"/><g mask="url(#d)" fill="#262E33"><path d="M0 0h264v110H0z"/></g></g><g fill="#000"><path d="M86 113c0 7.732 6.268 14 14 14s14-6.268 14-14" fill-opacity=".7"/><path d="M88 94c0 4.418 5.373 8 12 8s12-3.582 12-8" fill-opacity=".16"/><g transform="translate(44 54)" fill-opacity=".6"><circle cx="30" cy="22" r="6"/><circle cx="82" cy="22" r="6"/></g><g fill-rule="nonzero" fill-opacity=".6"><path d="M59.63 63.159c3.915-5.51 14.648-8.598 23.893-6.328a2 2 0 00.954-3.884c-10.737-2.637-23.165.94-28.107 7.894a2 2 0 003.26 2.318zM140.37 63.159c-3.915-5.51-14.648-8.598-23.893-6.328a2 2 0 01-.954-3.884c10.737-2.637 23.165.94 28.108 7.894a2 2 0 01-3.26 2.318z"/></g></g><g transform="translate(-32 -36)"><mask id="f" fill="#fff"><use xlink:href="#e"/></mask><g mask="url(#f)"><g transform="translate(49 72)"><mask id="h" fill="#fff"><use xlink:href="#g"/></mask><use fill="#331B0C" xlink:href="#g"/><g mask="url(#h)" fill="#724133"><path d="M0 0h166v152H0z"/></g></g><path d="M159.395 39.781c-3.077-3.088-6.276 3.858-7.772 5.647-3.61 4.32-7.083 8.755-10.755 13.024-7.252 8.43-14.429 16.922-21.634 25.388-1.094 1.286-.961 1.425-2.397 1.549-.951.082-2.274-.409-3.263-.463-2.75-.151-5.462.309-8.138.897-5.345 1.173-11.01 3.106-15.647 6.075-1.217.78-2.002 1.7-3.322 1.943-1.149.212-2.673-.211-3.845-.322-2.08-.195-5.084-1.046-7.127-.605-2.592.56-3.578 3.697-.935 5.086 2.01 1.056 6.01.476 8.264.645 2.573.192 1.788.06 1.423 2.52-.523 3.533.352 7.481 1.842 10.713 3.46 7.505 13.034 15.457 21.766 14.725 7.287-.61 13.672-7.19 16.664-13.503 1.532-3.231 2.436-6.908 2.731-10.472.189-2.266.084-4.67-.566-6.865-.321-1.085-.83-2.208-1.376-3.193-.442-.799-2.4-2.65-2.52-3.453-.232-1.557 4.185-5.73 5.028-6.773 3.973-4.916 7.964-9.812 11.906-14.755 3.881-4.869 7.784-9.725 11.768-14.51 1.804-2.17 10.828-10.364 7.905-13.298" fill="#28354B"/></g></g></g></svg>