
<svg width="200px" height="257px" viewBox="0 0 200 257" version="1.1" xmlns="http://www.w3.org/2000/svg" xmlns:xlink="http://www.w3.org/1999/xlink">
    <!-- Generator: Sketch 50.2 (55047) - http://www.bohemiancoding.com/sketch -->
    <desc>Created with Sketch.</desc>
    <defs>
        <path d="M124,144.610951 L124,163 L128,163 C167.764502,163 200,195.235498 200,235 L200,244 L0,244 L0,235 C-4.86974701e-15,195.235498 32.235498,163 72,163 L76,163 L76,144.610951 C58.7626345,136.422372 46.3722246,119.687011 44.3051388,99.8812385 C38.4803105,99.0577866 34,94.0521096 34,88 L34,74 C34,68.0540074 38.3245733,63.1180731 44,62.1659169 L44,56 C44,25.072054 69.072054,5.68137151e-15 100,0 C130.927946,-5.68137151e-15 156,25.072054 156,56 L156,62.1659169 C161.675427,63.1180731 166,68.0540074 166,74 L166,88 C166,94.0521096 161.51969,99.0577866 155.694861,99.8812385 C153.627775,119.687011 141.237365,136.422372 124,144.610951 Z" id="path-1"></path>
        <path d="M165.624032,29.2681342 C202.760022,32.1373245 232,63.1798426 232,101.051724 L232,110 L32,110 L32,101.051724 C32,62.8348009 61.7752018,31.5722494 99.3929298,29.1967444 C99.1342224,30.2735458 99,31.3767131 99,32.5 C99,44.3741221 113.998461,54 132.5,54 C151.001539,54 166,44.3741221 166,32.5 C166,31.4015235 165.871641,30.3222877 165.624025,29.2681336 Z" id="path-3"></path>
        <path d="M35.117844,15.1280772 C36.1757121,24.6198025 44.2259873,32 54,32 C63.8042055,32 71.8740075,24.574136 72.8917593,15.0400546 C72.9736685,14.272746 72.1167429,13 71.042767,13 C56.1487536,13 44.7379213,13 37.0868244,13 C36.0066168,13 35.0120058,14.1784435 35.117844,15.1280772 Z" id="path-5"></path>
        <rect id="path-7" x="0" y="0" width="264" height="280"></rect>
        <path d="M65.1802189,77.7372986 C67.3631845,76.1045334 80.4065113,75.4786511 82.757829,74.0894494 C83.4916461,73.6553857 84.0610723,73.215719 84.4997781,72.7800074 C84.938814,73.215719 85.5085703,73.6553857 86.2423874,74.0894494 C88.593375,75.4786511 101.636702,76.1045334 103.819667,77.7372986 C106.030032,79.3908276 107.643571,83.1846831 107.466966,86.15095 C107.255041,89.7101408 103.361486,98.2028927 93.6723269,99.1811016 C91.5576925,96.8281927 88.2368647,95.3104528 84.4997781,95.3104528 C80.7633517,95.3104528 77.4421938,96.8281927 75.3275594,99.1811016 C65.6387308,98.2028927 61.7451757,89.7101408 61.5332501,86.15095 C61.3566455,83.1846831 62.9701849,79.3908276 65.1802189,77.7372986 M103.141638,94.9063813 C103.142958,94.9057221 103.144609,94.905063 103.145929,94.9047334 C103.144278,94.905063 103.142958,94.9057221 103.141638,94.9063813 M65.8453747,94.9014375 C65.8493359,94.9030855 65.8565982,94.9057221 65.8618798,94.9076997 C65.8565982,94.9057221 65.8509864,94.9034151 65.8453747,94.9014375 M144.86259,55.9853335 C144.47439,50.0303878 143.277769,44.1519058 142.233986,38.2862777 C141.952739,36.7072349 140.423706,26 139.734783,26 C139.502391,35.1094058 138.701893,44.0803858 137.669664,53.1393651 C137.361018,55.8475668 137.037848,58.5564277 136.825262,61.2741874 C136.653609,63.4695546 136.959614,66.1220564 136.427819,68.2455739 C135.749129,70.9524573 132.348087,73.4783984 129.702978,74.410795 C123.102915,76.7373371 117.597802,67.1077689 111.960977,64.2911336 C104.643272,60.6347152 92.0637391,59.7639895 84.5816434,64.5297918 C76.9361472,59.7639895 64.356614,60.6347152 57.0389092,64.2911336 C51.4024147,67.1077689 45.8969708,76.7373371 39.2972383,74.410795 C36.6521296,73.4783984 33.2504268,70.9524573 32.572397,68.2455739 C32.0402723,66.1220564 32.346277,63.4695546 32.174954,61.2741874 C31.9623682,58.5564277 31.6388681,55.8475668 31.3302226,53.1393651 C30.2983232,44.0803858 29.4974953,35.1094058 29.2654335,26 C28.5761802,26 27.0468169,36.7072349 26.7658999,38.2862777 C25.7221169,44.1519058 24.5258266,50.0303878 24.1376265,55.9853335 C23.738533,62.1047422 24.2148704,68.1674622 25.4695887,74.1632765 C26.0687242,77.0277016 26.7685407,79.8756475 27.518863,82.7041478 C28.352701,85.8467429 27.198994,91.9661516 27.5723395,95.1921317 C28.2787581,101.29572 31.1542781,113.199679 34.3833375,118.45096 C35.9440605,120.989096 37.7734867,122.573742 39.816489,124.619148 C41.7825775,126.58809 42.6038717,129.640049 44.7260985,131.73687 C48.6820428,135.645092 54.4456266,137.971304 60.3656788,138.543134 C65.6773527,143.050212 74.505605,146 84.4997781,146 C94.4946114,146 103.322534,143.050212 108.634538,138.543134 C114.55393,137.971304 120.317843,135.645092 124.274118,131.73687 C126.396015,129.640049 127.217309,126.58809 129.183727,124.619148 C131.2264,122.573742 133.055826,120.989096 134.616879,118.45096 C137.845608,113.199679 140.721458,101.29572 141.427547,95.1921317 C141.800892,91.9661516 140.647185,85.8467429 141.481353,82.7041478 C142.231676,79.8756475 142.931162,77.0277016 143.530628,74.1632765 C144.784686,68.1674622 145.261353,62.1047422 144.86259,55.9853335 Z" id="path-9"></path>
        <filter x="-0.8%" y="-2.4%" width="101.5%" height="109.8%" filterUnits="objectBoundingBox" id="filter-11">
            <feOffset dx="0" dy="2" in="SourceAlpha" result="shadowOffsetOuter1"></feOffset>
            <feColorMatrix values="0 0 0 0 0   0 0 0 0 0   0 0 0 0 0  0 0 0 0.2 0" type="matrix" in="shadowOffsetOuter1" result="shadowMatrixOuter1"></feColorMatrix>
            <feMerge>
                <feMergeNode in="shadowMatrixOuter1"></feMergeNode>
                <feMergeNode in="SourceGraphic"></feMergeNode>
            </feMerge>
        </filter>
        <path d="M198.74696,37.856181 C193.606255,34.0244119 187.528383,30.7396605 181.187893,29.4782789 C174.741035,28.1960616 170.829392,27.8846292 164.483286,29.4052984 C162.85043,29.796545 162.299428,30.1854765 160.862131,29.2568033 C159.651446,28.4743102 151.200134,19.7668788 125.441738,24.5998777 C99.4069464,29.4847361 91.6728211,68.675365 82.0154166,70.1662691 C78.5349852,70.703365 74.2336661,69.781637 74.0992189,67.6388757 C70.1355043,73.6726057 69.0913088,81.6460323 70.7717335,88.7129442 C72.2186099,94.7989286 75.2686121,100.517478 80.7607964,103.849523 C85.4865987,106.716901 92.0203357,107.966046 97.4817987,107.437218 C99.9669245,107.196782 102.227091,106.673576 104.513684,105.671152 C107.272659,104.461694 109.470722,102.280238 112.177835,101.127995 C109.351471,103.576015 106.275372,105.735312 103.001731,107.546357 C101.362599,108.452872 99.6980301,109.07761 97.8887739,109.570058 C96.6533133,109.906073 94.127556,111.05104 92.9327267,110.752066 C100.740244,112.148383 108.093217,110.931649 115.252282,107.589351 C118.483309,106.08125 121.59079,104.256976 124.44325,102.112561 C127.276221,99.9826977 130.537639,97.8062025 132.753871,95.0036468 C131.823641,96.2071517 133.450882,94.4169423 133.665931,94.1980029 C134.274082,93.578226 134.869349,92.9458816 135.453055,92.302954 C136.455298,91.1993278 137.450603,90.0751967 138.383805,88.9120401 C140.37772,86.426318 142.234875,83.8298033 143.891185,81.1086057 C145.568637,78.352682 152.249704,67.2357231 154.266412,64.6190342 C152.361358,70.327001 150.286511,76.0372828 147.858864,81.5445 C152.572444,80.0744315 157.142657,76.0002417 160.15401,72.2035294 C163.545911,67.9275978 165.554691,62.9359795 166.262273,57.5379012 C170.087576,67.953725 179.047309,76.1675881 188.294435,81.8328914 C186.29094,78.1026546 183.238626,74.9478777 181.242068,71.1548033 C190.433037,80.4838679 205.809898,85.0481908 209.837367,98.7289227 C210.869671,93.9714569 214.189889,90.1482867 215.184533,85.2955724 C216.28885,79.9070851 217.081329,74.1868816 216.90592,68.6796644 C216.508524,56.4379129 208.273882,44.9574883 198.74696,37.856181 Z" id="path-12"></path>
    </defs>
    <g id="Introduction" stroke="none" stroke-width="1" fill="none" fill-rule="evenodd">
        <g id="Intro" transform="translate(-1095.000000, -805.000000)">
            <g id="front" transform="translate(295.000000, 782.000000)">
                <g id="Avataaar/Default" transform="translate(768.000000, 0.000000)">
                    <g id="Body" stroke-width="1" fill-rule="evenodd" transform="translate(32.000000, 36.000000)">
                        <mask id="mask-2" fill="white">
                            <use xlink:href="#path-1"></use>
                        </mask>
                        <use fill="#D0C6AC" xlink:href="#path-1"></use>
                        <g id="Skin/ðŸ‘¶ðŸ¼-04-Light" mask="url(#mask-2)" fill="#EDB98A">
                            <g transform="translate(-32.000000, 0.000000)" id="Color">
                                <rect x="0" y="0" width="264" height="244"></rect>
                            </g>
                        </g>
                        <path d="M156,94 L156,102 C156,132.927946 130.927946,158 100,158 C69.072054,158 44,132.927946 44,102 L44,94 C44,124.927946 69.072054,150 100,150 C130.927946,150 156,124.927946 156,94 Z" id="Neck-Shadow" fill-opacity="0.100000001" fill="#000000" mask="url(#mask-2)"></path>
                    </g>
                    <g id="Clothing/Graphic-Shirt" transform="translate(0.000000, 170.000000)">
                        <mask id="mask-4" fill="white">
                            <use xlink:href="#path-3"></use>
                        </mask>
                        <use id="Clothes" fill="#E6E6E6" fill-rule="evenodd" xlink:href="#path-3"></use>
                        <g id="Color/Palette/Black" mask="url(#mask-4)" fill="#262E33" fill-rule="evenodd">
                            <rect id="ðŸ–Color" x="0" y="0" width="264" height="110"></rect>
                        </g>
                        <g id="Clothing/Graphic/Selena" mask="url(#mask-4)" fill-rule="evenodd" stroke-width="1">
                            <g transform="translate(77.000000, 58.000000)" id="Selena">
                                <g transform="translate(17.000000, 0.000000)">
                                    <path d="M65.3033729,7.56759412 C65.1470447,8.49857487 63.3805357,12.656817 62.0741755,10.5184706 C61.5650892,9.68550605 62.4755312,7.05707864 62.7589611,6.30931546 C63.3169849,4.836648 63.7329539,4.67144048 65.0219821,3.97805378 C65.1307322,5.16706304 65.4331933,6.37685313 65.3033729,7.56759412 M62.3188632,10.8866375 C62.3487694,10.8987596 62.4772304,11.018942 62.3188632,10.8866375 M62.3110467,10.8804032 C62.3052694,10.8755544 62.3107069,10.8800569 62.3110467,10.8804032 M55.0298897,6.20471867 C55.040085,6.21337734 55.0829054,6.246973 55.0298897,6.20471867 M42.5545574,11.1605979 C42.3475925,12.3804321 42.0797954,13.5995735 41.6509123,14.760875 C41.48167,13.0294864 41.7542249,11.3046783 42.651413,9.81019097 C42.6412176,10.2618275 42.6089325,10.7120786 42.5545574,11.1605979 M42.544702,8.65858718 C42.5406238,8.64334792 42.3859948,8.41891506 42.544702,8.65858718 M25.9083201,18.8030909 C26.0609101,17.2701591 26.6763675,15.7860622 27.8141651,14.7591433 C27.5371923,16.3838571 26.7416175,17.4294787 25.9083201,18.8030909 M75.8371766,5.29694317 C75.8371766,5.93422166 73.7787416,7.63166832 73.2635382,8.10027581 C72.3850415,8.898952 71.4487714,9.53969396 70.1865909,9.35370562 C66.7252801,8.84422918 68.0968903,5.14766761 67.5456634,2.87251415 C67.1120225,1.08501726 66.6671667,1.75900853 65.4641191,1.64644576 C64.3456926,1.54219531 63.9460361,0.990464532 62.7824103,1.83312679 C60.685573,3.35151205 59.0159196,5.32915344 58.1231495,7.8135005 C57.7992782,6.11813191 56.8776214,3.30960407 54.6706746,3.71967892 C53.0387439,4.02273255 51.6868446,6.64596475 51.0078363,7.96277605 C50.95618,6.76545446 50.3403828,4.88721467 48.8328349,5.74476985 C47.7973303,6.3339061 47.8418499,9.12615564 47.615174,10.1548062 C47.1499276,12.2664839 46.236427,17.7723622 42.9708663,17.056463 C43.999574,15.1377006 46.2510403,9.08632573 44.3207265,7.1194211 C41.6091115,4.35730375 39.5459188,11.2748924 39.4354695,12.9584852 C39.355946,14.1644655 40.2405598,16.9030312 39.7637588,17.6511408 C39.1788873,18.568614 37.3362533,18.9641423 36.4608152,18.2922291 C35.0562401,17.2143972 35.6101858,15.4622277 35.9313383,14.093118 C36.3527448,12.2990405 36.5512137,10.495958 36.6650614,8.65616275 C36.7503623,7.27631629 37.951031,1.10787617 35.6370334,1.02406019 C33.5415555,0.948902892 33.3281335,6.16211798 33.1786022,7.58664321 C32.9944067,9.33812 32.8825981,11.1121094 32.94377,12.8746693 C33.0056216,14.6573173 33.3376491,15.8449412 32.6467463,17.5181435 C31.9065662,19.3108356 28.3834038,24.6889119 26.2743321,21.1180743 C28.5142437,20.1354878 31.1850774,15.5997275 29.9833892,13.0506135 C28.317474,9.51683506 24.5679755,14.9018383 24.024565,16.7073452 C23.1474277,19.6222016 23.5328108,23.4292478 26.8877504,24.3782386 C30.3810066,25.366713 33.0780083,22.0916557 34.309263,19.1975801 C35.3107832,20.7859275 37.1544368,21.1842266 38.8580746,20.7031506 C39.5350438,20.5116207 40.1861848,20.1822447 40.7496461,19.7555452 C41.8198148,18.9457859 41.1934823,19.2471078 42.3292409,19.2142048 C45.6264071,19.1196521 47.4252012,18.0612156 48.660534,14.6690931 C48.6459207,15.6031909 49.0041163,17.0287552 50.2588202,16.5178934 C51.2334927,16.1209797 51.2266958,14.5083881 51.4074928,13.6480621 C51.9774112,10.935126 52.8729,8.10651006 55.0057608,6.22584583 C56.8466956,8.22807786 55.4856205,11.6534497 56.6968244,13.7862546 C58.5635873,17.0737803 59.5035957,11.2537653 59.7962014,10.1319473 C59.8526155,15.0140547 65.6574903,13.2158211 66.9135536,9.97505214 C70.2130987,13.4901279 77.1479547,10.3238236 75.8371766,5.29694317" id="Bom-Bom" fill="#FFFFFF"></path>
                                    <path d="M69.433817,15.3488372 C65.8038135,15.3488372 61.8287631,16.3747039 58.3068219,17.1662556 C54.7602589,17.9637144 51.2314783,18.9518414 47.8046046,20.1368717 C43.9335128,21.4748303 39.9926593,22.6897243 36.2145831,24.2580599 C32.9385178,25.6183343 28.7066484,26.6107275 26.7027087,29.6738881 C26.6986051,29.6824206 28.8051356,29.5856097 28.9754363,29.5573869 C30.0242559,29.3834556 30.9267127,29.0139335 31.8924339,28.6010927 C33.6392127,27.8548288 35.3740227,27.0823111 37.115672,26.3248894 C41.0202768,24.6265975 45.0951823,23.2295678 49.1044296,21.7708418 C53.1003402,20.3176946 57.1991835,19.0860638 61.3588973,18.1455219 C64.7498643,17.3792395 68.5409353,17.2322183 71.6624305,15.8729284 C71.5444511,15.9172317 71.6210523,15.887368 71.8918919,15.7816965 C71.813239,15.8197645 69.6708017,15.3488372 69.433817,15.3488372" id="Bidi" fill="#FFFFFF"></path>
                                    <path d="M22.1170349,20.8250383 C19.8478706,19.8267659 16.6395075,20.267131 14.2823358,20.5862701 C12.1385566,20.8762747 8.78577979,21.5209156 7.44867865,21.6937129 C6.34297926,21.8346967 3.04321074,22.7348497 2.4393915,21.4968044 C1.79003946,20.1656628 5.15878677,16.0935417 5.89512684,15.1341152 C9.20984643,10.8135143 13.1946457,6.01370248 17.9749097,3.21110531 C17.5345328,5.16177188 17.1498826,7.12884748 16.7479027,9.08721625 C16.5824216,9.89460802 15.79851,14.2513757 17.2338124,14.5946261 C17.8233602,14.735275 19.0058537,11.8121216 19.104055,11.5505816 C19.9270433,9.36181652 20.1163103,6.84118695 20.4951839,4.54927932 C20.7119744,3.23789558 21.6953468,0.499260193 19.8009787,0.0471743805 C18.1723317,-0.341619419 15.9646707,1.77447706 14.8776601,2.66558843 C11.5962407,5.35767573 8.75146029,8.61302846 6.0905101,11.8864646 C4.78025293,13.4985691 3.4761121,15.1200503 2.37686886,16.8831849 C1.47300888,18.3332083 -0.712565331,21.3735691 0.232070287,23.1651685 C1.92969602,26.3860287 10.0715716,23.5626691 12.663543,23.133355 C14.708781,22.7941232 16.8162019,22.4729748 18.8913421,22.7566168 C21.0534703,23.0519796 20.9484731,24.0274803 20.2298024,25.953031 C18.7520254,29.9126329 15.4539558,33.3136578 12.5058772,36.2726431 C11.2071731,37.5759898 6.1251694,43.6918736 4.84549395,40.3641872 C3.97595347,38.1030884 4.74525384,35.3289559 5.74561617,33.2503658 C6.21419621,32.2765394 6.8346655,31.3887768 7.32329357,30.4256666 C7.45649398,30.163122 8.12453486,28.0011471 8.27030776,27.9529247 C4.4003599,29.303824 2.15328244,34.538308 1.93751135,38.2397187 C1.83591206,39.9810863 2.07376995,42.5640033 3.73741598,43.6084889 C5.40174162,44.6533095 6.96378836,43.3814414 8.28661802,42.4230195 C11.9289019,39.7838429 15.1780407,36.4246779 18.1519439,33.0879497 C19.7778725,31.2635323 26.6054133,22.8014905 22.1170349,20.8250383" id="Bidi" fill="#FFFFFF"></path>
                                </g>
                            </g>
                        </g>
                    </g>
                    <g id="Face" stroke-width="1" fill-rule="evenodd" transform="translate(76.000000, 82.000000)">
                        <g id="Mouth/Smile" transform="translate(2.000000, 52.000000)">
                            <mask id="mask-6" fill="white">
                                <use xlink:href="#path-5"></use>
                            </mask>
                            <use id="Mouth" fill-opacity="0.699999988" fill="#000000" fill-rule="evenodd" xlink:href="#path-5"></use>
                            <rect id="Teeth" fill="#FFFFFF" fill-rule="evenodd" mask="url(#mask-6)" x="39" y="2" width="31" height="16" rx="5"></rect>
                            <g id="Tongue" stroke-width="1" fill-rule="evenodd" mask="url(#mask-6)" fill="#FF4F6D">
                                <g transform="translate(38.000000, 24.000000)">
                                    <circle cx="11" cy="11" r="11"></circle>
                                    <circle cx="21" cy="11" r="11"></circle>
                                </g>
                            </g>
                        </g>
                        <g id="Nose/Default" transform="translate(28.000000, 40.000000)" fill="#000000" fill-opacity="0.16">
                            <path d="M16,8 C16,12.418278 21.372583,16 28,16 C34.627417,16 40,12.418278 40,8" id="Nose"></path>
                        </g>
                        <g id="Eyes/Default-ðŸ˜€" transform="translate(0.000000, 8.000000)" fill="#000000" fill-opacity="0.599999964">
                            <circle id="Eye" cx="30" cy="22" r="6"></circle>
                            <circle id="Eye" cx="82" cy="22" r="6"></circle>
                        </g>
                        <g id="Eyebrow/Outline/Default" fill="#000000" fill-opacity="0.599999964">
                            <g id="I-Browse" transform="translate(12.000000, 6.000000)">
                                <path d="M3.63024536,11.1585767 C7.54515501,5.64986673 18.2779197,2.56083721 27.5230268,4.83118046 C28.5957248,5.0946055 29.6788665,4.43856013 29.9422916,3.36586212 C30.2057166,2.2931641 29.5496712,1.21002236 28.4769732,0.94659732 C17.7403633,-1.69001789 5.31209962,1.88699832 0.369754639,8.84142326 C-0.270109626,9.74178291 -0.0589363917,10.9903811 0.84142326,11.6302454 C1.74178291,12.2701096 2.9903811,12.0589364 3.63024536,11.1585767 Z" id="Eyebrow" fill-rule="nonzero"></path>
                                <path d="M61.6302454,11.1585767 C65.545155,5.64986673 76.2779197,2.56083721 85.5230268,4.83118046 C86.5957248,5.0946055 87.6788665,4.43856013 87.9422916,3.36586212 C88.2057166,2.2931641 87.5496712,1.21002236 86.4769732,0.94659732 C75.7403633,-1.69001789 63.3120996,1.88699832 58.3697546,8.84142326 C57.7298904,9.74178291 57.9410636,10.9903811 58.8414233,11.6302454 C59.7417829,12.2701096 60.9903811,12.0589364 61.6302454,11.1585767 Z" id="Eyebrow" fill-rule="nonzero" transform="translate(73.000154, 6.039198) scale(-1, 1) translate(-73.000154, -6.039198) "></path>
                            </g>
                        </g>
                    </g>
                    <g id="Top" stroke-width="1" fill-rule="evenodd">
                        <mask id="mask-8" fill="white">
                            <use xlink:href="#path-7"></use>
                        </mask>
                        <g id="Mask"></g>
                        <g id="Top/Short-Hair/Shaggy" mask="url(#mask-8)">
                            <g transform="translate(-1.000000, 0.000000)">
                                <g id="Facial-Hair/Beard-Magestic" stroke="none" fill="none" transform="translate(49.000000, 72.000000)">
                                    <mask id="mask-10" fill="white">
                                        <use xlink:href="#path-9"></use>
                                    </mask>
                                    <use id="Glorious-Beard" fill="#5E7AA9" fill-rule="evenodd" xlink:href="#path-9"></use>
                                    <g id="Color/Hair/Brown" mask="url(#mask-10)" fill="#724133" fill-rule="evenodd">
                                        <rect id="Color" x="0" y="0" width="168" height="152"></rect>
                                    </g>
                                </g>
                                <g id="Top/_Resources/Prescription-02" stroke="none" fill="none" transform="translate(62.000000, 86.000000)" fill-rule="evenodd" stroke-width="1">
                                    <g id="Wayfarers" filter="url(#filter-11)" transform="translate(6.000000, 7.000000)" fill="#252C2F">
                                        <path d="M34,41 L31.2421498,41 C17.3147125,41 9,33.3359286 9,20.5 C9,10.127 10.8170058,0 32.5299306,0 L35.4700694,0 C57.1829942,0 59,10.127 59,20.5 C59,32.5686429 48.7212748,41 34,41 Z M32.3853606,6 C13,6 13,12.8410159 13,21.5015498 C13,28.5719428 16.116254,37 30.9709365,37 L34,37 C46.3649085,37 55,30.6270373 55,21.5015498 C55,12.8410159 55,6 35.6146394,6 L32.3853606,6 Z" id="Left" fill-rule="nonzero"></path>
                                        <path d="M96,41 L93.2421498,41 C79.3147125,41 71,33.3359286 71,20.5 C71,10.127 72.8170058,0 94.5299306,0 L97.4700694,0 C119.182994,0 121,10.127 121,20.5 C121,32.5686429 110.721275,41 96,41 Z M94.3853606,6 C75,6 75,12.8410159 75,21.5015498 C75,28.5719428 78.1194833,37 92.9709365,37 L96,37 C108.364909,37 117,30.6270373 117,21.5015498 C117,12.8410159 117,6 97.6146394,6 L94.3853606,6 Z" id="Right" fill-rule="nonzero"></path>
                                        <path d="M2.95454545,5.77156439 C3.64590909,5.09629136 11.2095455,0 32.5,0 C50.3513636,0 54.1302273,1.85267217 59.8502273,4.6518809 L60.2689233,4.85850899 C60.6666014,4.99901896 62.7002447,5.68982981 65.0790606,5.76579519 C67.2462948,5.67278567 69.1000195,5.08540191 69.641698,4.89719767 C76.1703915,1.7220864 82.5610971,0 97.5,0 C118.790455,0 126.354091,5.09629136 127.045455,5.77156439 C128.679318,5.77156439 130,7.06150904 130,8.65734659 L130,11.5431288 C130,13.1389663 128.679318,14.428911 127.045455,14.428911 C127.045455,14.428911 120.143997,14.428911 120.143997,17.3146932 C120.143997,20.2004754 118.181818,13.1389663 118.181818,11.5431288 L118.181818,8.73240251 C114.578575,7.35340151 108.128411,4.78617535 97.5,4.78617535 C85.6584651,4.78617535 79.7610984,6.88602813 74.7022935,8.97112368 L74.7588636,9.10752861 L74.7563667,11.0937608 L72.5391666,16.4436339 L69.8004908,15.3608351 C69.5558969,15.2641292 69.0281396,15.090392 68.2963505,14.9099044 C66.256272,14.4067419 64.1589087,14.253569 62.3040836,14.6343084 C61.6235903,14.7739931 60.9922286,14.9836085 60.4128127,15.266732 L57.7704824,16.5578701 L55.1266751,11.3962031 L55.2440909,9.10175705 L55.3248203,8.90683855 C50.9620526,6.87386374 46.9392639,4.78617535 32.5,4.78617535 C21.8721459,4.78617535 15.422131,7.3524397 11.8181818,8.7314671 L11.8181818,11.5431288 C11.8181818,13.1389663 8.86363636,20.2004754 8.86363636,17.3146932 C8.86363636,14.428911 2.95454545,14.428911 2.95454545,14.428911 C1.32363636,14.428911 0,13.1389663 0,11.5431288 L0,8.65734659 C0,7.06150904 1.32363636,5.77156439 2.95454545,5.77156439 Z" id="Stuff" fill-rule="nonzero"></path>
                                    </g>
                                </g>
                                <mask id="mask-13" fill="white">
                                    <use xlink:href="#path-12"></use>
                                </mask>
                                <use id="Shaggy-Hair" stroke="none" fill="#28354B" fill-rule="evenodd" transform="translate(143.465161, 67.234158) scale(-1, 1) translate(-143.465161, -67.234158) " xlink:href="#path-12"></use>
                                <g id="Color/Hair/Brown-Dark" stroke="none" fill="none" mask="url(#mask-13)" fill-rule="evenodd">
                                    <g transform="translate(1.000000, 0.000000)" fill="#4A312C" id="Color">
                                        <rect x="0" y="0" width="264" height="280"></rect>
                                    </g>
                                </g>
                            </g>
                        </g>
                    </g>
                </g>
            </g>
        </g>
    </g>
</svg>
