<svg width="491px" height="423px" viewBox="0 0 491 423" version="1.1" xmlns="http://www.w3.org/2000/svg" xmlns:xlink="http://www.w3.org/1999/xlink">
    <!-- Generator: Sketch 44.1 (41455) - http://www.bohemiancoding.com/sketch -->
    <desc>Created with Sketch.</desc>
    <defs></defs>
    <g id="Page-1" stroke="none" stroke-width="1" fill="none" fill-rule="evenodd">
        <g id="done-tick" fill-rule="nonzero" fill="#39B54A">
            <path d="M472.003,24.36 L458.871,13.078 C437.073,-5.654 404.317,-3.566 385.072,17.775 L165.39,261.359 L99.078,204.247 C77.303,185.494 44.542,187.54 25.274,208.858 L13.663,221.706 C4.247,232.119 -0.642,245.855 0.068,259.886 C0.785,273.909 7.041,287.074 17.47,296.486 L139.023,407.797 C149.547,417.68 163.651,422.834 178.067,422.069 C192.483,421.306 205.961,414.683 215.378,403.74 L477.623,99.03 C486.785,88.384 491.34,74.536 490.284,60.534 C489.229,46.522 482.655,33.512 472.003,24.36 Z" id="Shape"></path>
        </g>
    </g>
</svg>
