<svg width="28px" height="28px" viewBox="0 0 28 28" version="1.1" xmlns="http://www.w3.org/2000/svg" xmlns:xlink="http://www.w3.org/1999/xlink">
  <g id="Source-Sans---Dark-Screens" stroke="none" stroke-width="1" fill="none" fill-rule="evenodd">
    <g id="7---Dark---Project-Overview" transform="translate(-310.000000, -1276.000000)">
      <g id="Stage-1" transform="translate(280.000000, 628.000000)">
        <g id="Communication" transform="translate(0.000000, 465.000000)">
          <g id="Stage-Approved" transform="translate(0.000000, 172.000000)">
            <g id="Check-Icon" transform="translate(30.000000, 11.000000)">
              <rect id="Base" fill="#7F8FA4" x="0" y="0" width="28" height="28" rx="14"></rect>
              <path d="M13.122382,15.5370634 L11.7080323,14.1227137 C11.3148167,13.7294981 10.6844791,13.7323256 10.2939549,14.1228499 C9.9007079,14.5160968 9.90336961,15.1464782 10.2938187,15.5369273 L12.4154113,17.6585199 C12.6117278,17.8548363 12.8671491,17.9524353 13.1223231,17.9523553 C13.3782205,17.952758 13.6329921,17.8548804 13.8277526,17.66012 L18.7809724,12.7069001 C19.1707532,12.3171193 19.1697605,11.684947 18.7792362,11.2944227 C18.3859893,10.9011758 17.7563243,10.9031211 17.3667589,11.2926865 L13.122382,15.5370634 Z" id="Check" fill="#2C5F3F"></path>
            </g>
          </g>
        </g>
      </g>
    </g>
  </g>
</svg>
