<svg width="88px" height="88px" viewBox="0 0 88 88" version="1.1" xmlns="http://www.w3.org/2000/svg" xmlns:xlink="http://www.w3.org/1999/xlink">
  <g id="Page-1" stroke="none" stroke-width="1" fill="none" fill-rule="evenodd">
    <g transform="translate(-6.000000, -1.000000)" fill="#7A8798" fill-rule="nonzero">
      <g id="Group" transform="translate(6.000000, 0.637820)">
        <path d="M44,0.39343 C32.73965,0.39343 21.489409,4.68527 12.90625,13.26843 C-4.2600683,30.43475 -4.2600683,58.28963 12.90625,75.45593 C30.072568,92.62233 57.927432,92.62233 75.09375,75.45593 C92.260068,58.28963 92.260068,30.43475 75.09375,13.26843 C66.510591,4.68527 55.26035,0.39343 44,0.39343 Z M44,4.33093 C54.237125,4.33093 64.462389,8.26207 72.28125,16.08093 C87.918973,31.71865 87.918973,57.00573 72.28125,72.64343 C56.643527,88.28113 31.356473,88.28113 15.71875,72.64343 C0.0810276,57.00573 0.0810276,31.71865 15.71875,16.08093 C23.537612,8.26207 33.762875,4.33093 44,4.33093 Z M43.78125,12.33093 C42.7508577,12.44416 41.9777056,13.3258248 42,14.36218 L42,43.98718 C41.9704611,44.1839945 41.9704611,44.3841155 42,44.58093 C42.0190702,44.7086635 42.0504668,44.8342498 42.09375,44.95593 C42.0936686,44.9663465 42.0936686,44.9767635 42.09375,44.98718 C42.1123821,45.0401171 42.1332339,45.0922465 42.15625,45.14343 C42.1663019,45.1644437 42.1767202,45.1852802 42.1875,45.20593 C42.2303685,45.3144548 42.2826513,45.4190203 42.34375,45.51843 C42.3827838,45.5725662 42.4245026,45.6247147 42.46875,45.67468 C42.5529227,45.7775416 42.6471384,45.8717573 42.75,45.95593 C42.7999653,46.0001774 42.8521138,46.0418962 42.90625,46.08093 L62.59375,65.76843 C63.0984091,66.2874655 63.8441361,66.4933054 64.5435881,66.3066355 C65.24304,66.1199657 65.7870373,65.569924 65.9659672,64.8684522 C66.1448971,64.1669804 65.93083,63.4235733 65.40625,62.92468 L46,43.51843 L46,14.36218 C46.0124076,13.7861876 45.7758492,13.2328167 45.3509072,12.8437853 C44.9259652,12.4547538 44.3539119,12.2678464 43.78125,12.33093 Z" id="Shape"></path>
      </g>
    </g>
  </g>
</svg>
