<svg width="80px" height="28px" viewBox="0 0 80 28" version="1.1" xmlns="http://www.w3.org/2000/svg" xmlns:xlink="http://www.w3.org/1999/xlink">
  <g stroke="none" stroke-width="1" fill="none" fill-rule="evenodd">
    <g transform="translate(-10.000000, 0.000000)" fill="#7A8798" fill-rule="nonzero">
      <path d="M62.861,10.667 C61.374,4.925 56.204,0.667 50,0.667 C43.796,0.667 38.626,4.925 37.139,10.667 L10,10.667 L10,17.333 L37.139,17.333 C38.626,23.072 43.796,27.333 50,27.333 C56.204,27.333 61.374,23.072 62.861,17.333 L90,17.333 L90,10.667 L62.861,10.667 Z M50,20.667 C46.318,20.667 43.333,17.682 43.333,14 C43.333,10.318 46.318,7.333 50,7.333 C53.682,7.333 56.667,10.318 56.667,14 C56.667,17.682 53.682,20.667 50,20.667 Z" id="Shape"></path>
    </g>
  </g>
</svg>
