<svg width="896px" height="960px" viewBox="0 0 896 960" version="1.1" xmlns="http://www.w3.org/2000/svg" xmlns:xlink="http://www.w3.org/1999/xlink">
  <g id="Page-1" stroke="none" stroke-width="1" fill="none" fill-rule="evenodd">
    <g fill-rule="nonzero" fill="#FFFFFF">
      <path d="M704,896 L64,896 L64,320 L704,320 L704,512 L768,512 L768,192 C768,157 739,128 704,128 L512,128 C512,57 455,0 384,0 C313,0 256,57 256,128 L64,128 C29,128 0,157 0,192 L0,896 C0,931 29,960 64,960 L704,960 C739,960 768,931 768,896 L768,768 L704,768 L704,896 Z M192,192 C221,192 221,192 256,192 C291,192 320,163 320,128 C320,93 349,64 384,64 C419,64 448,93 448,128 C448,163 480,192 512,192 C544,192 545,192 576,192 C607,192 640,221 640,256 L128,256 C128,217 156,192 192,192 Z M128,704 L256,704 L256,640 L128,640 L128,704 Z M576,576 L576,448 L320,640 L576,832 L576,704 L896,704 L896,576 L576,576 Z M128,832 L320,832 L320,768 L128,768 L128,832 Z M448,384 L128,384 L128,448 L448,448 L448,384 Z M256,512 L128,512 L128,576 L256,576 L256,512 Z" id="Shape"></path>
    </g>
  </g>
</svg>
