<svg width="7px" height="4px" viewBox="0 0 7 4" version="1.1" xmlns="http://www.w3.org/2000/svg" xmlns:xlink="http://www.w3.org/1999/xlink">
  <g id="Source-Sans---UI-Elements-Kit" stroke="none" stroke-width="1" fill="none" fill-rule="evenodd">
    <g id="Dark-Layout" transform="translate(-966.000000, -1077.000000)" fill="#A8AAB7">
      <g id="Form-Elements" transform="translate(80.000000, 114.000000)">
        <g id="Buttons" transform="translate(0.000000, 916.000000)">
          <g id="White-Button-with-Dropdown" transform="translate(792.000000, 31.000000)">
            <g id="Normal">
              <path d="M96.0355339,18.0355339 L96.0355339,14.5332327 C96.0355339,14.2503777 95.8116763,14.0355339 95.5355339,14.0355339 C95.2674675,14.0355339 95.0355339,14.2583612 95.0355339,14.5332327 L95.0355339,18.5378351 C95.0355339,18.6788698 95.0911878,18.8029959 95.1812273,18.8920121 C95.2720836,18.9778815 95.3961898,19.0355339 95.5332327,19.0355339 L99.5378351,19.0355339 C99.8206902,19.0355339 100.035534,18.8116763 100.035534,18.5355339 C100.035534,18.2674675 99.8127066,18.0355339 99.5378351,18.0355339 L96.0355339,18.0355339 Z" id="Dropdown" transform="translate(97.535534, 16.535534) rotate(-45.000000) translate(-97.535534, -16.535534) "></path>
            </g>
          </g>
        </g>
      </g>
    </g>
  </g>
</svg>
