<svg width="47px" height="63px" viewBox="0 0 47 63" version="1.1" xmlns="http://www.w3.org/2000/svg" xmlns:xlink="http://www.w3.org/1999/xlink">
  <g id="Page-1" stroke="none" stroke-width="1" fill="none" fill-rule="evenodd">
    <g id="noun_368566_cc" transform="translate(-20.000000, 0.000000)" fill-rule="nonzero" fill="#7F8FA4">
      <g id="Group" transform="translate(20.000000, 0.000000)">
        <path d="M43.3,0.5 L3.2,0.5 C1.5,0.5 0.1,1.9 0.1,3.6 L0.1,53.3 C0.1,55 1.5,56.4 3.2,56.4 L11.4,56.4 L11.4,62.9 L16.2,58.9 L21,62.9 L21,56.4 L43.3,56.4 C45,56.4 46.4,55 46.4,53.3 L46.4,3.6 C46.4,1.9 45,0.5 43.3,0.5 Z M43.4,53.3 C43.4,53.4 43.3,53.4 43.2,53.4 L21,53.4 L21,49 L11.3,49 L11.3,53.4 L3.1,53.4 C3,53.4 2.9,53.3 2.9,53.3 L2.9,47 L43.3,47 L43.3,53.3 L43.4,53.3 Z M43.4,43.9 L11,43.9 L11,3.5 L43.2,3.5 C43.3,3.5 43.4,3.6 43.4,3.6 L43.4,43.9 L43.4,43.9 Z" id="Shape"></path>
      </g>
    </g>
  </g>
</svg>
