<svg width="76px" height="90px" viewBox="0 0 76 90" version="1.1" xmlns="http://www.w3.org/2000/svg" xmlns:xlink="http://www.w3.org/1999/xlink">
  <g id="Page-1" stroke="none" stroke-width="1" fill="none" fill-rule="evenodd">
    <g id="noun_674462_cc" transform="translate(-12.000000, 0.000000)" fill-rule="nonzero" fill="#7F8FA4">
      <g id="Group" transform="translate(12.000000, 0.000000)">
        <g id="Shape">
          <path d="M32,63.5682029 C28.1530646,55.4062655 2.1488592,54.6032786 2.1488592,40 L2.1488592,27.4556977 C0.8157447,26.0265757 0,24.1085515 0,22 C0,17.581722 3.581722,14 8,14 C12.418278,14 16,17.581722 16,22 C16,23.9466941 15.3046856,25.7309889 14.1488592,27.1180818 L14.1488592,34 C14.1488592,42.1503928 23.702232,44.3769327 32,47.3372738 L32,13.2916488 C30.7552732,11.8813824 30,10.0288929 30,8 C30,3.581722 33.581722,0 38,0 C42.418278,0 46,3.581722 46,8 C46,10.0288929 45.2447268,11.8813824 44,13.2916488 L44,58.3372738 C52.297768,55.3769327 61.8511408,53.1503928 61.8511408,45 L61.8511408,25.1180818 C60.6953144,23.7309889 60,21.9466941 60,20 C60,15.581722 63.581722,12 68,12 C72.418278,12 76,15.581722 76,20 C76,22.1085515 75.1842553,24.0265757 73.8511408,25.4556977 L73.8511408,51 C73.8511408,65.6032786 47.8469354,66.4062655 43.999998,74.5682071 L44,76.7083512 C45.2447268,78.1186176 46,79.9711071 46,82 C46,86.418278 42.418278,90 38,90 C33.581722,90 30,86.418278 30,82 C30,79.9711071 30.7552732,78.1186176 32,76.7083512 L32,63.5682029 Z M8,27 C10.7614237,27 13,24.7614237 13,22 C13,19.2385763 10.7614237,17 8,17 C5.2385763,17 3,19.2385763 3,22 C3,24.7614237 5.2385763,27 8,27 Z M38,13 C40.7614237,13 43,10.7614237 43,8 C43,5.2385763 40.7614237,3 38,3 C35.2385763,3 33,5.2385763 33,8 C33,10.7614237 35.2385763,13 38,13 Z M68,25 C65.2385763,25 63,22.7614237 63,20 C63,17.2385763 65.2385763,15 68,15 C70.7614237,15 73,17.2385763 73,20 C73,22.7614237 70.7614237,25 68,25 Z M38,87 C40.7614237,87 43,84.7614237 43,82 C43,79.2385763 40.7614237,77 38,77 C35.2385763,77 33,79.2385763 33,82 C33,84.7614237 35.2385763,87 38,87 Z"></path>
        </g>
      </g>
    </g>
  </g>
</svg>
