
<svg width="79px" height="93px" viewBox="0 0 79 93" version="1.1" xmlns="http://www.w3.org/2000/svg" xmlns:xlink="http://www.w3.org/1999/xlink">
  <g id="Page-1" stroke="none" stroke-width="1" fill="none" fill-rule="evenodd">
    <g id="noun_754102_cc" transform="translate(-8.000000, 0.000000)" fill-rule="nonzero" fill="#7F8FA4">
      <path d="M62.54,4.75 L62.54,4.44 C61.5,4 60.46,3.53 59.38,3.2 C57.3949555,2.52884379 55.3712922,1.97784634 53.32,1.55 C50.6347969,1.07727688 47.8830046,1.13503054 45.22,1.72 C39.42,3 34,4.85 29.54,9.06 C27.7,10.8 25.6,12.29 23.85,14.11 C22.4187289,15.7587723 21.0832025,17.488279 19.85,19.29 C18.8540267,20.6546635 17.211653,21.3922109 15.53,21.23 C11.79,21.16 9.29,23.38 10.11,27.38 C10.28,28.19 10.53,28.98 10.77,29.77 C11.58,32.4 13.27,34.15 16.02,34.49 C17.94,34.73 19.87,34.69 21.38,33.01 C22.23,32.07 23.32,31.35 24.26,30.49 C24.6631122,30.0733459 25.0404773,29.63253 25.39,29.17 C25.7750962,28.5345946 26.2773213,27.9780749 26.87,27.53 C28.2708695,26.8727749 29.7351108,26.360123 31.24,26 C32.932803,25.3980928 34.8212899,25.8486654 36.06,27.15 C36.4630216,27.5295211 36.9055473,27.8647679 37.38,28.15 C39.3117794,29.4158148 40.9074561,31.1315961 42.03,33.15 C43.45,35.85 45.83,36.43 48.42,34.85 C49.26,34.34 50.01,33.67 50.83,33.14 C53.06,31.68 53.2,31.14 51.76,28.83 C51.69,28.72 51.6,28.61 51.54,28.5 C50.74,26.91 49.84,25.36 49.18,23.72 C48.5596043,22.1518058 48.0777629,20.5322833 47.74,18.88 C46.74,13.98 47.66,11.57 51.27,8.88 C53.5691826,7.22471573 56.2109129,6.10719206 59,5.61 C60.21,5.38 61.37,5 62.54,4.75 Z M51,8.51 C47.16,11.35 46.22,14 47.26,19 C47.601809,20.6828047 48.0903421,22.3324406 48.72,23.93 C49.2099066,25.0980284 49.7606612,26.2395924 50.37,27.35 C50.62,27.82 50.86,28.28 51.1,28.76 C51.1500277,28.857206 51.2068347,28.9507705 51.27,29.04 L51.34,29.14 C52.63,31.14 52.57,31.44 50.56,32.76 C50.18,33.01 49.81,33.29 49.44,33.56 C49.0285972,33.881142 48.6013974,34.1815169 48.16,34.46 C47.2016339,35.1338825 46.006704,35.3801105 44.86,35.14 C43.7996459,34.7913744 42.9331899,34.0155519 42.47,33 C41.3179805,30.9011783 39.6701018,29.1159765 37.67,27.8 L37.41,27.62 C37.0480079,27.3989918 36.7124924,27.1372898 36.41,26.84 C35.5263492,25.8314387 34.2405089,25.2672809 32.9,25.3 C32.2963031,25.3051097 31.6953783,25.3823235 31.11,25.53 C29.5800859,25.9041913 28.0923724,26.4336028 26.67,27.11 C26.1586776,27.412107 25.732107,27.8386776 25.43,28.35 C25.3,28.53 25.17,28.71 25.03,28.88 L24.65,29.35 C24.4382228,29.6347852 24.204153,29.9022936 23.95,30.15 C23.6,30.47 23.22,30.77 22.85,31.07 C22.1910819,31.5524295 21.5723861,32.0875178 21,32.67 C19.71,34.11 18.1,34.24 16.08,33.99 C13.68,33.69 12.08,32.22 11.24,29.62 L11.18,29.42 C10.96,28.72 10.74,28 10.59,27.28 C10.1988554,25.9056555 10.468604,24.4275809 11.32,23.28 C12.4094393,22.1476196 13.9554992,21.5733688 15.52,21.72 C17.3623558,21.8825771 19.1558412,21.0711482 20.25,19.58 C20.67,19.03 21.07,18.47 21.47,17.91 C22.2926663,16.693038 23.2016713,15.5367303 24.19,14.45 C25.200587,13.4362832 26.2654889,12.4782053 27.38,11.58 C28.21,10.89 29.06,10.17 29.86,9.41 C34.57,5 40.31,3.29 45.32,2.22 C47.9164437,1.62641976 50.6045773,1.55165498 53.23,2 C54.9226305,2.33923586 56.5925213,2.78342682 58.23,3.33 L59.23,3.64 C60,3.9 60.68,4.2 61.38,4.5 L61.38,4.5 L61.27,4.5 C60.49,4.7 59.68,4.92 58.88,5.07 C56.0280806,5.60954602 53.3345811,6.78538844 51,8.51 L51,8.51 Z" id="Shape"></path>
      <path d="M60.91,5.9 C62.06,5.67 63.17,5.23 64.3,4.9 L64.3,4.58 C64.0995803,4.43274885 63.8852243,4.30547501 63.66,4.2 C60.94,3.2 58.26,2.15 55.49,1.34 C52.577936,0.422316173 49.4790795,0.267373347 46.49,0.89 C44.49,1.34 42.49,1.8 40.57,2.32 C36.5697641,3.36383861 32.8770993,5.34903169 29.8,8.11 C28.35,9.41 26.8,10.64 25.43,11.98 C24.06,13.32 22.76,14.61 21.52,15.98 C20.58,17.04 19.82,18.26 18.93,19.36 C18.2986674,20.1332902 17.3240402,20.5418839 16.33,20.45 C15.2574965,20.3969201 14.1834951,20.5185052 13.15,20.81 C11.4465179,21.2420382 10.0949249,22.5366821 9.59,24.22 C8.76,27.09 9.74,29.7 11.15,32.07 C12.8,34.85 15.5,35.61 18.58,35.22 C19.6946986,35.1555725 20.7535933,34.7108367 21.58,33.96 C22.68,32.88 23.95,31.96 25.1,30.96 C25.5520797,30.582611 25.9171057,30.1118298 26.17,29.58 C26.4949215,28.7768183 27.1512221,28.1533327 27.97,27.87 C28.61,27.62 29.23,27.3 29.89,27.1 C32.25,26.41 34.51,26.1 36.45,28.23 C37.2404945,28.9251631 38.0792624,29.5634287 38.96,30.14 C39.4269006,30.5069933 39.8467386,30.9301901 40.21,31.4 C41.38,32.95 42.41,34.61 43.66,36.09 C46.77,39.77 48.66,44.18 50.97,48.34 C52.97,51.88 54.47,55.67 56.2,59.34 C57.26,61.58 58.46,63.77 59.36,66.08 C61.13,70.6 62.79,75.18 64.41,79.76 C65.6198651,83.1104839 67.5094185,86.1746246 69.96,88.76 C72.7424451,91.8611557 77.2289096,92.7714529 81,91 C81.21,90.91 81.41,90.79 81.63,90.72 C84.18,89.89 85.07,87.72 85.48,85.42 C85.7729158,83.1434803 85.3574064,80.8319905 84.29,78.8 C82.86,75.68 81.63,72.45 80.02,69.43 C77.5583777,65.1416462 74.5237861,61.2087886 71,57.74 C69.2003707,55.9095535 67.5641464,53.9253388 66.11,51.81 C64.11,48.81 62.53,45.57 60.6,42.54 C59.04,40.09 57.21,37.82 55.6,35.42 C54.8,34.26 53.74,33.04 53.6,31.74 C53.339475,30.3247415 52.7729357,28.9834768 51.94,27.81 C49.6413521,24.1161915 48.3836821,19.8698277 48.3,15.52 C48.3,12.76 49.81,10.92 51.81,9.52 C54.5735374,7.72234446 57.6667876,6.49184271 60.91,5.9 L60.91,5.9 Z M63.05,4.51 L63.42,4.64 L63.08,4.75 L63.08,4.75 L63.08,4.51 L63.05,4.51 Z M44.11,35.94 L44.23,35.94 L44.41,36.25 L44.11,35.94 Z M54.63,35.22 C56.95,38.55 59.35,41.83 61.63,45.22 C62.8488134,47.1109101 63.9508696,49.0745739 64.93,51.1 C66.4397866,53.854073 68.3887106,56.3434265 70.7,58.47 C74.2332676,61.8356569 77.2282343,65.7243918 79.58,70 C81.2958846,73.3548894 82.8216296,76.8036741 84.15,80.33 C85.24,83.19 85.32,86.2 83.15,88.67 C82.2701795,89.4890214 81.2225834,90.1066595 80.08,90.48 C76.6618082,91.7250368 72.8302174,90.7898287 70.37,88.11 C67.7588745,85.2221655 65.7889848,81.8140518 64.59,78.11 C63.77,75.66 63,73.2 62.09,70.79 C61.18,68.38 60.22,66.27 59.23,64.04 C57.58,60.32 55.98,56.58 54.23,52.92 C52.8,49.98 51.17,47.14 49.58,44.27 C48.13,41.65 46.58,39.06 45.09,36.36 C48.42,36.74 50.33,34.05 53.02,32.58 C53.51,33.47 54,34.37 54.63,35.22 L54.63,35.22 Z M53,31.82 L53,32.05 L52.71,32.21 C52.8204043,32.090802 52.917633,31.9600462 53,31.82 Z M47.75,18.91 C48.0877629,20.5622833 48.5696043,22.1818058 49.19,23.75 C49.85,25.4 50.75,26.94 51.55,28.53 C51.61,28.65 51.69,28.75 51.77,28.86 C53.21,31.12 53.07,31.71 50.84,33.17 C50.01,33.71 49.27,34.37 48.43,34.88 C45.83,36.46 43.43,35.88 42.04,33.18 C40.9174561,31.1615961 39.3217794,29.4458148 37.39,28.18 C36.9155473,27.8947679 36.4730216,27.5595211 36.07,27.18 C34.8362548,25.8639974 32.9415651,25.4011126 31.24,26 C29.744617,26.368497 28.2904981,26.8878252 26.9,27.55 C26.3073213,27.9980749 25.8050962,28.5545946 25.42,29.19 C25.0704773,29.65253 24.6931122,30.0933459 24.29,30.51 C23.35,31.37 22.29,32.09 21.41,33.03 C19.9,34.71 17.98,34.75 16.05,34.51 C13.29,34.17 11.61,32.42 10.8,29.79 C10.56,29 10.3,28.21 10.14,27.4 C9.32,23.4 11.82,21.18 15.56,21.25 C17.241653,21.4122109 18.8840267,20.6746635 19.88,19.31 C21.1132025,17.508279 22.4487289,15.7787723 23.88,14.13 C25.63,12.3 27.73,10.82 29.57,9.08 C34,4.85 39.42,3 45.22,1.73 C47.8830046,1.14503054 50.6347969,1.08727688 53.32,1.56 C55.3710792,1.98456728 57.3947395,2.53222452 59.38,3.2 C60.46,3.53 61.5,4.02 62.55,4.43 L62.55,4.75 C61.38,5.04 60.22,5.38 59.03,5.61 C56.2314135,6.11332745 53.582367,7.24130856 51.28,8.91 C47.67,11.6 46.74,14 47.75,18.91 Z" id="Shape"></path>
      <polygon id="Shape" points="44.11 35.94 44.4 36.3 44.23 36"></polygon>
      <polygon id="Shape" points="63.43 4.64 63.06 4.51 63.06 4.77 63.06 4.77"></polygon>
      <path d="M53,31.82 C52.9302454,31.9582201 52.8464721,32.0889065 52.75,32.21 L53.04,32.05 C53.05,32 53,31.9 53,31.82 Z" id="Shape"></path>
      <path d="M84.79,78.6 C84.3,77.52 83.79,76.44 83.36,75.35 C82.48,73.35 81.57,71.2 80.51,69.21 C78.0082539,64.8775664 74.9301711,60.904653 71.36,57.4 C69.5756876,55.5944171 67.9559397,53.6333173 66.52,51.54 C65.45,49.93 64.52,48.21 63.52,46.54 C62.72,45.13 61.89,43.67 61,42.27 C60.11,40.87 59,39.4 58,38.04 C57.3,37.04 56.59,36.12 55.92,35.13 L55.42,34.43 C54.7414228,33.6309692 54.2555819,32.6866588 54,31.67 C53.7589803,30.2325827 53.202291,28.8664742 52.37,27.67 L52.28,27.51 C50.0276957,23.906 48.7939855,19.7590748 48.71,15.51 C48.71,13.28 49.71,11.51 52,9.97 C54.7269181,8.17809674 57.7884284,6.95689431 61,6.38 C61.8095237,6.20123445 62.6076183,5.97416153 63.39,5.7 L64.39,5.36 L64.79,5.24 L64.69,4.24 L64.48,4.11 L64.35,4 C64.18044,3.87659119 63.9955577,3.77574634 63.8,3.7 L61.5,2.87 C59.59,2.16 57.61,1.43 55.61,0.87 C52.6024963,-0.0880679703 49.397369,-0.246601147 46.31,0.41 C44.2,0.89 42.31,1.33 40.37,1.84 C36.2864161,2.9041758 32.51546,4.92677954 29.37,7.74 L27.78,9.13 C26.86,9.93 25.9,10.76 24.99,11.62 C23.52,13.02 22.23,14.35 21.05,15.68 C20.5,16.31 20.05,16.99 19.53,17.68 C19.18,18.16 18.83,18.68 18.45,19.11 C17.922061,19.7716231 17.0910538,20.1153579 16.25,20.02 C15.1234437,19.9652419 13.9954636,20.0935749 12.91,20.4 C11.0450187,20.856859 9.55901475,22.263052 9,24.1 C8,27.44 9.46,30.41 10.61,32.35 C12.22,35.06 14.89,36.2 18.53,35.74 C19.7545796,35.6636453 20.9158945,35.1694687 21.82,34.34 C22.45,33.73 23.15,33.16 23.82,32.61 C24.33,32.2 24.82,31.78 25.32,31.35 C25.8284878,30.9216764 26.2350265,30.3853186 26.51,29.78 C26.7780952,29.0983717 27.3348857,28.570886 28.03,28.34 L28.8,28 C29.1909237,27.8353036 29.5916944,27.6950339 30,27.58 C32.42,26.87 34.37,26.77 36,28.58 C36.4895192,29.0669378 37.0330397,29.4963861 37.62,29.86 C37.94,30.08 38.27,30.3 38.57,30.54 C39.0034649,30.8806389 39.3930944,31.2736272 39.73,31.71 C40.17,32.3 40.59,32.9 41.02,33.5 C41.71,34.5 42.42,35.5 43.21,36.42 C45.3888043,39.2063079 47.2534262,42.2245808 48.77,45.42 C49.33,46.49 49.89,47.56 50.47,48.61 C51.81,51.03 52.97,53.61 54.09,56.1 C54.61,57.26 55.09,58.43 55.68,59.58 C56.03,60.32 56.39,61.04 56.75,61.77 C57.48,63.23 58.23,64.77 58.83,66.28 C60.64,70.89 62.32,75.57 63.83,79.94 C65.0612974,83.341498 66.9852082,86.4504016 69.48,89.07 C71.356956,91.1781821 74.0374537,92.3949392 76.86,92.42 C78.356033,92.4095138 79.8337,92.0894661 81.2,91.48 L81.45,91.36 C81.5563763,91.3023835 81.6666442,91.2522617 81.78,91.21 C84.78,90.21 85.62,87.49 85.96,85.52 C86.2992279,83.1477876 85.8902429,80.7288336 84.79,78.6 L84.79,78.6 Z M85.52,85.43 C85.11,87.77 84.22,89.9 81.67,90.73 C81.45,90.8 81.25,90.92 81.04,91.01 C77.2293411,92.825283 72.6767222,91.8902608 69.89,88.72 C67.4394185,86.1346246 65.5498651,83.0704839 64.34,79.72 C62.71,75.14 61.06,70.57 59.29,66.04 C58.39,63.73 57.18,61.55 56.13,59.3 C54.4,55.63 52.86,51.84 50.9,48.3 C48.6,44.15 46.7,39.73 43.59,36.05 C42.34,34.57 41.3,32.91 40.14,31.36 C39.7767386,30.8901901 39.3569006,30.4669933 38.89,30.1 C38.0092624,29.5234287 37.1704945,28.8851631 36.38,28.19 C34.44,26.11 32.18,26.37 29.82,27.06 C29.16,27.25 28.54,27.58 27.9,27.83 C27.0812221,28.1133327 26.4249215,28.7368183 26.1,29.54 C25.8484792,30.1036006 25.4723736,30.6027953 25,31 C23.85,32 22.58,32.93 21.48,34 C20.6535933,34.7508367 19.5946986,35.1955725 18.48,35.26 C15.4,35.65 12.7,34.89 11.05,32.11 C9.64,29.74 8.66,27.11 9.49,24.26 C9.9949249,22.5766821 11.3465179,21.2820382 13.05,20.85 C14.0834951,20.5585052 15.1574965,20.4369201 16.23,20.49 C17.2240402,20.5818839 18.1986674,20.1732902 18.83,19.4 C19.72,18.3 20.48,17.08 21.42,16.02 C22.66,14.62 23.98,13.28 25.33,12.02 C26.68,10.76 28.25,9.45 29.7,8.15 C32.7805705,5.36681408 36.484392,3.36400688 40.5,2.31 C42.5,1.79 44.44,1.31 46.42,0.88 C49.4090795,0.257373347 52.507936,0.412316173 55.42,1.33 C58.18,2.13 60.87,3.22 63.59,4.19 C63.8152243,4.29547501 64.0295803,4.42274885 64.23,4.57 L64.23,4.89 C63.1,5.23 61.99,5.67 60.84,5.89 C57.5618317,6.48564623 54.4366946,7.73366074 51.65,9.56 C49.65,10.91 48.11,12.75 48.14,15.56 C48.2236821,19.9098277 49.4813521,24.1561915 51.78,27.85 C52.6129357,29.0234768 53.179475,30.3647415 53.44,31.78 C53.61,33.08 54.68,34.29 55.44,35.46 C57.08,37.86 58.91,40.13 60.44,42.58 C62.37,45.58 63.96,48.86 65.95,51.85 C67.4568605,53.9580109 69.1467438,55.9289837 71,57.74 C74.5421546,61.208655 77.5937157,65.1450678 80.07,69.44 C81.68,72.44 82.91,75.69 84.34,78.81 C85.4039705,80.8430801 85.815978,83.1545122 85.52,85.43 L85.52,85.43 Z" id="Shape"></path>
      <path d="M79.58,70 C77.2194789,65.7074831 74.2107468,61.8049012 70.66,58.43 C68.3487106,56.3034265 66.3997866,53.814073 64.89,51.06 C63.9108696,49.0345739 62.8088134,47.0709101 61.59,45.18 C59.35,41.79 56.95,38.52 54.59,35.18 C54,34.37 53.51,33.47 53,32.66 C50.31,34.13 48.4,36.81 45.07,36.44 C46.6,39.14 48.07,41.73 49.56,44.35 C51.14,47.21 52.78,50.05 54.21,53 C55.98,56.66 57.59,60.4 59.21,64.12 C60.21,66.36 61.21,68.59 62.07,70.87 C62.93,73.15 63.75,75.75 64.57,78.19 C65.7689848,81.8940518 67.7388745,85.3021655 70.35,88.19 C72.8102174,90.8698287 76.6418082,91.8050368 80.06,90.56 C81.2025834,90.1866595 82.2501795,89.5690214 83.13,88.75 C85.32,86.28 85.24,83.28 84.13,80.41 C82.810934,76.8569422 81.2918383,73.381385 79.58,70 L79.58,70 Z M82.76,88.34 C81.9302689,89.0982648 80.9484608,89.6709862 79.88,90.02 C76.6559448,91.1951153 73.0414131,90.306296 70.73,87.77 C68.1565611,84.9507778 66.2043672,81.622168 65,78 L64.33,76 C63.75,74.25 63.16,72.44 62.49,70.68 C61.69,68.57 60.76,66.47 59.86,64.45 L58.62,61.63 C57.34,58.71 56.01,55.69 54.62,52.76 C53.46,50.37 52.14,48.01 50.87,45.76 L50,44.11 C49,42.29 48,40.49 46.92,38.66 L45.92,36.97 C46.5789561,36.9381448 47.227928,36.7961822 47.84,36.55 L47.57,37.33 C47.51,37.5 47.46,37.61 47.43,37.7 C47.3233065,37.9035318 47.3233065,38.1464682 47.43,38.35 C48.09,39.56 48.76,40.76 49.43,41.95 C49.5874598,42.1783682 49.8531569,42.3074211 50.13,42.29 C50.2720026,42.2943257 50.412865,42.2634046 50.54,42.2 C50.7217939,42.0833237 50.8509381,41.9003695 50.9,41.69 C50.9637804,41.4946611 50.945743,41.28182 50.85,41.1 C50.27,40.1 49.68,39.18 49.02,38.1 L48.02,36.48 C49.093007,35.9822446 50.1005976,35.3541798 51.02,34.61 C51.61,34.17 52.21,33.72 52.85,33.33 L53.08,33.69 C53.45,34.28 53.83,34.9 54.25,35.49 C55.05,36.6366667 55.8566667,37.78 56.67,38.92 C58.18,41.05 59.74,43.26 61.21,45.48 C62.4168386,47.351999 63.5088496,49.2955782 64.48,51.3 C66.0136076,54.101295 67.9928004,56.6343915 70.34,58.8 C73.8638287,62.131572 76.8433619,65.9951797 79.17,70.25 C80.8801567,73.5877187 82.3992719,77.0199175 83.72,80.53 C84.89,83.69 84.57,86.33 82.76,88.37 L82.76,88.34 Z" id="Shape"></path>
      <path d="M76.73,86.13 C76.5297667,85.8470789 76.2829211,85.6002333 76,85.4 C74.09651,84.059778 72.4981666,82.3319313 71.31,80.33 C69.0520431,76.6463512 67.3218593,72.6642356 66.17,68.5 C64.9998891,64.898422 63.2940974,61.4935808 61.11,58.4 C60.9948068,58.2462965 60.8565005,58.1113635 60.7,58 L60.57,57.89 L60.3,57.64 L59.3,58.22 L59.73,59.09 C59.9,59.44 60.06,59.78 60.24,60.09 L61.36,62.17 C62.17,63.66 63,65.17 63.76,66.75 C64.0356331,67.3636588 64.2597392,67.9991836 64.43,68.65 C64.57,69.12 64.71,69.6 64.88,70.05 C65.4,71.41 65.94,72.76 66.47,74.12 L67.47,76.64 C68.9537217,80.8427777 71.6855595,84.4922059 75.3,87.1 C75.504216,87.2292103 75.7267046,87.3269704 75.96,87.39 L76.19,87.47 L76.55,87.61 L77.21,86.68 L77,86.41 L76.73,86.13 Z" id="Shape"></path>
      <path d="M60.85,50.22 L62.14,49.64 L62,49.2 C62,49.1 61.93,49 61.9,48.9 C61.8203837,48.6265681 61.7061235,48.3644416 61.56,48.12 C59.1333333,44.3866667 56.7,40.66 54.26,36.94 L53.88,36.36 C53.74,36.15 53.6,35.95 53.45,35.75 L52.96,35.07 L51.96,35.8 L52.12,36.16 C53.4765727,38.9759229 55.1007099,41.654912 56.97,44.16 C58.2822683,45.9763768 59.5005345,47.8588484 60.62,49.8 L60.85,50.22 Z" id="Shape"></path>
      <path d="M71.24,63 C71.261882,63.2183702 71.3374617,63.4279321 71.46,63.61 C72.66,65.1966667 73.8766667,66.7766667 75.11,68.35 C75.2766269,68.5317233 75.4976773,68.6545291 75.74,68.7 L75.89,68.7 L76.61,68.99 L76.61,68.22 C76.6067206,68.1633808 76.6067206,68.1066192 76.61,68.05 C76.6656995,67.7771864 76.6118182,67.4934115 76.46,67.26 C75.19,65.64 73.89,64.05 72.58,62.45 C72.4567112,62.3215441 72.3013617,62.2283344 72.13,62.18 L71.9,62.09 L70.96,61.67 L71.21,62.67 C71.21,62.84 71.23,62.93 71.24,63 Z" id="Shape"></path>
    </g>
  </g>
</svg>
