<svg width="61px" height="96px" viewBox="0 0 61 96" version="1.1" xmlns="http://www.w3.org/2000/svg" xmlns:xlink="http://www.w3.org/1999/xlink">
  <g id="Page-1" stroke="none" stroke-width="1" fill="none" fill-rule="evenodd">
    <g transform="translate(-20.000000, 0.000000)" fill-rule="nonzero" fill="#7F8FA4">
      <g id="Group" transform="translate(20.000000, 0.000000)">
        <path d="M55.001,85.759 L55.001,85.502 C55.001,68 49.431,57.431 40,48 C40.001,48 40.001,48 40.001,48 C49.497,38.503 55,28 55,10.5 L55,10.204 C58.157,9.214 60,8.027 60,6.75 C60,3.298 46.568,0.5 30,0.5 C13.432,0.5 0,3.298 0,6.75 C0,8.027 1.843,9.214 5,10.204 L5,10.5 C5,28 10.571,38.569 20.001,48 C20,48 20,48.001 20.001,48.001 C20.001,48.001 20.001,48.001 20,48.001 C10.504,57.497 5.001,68 5.001,85.5 L5.001,85.796 C4.936,85.817 4.879,85.838 4.814,85.859 C4.551,85.943 4.297,86.029 4.053,86.117 C3.96,86.15 3.867,86.183 3.777,86.217 C3.478,86.328 3.193,86.442 2.926,86.558 C2.876,86.579 2.831,86.602 2.782,86.623 C2.556,86.725 2.344,86.827 2.144,86.932 C2.081,86.964 2.018,86.996 1.958,87.03 C1.732,87.154 1.52,87.279 1.331,87.406 C1.309,87.421 1.291,87.436 1.269,87.451 C1.102,87.567 0.954,87.684 0.818,87.803 C0.779,87.837 0.741,87.87 0.705,87.905 C0.565,88.038 0.438,88.172 0.34,88.307 C0.334,88.316 0.33,88.324 0.324,88.332 C0.233,88.461 0.166,88.591 0.113,88.722 C0.098,88.757 0.085,88.793 0.074,88.828 C0.031,88.967 0,89.107 0,89.25 C0,92.701 13.432,95.5 30,95.5 C30.011,95.5 30.021,95.5 30.031,95.5 C30.041,95.5 30.052,95.5 30.062,95.5 C46.666,95.5 60.125,92.702 60.125,89.25 C60.125,87.957 58.236,86.756 55.001,85.759 Z M10.019,84.59 C10.061,81.093 10.335,77.861 10.875,74.844 C12.498,65.782 16.478,58.595 23.536,51.537 L27.072,48 L23.536,44.464 C14.126,35.054 10.18,25.416 10.015,11.41 C15.322,12.398 22.323,13 30,13 C37.678,13 44.678,12.398 49.984,11.41 C49.819,25.418 45.873,35.056 36.464,44.465 L32.929,48 L36.465,51.536 C43.524,58.595 47.504,65.783 49.127,74.845 C49.666,77.856 49.94,81.081 49.982,84.571 C49.184,84.425 48.347,84.287 47.477,84.158 C47.424,81.333 47.217,78.716 46.827,76.246 L29.999,63.626 L13.173,76.244 C12.782,78.718 12.574,81.341 12.523,84.176 C11.653,84.306 10.816,84.445 10.019,84.593 C10.019,84.592 10.019,84.591 10.019,84.59 Z" id="Shape"></path>
        <path d="M34.697,42.697 C36.265,41.129 38.892,37.914 38.892,37.871 C38.892,37.169 34.91,36.6 29.999,36.6 C25.087,36.6 21.106,37.169 21.106,37.871 C21.106,37.914 23.734,41.128 25.303,42.697 L30,47.393 L34.697,42.697 Z" id="Shape"></path>
      </g>
    </g>
  </g>
</svg>
