
<svg width="60px" height="58px" viewBox="0 0 60 58" version="1.1" xmlns="http://www.w3.org/2000/svg" xmlns:xlink="http://www.w3.org/1999/xlink">
  <g id="Page-1" stroke="none" stroke-width="1" fill="none" fill-rule="evenodd">
    <g id="server-2" fill-rule="nonzero" fill="#7F8FA4">
      <path d="M10.5,6 C8.019,6 6,8.019 6,10.5 C6,12.981 8.019,15 10.5,15 C12.981,15 15,12.981 15,10.5 C15,8.019 12.981,6 10.5,6 Z M10.5,13 C9.122,13 8,11.879 8,10.5 C8,9.121 9.122,8 10.5,8 C11.878,8 13,9.121 13,10.5 C13,11.879 11.878,13 10.5,13 Z" id="Shape"></path>
      <circle id="Oval" cx="50" cy="9" r="1"></circle>
      <circle id="Oval" cx="46" cy="9" r="1"></circle>
      <circle id="Oval" cx="52" cy="12" r="1"></circle>
      <circle id="Oval" cx="48" cy="12" r="1"></circle>
      <circle id="Oval" cx="42" cy="9" r="1"></circle>
      <circle id="Oval" cx="44" cy="12" r="1"></circle>
      <circle id="Oval" cx="38" cy="9" r="1"></circle>
      <circle id="Oval" cx="40" cy="12" r="1"></circle>
      <circle id="Oval" cx="34" cy="9" r="1"></circle>
      <circle id="Oval" cx="36" cy="12" r="1"></circle>
      <path d="M60,16.392 L60,4.608 C60,2.067 57.933,0 55.392,0 L4.608,0 C2.067,0 0,2.067 0,4.608 L0,16.391 C0,17.86 0.703,19.156 1.777,20 C0.703,20.844 0,22.14 0,23.608 L0,35.391 C0,37.933 2.067,40 4.608,40 L29,40 L29,48.101 C27.044,48.5 25.5,50.044 25.101,52 L1,52 C0.448,52 0,52.447 0,53 C0,53.553 0.448,54 1,54 L25.101,54 C25.566,56.279 27.585,58 30,58 C32.415,58 34.434,56.279 34.899,54 L59,54 C59.552,54 60,53.553 60,53 C60,52.447 59.552,52 59,52 L34.899,52 C34.5,50.044 32.956,48.5 31,48.101 L31,40 L55.392,40 C57.933,40 60,37.933 60,35.392 L60,23.608 C60,22.139 59.297,20.844 58.223,20 C59.297,19.156 60,17.86 60,16.392 Z M33,53 C33,54.654 31.654,56 30,56 C28.346,56 27,54.654 27,53 C27,51.346 28.346,50 30,50 C31.654,50 33,51.346 33,53 Z M58,23.608 L58,35.391 C58,36.83 56.83,38 55.392,38 L4.608,38 C3.17,38 2,36.83 2,35.392 L2,23.608 C2,22.17 3.17,21 4.608,21 L55.391,21 C56.83,21 58,22.17 58,23.608 Z M4.608,19 C3.17,19 2,17.83 2,16.392 L2,4.608 C2,3.17 3.17,2 4.608,2 L55.391,2 C56.83,2 58,3.17 58,4.608 L58,16.391 C58,17.83 56.83,19 55.392,19 L4.608,19 Z" id="Shape"></path>
      <path d="M10.5,34 C12.981,34 15,31.981 15,29.5 C15,27.019 12.981,25 10.5,25 C8.019,25 6,27.019 6,29.5 C6,31.981 8.019,34 10.5,34 Z M10.5,27 C11.878,27 13,28.121 13,29.5 C13,30.879 11.878,32 10.5,32 C9.122,32 8,30.879 8,29.5 C8,28.121 9.122,27 10.5,27 Z" id="Shape"></path>
      <circle id="Oval" cx="50" cy="28" r="1"></circle>
      <circle id="Oval" cx="46" cy="28" r="1"></circle>
      <circle id="Oval" cx="52" cy="31" r="1"></circle>
      <circle id="Oval" cx="48" cy="31" r="1"></circle>
      <circle id="Oval" cx="42" cy="28" r="1"></circle>
      <circle id="Oval" cx="44" cy="31" r="1"></circle>
      <circle id="Oval" cx="38" cy="28" r="1"></circle>
      <circle id="Oval" cx="40" cy="31" r="1"></circle>
      <circle id="Oval" cx="34" cy="28" r="1"></circle>
      <circle id="Oval" cx="36" cy="31" r="1"></circle>
    </g>
  </g>
</svg>
