
<svg width="508px" height="508px" viewBox="0 0 508 508" version="1.1" xmlns="http://www.w3.org/2000/svg" xmlns:xlink="http://www.w3.org/1999/xlink">
  <g id="Page-1" stroke="none" stroke-width="1" fill="none" fill-rule="evenodd">
    <g id="server" fill-rule="nonzero" fill="#7F8FA4">
      <path d="M465.7,0 L42.3,0 C19,0 0,19 0,42.3 L0,145.8 C0,156.6 4.1,166.5 10.9,174 C4.1,181.5 0,191.4 0,202.3 L0,305.8 C0,316.6 4.1,326.5 10.9,334 C4.1,341.5 0,351.3 0,362.2 L0,465.7 C0,489 19,508 42.3,508 L465.6,508 C488.9,508 507.9,489 507.9,465.7 L507.9,362.2 C507.9,351.4 503.8,341.5 497,334 C503.7,326.5 507.9,316.6 507.9,305.8 L507.9,202.3 C507.9,191.5 503.8,181.6 497,174.1 C503.7,166.6 507.9,156.7 507.9,145.9 L507.9,42.3 L508,42.3 C508,19 489,0 465.7,0 Z M465.7,479.8 L42.3,479.8 C34.5,479.8 28.2,473.5 28.2,465.7 L28.2,362.2 C28.2,354.4 34.5,348.1 42.3,348.1 L465.6,348.1 C473.4,348.1 479.7,354.4 479.7,362.2 L479.7,465.7 L479.8,465.7 C479.8,473.5 473.5,479.8 465.7,479.8 Z M465.7,319.8 L42.3,319.8 C34.5,319.8 28.2,313.5 28.2,305.7 L28.2,202.3 C28.2,194.5 34.5,188.2 42.3,188.2 L465.6,188.2 C473.4,188.2 479.7,194.5 479.7,202.3 L479.7,305.7 L479.8,305.7 C479.8,313.5 473.5,319.8 465.7,319.8 Z M465.7,159.9 L42.3,159.9 C34.5,159.9 28.2,153.6 28.2,145.8 L28.2,42.3 C28.2,34.5 34.5,28.2 42.3,28.2 L465.6,28.2 C473.4,28.2 479.7,34.5 479.7,42.3 L479.7,145.8 L479.8,145.8 C479.8,153.6 473.5,159.9 465.7,159.9 Z" id="Shape"></path>
      <path d="M77.6,54.9 C69.8,54.9 63.5,61.2 63.5,69 L63.5,119 C63.5,126.8 69.8,133.1 77.6,133.1 C85.4,133.1 91.7,126.8 91.7,119 L91.7,69 C91.7,61.3 85.4,54.9 77.6,54.9 Z" id="Shape"></path>
      <path d="M135.4,54.9 C127.6,54.9 121.3,61.2 121.3,69 L121.3,119 C121.3,126.8 127.6,133.1 135.4,133.1 C143.2,133.1 149.5,126.8 149.5,119 L149.5,69 C149.5,61.3 143.2,54.9 135.4,54.9 Z" id="Shape"></path>
      <path d="M193.2,54.9 C185.4,54.9 179.1,61.2 179.1,69 L179.1,119 C179.1,126.8 185.4,133.1 193.2,133.1 C201,133.1 207.3,126.8 207.3,119 L207.3,69 C207.3,61.3 201,54.9 193.2,54.9 Z" id="Shape"></path>
      <path d="M430.4,80 L307.9,80 C300.1,80 293.8,86.3 293.8,94.1 C293.8,101.9 300.1,108.2 307.9,108.2 L430.4,108.2 C438.2,108.2 444.5,101.9 444.5,94.1 C444.5,86.3 438.2,80 430.4,80 Z" id="Shape"></path>
      <path d="M77.6,214.9 C69.8,214.9 63.5,221.2 63.5,229 L63.5,279 C63.5,286.8 69.8,293.1 77.6,293.1 C85.4,293.1 91.7,286.8 91.7,279 L91.7,229 C91.7,221.2 85.4,214.9 77.6,214.9 Z" id="Shape"></path>
      <path d="M135.4,214.9 C127.6,214.9 121.3,221.2 121.3,229 L121.3,279 C121.3,286.8 127.6,293.1 135.4,293.1 C143.2,293.1 149.5,286.8 149.5,279 L149.5,229 C149.5,221.2 143.2,214.9 135.4,214.9 Z" id="Shape"></path>
      <path d="M193.2,214.9 C185.4,214.9 179.1,221.2 179.1,229 L179.1,279 C179.1,286.8 185.4,293.1 193.2,293.1 C201,293.1 207.3,286.8 207.3,279 L207.3,229 C207.3,221.2 201,214.9 193.2,214.9 Z" id="Shape"></path>
      <path d="M430.4,239.9 L307.9,239.9 C300.1,239.9 293.8,246.2 293.8,254 C293.8,261.8 300.1,268.1 307.9,268.1 L430.4,268.1 C438.2,268.1 444.5,261.8 444.5,254 C444.5,246.2 438.2,239.9 430.4,239.9 Z" id="Shape"></path>
      <path d="M77.6,374.8 C69.8,374.8 63.5,381.1 63.5,388.9 L63.5,438.9 C63.5,446.7 69.8,453 77.6,453 C85.4,453 91.7,446.7 91.7,438.9 L91.7,388.9 C91.7,381.1 85.4,374.8 77.6,374.8 Z" id="Shape"></path>
      <path d="M135.4,374.8 C127.6,374.8 121.3,381.1 121.3,388.9 L121.3,438.9 C121.3,446.7 127.6,453 135.4,453 C143.2,453 149.5,446.7 149.5,438.9 L149.5,388.9 C149.5,381.1 143.2,374.8 135.4,374.8 Z" id="Shape"></path>
      <path d="M193.2,374.8 C185.4,374.8 179.1,381.1 179.1,388.9 L179.1,438.9 C179.1,446.7 185.4,453 193.2,453 C201,453 207.3,446.7 207.3,438.9 L207.3,388.9 C207.3,381.1 201,374.8 193.2,374.8 Z" id="Shape"></path>
      <path d="M430.4,399.8 L307.9,399.8 C300.1,399.8 293.8,406.1 293.8,413.9 C293.8,421.7 300.1,428 307.9,428 L430.4,428 C438.2,428 444.5,421.7 444.5,413.9 C444.5,406.1 438.2,399.8 430.4,399.8 Z" id="Shape"></path>
    </g>
  </g>
</svg>
