<svg xmlns="http://www.w3.org/2000/svg" width="1019" height="288" viewBox="0 0 1019 288">
  <g fill="none" fill-rule="evenodd" transform="translate(-30 -30)">
    <g fill-rule="nonzero" transform="translate(399 76)">
      <path fill="#fcfcfc"
        d="M.548523207 191.983122L.548523207 54.8523207 37.0253165 54.8523207 37.0253165 69.3881857C52.384043 60.2460865 67.0111823 54.3037975 80.907173 51.5611814L80.907173 88.5864979C66.0969724 91.6948116 53.3896451 94.8944983 42.7848101 98.185654L37.2995781 100.105485 37.2995781 191.983122.548523207 191.983122zM207.616034 97.6371308L207.616034 154.683544C207.981718 159.071752 208.71308 162.134309 209.810127 163.871308 210.907178 165.608307 213.192669 166.842472 216.666667 167.57384L215.56962 195.274262C206.244679 195.274262 198.79398 194.634324 193.2173 193.35443 187.640619 192.074536 182.018312 189.514787 176.350211 185.675105 163.185588 192.074575 149.746904 195.274262 136.033755 195.274262 107.693248 195.274262 93.5232068 180.281444 93.5232068 150.295359 93.5232068 135.668 97.4542504 125.291873 105.316456 119.166667 113.178661 113.04146 125.246051 109.430385 141.518987 108.333333L170.864979 106.139241 170.864979 97.6371308C170.864979 91.9690293 169.585104 88.0836955 167.025316 85.9810127 164.465529 83.8783299 160.351646 82.8270042 154.683544 82.8270042L103.122363 85.021097 102.025316 59.5147679C121.589409 54.2123504 140.193301 51.5611814 157.837553 51.5611814 175.481804 51.5611814 188.189131 55.2179662 195.959916 62.5316456 203.7307 69.8453249 207.616034 81.5470363 207.616034 97.6371308z" />
      <path fill="#010101"
        d="M145.907173,133.839662 C135.668022,134.753872 130.548523,140.23905 130.548523,150.295359 C130.548523,160.351668 135.028085,165.379747 143.987342,165.379747 C150.935337,165.379747 158.523166,164.282711 166.751055,162.088608 L170.864979,160.991561 L170.864979,131.64557 L145.907173,133.839662 Z" />
      <path fill="#fcfcfc"
        d="M294.008439 51.5611814C303.516222 51.5611814 315.675031 53.0238954 330.485232 55.9493671L337.890295 57.5949367 336.793249 86.6666667C322.348732 85.2039308 311.652637 84.4725738 304.704641 84.4725738 292.088545 84.4725738 283.723649 87.1694526 279.609705 92.5632911 275.49576 97.9571296 273.438819 108.150417 273.438819 123.14346 273.438819 138.136503 275.49576 148.42121 279.609705 153.99789 283.723649 159.574571 292.179964 162.362869 304.978903 162.362869L336.793249 160.168776 337.890295 189.514768C318.326203 193.35445 303.424805 195.274262 293.185654 195.274262 272.890194 195.274262 258.308764 189.560535 249.440928 178.132911 240.573092 166.705287 236.139241 148.375654 236.139241 123.14346 236.139241 97.9112662 240.710222 79.673052 249.852321 68.42827 258.99442 57.1834881 273.712979 51.5611814 294.008439 51.5611814zM441.012658 86.1181435L407.278481 86.1181435 407.278481 142.341772C407.278481 147.827032 407.41561 151.712366 407.689873 153.99789 407.964136 156.283415 408.969752 158.248937 410.706751 159.894515 412.44375 161.540093 415.140629 162.362869 418.797468 162.362869L439.64135 161.814346 441.28692 191.160338C429.036507 193.902967 419.711706 195.274262 413.312236 195.274262 396.856458 195.274262 385.611845 191.571767 379.578059 184.166667 373.544274 176.761566 370.527426 163.094333 370.527426 143.164557L370.527426 86.1181435 354.345992 86.1181435 354.345992 54.8523207 370.527426 54.8523207 370.527426 16.7299578 407.278481 16.7299578 407.278481 54.8523207 441.012658 54.8523207 441.012658 86.1181435zM472.278481 70.4852321C481.969106 57.8691352 498.150379 51.5611814 520.822785 51.5611814 543.495191 51.5611814 559.676464 57.8234254 569.367089 70.3481013 579.057714 82.8727771 583.902954 100.471054 583.902954 123.14346 583.902954 171.230901 562.876441 195.274262 520.822785 195.274262 478.769129 195.274262 457.742616 171.230901 457.742616 123.14346 457.742616 100.471054 462.587856 82.9184869 472.278481 70.4852321z" />
      <path fill="#010101"
        d="M500.527426,154.135021 C504.367108,160.717332 511.13216,164.008439 520.822785,164.008439 C530.51341,164.008439 537.232752,160.717332 540.981013,154.135021 C544.729273,147.55271 546.603376,137.222293 546.603376,123.14346 C546.603376,109.064627 544.729273,98.8256297 540.981013,92.4261603 C537.232752,86.0266909 530.51341,82.8270042 520.822785,82.8270042 C511.13216,82.8270042 504.412818,86.0266909 500.664557,92.4261603 C496.916296,98.8256297 495.042194,109.064627 495.042194,123.14346 C495.042194,137.222293 496.870586,147.55271 500.527426,154.135021 Z" />
      <polygon fill="#fcfcfc" points="612.426 191.983 612.426 0 649.177 0 649.177 191.983" />
    </g>
    <path fill="#fcfcfc"
      d="M125.192982,51.1929825 L222.807018,51.1929825 C263.676089,51.1929825 296.807018,84.323911 296.807018,125.192982 L296.807018,222.807018 C296.807018,263.676089 263.676089,296.807018 222.807018,296.807018 L125.192982,296.807018 C84.323911,296.807018 51.1929825,263.676089 51.1929825,222.807018 L51.1929825,125.192982 C51.1929825,84.323911 84.323911,51.1929825 125.192982,51.1929825 Z"
      transform="rotate(45 174 174)" />
    <g transform="translate(80 114)">
      <path fill="#ECC94B"
        d="M169.468132,29.7758242 C168.327473,29.6131868 167.43956,28.6967033 167.318681,27.5516484 C165.67033,12.1186813 152.707692,0.481318681 137.169231,0.481318681 C121.756044,0.481318681 108.806593,12.0153846 107.050549,27.3120879 C106.894505,28.6593407 105.595604,29.643956 104.259341,29.5274725 C100.03956,29.5340659 95.8901099,30.8681319 92.3626374,33.3032967 C101.340659,39.8505495 107.698901,49.821978 109.459341,61.4725275 C116.610989,62.9384615 122.837363,66.821978 127.342857,72.1626374 L166.452747,72.1626374 C178.204396,72.1626374 187.764837,62.6021978 187.764837,50.8505495 C187.769231,40.3120879 179.901099,31.2527473 169.468132,29.7758242 Z" />
      <path fill="#48BB78"
        d="M106.850549,66.1274725 C105.70989,65.9648352 104.821978,65.0483516 104.701099,63.9032967 C102.646154,44.6373626 86.4659341,30.1098901 67.0637363,30.1098901 C47.8197802,30.1098901 31.6549451,44.5098901 29.4637363,63.6065934 C29.3098901,64.9384615 28.0461538,65.9186813 26.7010989,65.8263736 C12.0461538,65.8263736 0.032967033,77.8395604 0.032967033,92.6065934 C0.032967033,107.373626 12.0461538,119.384615 26.8131868,119.384615 L103.068132,119.384615 C117.835165,119.384615 129.848352,107.373626 129.848352,92.6043956 C129.846154,79.3692308 119.96044,67.9846154 106.850549,66.1274725 Z" />
    </g>
  </g>
</svg>
