<svg xmlns="http://www.w3.org/2000/svg" width="237" height="72"><path fill="#3E3F42" d="M.2 70V20h13.3v5.3c5.6-3.333 10.933-5.5 16-6.5v13.5c-5.4 1.133-10.033 2.3-13.9 3.5l-2 .7V70H.2zm75.5-34.4v20.8c.133 1.6.4 2.717.8 3.35s1.233 1.083 2.5 1.35l-.4 10.1c-3.4 0-6.117-.233-8.15-.7-2.033-.467-4.083-1.4-6.15-2.8-4.8 2.333-9.7 3.5-14.7 3.5-10.333 0-15.5-5.467-15.5-16.4 0-5.333 1.433-9.117 4.3-11.35 2.867-2.233 7.267-3.55 13.2-3.95l10.7-.8v-3.1c0-2.067-.467-3.483-1.4-4.25-.933-.767-2.433-1.15-4.5-1.15l-18.8.8-.4-9.3c7.133-1.933 13.917-2.9 20.35-2.9 6.433 0 11.067 1.333 13.9 4s4.25 6.933 4.25 12.8zM53.2 48.8c-3.733.333-5.6 2.333-5.6 6s1.633 5.5 4.9 5.5c2.533 0 5.3-.4 8.3-1.2l1.5-.4V48l-9.1.8zm54-30c3.467 0 7.9.533 13.3 1.6l2.7.6-.4 10.6c-5.267-.533-9.167-.8-11.7-.8-4.6 0-7.65.983-9.15 2.95S99.7 39.433 99.7 44.9c0 5.467.75 9.217 2.25 11.25 1.5 2.033 4.583 3.05 9.25 3.05l11.6-.8.4 10.7c-7.133 1.4-12.567 2.1-16.3 2.1-7.4 0-12.717-2.083-15.95-6.25-3.233-4.167-4.85-10.85-4.85-20.05 0-9.2 1.667-15.85 5-19.95s8.7-6.15 16.1-6.15zm53.6 12.6h-12.3v20.5c0 2 .05 3.417.15 4.25.1.833.467 1.55 1.1 2.15.633.6 1.617.9 2.95.9l7.6-.2.6 10.7c-4.467 1-7.867 1.5-10.2 1.5-6 0-10.1-1.35-12.3-4.05-2.2-2.7-3.3-7.683-3.3-14.95V31.4h-5.9V20h5.9V6.1h13.4V20h12.3v11.4zm11.4-5.7c3.533-4.6 9.433-6.9 17.7-6.9s14.167 2.283 17.7 6.85c3.533 4.567 5.3 10.983 5.3 19.25 0 17.533-7.667 26.3-23 26.3s-23-8.767-23-26.3c0-8.267 1.767-14.667 5.3-19.2zm10.3 30.5c1.4 2.4 3.867 3.6 7.4 3.6 3.533 0 5.983-1.2 7.35-3.6 1.367-2.4 2.05-6.167 2.05-11.3 0-5.133-.683-8.867-2.05-11.2-1.367-2.333-3.817-3.5-7.35-3.5-3.533 0-5.983 1.167-7.35 3.5s-2.05 6.067-2.05 11.2c0 5.133.667 8.9 2 11.3zM223.3 70V0h13.4v70h-13.4z"/></svg>