<svg xmlns="http://www.w3.org/2000/svg" width="288" height="288" viewBox="0 0 288 288">
  <g fill="none" fill-rule="evenodd" transform="translate(-30 -30)">
    <path fill="#010101" d="M125.192982,51.1929825 L222.807018,51.1929825 C263.676089,51.1929825 296.807018,84.323911 296.807018,125.192982 L296.807018,222.807018 C296.807018,263.676089 263.676089,296.807018 222.807018,296.807018 L125.192982,296.807018 C84.323911,296.807018 51.1929825,263.676089 51.1929825,222.807018 L51.1929825,125.192982 C51.1929825,84.323911 84.323911,51.1929825 125.192982,51.1929825 Z" transform="rotate(45 174 174)"/>
    <g transform="translate(80 114)">
      <path fill="#ECC94B" d="M169.468132,29.7758242 C168.327473,29.6131868 167.43956,28.6967033 167.318681,27.5516484 C165.67033,12.1186813 152.707692,0.481318681 137.169231,0.481318681 C121.756044,0.481318681 108.806593,12.0153846 107.050549,27.3120879 C106.894505,28.6593407 105.595604,29.643956 104.259341,29.5274725 C100.03956,29.5340659 95.8901099,30.8681319 92.3626374,33.3032967 C101.340659,39.8505495 107.698901,49.821978 109.459341,61.4725275 C116.610989,62.9384615 122.837363,66.821978 127.342857,72.1626374 L166.452747,72.1626374 C178.204396,72.1626374 187.764837,62.6021978 187.764837,50.8505495 C187.769231,40.3120879 179.901099,31.2527473 169.468132,29.7758242 Z"/>
      <path fill="#48BB78" d="M106.850549,66.1274725 C105.70989,65.9648352 104.821978,65.0483516 104.701099,63.9032967 C102.646154,44.6373626 86.4659341,30.1098901 67.0637363,30.1098901 C47.8197802,30.1098901 31.6549451,44.5098901 29.4637363,63.6065934 C29.3098901,64.9384615 28.0461538,65.9186813 26.7010989,65.8263736 C12.0461538,65.8263736 0.032967033,77.8395604 0.032967033,92.6065934 C0.032967033,107.373626 12.0461538,119.384615 26.8131868,119.384615 L103.068132,119.384615 C117.835165,119.384615 129.848352,107.373626 129.848352,92.6043956 C129.846154,79.3692308 119.96044,67.9846154 106.850549,66.1274725 Z"/>
    </g>
  </g>
</svg>
