<svg xmlns="http://www.w3.org/2000/svg" width="600" height="600" viewBox="0 0 600 600">
  <g fill="none">
    <circle cx="300" cy="300" r="300" fill="#48BB78" />
    <path fill="#38A169"
      d="M591.35904,241.837988 L467,177 L430,174 L440,221 C445.991174,245.387353 445.108841,275.494476 443.936731,277.183057 L298,155 L220.959381,165.931986 C220.959381,165.931986 131.568976,168.685872 133,216 L253.225651,363.906813 L248.103354,393.006616 L205,410 L211.62915,425.046762 L221,484 C262.969066,561.333333 289.779939,600 301.43262,600 C466.326952,600 600,470.630546 600,311.044974 C600,287.186996 596.991001,264.013029 591.35904,241.837988 Z" />
    <g transform="translate(112 110)">
      <polygon fill="#3E3F42" points="125.145 72.38 86.97 96.502 259.445 373.963 314.757 339.011" />
      <polygon fill="#E0E3EE" points="185.672 45.146 43.638 134.896 .48 70.045 111.267 .041" />
      <g transform="translate(57 16)">
        <path fill="#E0E3EE"
          d="M262.813337,15.4487863 C237.711237,1.13917678 208.30603,-3.14643272 180.0149,3.38163588 L174.679164,4.61243799 L179.975146,5.99626385 C189.176696,8.39930343 198.069912,12.0284222 206.409483,16.7825488 C253.031964,43.3605066 270.859119,98.4509446 246.149708,139.587884 C234.188663,159.500807 213.257802,174.993045 188.334109,180.510401 C150.22476,188.945599 104.419657,167.995515 104.419657,167.995515 L66.7223891,230.756032 L107.897629,254.228174 L135.630267,208.057509 C135.630267,208.057509 193.175347,226.625335 229.012912,216.27923 C260.783954,207.107251 288.254799,190.274639 303.125629,165.515963 C334.480711,113.315029 316.397581,45.9959156 262.813337,15.4487863 Z" />
        <polygon fill="#3E3F42"
          points="138.068 265.717 41.687 210.774 23.907 240.377 45.151 252.486 .249 327.239 54.143 357.962 99.044 283.209 120.287 295.32" />
      </g>
    </g>
  </g>
</svg>
