<svg xmlns="http://www.w3.org/2000/svg" width="2148" height="600" viewBox="0 0 2148 600">
  <g fill="none">
    <circle cx="300" cy="300" r="300" fill="#48BB78" />
    <path fill="#38A169"
      d="M591.35904,241.837988 L467,177 L430,174 L440,221 C445.991174,245.387353 445.108841,275.494476 443.936731,277.183057 L298,155 L220.959381,165.931986 C220.959381,165.931986 131.568976,168.685872 133,216 L253.225651,363.906813 L248.103354,393.006616 L205,410 L211.62915,425.046762 L221,484 C262.969066,561.333333 289.779939,600 301.43262,600 C466.326952,600 600,470.630546 600,311.044974 C600,287.186996 596.991001,264.013029 591.35904,241.837988 Z" />
    <g transform="translate(112 110)">
      <polygon fill="#3E3F42" points="125.145 72.38 86.97 96.502 259.445 373.963 314.757 339.011" />
      <polygon fill="#E0E3EE" points="185.672 45.146 43.638 134.896 .48 70.045 111.267 .041" />
      <g transform="translate(57 16)">
        <path fill="#E0E3EE"
          d="M262.813337,15.4487863 C237.711237,1.13917678 208.30603,-3.14643272 180.0149,3.38163588 L174.679164,4.61243799 L179.975146,5.99626385 C189.176696,8.39930343 198.069912,12.0284222 206.409483,16.7825488 C253.031964,43.3605066 270.859119,98.4509446 246.149708,139.587884 C234.188663,159.500807 213.257802,174.993045 188.334109,180.510401 C150.22476,188.945599 104.419657,167.995515 104.419657,167.995515 L66.7223891,230.756032 L107.897629,254.228174 L135.630267,208.057509 C135.630267,208.057509 193.175347,226.625335 229.012912,216.27923 C260.783954,207.107251 288.254799,190.274639 303.125629,165.515963 C334.480711,113.315029 316.397581,45.9959156 262.813337,15.4487863 Z" />
        <polygon fill="#3E3F42"
          points="138.068 265.717 41.687 210.774 23.907 240.377 45.151 252.486 .249 327.239 54.143 357.962 99.044 283.209 120.287 295.32" />
      </g>
    </g>
    <g transform="translate(800 97)">
      <path fill="#3E3F42"
        d="M.139240506 398.734177L.139240506 113.924051 75.8987342 113.924051 75.8987342 144.113924C107.797628 125.126487 138.177071 112.78481 167.037975 107.088608L167.037975 183.987342C136.278327 190.44307 109.886186 197.088573 87.8607595 203.924051L76.4683544 207.911392 76.4683544 398.734177.139240506 398.734177zM430.202532 202.78481L430.202532 321.265823C430.962029 330.379792 432.481013 336.740488 434.759494 340.348101 437.037986 343.955714 441.784774 346.51898 449 348.037975L446.721519 405.56962C427.354334 405.56962 411.879805 404.24052 400.297468 401.582278 388.715132 398.924037 377.038034 393.607635 365.265823 385.632911 337.923914 398.924117 310.012801 405.56962 281.531646 405.56962 222.670592 405.56962 193.240506 374.430691 193.240506 312.151899 193.240506 281.772 201.404982 260.221583 217.734177 247.5 234.063373 234.778417 259.126413 227.278492 292.924051 225L353.873418 220.443038 353.873418 202.78481C353.873418 191.012599 351.215216 182.94306 345.898734 178.575949 340.582252 174.208839 332.038034 172.025316 320.265823 172.025316L213.177215 176.582278 210.898734 123.607595C251.531849 112.594882 290.170703 107.088608 326.816456 107.088608 363.462209 107.088608 389.85435 114.683468 405.993671 129.873418 422.132992 145.063367 430.202532 169.366922 430.202532 202.78481z" />
      <path fill="#FFF"
        d="M302.037975,277.974684 C280.772046,279.873427 270.139241,291.265718 270.139241,312.151899 C270.139241,333.038079 279.442945,343.481013 298.050633,343.481013 C312.481085,343.481013 328.240421,341.202554 345.329114,336.64557 L353.873418,334.367089 L353.873418,273.417722 L302.037975,277.974684 Z" />
      <path fill="#3E3F42"
        d="M609.632911 107.088608C629.379846 107.088608 654.632758 110.126552 685.392405 116.202532L700.772152 119.620253 698.493671 180C668.493521 176.96201 646.278553 175.443038 631.848101 175.443038 605.645439 175.443038 588.272195 181.044248 579.727848 192.246835 571.183502 203.449423 566.911392 224.620097 566.911392 255.759494 566.911392 286.89889 571.183502 308.259436 579.727848 319.841772 588.272195 331.424109 605.83531 337.21519 632.417722 337.21519L698.493671 332.658228 700.772152 393.607595C660.139037 401.582318 629.18998 405.56962 607.924051 405.56962 565.771941 405.56962 535.487434 393.70265 517.06962 369.968354 498.651807 346.234059 489.443038 308.164819 489.443038 255.759494 489.443038 203.354168 498.936614 165.4748 517.924051 142.120253 536.911487 118.765706 567.480802 107.088608 609.632911 107.088608zM914.949367 178.860759L844.886076 178.860759 844.886076 295.632911C844.886076 307.025373 845.170883 315.094913 845.740506 319.841772 846.310129 324.588631 848.398716 328.670869 852.006329 332.088608 855.613942 335.506346 861.215152 337.21519 868.810127 337.21519L912.101266 336.075949 915.518987 397.025316C890.075822 402.721547 870.708927 405.56962 857.417722 405.56962 823.240335 405.56962 799.886139 397.879824 787.35443 382.5 774.822722 367.120176 768.556962 338.734384 768.556962 297.341772L768.556962 178.860759 734.949367 178.860759 734.949367 113.924051 768.556962 113.924051 768.556962 34.7468354 844.886076 34.7468354 844.886076 113.924051 914.949367 113.924051 914.949367 178.860759zM979.886076 146.392405C1000.01276 120.189742 1033.62002 107.088608 1080.70886 107.088608 1127.7977 107.088608 1161.40496 120.094807 1181.53165 146.107595 1201.65833 172.120383 1211.72152 208.670651 1211.72152 255.759494 1211.72152 355.633411 1168.05107 405.56962 1080.70886 405.56962 993.366652 405.56962 949.696203 355.633411 949.696203 255.759494 949.696203 208.670651 959.759393 172.215319 979.886076 146.392405z" />
      <path fill="#FFF"
        d="M1038.55696,320.126582 C1046.53169,333.797537 1060.58218,340.632911 1080.70886,340.632911 C1100.83554,340.632911 1114.7911,333.797537 1122.57595,320.126582 C1130.3608,306.455628 1134.25316,285.000146 1134.25316,255.759494 C1134.25316,226.518841 1130.3608,205.253231 1122.57595,191.962025 C1114.7911,178.67082 1100.83554,172.025316 1080.70886,172.025316 C1060.58218,172.025316 1046.62662,178.67082 1038.84177,191.962025 C1031.05692,205.253231 1027.16456,226.518841 1027.16456,255.759494 C1027.16456,285.000146 1030.96199,306.455628 1038.55696,320.126582 Z" />
      <polygon fill="#3E3F42" points="1270.962 398.734 1270.962 0 1347.291 0 1347.291 398.734" />
    </g>
  </g>
</svg>
