
<svg width="200px" height="280px" viewBox="0 0 200 280" version="1.1" xmlns="http://www.w3.org/2000/svg" xmlns:xlink="http://www.w3.org/1999/xlink">
    <!-- Generator: Sketch 50.2 (55047) - http://www.bohemiancoding.com/sketch -->
    <desc>Created with Sketch.</desc>
    <defs>
        <path d="M124,144.610951 L124,163 L128,163 C167.764502,163 200,195.235498 200,235 L200,244 L0,244 L0,235 C-4.86974701e-15,195.235498 32.235498,163 72,163 L76,163 L76,144.610951 C58.7626345,136.422372 46.3722246,119.687011 44.3051388,99.8812385 C38.4803105,99.0577866 34,94.0521096 34,88 L34,74 C34,68.0540074 38.3245733,63.1180731 44,62.1659169 L44,56 C44,25.072054 69.072054,5.68137151e-15 100,0 C130.927946,-5.68137151e-15 156,25.072054 156,56 L156,62.1659169 C161.675427,63.1180731 166,68.0540074 166,74 L166,88 C166,94.0521096 161.51969,99.0577866 155.694861,99.8812385 C153.627775,119.687011 141.237365,136.422372 124,144.610951 Z" id="path-1"></path>
        <path d="M94,29.6883435 L94,74 L170,74 L170,29.6883435 C179.362956,30.9893126 188.149952,34.0907916 196.00002,38.6318143 L196,110 L68,110 L68,38.6318027 C75.8500482,34.0907916 84.6370437,30.9893126 94,29.6883435 Z" id="path-3"></path>
        <rect id="path-5" x="24" y="9" width="60" height="22" rx="11"></rect>
        <rect id="path-7" x="0" y="0" width="264" height="280"></rect>
        <path d="M72,21 C126.772655,21 144,68.8032255 144,103.04488 L144,176.910255 C144,196.404852 121.366901,196.446757 121.366901,165.988782 L121.366901,86.5347425 C121.366901,80.4596103 117.635097,77.5347425 111.551408,77.5347425 L72,77.5347425 L32.4485915,77.5347425 C26.3649028,77.5347425 22.6330986,80.4596103 22.6330986,86.5347425 L22.6330986,165.988782 C22.6330986,196.446757 -1.41137102e-14,196.404852 0,176.910255 L0,103.04488 C-7.11930515e-15,68.8032255 17.2273451,21 72,21 Z" id="path-9"></path>
    </defs>
    <g id="Introduction" stroke="none" stroke-width="1" fill="none" fill-rule="evenodd">
        <g id="Intro" transform="translate(-903.000000, -782.000000)">
            <g id="front" transform="translate(295.000000, 782.000000)">
                <g id="Avataaar/Default" transform="translate(576.000000, 0.000000)">
                    <g id="Body" stroke-width="1" fill-rule="evenodd" transform="translate(32.000000, 36.000000)">
                        <mask id="mask-2" fill="white">
                            <use xlink:href="#path-1"></use>
                        </mask>
                        <use fill="#D0C6AC" xlink:href="#path-1"></use>
                        <g id="Skin/ðŸ‘¶ðŸ»-05-Pale" mask="url(#mask-2)" fill="#FFDBB4">
                            <g transform="translate(-32.000000, 0.000000)" id="Color">
                                <rect x="0" y="0" width="264" height="244"></rect>
                            </g>
                        </g>
                        <path d="M156,94 L156,102 C156,132.927946 130.927946,158 100,158 C69.072054,158 44,132.927946 44,102 L44,94 C44,124.927946 69.072054,150 100,150 C130.927946,150 156,124.927946 156,94 Z" id="Neck-Shadow" fill-opacity="0.100000001" fill="#000000" mask="url(#mask-2)"></path>
                    </g>
                    <g id="Clothing/Overall" transform="translate(0.000000, 170.000000)">
                        <mask id="mask-4" fill="white">
                            <use xlink:href="#path-3"></use>
                        </mask>
                        <use id="Overall" fill="#B7C1DB" fill-rule="evenodd" xlink:href="#path-3"></use>
                        <g id="Color/Palette/Blue-02" mask="url(#mask-4)" fill="#5199E4" fill-rule="evenodd">
                            <rect id="ðŸ–Color" x="0" y="0" width="264" height="110"></rect>
                        </g>
                        <circle id="Button" fill="#F4F4F4" fill-rule="evenodd" cx="81" cy="83" r="5"></circle>
                        <circle id="Button" fill="#F4F4F4" fill-rule="evenodd" cx="183" cy="83" r="5"></circle>
                    </g>
                    <g id="Face" stroke-width="1" fill-rule="evenodd" transform="translate(76.000000, 82.000000)">
                        <g id="Mouth/Grimace" transform="translate(2.000000, 52.000000)">
                            <rect id="Mouth" fill-opacity="0.599999964" fill="#000000" fill-rule="evenodd" x="22" y="7" width="64" height="26" rx="13"></rect>
                            <mask id="mask-6" fill="white">
                                <use xlink:href="#path-5"></use>
                            </mask>
                            <use id="Mouth" fill="#FFFFFF" fill-rule="evenodd" xlink:href="#path-5"></use>
                            <path d="M71,22 L62,22 L62,34 L58,34 L58,22 L49,22 L49,34 L45,34 L45,22 L36,22 L36,34 L32,34 L32,22 L24,22 L24,18 L32,18 L32,6 L36,6 L36,18 L45,18 L45,6 L49,6 L49,18 L58,18 L58,6 L62,6 L62,18 L71,18 L71,6 L75,6 L75,18 L83.8666667,18 L83.8666667,22 L75,22 L75,34 L71,34 L71,22 Z" id="Grimace-Teeth" fill="#E6E6E6" fill-rule="evenodd" mask="url(#mask-6)"></path>
                        </g>
                        <g id="Nose/Default" transform="translate(28.000000, 40.000000)" fill="#000000" fill-opacity="0.16">
                            <path d="M16,8 C16,12.418278 21.372583,16 28,16 C34.627417,16 40,12.418278 40,8" id="Nose"></path>
                        </g>
                        <g id="Eyes/Default-ðŸ˜€" transform="translate(0.000000, 8.000000)" fill="#000000" fill-opacity="0.599999964">
                            <circle id="Eye" cx="30" cy="22" r="6"></circle>
                            <circle id="Eye" cx="82" cy="22" r="6"></circle>
                        </g>
                        <g id="Eyebrow/Outline/Default" fill="#000000" fill-opacity="0.599999964">
                            <g id="I-Browse" transform="translate(12.000000, 6.000000)">
                                <path d="M3.63024536,11.1585767 C7.54515501,5.64986673 18.2779197,2.56083721 27.5230268,4.83118046 C28.5957248,5.0946055 29.6788665,4.43856013 29.9422916,3.36586212 C30.2057166,2.2931641 29.5496712,1.21002236 28.4769732,0.94659732 C17.7403633,-1.69001789 5.31209962,1.88699832 0.369754639,8.84142326 C-0.270109626,9.74178291 -0.0589363917,10.9903811 0.84142326,11.6302454 C1.74178291,12.2701096 2.9903811,12.0589364 3.63024536,11.1585767 Z" id="Eyebrow" fill-rule="nonzero"></path>
                                <path d="M61.6302454,11.1585767 C65.545155,5.64986673 76.2779197,2.56083721 85.5230268,4.83118046 C86.5957248,5.0946055 87.6788665,4.43856013 87.9422916,3.36586212 C88.2057166,2.2931641 87.5496712,1.21002236 86.4769732,0.94659732 C75.7403633,-1.69001789 63.3120996,1.88699832 58.3697546,8.84142326 C57.7298904,9.74178291 57.9410636,10.9903811 58.8414233,11.6302454 C59.7417829,12.2701096 60.9903811,12.0589364 61.6302454,11.1585767 Z" id="Eyebrow" fill-rule="nonzero" transform="translate(73.000154, 6.039198) scale(-1, 1) translate(-73.000154, -6.039198) "></path>
                            </g>
                        </g>
                    </g>
                    <g id="Top" stroke-width="1" fill-rule="evenodd">
                        <mask id="mask-8" fill="white">
                            <use xlink:href="#path-7"></use>
                        </mask>
                        <g id="Mask"></g>
                        <g id="Top/Accessories/Winter-Hat-2" mask="url(#mask-8)">
                            <g transform="translate(-1.000000, 0.000000)">
                                <g id="hat" stroke-width="1" fill-rule="evenodd" transform="translate(61.000000, 0.000000)">
                                    <g id="string" transform="translate(0.000000, 176.000000)" fill="#F4F4F4">
                                        <circle id="puff" cx="9" cy="65" r="9"></circle>
                                        <rect x="8" y="0" width="2" height="58"></rect>
                                    </g>
                                    <g id="string" transform="translate(126.000000, 168.000000)" fill="#F4F4F4">
                                        <circle id="puff" cx="9" cy="65" r="9"></circle>
                                        <rect x="8" y="0" width="2" height="58"></rect>
                                    </g>
                                    <circle id="puff" fill="#F4F4F4" cx="72" cy="20" r="20"></circle>
                                    <mask id="mask-10" fill="white">
                                        <use xlink:href="#path-9"></use>
                                    </mask>
                                    <use id="Combined-Shape" fill="#F4F4F4" xlink:href="#path-9"></use>
                                    <g id="Color/Palette/Pink" mask="url(#mask-10)" fill="#FF488E">
                                        <g transform="translate(-2.000000, 19.000000)" id="ðŸ–Color">
                                            <rect x="0" y="0" width="149" height="172"></rect>
                                        </g>
                                    </g>
                                    <rect id="color-dark" fill-opacity="0.2" fill="#000000" mask="url(#mask-10)" x="-1" y="21" width="146" height="46"></rect>
                                    <g id="light-triangles" mask="url(#mask-10)" fill="#FFFFFF" fill-opacity="0.5">
                                        <g transform="translate(29.000000, 32.000000)" id="Triangle">
                                            <polygon transform="translate(12.500000, 9.000000) rotate(180.000000) translate(-12.500000, -9.000000) " points="12.5 0 25 18 0 18"></polygon>
                                            <polygon transform="translate(43.500000, 9.000000) rotate(180.000000) translate(-43.500000, -9.000000) " points="43.5 0 56 18 31 18"></polygon>
                                            <polygon transform="translate(74.500000, 9.000000) rotate(180.000000) translate(-74.500000, -9.000000) " points="74.5 0 87 18 62 18"></polygon>
                                        </g>
                                    </g>
                                    <g id="dark-triangles" mask="url(#mask-10)" fill="#000000" fill-opacity="0.5">
                                        <g transform="translate(13.000000, 41.000000)" id="Triangle">
                                            <polygon points="12.5 0 25 18 0 18"></polygon>
                                            <polygon points="43.5 0 56 18 31 18"></polygon>
                                            <polygon points="74.5 0 87 18 62 18"></polygon>
                                            <polygon points="105.5 0 118 18 93 18"></polygon>
                                        </g>
                                    </g>
                                </g>
                                <g id="Facial-Hair/-Blank" transform="translate(49.000000, 72.000000)"></g>
                                <g id="Top/_Resources/Blank" transform="translate(62.000000, 85.000000)"></g>
                            </g>
                        </g>
                    </g>
                </g>
            </g>
        </g>
    </g>
</svg>
