<svg width="301" height="405" xmlns="http://www.w3.org/2000/svg"><path d="M280.014.5H20.186C9.171.5.1 9.571.1 20.586v322.03c0 11.016 9.071 20.087 20.086 20.087h53.132v42.117l31.102-25.918 31.101 25.918v-42.117h144.493c11.015 0 20.086-9.071 20.086-20.086V20.587C300.1 9.57 291.029.5 280.014.5zm.648 342.117c0 .648-.648.648-1.296.648H135.52v-28.51h-62.85v28.51H19.537c-.648 0-1.295-.648-1.295-.648v-40.821h261.77v40.82h.649zm0-60.907H70.726V19.938h208.64c.648 0 1.296.648 1.296.648V281.71z" fill="#48bb78" fill-rule="nonzero"/></svg>
