<svg xmlns="http://www.w3.org/2000/svg" width="99" height="116"><g fill="none"><path fill="#D3DBEB" d="M66.09 0H2.243A2.247 2.247 0 000 2.245v86.343a2.247 2.247 0 002.243 2.245H66.09a2.247 2.247 0 002.243-2.245V2.245A2.247 2.247 0 0066.09 0z"/><path fill="#FFF" d="M4.05 2.5A1.57 1.57 0 002.5 4.085v81.83A1.57 1.57 0 004.05 87.5h60.234a1.57 1.57 0 001.55-1.585V4.085a1.57 1.57 0 00-1.55-1.585H4.05z"/><path fill="#E9EDF5" d="M7.704 6.667c-.572 0-1.037.512-1.037 1.143v11.047c0 .63.465 1.143 1.037 1.143h53.759c.572 0 1.037-.513 1.037-1.143V7.81c0-.63-.465-1.143-1.037-1.143H7.703zm0 19.166c-.58.01-1.045.493-1.037 1.081V51.42A1.061 1.061 0 007.704 52.5h53.759a1.061 1.061 0 001.037-1.081V26.914a1.061 1.061 0 00-1.037-1.08H7.703z"/><path fill="#FFF" d="M13.333 9.167h42.5v2.5h-42.5zM13.333 14h42.5v1h-42.5zM13.333 16.667h42.5v1h-42.5zM38.2 52.5h19.505a.628.628 0 00.58-.397.654.654 0 00-.136-.7L45.666 38.628a.618.618 0 00-.888 0l-3.104 3.177a1.302 1.302 0 01-.932.395c-.349 0-.684-.142-.93-.395l-9.724-9.95a.619.619 0 00-.888 0l-19.016 19.46a.654.654 0 00-.136.7c.097.24.326.397.58.397h27.597l-.025.088z"/><circle cx="15" cy="31.667" r="2.5" fill="#FFF"/><path fill="#E9EDF5" d="M7.704 57.5c-.58.01-1.045.493-1.037 1.081v24.505a1.061 1.061 0 001.037 1.08h53.759a1.061 1.061 0 001.037-1.08V58.58a1.061 1.061 0 00-1.037-1.081H7.703z"/><path fill="#FFF" d="M38.2 84.167h19.505a.628.628 0 00.58-.397.654.654 0 00-.136-.7L45.666 70.295a.619.619 0 00-.888 0l-3.104 3.176a1.301 1.301 0 01-.932.395c-.349 0-.684-.142-.93-.395l-9.724-9.95a.619.619 0 00-.888 0l-19.016 19.46a.654.654 0 00-.136.7c.097.24.326.397.58.398h27.597l-.025.088z"/><circle cx="15" cy="63.333" r="2.5" fill="#FFF"/><path fill="#D3DBEB" d="M24.918 20a1.583 1.583 0 00-1.585 1.578v87.677c.001.871.71 1.577 1.585 1.578h65.164a1.583 1.583 0 001.585-1.578V21.578A1.583 1.583 0 0090.082 20H24.918z"/><path fill="#FFF" d="M27.383 22.5a1.578 1.578 0 00-1.55 1.6v82.633c-.012.87.681 1.586 1.55 1.6h60.234a1.578 1.578 0 001.55-1.6V24.1a1.578 1.578 0 00-1.55-1.601H27.383z"/><path fill="#68d391" d="M35.697 34.167c-.385 0-.697.283-.697.632v2.902c0 .35.312.632.697.632h41.106c.385 0 .697-.283.697-.632v-2.902c0-.35-.312-.632-.697-.632H35.697z"/><path fill="#EAF0FB" d="M36.006 45a.177.177 0 00-.173.182v1.303c0 .1.077.182.173.182h41.322a.177.177 0 00.172-.182v-1.303c0-.1-.077-.182-.172-.182H36.006zm0 4.167a.177.177 0 00-.173.181v1.304c0 .1.077.181.173.181h41.322a.177.177 0 00.172-.181v-1.304c0-.1-.077-.181-.172-.181H36.006zm0 4.166a.177.177 0 00-.173.182v1.303c0 .1.077.182.173.182h41.322a.177.177 0 00.172-.182v-1.303c0-.1-.077-.182-.172-.182H36.006zm0 7.5a.177.177 0 00-.173.182v1.303c0 .1.077.182.173.182h41.322a.177.177 0 00.172-.182v-1.303c0-.1-.077-.182-.172-.182H36.006zm0 4.167a.177.177 0 00-.173.182v1.303c0 .1.077.182.173.182h41.322a.177.177 0 00.172-.182v-1.303c0-.1-.077-.182-.172-.182H36.006zm0 4.167a.177.177 0 00-.173.181v1.304c0 .1.077.181.173.181h41.322a.177.177 0 00.172-.181v-1.304c0-.1-.077-.181-.172-.181H36.006zm0 4.166a.177.177 0 00-.173.182v1.303c0 .1.077.182.173.182h41.322a.177.177 0 00.172-.182v-1.303c0-.1-.077-.182-.172-.182H36.006zm0 4.167a.177.177 0 00-.173.182v1.303c0 .1.077.182.173.182h41.322a.177.177 0 00.172-.182v-1.303c0-.1-.077-.182-.172-.182H36.006zm0 4.167a.177.177 0 00-.173.181v1.304c0 .1.077.181.173.181h41.322a.177.177 0 00.172-.181v-1.304c0-.1-.077-.181-.172-.181H36.006zm0 4.166a.177.177 0 00-.173.182v1.303c0 .1.077.182.173.182h41.322a.177.177 0 00.172-.182v-1.303c0-.1-.077-.182-.172-.182H36.006zm0 4.167a.177.177 0 00-.173.182v1.303c0 .1.077.182.173.182h41.322a.177.177 0 00.172-.182v-1.303c0-.1-.077-.182-.172-.182H36.006zm0 4.167a.177.177 0 00-.173.181v1.304c0 .1.077.181.173.181h41.322a.177.177 0 00.172-.181v-1.304c0-.1-.077-.181-.172-.181H36.006z"/><circle cx="87" cy="104" r="12" fill="#68d391"/><path fill="#FFF" d="M91.032 101a.965.965 0 00-.683.284l-4.477 4.476-2.22-2.219a.967.967 0 10-1.367 1.368l2.903 2.903a.967.967 0 001.368 0l5.16-5.16a.967.967 0 00-.684-1.652z"/></g></svg>
