<svg xmlns="http://www.w3.org/2000/svg" width="200" height="105">
  <g fill="none" fill-rule="evenodd">
    <path fill="#F0FFF4" d="M154.491 84.832H55.09a8.383 8.383 0 110-16.766H8.383a8.383 8.383 0 010-16.767h47.904a8.383 8.383 0 100-16.766h-29.94a8.383 8.383 0 010-16.767h47.904a8.383 8.383 0 010-16.766h117.366a8.383 8.383 0 110 16.766h-47.904a8.383 8.383 0 010 16.767h26.347a8.383 8.383 0 110 16.766h-12.184c-5.838 0-10.57 3.754-10.57 8.384 0 3.086 2.395 5.88 7.185 8.383a8.383 8.383 0 010 16.766zM191.617 51.3a8.383 8.383 0 110-16.766 8.383 8.383 0 010 16.766z"/>
    <g stroke-width="2.5" transform="translate(47.904 2.198)">
      <circle cx="40.12" cy="40.12" r="40.12" fill="#fff" stroke="#68D391"/>
      <path fill="#FFF" stroke="#68D391" stroke-linecap="round" d="M33.691 71.25c2.106.389 4.25.591 6.429.606 17.527 0 31.736-14.209 31.736-31.736 0-17.528-14.209-31.737-31.736-31.737a31.63 31.63 0 00-12.666 2.629A31.862 31.862 0 0011.85 25.679a31.602 31.602 0 00-3.468 14.44 31.62 31.62 0 008.005 21.073"/>
      <path stroke="#68D391" stroke-linecap="round" d="M20.117 64.76a31.704 31.704 0 008.627 4.996"/>
      <path stroke="#C6F6D5" stroke-linecap="round" d="M40.719 17.964c-2.064 0-4.063.275-5.963.79-9.675 2.62-16.792 11.46-16.792 21.965"/>
      <path stroke="#68D391" d="M73.054 71.856l7.186 7.186"/>
      <path fill="#F0FFF4" stroke="#68D391" d="M78.904 77.706a6.051 6.051 0 000 8.558L92.179 99.54a6.051 6.051 0 108.558-8.558L87.461 77.706a6.051 6.051 0 00-8.557 0z"/>
      <path stroke="#FFF" stroke-linecap="round" d="M85.03 80.24l13.174 13.173"/>
    </g>
    <path stroke="#C6F6D5" stroke-linecap="round" stroke-linejoin="round" stroke-width="2.5" d="M159.88 33.335h-20.57 20.57zm8.383 0h-2.66 2.66zm-15.957 9.315h-9.791 9.791zM38.922 58.485h-20.57 20.57zm-27.545 0H6.322h5.055zm33.145 10.512H34.73h9.79z"/>
  </g>
</svg>
