<svg xmlns="http://www.w3.org/2000/svg" width="278" height="49" viewBox="0 0 278 49">
  <path fill="#ffffff" fill-rule="evenodd" d="M32.256,48.024 L23.112,48.024 L23.112,44.424 C20.736,47.232 16.632,48.888 12.096,48.888 C6.552,48.888 0,45.144 0,37.368 C0,29.232 6.552,26.136 12.096,26.136 C16.704,26.136 20.808,27.648 23.112,30.384 L23.112,25.704 C23.112,22.176 20.088,19.872 15.48,19.872 C11.736,19.872 8.28,21.24 5.328,23.976 L1.872,17.856 C6.12,14.112 11.592,12.384 17.064,12.384 C24.984,12.384 32.256,15.552 32.256,25.56 L32.256,48.024 Z M15.768,42.696 C18.72,42.696 21.6,41.688 23.112,39.672 L23.112,35.352 C21.6,33.336 18.72,32.328 15.768,32.328 C12.168,32.328 9.216,34.2 9.216,37.584 C9.216,40.824 12.168,42.696 15.768,42.696 Z M50.472,36.864 C51.984,39.096 55.368,40.752 58.32,40.752 C63.648,40.752 67.176,36.72 67.176,30.672 C67.176,24.624 63.648,20.52 58.32,20.52 C55.368,20.52 51.984,22.248 50.472,24.552 L50.472,36.864 Z M50.472,48.024 L41.328,48.024 L41.328,0 L50.472,0 L50.472,17.712 C53.208,14.184 57.096,12.384 61.2,12.384 C70.056,12.384 76.608,19.296 76.608,30.672 C76.608,42.264 69.984,48.888 61.2,48.888 C57.024,48.888 53.208,47.016 50.472,43.56 L50.472,48.024 Z M96.048,48.888 C105.696,48.888 111.096,44.064 111.096,37.728 C111.096,23.688 90.504,28.008 90.504,22.824 C90.504,20.88 92.664,19.368 95.976,19.368 C100.224,19.368 104.184,21.168 106.272,23.4 L109.944,17.136 C106.488,14.4 101.808,12.384 95.904,12.384 C86.76,12.384 81.648,17.496 81.648,23.328 C81.648,37.008 102.312,32.328 102.312,38.088 C102.312,40.248 100.44,41.832 96.48,41.832 C92.16,41.832 86.976,39.456 84.456,37.08 L80.496,43.488 C84.168,46.872 90,48.888 96.048,48.888 Z M129.528,48.888 C133.344,48.888 135.792,47.88 137.16,46.656 L135.216,39.744 C134.712,40.248 133.416,40.752 132.048,40.752 C130.032,40.752 128.88,39.096 128.88,36.936 L128.88,21.24 L135.936,21.24 L135.936,13.248 L128.88,13.248 L128.88,3.744 L119.664,3.744 L119.664,13.248 L113.904,13.248 L113.904,21.24 L119.664,21.24 L119.664,39.384 C119.664,45.576 123.12,48.888 129.528,48.888 Z M151.344,48.024 L151.344,25.056 C152.856,22.824 156.888,21.096 159.912,21.096 C160.92,21.096 161.784,21.168 162.432,21.312 L162.432,12.384 C158.112,12.384 153.792,14.904 151.344,18 L151.344,13.248 L142.2,13.248 L142.2,48.024 L151.344,48.024 Z M200.736,48.024 L200.736,13.248 L191.592,13.248 L191.592,36.792 C190.008,38.808 187.2,40.752 183.672,40.752 C179.784,40.752 177.264,39.168 177.264,34.344 L177.264,13.248 L168.12,13.248 L168.12,37.944 C168.12,44.712 171.72,48.888 179.352,48.888 C185.04,48.888 189.216,46.296 191.592,43.632 L191.592,48.024 L200.736,48.024 Z M222.336,48.888 C231.984,48.888 237.384,44.064 237.384,37.728 C237.384,23.688 216.792,28.008 216.792,22.824 C216.792,20.88 218.952,19.368 222.264,19.368 C226.512,19.368 230.472,21.168 232.56,23.4 L236.232,17.136 C232.776,14.4 228.096,12.384 222.192,12.384 C213.048,12.384 207.936,17.496 207.936,23.328 C207.936,37.008 228.6,32.328 228.6,38.088 C228.6,40.248 226.728,41.832 222.768,41.832 C218.448,41.832 213.264,39.456 210.744,37.08 L206.784,43.488 C210.456,46.872 216.288,48.888 222.336,48.888 Z M260.496,48.888 C249.912,48.888 241.92,41.76 241.92,30.6 C241.92,20.52 249.336,12.384 259.92,12.384 C270.288,12.384 277.344,20.16 277.344,31.536 L277.344,33.552 L251.496,33.552 C252.072,37.944 255.6,41.616 261.504,41.616 C264.456,41.616 268.56,40.32 270.792,38.16 L274.824,44.064 C271.368,47.232 265.896,48.888 260.496,48.888 Z M268.488,27.36 C268.272,24.048 265.968,19.656 259.92,19.656 C254.232,19.656 251.784,23.904 251.352,27.36 L268.488,27.36 Z"/>
</svg>
