
<svg width="298px" height="53px" viewBox="0 0 298 53" version="1.1" xmlns="http://www.w3.org/2000/svg" xmlns:xlink="http://www.w3.org/1999/xlink">
  <g id="Group" fill="#FFFFFF">
    <path d="M2.824,15.792 C4.9840108,14.8319952 7.63598428,14.0400031 10.78,13.416 C13.9240157,12.7919969 17.1759832,12.48 20.536,12.48 C23.1760132,12.48 25.395991,12.7919969 27.196,13.416 C28.996009,14.0400031 30.4239947,14.9399941 31.48,16.116 C32.5360053,17.2920059 33.2919977,18.7079917 33.748,20.364 C34.2040023,22.0200083 34.432,23.8559899 34.432,25.872 C34.432,28.3200122 34.336001,30.743988 34.144,33.144 C33.951999,35.544012 33.856,38.0879866 33.856,40.776 C33.856,42.6000091 33.9759988,44.3759914 34.216,46.104 C34.4560012,47.8320086 34.8399974,49.4879921 35.368,51.072 L27.16,51.072 L25.504,45.456 L24.64,45.456 C23.3919938,47.1360084 21.8080096,48.575994 19.888,49.776 C17.9679904,50.976006 15.4960151,51.576 12.472,51.576 C10.6479909,51.576 8.98000756,51.3120026 7.468,50.784 C5.95599244,50.2559974 4.6600054,49.5000049 3.58,48.516 C2.4999946,47.5319951 1.660003,46.3680067 1.06,45.024 C0.459997,43.6799933 0.16,42.2160079 0.16,40.632 C0.16,36.3599786 1.58798572,33.1320109 4.444,30.948 C7.30001428,28.7639891 11.631971,27.672 17.44,27.672 C18.7840067,27.672 20.1279933,27.7799989 21.472,27.996 C22.8160067,28.2120011 23.7519974,28.3679995 24.28,28.464 C24.4240007,27.455995 24.496,26.5920036 24.496,25.872 C24.496,24.0479909 24.0400046,22.7040043 23.128,21.84 C22.2159954,20.9759957 20.5120125,20.544 18.016,20.544 C15.7119885,20.544 13.4680109,20.8199972 11.284,21.372 C9.09998908,21.9240028 7.1680084,22.6079959 5.488,23.424 L2.824,15.792 Z M16,43.512 C18.2560113,43.512 20.0559933,42.9840053 21.4,41.928 C22.7440067,40.8719947 23.7279969,39.7680058 24.352,38.616 L24.352,34.296 C24.1119988,34.1999995 23.7400025,34.1040005 23.236,34.008 C22.7319975,33.9119995 22.180003,33.8160005 21.58,33.72 C20.979997,33.6239995 20.380003,33.5520002 19.78,33.504 C19.179997,33.4559998 18.6400024,33.432 18.16,33.432 C15.567987,33.432 13.6480062,33.8999953 12.4,34.836 C11.1519938,35.7720047 10.528,36.935993 10.528,38.328 C10.528,40.0560086 11.0199951,41.3519957 12.004,42.216 C12.9880049,43.0800043 14.3199916,43.512 16,43.512 Z M44.872,0.6 L54.952,0.6 L54.952,16.44 L55.816,16.44 C56.9680058,15.1439935 58.443991,14.1240037 60.244,13.38 C62.044009,12.6359963 64.0239892,12.264 66.184,12.264 C71.0800245,12.264 74.8119872,13.859984 77.38,17.052 C79.9480128,20.244016 81.232,24.9119693 81.232,31.056 C81.232,34.3680166 80.7640047,37.319987 79.828,39.912 C78.8919953,42.504013 77.5600086,44.6879911 75.832,46.464 C74.1039914,48.2400089 71.9920125,49.5959953 69.496,50.532 C66.9999875,51.4680047 64.1920156,51.936 61.072,51.936 C57.471982,51.936 54.2560142,51.6840025 51.424,51.18 C48.5919858,50.6759975 46.4080077,50.1120031 44.872,49.488 L44.872,0.6 Z M54.952,42.432 C55.9120048,42.9120024 56.9319946,43.2119994 58.012,43.332 C59.0920054,43.4520006 60.2559938,43.512 61.504,43.512 C67.7440312,43.512 70.864,39.4320408 70.864,31.272 C70.864,27.8159827 70.2160065,25.188009 68.92,23.388 C67.6239935,21.587991 65.7040127,20.688 63.16,20.688 C60.9999892,20.688 59.2600066,21.191995 57.94,22.2 C56.6199934,23.208005 55.6240034,24.6959902 54.952,26.664 L54.952,42.432 Z M89.368,41.208 C90.0400034,41.5440017 90.8199956,41.8799983 91.708,42.216 C92.5960044,42.5520017 93.5559948,42.8639986 94.588,43.152 C95.6200052,43.4400014 96.6759946,43.679999 97.756,43.872 C98.8360054,44.064001 99.9279945,44.16 101.032,44.16 C102.712008,44.16 104.019995,43.8960026 104.956,43.368 C105.892005,42.8399974 106.36,41.8560072 106.36,40.416 C106.36,39.2639942 105.736006,38.4120028 104.488,37.86 C103.239994,37.3079972 101.704009,36.7680026 99.88,36.24 C98.5359933,35.8559981 97.1320073,35.4000026 95.668,34.872 C94.2039927,34.3439974 92.8600061,33.6360044 91.636,32.748 C90.4119939,31.8599956 89.404004,30.6960072 88.612,29.256 C87.819996,27.8159928 87.424,25.992011 87.424,23.784 C87.424,19.991981 88.5999882,17.10001 90.952,15.108 C93.3040118,13.11599 96.6879779,12.12 101.104,12.12 C103.984014,12.12 106.683987,12.3719975 109.204,12.876 C111.724013,13.3800025 113.751992,13.9679966 115.288,14.64 L113.2,22.272 C111.951994,21.7919976 110.35601,21.3000025 108.412,20.796 C106.46799,20.2919975 104.48801,20.04 102.472,20.04 C100.791992,20.04 99.5440041,20.2919975 98.728,20.796 C97.9119959,21.3000025 97.504,22.1759938 97.504,23.424 C97.504,24.5280055 98.1399936,25.3559972 99.412,25.908 C100.684006,26.4600028 102.231991,26.9999974 104.056,27.528 C105.400007,27.9120019 106.803993,28.3559975 108.268,28.86 C109.732007,29.3640025 111.063994,30.0479957 112.264,30.912 C113.464006,31.7760043 114.459996,32.8919932 115.252,34.26 C116.044004,35.6280068 116.44,37.3439897 116.44,39.408 C116.44,43.4400202 115.132013,46.559989 112.516,48.768 C109.899987,50.976011 105.976026,52.08 100.744,52.08 C97.9119858,52.08 95.2720122,51.8280025 92.824,51.324 C90.3759878,50.8199975 88.3840077,50.0880048 86.848,49.128 L89.368,41.208 Z M119.608,13.2 L125.368,13.2 L125.368,8.016 L135.448,5.352 L135.448,13.2 L145.6,13.2 L145.6,21.624 L135.448,21.624 L135.448,34.728 C135.448,37.7520151 135.747997,39.9239934 136.348,41.244 C136.948003,42.5640066 138.135991,43.224 139.912,43.224 C141.016006,43.224 141.951996,43.1400008 142.72,42.972 C143.488004,42.8039992 144.303996,42.5280019 145.168,42.144 L147.256,49.704 C145.719992,50.3760034 143.95601,50.9519976 141.964,51.432 C139.97199,51.9120024 138.040009,52.152 136.168,52.152 C132.423981,52.152 129.688009,51.2280092 127.96,49.38 C126.231991,47.5319908 125.368,44.5680204 125.368,40.488 L125.368,21.624 L119.608,21.624 L119.608,13.2 Z M175.624,22.416 C174.183993,21.9359976 172.744007,21.696 171.304,21.696 C169.191989,21.696 167.452007,22.199995 166.084,23.208 C164.715993,24.216005 163.816002,25.4879923 163.384,27.024 L163.384,51 L153.304,51 L153.304,13.2 L161.224,13.2 L162.304,18.456 L163.24,18.456 C164.200005,16.4879902 165.483992,14.9760053 167.092,13.92 C168.700008,12.8639947 170.53599,12.336 172.6,12.336 C173.896006,12.336 175.383992,12.5999974 177.064,13.128 L175.624,22.416 Z M192.616,13.2 L192.616,34.152 C192.616,37.2720156 193.047996,39.5519928 193.912,40.992 C194.776004,42.4320072 196.431988,43.152 198.88,43.152 C200.992011,43.152 202.767993,42.6000055 204.208,41.496 C205.648007,40.3919945 206.703997,39.0000084 207.376,37.32 L207.376,13.2 L217.456,13.2 L217.456,39.48 C217.456,41.4960101 217.563999,43.5119899 217.78,45.528 C217.996001,47.5440101 218.295998,49.3679918 218.68,51 L211.264,51 L209.32,45.096 L208.528,45.096 C207.279994,47.1120101 205.504012,48.7799934 203.2,50.1 C200.895988,51.4200066 198.256015,52.08 195.28,52.08 C193.21599,52.08 191.392008,51.8160026 189.808,51.288 C188.223992,50.7599974 186.892005,49.8840061 185.812,48.66 C184.731995,47.4359939 183.916003,45.8160101 183.364,43.8 C182.811997,41.7839899 182.536,39.2880149 182.536,36.312 L182.536,13.2 L192.616,13.2 Z M228.688,41.208 C229.360003,41.5440017 230.139996,41.8799983 231.028,42.216 C231.916004,42.5520017 232.875995,42.8639986 233.908,43.152 C234.940005,43.4400014 235.995995,43.679999 237.076,43.872 C238.156005,44.064001 239.247994,44.16 240.352,44.16 C242.032008,44.16 243.339995,43.8960026 244.276,43.368 C245.212005,42.8399974 245.68,41.8560072 245.68,40.416 C245.68,39.2639942 245.056006,38.4120028 243.808,37.86 C242.559994,37.3079972 241.024009,36.7680026 239.2,36.24 C237.855993,35.8559981 236.452007,35.4000026 234.988,34.872 C233.523993,34.3439974 232.180006,33.6360044 230.956,32.748 C229.731994,31.8599956 228.724004,30.6960072 227.932,29.256 C227.139996,27.8159928 226.744,25.992011 226.744,23.784 C226.744,19.991981 227.919988,17.10001 230.272,15.108 C232.624012,13.11599 236.007978,12.12 240.424,12.12 C243.304014,12.12 246.003987,12.3719975 248.524,12.876 C251.044013,13.3800025 253.071992,13.9679966 254.608,14.64 L252.52,22.272 C251.271994,21.7919976 249.67601,21.3000025 247.732,20.796 C245.78799,20.2919975 243.80801,20.04 241.792,20.04 C240.111992,20.04 238.864004,20.2919975 238.048,20.796 C237.231996,21.3000025 236.824,22.1759938 236.824,23.424 C236.824,24.5280055 237.459994,25.3559972 238.732,25.908 C240.004006,26.4600028 241.551991,26.9999974 243.376,27.528 C244.720007,27.9120019 246.123993,28.3559975 247.588,28.86 C249.052007,29.3640025 250.383994,30.0479957 251.584,30.912 C252.784006,31.7760043 253.779996,32.8919932 254.572,34.26 C255.364004,35.6280068 255.76,37.3439897 255.76,39.408 C255.76,43.4400202 254.452013,46.559989 251.836,48.768 C249.219987,50.976011 245.296026,52.08 240.064,52.08 C237.231986,52.08 234.592012,51.8280025 232.144,51.324 C229.695988,50.8199975 227.704008,50.0880048 226.168,49.128 L228.688,41.208 Z M295.864,47.544 C294.231992,48.7920062 292.012014,49.8599956 289.204,50.748 C286.395986,51.6360044 283.384016,52.08 280.168,52.08 C273.687968,52.08 268.936015,50.3040178 265.912,46.752 C262.887985,43.1999822 261.376,38.328031 261.376,32.136 C261.376,25.5599671 263.079983,20.5800169 266.488,17.196 C269.896017,13.8119831 274.695969,12.12 280.888,12.12 C282.90401,12.12 284.89599,12.3719975 286.864,12.876 C288.83201,13.3800025 290.583992,14.2199941 292.12,15.396 C293.656008,16.5720059 294.891995,18.15599 295.828,20.148 C296.764005,22.14001 297.232,24.5999854 297.232,27.528 C297.232,28.536005 297.172001,29.639994 297.052,30.84 C296.931999,32.040006 296.728001,33.2879935 296.44,34.584 L271.24,34.584 C271.480001,37.8480163 272.427992,40.2599922 274.084,41.82 C275.740008,43.3800078 278.439981,44.16 282.184,44.16 C284.440011,44.16 286.467991,43.8360032 288.268,43.188 C290.068009,42.5399968 291.447995,41.8800034 292.408,41.208 L295.864,47.544 Z M280.744,20.04 C277.767985,20.04 275.560007,20.843992 274.12,22.452 C272.679993,24.060008 271.840001,26.1119875 271.6,28.608 L287.872,28.608 C288.064001,25.9679868 287.584006,23.8800077 286.432,22.344 C285.279994,20.8079923 283.384013,20.04 280.744,20.04 Z" id="abstruse"></path>
  </g>
</svg>
