<svg xmlns="http://www.w3.org/2000/svg" width="445" height="100" viewBox="0 0 445 100">
  <g fill="none" fill-rule="evenodd">
    <path fill="#333" fill-opacity=".9" d="M160.859793,71.3894683 L150.694182,71.3894683 L150.694182,67.3872593 C148.052724,70.5089823 143.490206,72.3499985 138.447422,72.3499985 C132.28402,72.3499985 125,68.1877011 125,59.5429296 C125,50.4979372 132.28402,47.0560375 138.447422,47.0560375 C143.57025,47.0560375 148.132768,48.7369653 150.694182,51.7786441 L150.694182,46.5757724 C150.694182,42.6536076 147.332326,40.0921938 142.209499,40.0921938 C138.047201,40.0921938 134.205081,41.6130332 130.923269,44.6547121 L127.081149,37.8509567 C131.803755,33.6886594 137.887113,31.767599 143.970471,31.767599 C152.775331,31.767599 160.859793,35.289543 160.859793,46.415684 L160.859793,71.3894683 Z M142.529676,65.466199 C145.811487,65.466199 149.013254,64.3455804 150.694182,62.1043434 L150.694182,57.3016926 C149.013254,55.0604555 145.811487,53.939837 142.529676,53.939837 C138.527466,53.939837 135.245655,56.0209857 135.245655,59.7830622 C135.245655,63.3850503 138.527466,65.466199 142.529676,65.466199 Z M182.778558,58.9826204 C184.459485,61.4639899 188.221562,63.3050061 191.503373,63.3050061 C197.426643,63.3050061 201.348807,58.822532 201.348807,52.0988208 C201.348807,45.3751097 197.426643,40.8125914 191.503373,40.8125914 C188.221562,40.8125914 184.459485,42.7336517 182.778558,45.2950655 L182.778558,58.9826204 Z M182.778558,71.3894683 L172.612947,71.3894683 L172.612947,18 L182.778558,18 L182.778558,37.6908684 C185.820236,33.7687035 190.142622,31.767599 194.70514,31.767599 C204.550575,31.767599 211.834595,39.4518403 211.834595,52.0988208 C211.834595,64.9859339 204.47053,72.3499985 194.70514,72.3499985 C190.062578,72.3499985 185.820236,70.2688498 182.778558,66.4267291 L182.778558,71.3894683 Z M235.114111,72.3499985 C228.3904,72.3499985 221.906821,70.1087614 217.824568,66.3466849 L222.226998,59.2227529 C225.028544,61.8642108 230.791725,64.5056688 235.594376,64.5056688 C239.996806,64.5056688 242.077954,62.7446968 242.077954,60.3433714 C242.077954,53.939837 219.105275,59.1427087 219.105275,43.9343144 C219.105275,37.4507358 224.788412,31.767599 234.954022,31.767599 C241.517645,31.767599 246.720517,34.0088361 250.562638,37.0505149 L246.480384,44.0143586 C244.159103,41.532989 239.756673,39.5318845 235.034067,39.5318845 C231.352034,39.5318845 228.950709,41.2128123 228.950709,43.3740052 C228.950709,49.1371862 251.843344,44.3345353 251.843344,59.9431505 C251.843344,66.9870384 245.840031,72.3499985 235.114111,72.3499985 Z M274.002242,72.3499985 C266.87831,72.3499985 263.036189,68.6679662 263.036189,61.7841667 L263.036189,41.6130332 L256.632655,41.6130332 L256.632655,32.7281292 L263.036189,32.7281292 L263.036189,22.1622974 L273.281844,22.1622974 L273.281844,32.7281292 L281.126174,32.7281292 L281.126174,41.6130332 L273.281844,41.6130332 L273.281844,59.0626645 C273.281844,61.4639899 274.562551,63.3050061 276.803788,63.3050061 C278.324628,63.3050061 279.765423,62.7446968 280.325732,62.1843876 L282.486925,69.8686289 C280.966085,71.2293799 278.244583,72.3499985 274.002242,72.3499985 Z M299.923216,71.3894683 L289.757605,71.3894683 L289.757605,32.7281292 L299.923216,32.7281292 L299.923216,38.0110451 C302.644718,34.5691453 307.447368,31.767599 312.250019,31.767599 L312.250019,41.6930774 C311.529622,41.532989 310.569092,41.4529448 309.448473,41.4529448 C306.086617,41.4529448 301.604143,43.3740052 299.923216,45.8553748 L299.923216,71.3894683 Z M356.50111,71.3894683 L346.335499,71.3894683 L346.335499,66.5067733 C343.694041,69.468408 339.051479,72.3499985 332.727989,72.3499985 C324.243306,72.3499985 320.241097,67.707436 320.241097,60.1832831 L320.241097,32.7281292 L330.406708,32.7281292 L330.406708,56.181074 C330.406708,61.5440341 333.208254,63.3050061 337.53064,63.3050061 C341.452804,63.3050061 344.574527,61.1438132 346.335499,58.9025762 L346.335499,32.7281292 L356.50111,32.7281292 L356.50111,71.3894683 Z M382.181952,72.3499985 C375.45824,72.3499985 368.974662,70.1087614 364.892409,66.3466849 L369.294839,59.2227529 C372.096385,61.8642108 377.859566,64.5056688 382.662217,64.5056688 C387.064647,64.5056688 389.145795,62.7446968 389.145795,60.3433714 C389.145795,53.939837 366.173115,59.1427087 366.173115,43.9343144 C366.173115,37.4507358 371.856252,31.767599 382.021863,31.767599 C388.585486,31.767599 393.788358,34.0088361 397.630478,37.0505149 L393.548225,44.0143586 C391.226944,41.532989 386.824514,39.5318845 382.101907,39.5318845 C378.419875,39.5318845 376.01855,41.2128123 376.01855,43.3740052 C376.01855,49.1371862 398.911185,44.3345353 398.911185,59.9431505 C398.911185,66.9870384 392.907872,72.3499985 382.181952,72.3499985 Z M426.272954,72.3499985 C414.50646,72.3499985 405.621556,64.4256246 405.621556,52.0187767 C405.621556,40.8125914 413.866106,31.767599 425.632601,31.767599 C437.158963,31.767599 445.003292,40.4123705 445.003292,53.059351 L445.003292,55.3005881 L416.267432,55.3005881 C416.907785,60.1832831 420.82995,64.2655363 427.393573,64.2655363 C430.675384,64.2655363 435.237902,62.824741 437.719272,60.4234156 L442.201746,66.9870384 C438.359625,70.5089823 432.276268,72.3499985 426.272954,72.3499985 Z M435.157858,48.4167885 C434.917726,44.7347562 432.356312,39.8520612 425.632601,39.8520612 C419.309111,39.8520612 416.587608,44.5746679 416.107343,48.4167885 L435.157858,48.4167885 Z"/>
    <circle cx="50" cy="50" r="50" fill="#333" fill-opacity=".9" fill-rule="nonzero"/>
    <path fill="#FFF" fill-rule="nonzero" d="M78.726671,38 C84.9454194,38 89.9872262,43.0414067 89.9872262,49.2605552 C89.9872262,55.4797036 84.9458194,60.5211103 78.726671,60.5211103 C72.5075225,60.5211103 67.4661158,55.4797036 67.4661158,49.2605552 C67.4661158,43.0418068 72.5079226,38 78.726671,38 Z M21.2605552,38.7488901 C27.4793036,38.7488901 32.5211103,43.7902968 32.5211103,50.0094453 C32.5211103,56.2285937 27.4793036,61.2700005 21.2605552,61.2700005 C15.0418068,61.2700005 10,56.2285937 10,50.0094453 C10,43.7906969 15.0418068,38.7488901 21.2605552,38.7488901 Z M49.6799753,38.7488901 C55.8987237,38.7488901 60.9405305,43.7902968 60.9405305,50.0094453 C60.9405305,56.2285937 55.8991238,61.2700005 49.6799753,61.2700005 C43.4608269,61.2700005 38.4194202,56.2285937 38.4194202,50.0094453 C38.4194202,43.7906969 43.4612269,38.7488901 49.6799753,38.7488901 Z"/>
    <path fill="#231F20" fill-rule="nonzero" d="M14.7560547,84.8777344 C23.6610878,93.7827675 33.8686216,99.7171875 47.4574535,99.7171875 C74.6346698,99.7171875 100,75.8822837 100,48.7050673 C100,35.1162354 94.2847207,23.6683144 85.3796875,14.7632813 L14.7560547,84.8777344 Z" opacity=".1"/>
  </g>
</svg>
