<svg xmlns="http://www.w3.org/2000/svg" width="296" height="59" viewBox="0 0 296 59">
  <g fill="none" fill-rule="evenodd" transform="translate(0 1)">
    <path fill="#354052" fill-rule="nonzero" d="M19,14 L5,14 L5,0 C12.7319865,8.8817842e-16 19,6.2680135 19,14 Z"/>
    <path fill="#293140" fill-rule="nonzero" d="M18.42,14 L5,14 L5,4 C8.71313338,3.99973209 12.2742843,5.47455215 14.9,8.1 C16.5408599,9.74712476 17.7499304,11.7736919 18.42,14 Z"/>
    <path stroke="#000" stroke-linecap="round" stroke-linejoin="round" stroke-width="2" d="M5,0 C12.7319865,8.8817842e-16 19,6.2680135 19,14 L5,14 L5,0 Z"/>
    <path fill="#354052" fill-rule="nonzero" d="M41,-1.77635684e-15 L41,14 L27,14 C27,6.2680135 33.2680135,3.94430453e-31 41,-1.77635684e-15 Z"/>
    <path fill="#293140" fill-rule="nonzero" d="M41,3.99999907 L41,14 L27.58,14 C29.3493357,8.06546672 34.8073246,3.99841067 41,3.99999907 Z"/>
    <path stroke="#000" stroke-linecap="round" stroke-linejoin="round" stroke-width="2" d="M27,-3.55271368e-15 L41,-3.55271368e-15 C41,7.7319865 34.7319865,14 27,14 L27,-3.55271368e-15 Z" transform="rotate(-180 34 7)"/>
    <path fill="#354052" fill-rule="nonzero" d="M22,17 L29.47,17 C33.8540286,17 38.0584988,18.7415486 41.1584751,21.8415249 C44.2584514,24.9415012 46,29.1459714 46,33.53 L46,41 L22,41 L22,17 Z"/>
    <path stroke="#000" stroke-linecap="round" stroke-linejoin="round" stroke-width="2" d="M22,17 L29.47,17 C33.8540286,17 38.0584988,18.7415486 41.1584751,21.8415249 C44.2584514,24.9415012 46,29.1459714 46,33.53 L46,41 L22,41 L22,17 Z"/>
    <path fill="#354052" fill-rule="nonzero" d="M27.07,56.94 C15.5455557,56.1414833 5.69451213,48.3473603 2.26658832,37.3155977 C-1.16133548,26.2838352 2.53762437,14.2792899 11.58,7.09 C12.659794,6.22844718 13.8030371,5.44957098 15,4.76 L15,34 L36,34 L36.44,34.54 C38.6497424,37.2397078 41.8842649,38.8968285 45.3663029,39.1131513 C48.8483408,39.3294741 52.2630984,38.0854422 54.79,35.68 C54.9229268,35.5475091 55.1023335,35.4721583 55.29,35.47 C55.5219742,35.4739631 55.739055,35.5850621 55.8779467,35.770903 C56.0168383,35.956744 56.0619027,36.1964026 56,36.42 C52.4706315,49.2744093 40.3684472,57.8584681 27.07,56.94 Z"/>
    <path fill="#293140" fill-rule="nonzero" d="M56,36.42 C55.0044697,40.064165 53.2758832,43.4668943 50.92,46.42 C39.7778114,55.2512875 23.7859068,54.330263 13.7312711,44.2781832 C3.67663545,34.2261034 2.75154543,18.2344334 11.58,7.09 C12.659794,6.22844718 13.8030371,5.44957098 15,4.76 L15,34 L36,34 L36.44,34.54 C37.1769407,35.4385038 38.0390702,36.2265441 39,36.88 C43.8883501,40.2906628 50.5020409,39.7889922 54.82,35.68 C54.9529268,35.5475091 55.1323335,35.4721583 55.32,35.47 C55.5466289,35.4828651 55.7552379,35.5976777 55.8873591,35.7822588 C56.0194803,35.9668399 56.0608965,36.2013272 56,36.42 Z"/>
    <path fill="#354052" fill-rule="nonzero" d="M39,36.88 C35.6348288,40.5430373 30.9673727,42.740332 26,43 C26,43 26,43 26,43 L25,43 C20.77,43 10.23,32.86 10,29 C10,28.66 10,28.32 10,28 C9.99107335,23.2461977 11.7767385,18.664181 15,15.17 L15,34 L36,34 L36.44,34.54 C37.1769407,35.4385038 38.0390702,36.2265441 39,36.88 Z"/>
    <path stroke="#000" stroke-linecap="round" stroke-linejoin="round" stroke-width="2" d="M54.07,41.48 C48.7323624,52.2088295 37.159036,58.351677 25.2819683,56.7600054 C13.4049006,55.1683337 3.85732272,46.1950279 1.53287803,34.4393861 C-0.791566654,22.6837443 4.62246789,10.7520768 15,4.76 L15,34 L36,34 L36.32,34.37 C39.6681452,38.2758146 45.2246068,39.4412763 49.86,37.21 C51.0806168,36.6239884 52.5386849,36.8779372 53.4893093,37.8421096 C54.4399336,38.806282 54.673225,40.2677976 54.07,41.48 Z"/>
    <path fill="#354052" fill-rule="nonzero" d="M42,20 C42,20.34 42,20.68 42,21 C41.5002296,30.7265975 33.7265975,38.5002296 24,39 C24,39 24,39 24,39 L23,39 C12.8850251,39.0140189 4.5323579,31.1009658 4,21 C4,20.66 4,20.32 4,20 C4,9.50658975 12.5065898,1 23,1 C33.4934102,1 42,9.50658975 42,20 Z"/>
    <path fill="#293140" fill-rule="nonzero" d="M42,20 C42,20.34 42,20.68 42,21 C41.5002296,30.7265975 33.7265975,38.5002296 24,39 C24,39 24,39 24,39 L23,39 C18.9390691,39.0072833 14.9837839,37.7063872 11.72,35.29 C9.4941307,32.3009601 8.20006281,28.7214014 8,25 C8,24.66 8,24.32 8,24 C8.00349445,16.8319294 12.0408166,10.27594 18.4402558,7.04663251 C24.839695,3.81732503 32.511867,4.4644283 38.28,8.72 C40.7025168,11.9812142 42.0072434,15.9374819 42,20 Z"/>
    <path fill="#FFF" fill-rule="nonzero" stroke="#000" stroke-linecap="round" stroke-linejoin="round" stroke-width="2" d="M61,45 C61,45 56.88,38.13 50,47 L42,45 C41.47,44.85 43,38 43,38 C43,38 48.37,36 52,36 C55.88,36 61,38.38 61,45 Z"/>
    <g fill="#FFF" fill-rule="nonzero" transform="translate(4 22)">
      <path d="M37.9,0 C36.9287229,9.29896159 29.3366631,16.5092977 20,17 C20,16.83 20,16.66 20,16.49 C20.37,1 36.48,0.06 37.9,0 Z"/>
      <path d="M0.1,-7.10542736e-15 C1.63,0.06 19.61,1 20.01,16.47 C20.01,16.63 20.01,16.8 20.01,16.9700094 L19.01,16.97 C9.29517841,16.9795896 1.13794776,9.65921916 0.1,-7.10542736e-15 Z"/>
    </g>
    <g stroke="#000" stroke-linecap="round" stroke-linejoin="round" stroke-width="2" transform="translate(4 1)">
      <path d="M0.1,21 C0.1,20.68 0.04,20.35 0.02,20 C-1.1900203e-15,19.65 0.02,19.32 0.02,19 C0.0200002211,8.50658991 8.52658991,4.0039506e-07 19.02,4.00395061e-07 C29.5134101,4.00395062e-07 38.0199998,8.50658991 38.02,19 C38.02,19.34 38.02,19.68 38.02,20 C38.02,20.32 38.02,20.66 37.94,21 C36.9661995,30.3132423 29.3521294,37.5283589 20,38 L19,38 C9.27868772,38.0028429 1.12329566,30.667305 0.1,21 Z"/>
      <path d="M0 21L.1 21C1.63 21.06 19.61 22 20.01 37.47 20.01 37.64 20.01 37.81 20.01 37.98M38 21L37.9 21C36.48 21 20.37 22 20.01 37.46 20.01 37.62 20.01 37.79 20.01 37.96"/>
    </g>
    <circle cx="24" cy="41.5" r="2" fill="#000" fill-rule="nonzero"/>
    <path fill="#000" fill-rule="nonzero" d="M15 29C13.8954305 29 13 29.8954305 13 31L17 31C17 29.8954305 16.1045695 29 15 29zM32 29C30.8954305 29 30 29.8954305 30 31L34 31C34 29.8954305 33.1045695 29 32 29z"/>
    <path stroke="#FFF" stroke-linecap="round" stroke-linejoin="round" stroke-width="2" d="M11,13 C12.9401607,10.1063064 15.7377049,7.89274959 19,6.67"/>
    <circle cx="22" cy="6" r="1" fill="#FFF" fill-rule="nonzero"/>
    <path fill="#000" d="M92.0970479,48.6138646 C91.7903675,48.0636693 91.5411935,47.0836486 91.3495182,45.6737731 C88.8769077,47.9777159 85.9251534,49.1296701 82.4941666,49.1296701 C79.4273629,49.1296701 76.9116632,48.3516712 74.946992,46.7956501 C72.9823208,45.239629 72,43.2666925 72,40.8767816 C72,37.9710626 73.2314949,35.714436 75.6945217,34.1068341 C78.1575485,32.4992322 81.6220264,31.6954432 86.0880593,31.6954432 L91.2632648,31.6954432 L91.2632648,29.5032697 C91.2632648,27.8354902 90.707415,26.5073042 89.5956986,25.518672 C88.4839822,24.5300398 86.8451836,24.0357311 84.6792534,24.0357311 C82.7816686,24.0357311 81.190788,24.4655648 79.9065639,25.325245 C78.6223398,26.1849251 77.9802374,27.2251226 77.9802374,28.4458684 L72.6325251,28.4458684 C72.6325251,27.0531865 73.1835831,25.7078072 74.2857157,24.4096902 C75.3878484,23.1115731 76.8828928,22.0842707 78.7708938,21.3277521 C80.6588949,20.5712336 82.7337482,20.19298 84.995516,20.19298 C88.5798429,20.19298 91.3878429,20.9967689 93.4196004,22.6043708 C95.4513579,24.2119727 96.5055559,26.425616 96.582226,29.245367 L96.582226,42.0889246 C96.582226,44.6507716 96.9464035,46.688183 97.6747694,48.2012201 L97.6747694,48.6138646 L92.0970479,48.6138646 Z M83.2704475,44.9774356 C84.938022,44.9774356 86.519319,44.5905853 88.0143858,43.8168732 C89.5094527,43.043161 90.5924015,42.0373503 91.2632648,40.7994108 L91.2632648,35.0739695 L87.0943493,35.0739695 C80.5773913,35.0739695 77.3189612,36.7847073 77.3189612,40.2062345 C77.3189612,41.702078 77.874811,42.8712255 78.9865274,43.7137121 C80.0982437,44.5561986 81.5262028,44.9774356 83.2704475,44.9774356 Z M131.256103,34.9708083 C131.256103,39.234822 130.16357,42.6605962 127.978473,45.2482335 C125.793375,47.8358708 122.860788,49.1296701 119.180623,49.1296701 C115.251281,49.1296701 112.213274,47.8831525 110.066511,45.39008 L109.807751,48.6138646 L104.920057,48.6138646 L104.920057,9 L110.239018,9 L110.239018,23.7778284 C112.385781,21.3879175 115.347119,20.19298 119.123121,20.19298 C122.899123,20.19298 125.865253,21.4738842 128.021599,24.0357311 C130.177946,26.5975781 131.256103,30.1050206 131.256103,34.5581639 L131.256103,34.9708083 Z M125.937141,34.4292125 C125.937141,31.1796215 125.237537,28.669393 123.838308,26.8984518 C122.439079,25.1275107 120.426519,24.2420534 117.800568,24.2420534 C114.292912,24.2420534 111.77242,25.7034877 110.239018,28.6264004 L110.239018,40.6962497 C111.868258,43.6191623 114.407916,45.0805967 117.858071,45.0805967 C120.407351,45.0805967 122.39116,44.1951394 123.809557,42.4241982 C125.227954,40.6532571 125.937141,37.9882885 125.937141,34.4292125 Z M156.068338,41.2120552 C156.068338,39.922535 155.526863,38.9210226 154.443898,38.207488 C153.360933,37.4939535 151.47296,36.8792914 148.779923,36.3634833 C146.086886,35.8476752 143.94974,35.2287147 142.368419,34.5065834 C140.787098,33.784452 139.617897,32.9247847 138.86078,31.9275557 C138.103662,30.9303267 137.725109,29.7439859 137.725109,28.3684976 C137.725109,26.0817483 138.803266,24.1474969 140.959613,22.5656854 C143.115959,20.9838739 145.871249,20.19298 149.225566,20.19298 C152.75239,20.19298 155.6131,21.0096639 157.807782,22.6430562 C160.002463,24.2764486 161.099788,26.3654401 161.099788,28.9100934 L155.752075,28.9100934 C155.752075,27.6033795 155.133932,26.4772154 153.897627,25.5315672 C152.661321,24.585919 151.103983,24.113102 149.225566,24.113102 C147.289646,24.113102 145.775435,24.4913556 144.682886,25.2478741 C143.590337,26.0043927 143.044071,26.9930101 143.044071,28.2137559 C143.044071,29.3657274 143.552002,30.2339913 144.567881,30.8185738 C145.58376,31.4031564 147.419023,31.9619401 150.073725,32.4949418 C152.728427,33.0279435 154.879949,33.6640973 156.528356,34.4034223 C158.176763,35.1427472 159.398674,36.0325029 160.194127,37.0727159 C160.989579,38.1129289 161.387299,39.3809381 161.387299,40.8767816 C161.387299,43.3698542 160.275599,45.3685806 158.052167,46.8730209 C155.828734,48.3774612 152.944065,49.1296701 149.398073,49.1296701 C146.906295,49.1296701 144.702063,48.7342232 142.78531,47.9433174 C140.868558,47.1524116 139.368722,46.0477392 138.285757,44.6292669 C137.202792,43.2107946 136.661317,41.6762885 136.661317,40.0257025 L141.980278,40.0257025 C142.076116,41.6247077 142.790096,42.8927169 144.122238,43.8297683 C145.454381,44.7668197 147.212975,45.2353384 149.398073,45.2353384 C151.410663,45.2353384 153.025503,44.8699798 154.24264,44.1392516 C155.459778,43.4085235 156.068338,42.4328011 156.068338,41.2120552 Z M175.532861,13.9517331 L175.532861,20.7087855 L181.340591,20.7087855 L181.340591,24.396795 L175.532861,24.396795 L175.532861,41.7020705 C175.532861,42.8196547 175.791618,43.6578303 176.309141,44.2166224 C176.826665,44.7754146 177.708357,45.0548064 178.954246,45.0548064 C179.567607,45.0548064 180.410966,44.9516464 181.484347,44.7453231 L181.484347,48.6138646 C180.085118,48.9577366 178.724244,49.1296701 177.401685,49.1296701 C175.024912,49.1296701 173.232775,48.4849196 172.025221,47.1953994 C170.817667,45.9058791 170.213899,44.0747878 170.213899,41.7020705 L170.213899,24.396795 L164.549924,24.396795 L164.549924,20.7087855 L170.213899,20.7087855 L170.213899,13.9517331 L175.532861,13.9517331 Z M202.587685,24.9899714 C201.782649,24.8696162 200.910539,24.8094394 199.971331,24.8094394 C196.482842,24.8094394 194.115688,26.1419237 192.869799,28.8069323 L192.869799,48.6138646 L187.550838,48.6138646 L187.550838,20.7087855 L192.726043,20.7087855 L192.812297,23.93257 C194.556541,21.4394975 197.029115,20.19298 200.230091,20.19298 C201.265137,20.19298 202.050994,20.3133334 202.587685,20.5540438 L202.587685,24.9899714 Z M226.681141,45.854305 C224.611049,48.0378927 221.573042,49.1296701 217.567029,49.1296701 C214.251048,49.1296701 211.725765,48.2657045 209.991104,46.5377473 C208.256443,44.8097902 207.379542,42.25228 207.360374,38.8651401 L207.360374,20.7087855 L212.679335,20.7087855 L212.679335,38.7361887 C212.679335,42.9658152 214.596059,45.0805967 218.429564,45.0805967 C222.493079,45.0805967 225.195659,43.7223224 226.537386,41.005733 L226.537386,20.7087855 L231.856347,20.7087855 L231.856347,48.6138646 L226.796146,48.6138646 L226.681141,45.854305 Z M258.048637,41.2120552 C258.048637,39.922535 257.507162,38.9210226 256.424197,38.207488 C255.341232,37.4939535 253.453259,36.8792914 250.760222,36.3634833 C248.067185,35.8476752 245.930038,35.2287147 244.348718,34.5065834 C242.767397,33.784452 241.598196,32.9247847 240.841078,31.9275557 C240.083961,30.9303267 239.705408,29.7439859 239.705408,28.3684976 C239.705408,26.0817483 240.783565,24.1474969 242.939912,22.5656854 C245.096258,20.9838739 247.851548,20.19298 251.205865,20.19298 C254.732689,20.19298 257.593399,21.0096639 259.788081,22.6430562 C261.982762,24.2764486 263.080086,26.3654401 263.080086,28.9100934 L257.732374,28.9100934 C257.732374,27.6033795 257.114231,26.4772154 255.877925,25.5315672 C254.64162,24.585919 253.084282,24.113102 251.205865,24.113102 C249.269945,24.113102 247.755733,24.4913556 246.663185,25.2478741 C245.570636,26.0043927 245.02437,26.9930101 245.02437,28.2137559 C245.02437,29.3657274 245.532301,30.2339913 246.54818,30.8185738 C247.564059,31.4031564 249.399322,31.9619401 252.054024,32.4949418 C254.708726,33.0279435 256.860248,33.6640973 258.508655,34.4034223 C260.157062,35.1427472 261.378973,36.0325029 262.174425,37.0727159 C262.969878,38.1129289 263.367598,39.3809381 263.367598,40.8767816 C263.367598,43.3698542 262.255898,45.3685806 260.032465,46.8730209 C257.809033,48.3774612 254.924364,49.1296701 251.378372,49.1296701 C248.886594,49.1296701 246.682362,48.7342232 244.765609,47.9433174 C242.848857,47.1524116 241.349021,46.0477392 240.266056,44.6292669 C239.183091,43.2107946 238.641616,41.6762885 238.641616,40.0257025 L243.960577,40.0257025 C244.056415,41.6247077 244.770394,42.8927169 246.102537,43.8297683 C247.43468,44.7668197 249.193274,45.2353384 251.378372,45.2353384 C253.390962,45.2353384 255.005801,44.8699798 256.222939,44.1392516 C257.440077,43.4085235 258.048637,42.4328011 258.048637,41.2120552 Z M283.205885,49.1296701 C278.98903,49.1296701 275.558095,47.8874509 272.912977,45.4029752 C270.267859,42.9184994 268.945319,39.5958854 268.945319,35.4350333 L268.945319,34.5581639 C268.945319,31.7899938 269.534712,29.3184503 270.713514,27.1434595 C271.892317,24.9684686 273.540699,23.2663274 275.658711,22.0369847 C277.776722,20.8076421 280.071999,20.19298 282.544609,20.19298 C286.588957,20.19298 289.732383,21.3879175 291.974984,23.7778284 C294.217584,26.1677393 295.338867,29.5892151 295.338867,34.0423584 L295.338867,36.0282097 L274.26428,36.0282097 C274.340951,38.7791863 275.237019,41.0014262 276.952512,42.6949961 C278.668006,44.3885661 280.848279,45.2353384 283.493397,45.2353384 C285.371814,45.2353384 286.962695,44.8914714 288.266086,44.2037273 C289.569478,43.5159832 290.709929,42.6047358 291.687472,41.469958 L294.936351,43.7395023 C292.329568,47.3329655 288.419452,49.1296701 283.205885,49.1296701 Z M282.544609,24.113102 C280.397847,24.113102 278.596126,24.8137308 277.139395,26.2150095 C275.682663,27.6162882 274.781803,29.5806279 274.436787,32.1080877 L290.019906,32.1080877 L290.019906,31.7470238 C289.866566,29.3227257 289.138211,27.4443527 287.834819,26.1118484 C286.531428,24.7793441 284.768042,24.113102 282.544609,24.113102 Z"/>
  </g>
</svg>
