<svg xmlns="http://www.w3.org/2000/svg" width="62" height="59" viewBox="0 0 62 59">
  <g fill="none" fill-rule="evenodd" transform="translate(0 1)">
    <path fill="#C11A2C" fill-rule="nonzero" d="M19,14 L5,14 L5,0 C12.7319865,8.8817842e-16 19,6.2680135 19,14 Z"/>
    <path fill="#840B18" fill-rule="nonzero" d="M18.42,14 L5,14 L5,4 C8.71313338,3.99973209 12.2742843,5.47455215 14.9,8.1 C16.5408599,9.74712476 17.7499304,11.7736919 18.42,14 Z"/>
    <path stroke="#000" stroke-linecap="round" stroke-linejoin="round" stroke-width="2" d="M5,0 C12.7319865,8.8817842e-16 19,6.2680135 19,14 L5,14 L5,0 Z"/>
    <path fill="#C11A2C" fill-rule="nonzero" d="M41,-1.77635684e-15 L41,14 L27,14 C27,6.2680135 33.2680135,0 41,-1.77635684e-15 Z"/>
    <path fill="#840B18" fill-rule="nonzero" d="M41,3.99999907 L41,14 L27.58,14 C29.3493357,8.06546672 34.8073246,3.99841067 41,3.99999907 Z"/>
    <path stroke="#000" stroke-linecap="round" stroke-linejoin="round" stroke-width="2" d="M27,-3.55271368e-15 L41,-3.55271368e-15 C41,7.7319865 34.7319865,14 27,14 L27,-3.55271368e-15 Z" transform="rotate(-180 34 7)"/>
    <path fill="#C11A2C" fill-rule="nonzero" d="M22,17 L29.47,17 C33.8540286,17 38.0584988,18.7415486 41.1584751,21.8415249 C44.2584514,24.9415012 46,29.1459714 46,33.53 L46,41 L22,41 L22,17 Z"/>
    <path stroke="#000" stroke-linecap="round" stroke-linejoin="round" stroke-width="2" d="M22,17 L29.47,17 C33.8540286,17 38.0584988,18.7415486 41.1584751,21.8415249 C44.2584514,24.9415012 46,29.1459714 46,33.53 L46,41 L22,41 L22,17 Z"/>
    <path fill="#C11A2C" fill-rule="nonzero" d="M27.07,56.94 C15.5455557,56.1414833 5.69451213,48.3473603 2.26658832,37.3155977 C-1.16133548,26.2838352 2.53762437,14.2792899 11.58,7.09 C12.659794,6.22844718 13.8030371,5.44957098 15,4.76 L15,34 L36,34 L36.44,34.54 C38.6497424,37.2397078 41.8842649,38.8968285 45.3663029,39.1131513 C48.8483408,39.3294741 52.2630984,38.0854422 54.79,35.68 C54.9229268,35.5475091 55.1023335,35.4721583 55.29,35.47 C55.5219742,35.4739631 55.739055,35.5850621 55.8779467,35.770903 C56.0168383,35.956744 56.0619027,36.1964026 56,36.42 C52.4706315,49.2744093 40.3684472,57.8584681 27.07,56.94 Z"/>
    <path fill="#840B18" fill-rule="nonzero" d="M56,36.42 C55.0044697,40.064165 53.2758832,43.4668943 50.92,46.42 C39.7778114,55.2512875 23.7859068,54.330263 13.7312711,44.2781832 C3.67663545,34.2261034 2.75154543,18.2344334 11.58,7.09 C12.659794,6.22844718 13.8030371,5.44957098 15,4.76 L15,34 L36,34 L36.44,34.54 C37.1769407,35.4385038 38.0390702,36.2265441 39,36.88 C43.8883501,40.2906628 50.5020409,39.7889922 54.82,35.68 C54.9529268,35.5475091 55.1323335,35.4721583 55.32,35.47 C55.5466289,35.4828651 55.7552379,35.5976777 55.8873591,35.7822588 C56.0194803,35.9668399 56.0608965,36.2013272 56,36.42 Z"/>
    <path fill="#C11A2C" fill-rule="nonzero" d="M39,36.88 C35.6348288,40.5430373 30.9673727,42.740332 26,43 C26,43 26,43 26,43 L25,43 C20.77,43 10.23,32.86 10,29 C10,28.66 10,28.32 10,28 C9.99107335,23.2461977 11.7767385,18.664181 15,15.17 L15,34 L36,34 L36.44,34.54 C37.1769407,35.4385038 38.0390702,36.2265441 39,36.88 Z"/>
    <path stroke="#000" stroke-linecap="round" stroke-linejoin="round" stroke-width="2" d="M54.07,41.48 C48.7323624,52.2088295 37.159036,58.351677 25.2819683,56.7600054 C13.4049006,55.1683337 3.85732272,46.1950279 1.53287803,34.4393861 C-0.791566654,22.6837443 4.62246789,10.7520768 15,4.76 L15,34 L36,34 L36.32,34.37 C39.6681452,38.2758146 45.2246068,39.4412763 49.86,37.21 C51.0806168,36.6239884 52.5386849,36.8779372 53.4893093,37.8421096 C54.4399336,38.806282 54.673225,40.2677976 54.07,41.48 Z"/>
    <path fill="#C11A2C" fill-rule="nonzero" d="M42,20 C42,20.34 42,20.68 42,21 C41.5002296,30.7265975 33.7265975,38.5002296 24,39 C24,39 24,39 24,39 L23,39 C12.8850251,39.0140189 4.5323579,31.1009658 4,21 C4,20.66 4,20.32 4,20 C4,9.50658975 12.5065898,1 23,1 C33.4934102,1 42,9.50658975 42,20 Z"/>
    <path fill="#840B18" fill-rule="nonzero" d="M42,20 C42,20.34 42,20.68 42,21 C41.5002296,30.7265975 33.7265975,38.5002296 24,39 C24,39 24,39 24,39 L23,39 C18.9390691,39.0072833 14.9837839,37.7063872 11.72,35.29 C9.4941307,32.3009601 8.20006281,28.7214014 8,25 C8,24.66 8,24.32 8,24 C8.00349445,16.8319294 12.0408166,10.27594 18.4402558,7.04663251 C24.839695,3.81732503 32.511867,4.4644283 38.28,8.72 C40.7025168,11.9812142 42.0072434,15.9374819 42,20 Z"/>
    <path fill="#FFF" fill-rule="nonzero" stroke="#000" stroke-linecap="round" stroke-linejoin="round" stroke-width="2" d="M61,45 C61,45 56.88,38.13 50,47 L42,45 C41.47,44.85 43,38 43,38 C43,38 48.37,36 52,36 C55.88,36 61,38.38 61,45 Z"/>
    <g fill="#FFF" fill-rule="nonzero" transform="translate(4 22)">
      <path d="M37.9,0 C36.9287229,9.29896159 29.3366631,16.5092977 20,17 C20,16.83 20,16.66 20,16.49 C20.37,1 36.48,0.06 37.9,0 Z"/>
      <path d="M0.1,-7.10542736e-15 C1.63,0.06 19.61,1 20.01,16.47 C20.01,16.63 20.01,16.8 20.01,16.9700094 L19.01,16.97 C9.29517841,16.9795896 1.13794776,9.65921916 0.1,-7.10542736e-15 Z"/>
    </g>
    <g stroke="#000" stroke-linecap="round" stroke-linejoin="round" stroke-width="2" transform="translate(4 1)">
      <path d="M0.1,21 C0.1,20.68 0.04,20.35 0.02,20 C-1.18481613e-15,19.65 0.02,19.32 0.02,19 C0.0200002211,8.50658991 8.52658991,4.0039506e-07 19.02,4.00395061e-07 C29.5134101,4.00395062e-07 38.0199998,8.50658991 38.02,19 C38.02,19.34 38.02,19.68 38.02,20 C38.02,20.32 38.02,20.66 37.94,21 C36.9661995,30.3132423 29.3521294,37.5283589 20,38 L19,38 C9.27868772,38.0028429 1.12329566,30.667305 0.1,21 Z"/>
      <path d="M0 21L.1 21C1.63 21.06 19.61 22 20.01 37.47 20.01 37.64 20.01 37.81 20.01 37.98M38 21L37.9 21C36.48 21 20.37 22 20.01 37.46 20.01 37.62 20.01 37.79 20.01 37.96"/>
    </g>
    <circle cx="24" cy="41.5" r="2" fill="#000" fill-rule="nonzero"/>
    <path fill="#000" fill-rule="nonzero" d="M15 29C13.8954305 29 13 29.8954305 13 31L17 31C17 29.8954305 16.1045695 29 15 29zM32 29C30.8954305 29 30 29.8954305 30 31L34 31C34 29.8954305 33.1045695 29 32 29z"/>
    <path stroke="#FFF" stroke-linecap="round" stroke-linejoin="round" stroke-width="2" d="M11,13 C12.9401607,10.1063064 15.7377049,7.89274959 19,6.67"/>
    <circle cx="22" cy="6" r="1" fill="#FFF" fill-rule="nonzero"/>
  </g>
</svg>
