<svg xmlns="http://www.w3.org/2000/svg" width="110" height="104" viewBox="0 0 110 104">
  <g fill="none" fill-rule="evenodd" transform="translate(.64 1)">
    <path fill="#354052" fill-rule="nonzero" d="M32.9280733,24.9996329 L7.92844034,24.9996329 L7.92844034,0 C21.7353564,1.58600961e-15 32.9280733,11.1927169 32.9280733,24.9996329 Z"/>
    <path fill="#293140" fill-rule="nonzero" d="M31.8923742,24.9996329 L7.92844034,24.9996329 L7.92844034,7.14275227 C14.5589383,7.14227387 20.9180429,9.77584246 25.6067522,14.4640733 C28.5368161,17.4053244 30.6958389,21.0241411 31.8923742,24.9996329 Z"/>
    <path stroke="#000" stroke-linecap="round" stroke-linejoin="round" stroke-width="2" d="M7.92844034,0 C21.7353564,1.58600961e-15 32.9280733,11.1927169 32.9280733,24.9996329 L7.92844034,24.9996329 L7.92844034,0 Z"/>
    <path fill="#354052" fill-rule="nonzero" d="M72.2132108,-1.77635684e-15 L72.2132108,24.9996329 L47.2135778,24.9996329 C47.2135778,11.1927169 58.4062948,1.39566237e-15 72.2132108,-1.77635684e-15 Z"/>
    <path fill="#293140" fill-rule="nonzero" d="M72.2132108,7.14275061 L72.2132108,24.9996329 L48.2492769,24.9996329 C51.4087585,14.4024077 61.1550243,7.13991423 72.2132108,7.14275061 Z"/>
    <path stroke="#000" stroke-linecap="round" stroke-linejoin="round" stroke-width="2" d="M47.2135778,-3.55271368e-15 L72.2132108,-3.55271368e-15 C72.2132108,13.806916 61.0204939,24.9996329 47.2135778,24.9996329 L47.2135778,-3.55271368e-15 Z" transform="rotate(-180 59.713 12.5)"/>
    <path fill="#354052" fill-rule="nonzero" d="M38.2851375,30.3566972 L51.6242274,30.3566972 C59.4527349,30.3566972 66.9606071,33.4665597 72.4961979,39.0021504 C78.0317886,44.5377412 81.1416511,52.0456134 81.1416511,59.8741209 L81.1416511,73.2132108 L38.2851375,73.2132108 L38.2851375,30.3566972 Z"/>
    <path stroke="#000" stroke-linecap="round" stroke-linejoin="round" stroke-width="2" d="M38.2851375,30.3566972 L51.6242274,30.3566972 C59.4527349,30.3566972 66.9606071,33.4665597 72.4961979,39.0021504 C78.0317886,44.5377412 81.1416511,52.0456134 81.1416511,59.8741209 L81.1416511,73.2132108 L38.2851375,73.2132108 L38.2851375,30.3566972 Z"/>
    <path fill="#354052" fill-rule="nonzero" d="M47.338576,101.677079 C26.7595133,100.251177 9.16862236,86.3333043 3.04741973,66.6340176 C-3.07378291,46.9347309 3.53140556,25.4983576 19.6782678,12.6605284 C21.606443,11.1220638 23.6479187,9.73123387 25.785321,8.4998752 L25.785321,60.7133943 L63.2847704,60.7133943 L64.0704732,61.6776659 C68.0163838,66.4985019 73.7922321,69.4576025 80.0100657,69.8438875 C86.2278993,70.2301726 92.3255913,68.0087197 96.8378492,63.7133503 C97.0752151,63.4767628 97.3955794,63.3422098 97.7306933,63.3383558 C98.1449269,63.3454326 98.5325655,63.5438207 98.7805826,63.8756747 C99.0285998,64.2075286 99.1090707,64.6354842 98.9985318,65.0347594 C92.6961805,87.9887248 71.0854545,103.317176 47.338576,101.677079 Z"/>
    <path fill="#293140" fill-rule="nonzero" d="M98.9985318,65.0347594 C97.2208253,71.5421014 94.134109,77.6183145 89.9272364,82.8916401 C70.0307631,98.6615648 41.4742099,97.0169024 23.519767,79.0670234 C5.56532406,61.1171444 3.91340184,32.5610102 19.6782678,12.6605284 C21.606443,11.1220638 23.6479187,9.73123387 25.785321,8.4998752 L25.785321,60.7133943 L63.2847704,60.7133943 L64.0704732,61.6776659 C65.3864194,63.2821134 66.9259138,64.6893075 68.6418346,65.8561759 C77.3709032,71.9465558 89.1808918,71.0507286 96.8914199,63.7133503 C97.1287858,63.4767628 97.44915,63.3422098 97.7842639,63.3383558 C98.1889525,63.3613288 98.561463,63.5663483 98.7973902,63.8959525 C99.0333175,64.2255568 99.107274,64.644278 98.9985318,65.0347594 Z"/>
    <path fill="#354052" fill-rule="nonzero" d="M68.6418346,65.8561759 C62.6326886,72.3972179 54.298068,76.3209009 45.4278898,76.7845869 C45.4278898,76.7845869 44.8326604,76.7845869 43.6422017,76.7845869 C36.0887412,76.7845869 17.2675889,58.6777099 16.8568807,51.784954 C16.8568807,51.17782 16.8568807,50.5706861 16.8568807,49.9992659 C16.8409405,41.5104578 20.0295813,33.3284054 25.785321,27.088888 L25.785321,60.7133943 L63.2847704,60.7133943 L64.0704732,61.6776659 C65.3864194,63.2821134 66.9259138,64.6893075 68.6418346,65.8561759 Z"/>
    <path stroke="#000" stroke-linecap="round" stroke-linejoin="round" stroke-width="2" d="M95.5521538,74.0703411 C86.0207981,93.2286839 65.3544473,104.197893 44.1457091,101.355664 C22.936971,98.5134352 5.88797516,82.4899101 1.73724201,61.4980008 C-2.41349113,40.5060915 7.25428576,19.1998552 25.785321,8.4998752 L25.785321,60.7133943 L63.2847704,60.7133943 L63.8561906,61.3740989 C69.8349335,68.3486655 79.7570407,70.4298165 88.0344071,66.445453 C90.214048,65.399019 92.8177028,65.8524924 94.5152213,67.5742036 C96.2127398,69.2959148 96.6293255,71.9057257 95.5521538,74.0703411 Z"/>
    <path fill="#354052" fill-rule="nonzero" d="M73.9988988,35.7137614 C73.9988988,36.3208953 73.9988988,36.9280292 73.9988988,37.4994494 C73.1064648,54.8681186 59.2251828,68.7494006 41.8565136,69.6418346 C41.8565136,69.6418346 41.8565136,69.6418346 41.8565136,69.6418346 L40.0708256,69.6418346 C22.0086355,69.666868 7.09337742,55.5366235 6.14275227,37.4994494 C6.14275227,36.8923155 6.14275227,36.2851815 6.14275227,35.7137614 C6.14275227,16.9758039 21.3328681,1.78568807 40.0708256,1.78568807 C58.808783,1.78568807 73.9988988,16.9758039 73.9988988,35.7137614 Z"/>
    <path fill="#293140" fill-rule="nonzero" d="M73.9988988,35.7137614 C73.9988988,36.3208953 73.9988988,36.9280292 73.9988988,37.4994494 C73.1064648,54.8681186 59.2251828,68.7494006 41.8565136,69.6418346 C41.8565136,69.6418346 41.8565136,69.6418346 41.8565136,69.6418346 L40.0708256,69.6418346 C32.8192697,69.6548404 25.7563641,67.3318458 19.9282642,63.0169319 C15.9535559,57.6794391 13.6427543,51.2874638 13.2855045,44.6422017 C13.2855045,44.0350678 13.2855045,43.4279338 13.2855045,42.8565136 C13.2917445,30.0565755 20.5011425,18.3496234 31.9285447,12.5830876 C43.3559469,6.81655176 57.056053,7.97207634 67.3561392,15.5712 C71.6819985,21.3947112 74.0118333,28.4593713 73.9988988,35.7137614 Z"/>
    <path fill="#FFF" fill-rule="nonzero" stroke="#000" stroke-linecap="round" stroke-linejoin="round" stroke-width="2" d="M107.926972,80.3559631 C107.926972,80.3559631 100.569937,68.088286 88.2844034,83.9273392 L73.9988988,80.3559631 C73.0524842,80.0881098 75.7845869,67.8561466 75.7845869,67.8561466 C75.7845869,67.8561466 85.3737318,64.2847704 91.8557795,64.2847704 C98.7842492,64.2847704 107.926972,68.534708 107.926972,80.3559631 Z"/>
    <g fill="#FFF" fill-rule="nonzero" transform="translate(6.143 39.285)">
      <path d="M67.6775778,0 C65.9431798,16.6050448 52.3861292,29.4804559 35.7137614,30.3566972 C35.7137614,30.0531302 35.7137614,29.7495632 35.7137614,29.4459962 C36.3744659,1.78568807 65.1419007,0.107141284 67.6775778,0 Z"/>
      <path d="M0.178568807,-7.10542736e-15 C2.91067155,0.107141284 35.017343,1.78568807 35.7316182,29.4102825 C35.7316182,29.6959926 35.7316182,29.9995595 35.7316182,30.3031433 L33.9459302,30.3031265 C16.5982892,30.3202505 2.03201974,17.2483524 0.178568807,-7.10542736e-15 Z"/>
    </g>
    <g stroke="#000" stroke-linecap="round" stroke-linejoin="round" stroke-width="2" transform="translate(6.143 1.786)">
      <path d="M0.178568807,37.4994494 C0.178568807,36.9280292 0.0714275227,36.3387522 0.0357137614,35.7137614 C-2.13370988e-15,35.0887705 0.0357137614,34.4994935 0.0357137614,33.9280733 C0.0357141562,15.1901161 15.2258299,7.14991179e-07 33.963787,7.14991181e-07 C52.7017442,7.14991182e-07 67.8918599,15.1901161 67.8918603,33.9280733 C67.8918603,34.5352072 67.8918603,35.1423412 67.8918603,35.7137614 C67.8918603,36.2851815 67.8918603,36.8923155 67.7490053,37.4994494 C66.0101013,54.1299951 52.4137473,67.0139426 35.7137614,67.8561466 L33.9280733,67.8561466 C16.568842,67.861223 2.00585565,54.7622407 0.178568807,37.4994494 Z"/>
      <path d="M0 37.4994494L.178568807 37.4994494C2.91067155 37.6065907 35.017343 39.2851375 35.7316182 66.9097319 35.7316182 67.2132989 35.7316182 67.5168658 35.7316182 67.8204328M67.8561466 37.4994494L67.6775778 37.4994494C65.1419007 37.4994494 36.3744659 39.2851375 35.7316182 66.891875 35.7316182 67.1775851 35.7316182 67.4811521 35.7316182 67.7847191"/>
    </g>
    <circle cx="41.857" cy="74.106" r="3.571" fill="#000" fill-rule="nonzero"/>
    <path fill="#000" fill-rule="nonzero" d="M25.785321 51.784954C23.8129044 51.784954 22.2139449 53.3839135 22.2139449 55.3563301L29.3566972 55.3563301C29.3566972 53.3839135 27.7577376 51.784954 25.785321 51.784954zM56.1420182 51.784954C54.1696016 51.784954 52.570642 53.3839135 52.570642 55.3563301L59.7133943 55.3563301C59.7133943 53.3839135 58.1144347 51.784954 56.1420182 51.784954z"/>
    <path stroke="#FFF" stroke-linecap="round" stroke-linejoin="round" stroke-width="2" d="M18.6425687,23.2139449 C22.1070905,18.0467108 27.1026318,14.0939888 32.9280733,11.9105394"/>
    <circle cx="38.285" cy="10.714" r="1.786" fill="#FFF" fill-rule="nonzero"/>
  </g>
</svg>
