<svg width="200" height="259" xmlns="http://www.w3.org/2000/svg" xmlns:xlink="http://www.w3.org/1999/xlink"><defs><path d="M124 144.611V163h4c39.765 0 72 32.235 72 72v9H0v-9c0-39.765 32.235-72 72-72h4v-18.389c-17.237-8.189-29.628-24.924-31.695-44.73C38.48 99.058 34 94.052 34 88V74c0-5.946 4.325-10.882 10-11.834V56c0-30.928 25.072-56 56-56s56 25.072 56 56v6.166c5.675.952 10 5.888 10 11.834v14c0 6.052-4.48 11.058-10.305 11.881-2.067 19.806-14.458 36.541-31.695 44.73z" id="a"/><path d="M181.544 32.33C210.784 41.488 232 68.792 232 101.052V110H32v-8.948c0-32.655 21.739-60.232 51.534-69.05A18.001 18.001 0 0083 36.348c0 16.281 22.162 29.48 49.5 29.48S182 52.629 182 36.348c0-1.363-.155-2.704-.456-4.018z" id="c"/><path d="M29 15.609C30.41 25.23 41.062 33 54 33c12.968 0 23.646-7.817 25-18.26.101-.4-.225-1.74-2.174-1.74H31.174c-1.79 0-2.304 1.24-2.174 2.609z" id="e"/><path id="g" d="M0 0h264v280H0z"/><path d="M66.042 77.075C71.68 45.205 99.513 21 133 21c37.555 0 68 30.445 68 68v30.751c.875 9.803 1.694 16.671 2.456 20.603 1.377 7.104 5.694 4.761 5.694 14.866s-4.328 13.5-4.347 22.485c-.019 8.986 15.397 16.131 15.397 27.538 0 11.406-7.074 65.233-77.622 65.233-15.07 0-27.907-4.287-38.51-12.862.682 6.49 1.326 13.952 1.932 22.386H59c.932-23.771-7.284-37.064-7.284-63.554 0-26.49 13.637-65.018 13.284-74.446.02-.582.04-1.272.062-2.068A69.174 69.174 0 0165 137V89c0-3.976.341-7.872.996-11.661L66 77l.042.075zM132.5 53C102.4 53 78 77.4 78 107.5v23c0 30.1 24.4 54.5 54.5 54.5h1c30.1 0 54.5-24.4 54.5-54.5v-23c0-30.1-24.4-54.5-54.5-54.5h-1z" id="i"/></defs><g fill="none" fill-rule="evenodd"><g transform="translate(0 15)"><mask id="b" fill="#fff"><use xlink:href="#a"/></mask><use fill="#D0C6AC" xlink:href="#a"/><g mask="url(#b)" fill="#EDB98A"><path d="M-32 0h264v244H-32z"/></g><path d="M156 94v8c0 30.928-25.072 56-56 56s-56-25.072-56-56v-8c0 30.928 25.072 56 56 56s56-25.072 56-56z" fill-opacity=".1" fill="#000" mask="url(#b)"/></g><g transform="translate(-32 149)"><mask id="d" fill="#fff"><use xlink:href="#c"/></mask><use fill="#E6E6E6" xlink:href="#c"/><g mask="url(#d)" fill="#E6E6E6"><path d="M0 0h264v110H0z"/></g></g><g transform="translate(46 113)"><mask id="f" fill="#fff"><use xlink:href="#e"/></mask><use fill-opacity=".7" fill="#000" xlink:href="#e"/><rect fill="#FFF" mask="url(#f)" x="39" y="2" width="31" height="16" rx="5"/><path d="M65.984 23.747c.01.083.016.167.016.253v9c0 6.075-4.925 11-11 11h-1c-6.075 0-11-4.925-11-11v-9c0-.086.005-.17.016-.253A1.922 1.922 0 0143 23.5c0-1.933 2.91-3.5 6.5-3.5 2.01 0 3.808.491 5 1.263 1.192-.772 2.99-1.263 5-1.263 3.59 0 6.5 1.567 6.5 3.5 0 .083-.005.165-.016.247z" fill="#FF4F6D"/></g><path d="M88 109c0 4.418 5.373 8 12 8s12-3.582 12-8" fill="#000" fill-opacity=".16"/><g transform="translate(44 69)" fill="#000" fill-opacity=".6"><circle cx="30" cy="22" r="6"/><circle cx="82" cy="22" r="6"/></g><g fill-rule="nonzero" fill="#000" fill-opacity=".6"><path d="M59.63 78.159c3.915-5.51 14.648-8.598 23.893-6.328a2 2 0 00.954-3.884c-10.737-2.637-23.165.94-28.107 7.894a2 2 0 003.26 2.318zM140.37 78.159c-3.915-5.51-14.648-8.598-23.893-6.328a2 2 0 01-.954-3.884c10.737-2.637 23.165.94 28.108 7.894a2 2 0 01-3.26 2.318z"/></g><g transform="translate(-32 -21)"><mask id="h" fill="#fff"><use xlink:href="#g"/></mask><g mask="url(#h)"><g transform="translate(-1)"><mask id="j" fill="#fff"><use xlink:href="#i"/></mask><use fill="#3B6BAD" xlink:href="#i"/><g mask="url(#j)"><path d="M1 0h264v280H1z" fill="#25557C"/></g><path d="M72.074 104.96A61.351 61.351 0 0171 93.5C71 59.534 98.758 32 133 32c34.242 0 62 27.534 62 61.5 0 3.916-.369 7.747-1.074 11.46C192.34 72.683 165.67 47 133 47s-59.341 25.683-60.926 57.96z" fill-opacity=".5" fill="#FFF" mask="url(#j)"/><path d="M187.93 104.695A54.756 54.756 0 01189 115.5v23c0 30.1-24.4 54.5-54.5 54.5h-3c-30.1 0-54.5-24.4-54.5-54.5v-23c0-3.7.369-7.312 1.07-10.805-.046.93-.07 1.864-.07 2.805v23c0 30.1 24.4 54.5 54.5 54.5h1c30.1 0 54.5-24.4 54.5-54.5v-23c0-.94-.024-1.876-.07-2.805zm-73.763 102.3c6.484 4.986 21.496 6.713 38.238 3.761 16.74-2.951 30.257-9.71 34.645-16.612.068.253.125.508.171.767 1.71 9.695-13.236 20.434-33.38 23.987-20.146 3.552-37.863-1.428-39.573-11.123a8.75 8.75 0 01-.101-.78zm11.868 28.926c8.192 5.654 24.387 5.923 41.069-.149 16.682-6.072 28.915-16.687 31.556-26.284.143.32.275.647.396.98 4.527 12.436-8.077 28.441-28.151 35.748-20.074 7.306-40.017 3.147-44.544-9.29-.12-.332-.23-.667-.326-1.005z" fill-opacity=".16" fill="#000" opacity=".9" mask="url(#j)"/></g></g></g></g></svg>