<svg width="200" height="280" xmlns="http://www.w3.org/2000/svg" xmlns:xlink="http://www.w3.org/1999/xlink"><defs><path d="M124 144.611V163h4c39.765 0 72 32.235 72 72v9H0v-9c0-39.765 32.235-72 72-72h4v-18.389c-17.237-8.189-29.628-24.924-31.695-44.73C38.48 99.058 34 94.052 34 88V74c0-5.946 4.325-10.882 10-11.834V56c0-30.928 25.072-56 56-56s56 25.072 56 56v6.166c5.675.952 10 5.888 10 11.834v14c0 6.052-4.48 11.058-10.305 11.881-2.067 19.806-14.458 36.541-31.695 44.73z" id="a"/><path d="M94 29.688V74h76V29.688a71.525 71.525 0 0126 8.944V110H68V38.632a71.525 71.525 0 0126-8.944z" id="c"/><path id="g" d="M0 0h264v280H0z"/><path d="M72 21c54.773 0 72 47.803 72 82.045v73.865c0 19.495-22.633 19.537-22.633-10.921V86.535c0-6.075-3.732-9-9.816-9H32.45c-6.084 0-9.816 2.925-9.816 9v79.454C22.633 196.447 0 196.405 0 176.91v-73.865C0 68.803 17.227 21 72 21z" id="i"/><rect id="e" x="24" y="9" width="60" height="22" rx="11"/></defs><g fill="none" fill-rule="evenodd"><g transform="translate(0 36)"><mask id="b" fill="#fff"><use xlink:href="#a"/></mask><use fill="#D0C6AC" xlink:href="#a"/><g mask="url(#b)" fill="#FFDBB4"><path d="M-32 0h264v244H-32z"/></g><path d="M156 94v8c0 30.928-25.072 56-56 56s-56-25.072-56-56v-8c0 30.928 25.072 56 56 56s56-25.072 56-56z" fill-opacity=".1" fill="#000" mask="url(#b)"/></g><g transform="translate(-32 170)"><mask id="d" fill="#fff"><use xlink:href="#c"/></mask><use fill="#B7C1DB" xlink:href="#c"/><g mask="url(#d)" fill="#5199E4"><path d="M0 0h264v110H0z"/></g><circle fill="#F4F4F4" cx="81" cy="83" r="5"/><circle fill="#F4F4F4" cx="183" cy="83" r="5"/></g><g transform="translate(46 134)"><rect fill-opacity=".6" fill="#000" x="22" y="7" width="64" height="26" rx="13"/><mask id="f" fill="#fff"><use xlink:href="#e"/></mask><use fill="#FFF" xlink:href="#e"/><path d="M71 22h-9v12h-4V22h-9v12h-4V22h-9v12h-4V22h-8v-4h8V6h4v12h9V6h4v12h9V6h4v12h9V6h4v12h8.867v4H75v12h-4V22z" fill="#E6E6E6" mask="url(#f)"/></g><path d="M88 130c0 4.418 5.373 8 12 8s12-3.582 12-8" fill="#000" fill-opacity=".16"/><g transform="translate(44 90)" fill="#000" fill-opacity=".6"><circle cx="30" cy="22" r="6"/><circle cx="82" cy="22" r="6"/></g><g fill-rule="nonzero" fill="#000" fill-opacity=".6"><path d="M59.63 99.159c3.915-5.51 14.648-8.598 23.893-6.328a2 2 0 00.954-3.884c-10.737-2.637-23.165.94-28.107 7.894a2 2 0 003.26 2.318zM140.37 99.159c-3.915-5.51-14.648-8.598-23.893-6.328a2 2 0 01-.954-3.884c10.737-2.637 23.165.94 28.108 7.894a2 2 0 01-3.26 2.318z"/></g><g transform="translate(-32)"><mask id="h" fill="#fff"><use xlink:href="#g"/></mask><g mask="url(#h)"><g transform="translate(60)"><g transform="translate(0 176)" fill="#F4F4F4"><circle cx="9" cy="65" r="9"/><path d="M8 0h2v58H8z"/></g><g transform="translate(126 168)" fill="#F4F4F4"><circle cx="9" cy="65" r="9"/><path d="M8 0h2v58H8z"/></g><circle fill="#F4F4F4" cx="72" cy="20" r="20"/><mask id="j" fill="#fff"><use xlink:href="#i"/></mask><use fill="#F4F4F4" xlink:href="#i"/><g mask="url(#j)" fill="#FF488E"><path d="M-2 19h149v172H-2z"/></g><path fill-opacity=".2" fill="#000" mask="url(#j)" d="M-1 21h146v46H-1z"/><g mask="url(#j)" fill="#FFF" fill-opacity=".5"><path d="M41.5 50L29 32h25zM72.5 50L60 32h25zM103.5 50L91 32h25z"/></g><g mask="url(#j)" fill="#000" fill-opacity=".5"><path d="M25.5 41L38 59H13zM56.5 41L69 59H44zM87.5 41L100 59H75zM118.5 41L131 59h-25z"/></g></g></g></g></g></svg>