<svg width="200" height="270" xmlns="http://www.w3.org/2000/svg" xmlns:xlink="http://www.w3.org/1999/xlink"><defs><path d="M124 144.611V163h4c39.765 0 72 32.235 72 72v9H0v-9c0-39.765 32.235-72 72-72h4v-18.389c-17.237-8.189-29.628-24.924-31.695-44.73C38.48 99.058 34 94.052 34 88V74c0-5.946 4.325-10.882 10-11.834V56c0-30.928 25.072-56 56-56s56 25.072 56 56v6.166c5.675.952 10 5.888 10 11.834v14c0 6.052-4.48 11.058-10.305 11.881-2.067 19.806-14.458 36.541-31.695 44.73z" id="a"/><path d="M105.192 29.052a23.41 23.41 0 00-.192 3c0 13.807 12.088 25 27 25s27-11.193 27-25a23.41 23.41 0 00-.192-3H160c39.765 0 72 32.235 72 72V110H32v-8.948c0-39.765 32.235-72 72-72h1.192z" id="c"/><path id="e" d="M0 0h264v280H0z"/><path d="M183.68 38.949c5.406-4.95 6.707-14.987 3.638-21.5-3.769-7.995-11.417-8.997-18.746-5.48-6.908 3.315-13.057 4.419-20.622 2.813-7.258-1.541-14.144-4.26-21.647-4.706-12.325-.733-24.3 3.839-32.7 13.053-1.603 1.758-2.894 3.768-4.115 5.805-.976 1.63-2.077 3.38-2.493 5.258-.198.894.17 3.098-.275 3.83-.48.79-2.296 1.515-3.069 2.102-1.567 1.189-2.924 2.53-4.18 4.047-2.666 3.222-4.133 6.587-5.368 10.572-4.102 13.245-4.45 28.998.854 42.004.707 1.734 2.898 5.352 4.186 1.638.255-.734-.334-3.194-.333-3.935.005-2.72 1.506-20.729 8.047-30.817 2.13-3.284 11.973-15.58 13.984-15.68 1.065 1.693 11.88 12.51 39.942 11.242 12.662-.572 22.4-6.26 24.738-8.727 1.028 5.533 12.992 13.816 14.815 17.224 5.267 9.846 6.435 30.304 8.445 30.265 2.01-.038 3.453-5.237 3.867-6.23 3.072-7.375 3.595-16.632 3.267-24.559-.427-10.202-4.638-21.226-12.235-28.22z" id="g"/><filter x="-.8%" y="-2.4%" width="101.5%" height="109.8%" filterUnits="objectBoundingBox" id="i"><feOffset dy="2" in="SourceAlpha" result="shadowOffsetOuter1"/><feColorMatrix values="0 0 0 0 0 0 0 0 0 0 0 0 0 0 0 0 0 0 0.2 0" in="shadowOffsetOuter1" result="shadowMatrixOuter1"/><feMerge><feMergeNode in="shadowMatrixOuter1"/><feMergeNode in="SourceGraphic"/></feMerge></filter></defs><g fill="none" fill-rule="evenodd"><g transform="translate(0 26)"><mask id="b" fill="#fff"><use xlink:href="#a"/></mask><use fill="#D0C6AC" xlink:href="#a"/><g mask="url(#b)" fill="#D08B5B"><path d="M-32 0h264v244H-32z"/></g><path d="M156 94v8c0 30.928-25.072 56-56 56s-56-25.072-56-56v-8c0 30.928 25.072 56 56 56s56-25.072 56-56z" fill-opacity=".1" fill="#000" mask="url(#b)"/></g><g transform="translate(-32 160)"><mask id="d" fill="#fff"><use xlink:href="#c"/></mask><use fill="#E6E6E6" xlink:href="#c"/><g mask="url(#d)" fill="#3C4F5C"><path d="M0 0h264v110H0z"/></g><path d="M156 22.28c6.182 4.555 10 10.826 10 17.748 0 7.205-4.137 13.705-10.771 18.3l-5.65-4.452-4.579.332 1-3.151-.078-.061C152.022 47.853 156 42.7 156 36.876V22.28zm-48-.709v15.306c0 5.823 3.978 10.976 10.078 14.119l-.078.06 1 3.152-4.58-.332-6.112 4.816C101.362 54.08 97 47.426 97 40.028c0-7.288 4.233-13.854 11-18.457z" fill="#F2F2F2"/></g><g fill="#000"><path d="M86 139c0 7.732 6.268 14 14 14s14-6.268 14-14" fill-opacity=".7"/><path d="M88 120c0 4.418 5.373 8 12 8s12-3.582 12-8" fill-opacity=".16"/><g transform="translate(44 80)" fill-opacity=".6"><circle cx="30" cy="22" r="6"/><circle cx="82" cy="22" r="6"/></g><g fill-rule="nonzero" fill-opacity=".6"><path d="M59.63 89.159c3.915-5.51 14.648-8.598 23.893-6.328a2 2 0 00.954-3.884c-10.737-2.637-23.165.94-28.107 7.894a2 2 0 003.26 2.318zM140.37 89.159c-3.915-5.51-14.648-8.598-23.893-6.328a2 2 0 01-.954-3.884c10.737-2.637 23.165.94 28.108 7.894a2 2 0 01-3.26 2.318z"/></g></g><g transform="translate(-32 -10)"><mask id="f" fill="#fff"><use xlink:href="#e"/></mask><g mask="url(#f)"><g transform="translate(-1)"><mask id="h" fill="#fff"><use xlink:href="#g"/></mask><use fill="#28354B" xlink:href="#g"/><g mask="url(#h)"><path d="M1 0h264v280H1z" fill="#724133"/></g><g mask="url(#h)"><g filter="url(#i)" transform="translate(68 92)" fill="#252C2F" fill-rule="nonzero"><path d="M34 41h-2.758C17.315 41 9 33.336 9 20.5 9 10.127 10.817 0 32.53 0h2.94C57.183 0 59 10.127 59 20.5 59 32.569 48.721 41 34 41zM32.385 6C13 6 13 12.841 13 21.502 13 28.572 16.116 37 30.97 37H34c12.365 0 21-6.373 21-15.498C55 12.84 55 6 35.615 6h-3.23zM96 41h-2.758C79.315 41 71 33.336 71 20.5 71 10.127 72.817 0 94.53 0h2.94C119.183 0 121 10.127 121 20.5 121 32.569 110.721 41 96 41zM94.385 6C75 6 75 12.841 75 21.502 75 28.572 78.12 37 92.97 37H96c12.365 0 21-6.373 21-15.498C117 12.84 117 6 97.615 6h-3.23z"/><path d="M2.955 5.772C3.645 5.096 11.21 0 32.5 0c17.851 0 21.63 1.853 27.35 4.652l.419.207c.398.14 2.431.83 4.81.907a16.998 16.998 0 004.563-.869C76.17 1.722 82.562 0 97.5 0c21.29 0 28.854 5.096 29.545 5.772 1.634 0 2.955 1.29 2.955 2.885v2.886c0 1.596-1.32 2.886-2.955 2.886 0 0-6.901 0-6.901 2.886 0 2.885-1.962-4.176-1.962-5.772v-2.81c-3.603-1.38-10.054-3.947-20.682-3.947-11.842 0-17.739 2.1-22.798 4.185l.057.137-.003 1.986-2.217 5.35L69.8 15.36c-.244-.097-.772-.27-1.504-.451-2.04-.503-4.137-.656-5.992-.276-.68.14-1.312.35-1.891.633l-2.643 1.29-2.643-5.16.117-2.295.08-.195c-4.362-2.033-8.385-4.12-22.824-4.12-10.628 0-17.078 2.565-20.682 3.944v2.812c0 1.596-2.954 8.657-2.954 5.772 0-2.886-5.91-2.886-5.91-2.886-1.63 0-2.954-1.29-2.954-2.886V8.657c0-1.595 1.324-2.885 2.955-2.885z"/></g></g></g></g></g></g></svg>