<svg width="239" height="266" xmlns="http://www.w3.org/2000/svg" xmlns:xlink="http://www.w3.org/1999/xlink"><defs><path d="M124 144.611V163h4c39.765 0 72 32.235 72 72v9H0v-9c0-39.765 32.235-72 72-72h4v-18.389c-17.237-8.189-29.628-24.924-31.695-44.73C38.48 99.058 34 94.052 34 88V74c0-5.946 4.325-10.882 10-11.834V56c0-30.928 25.072-56 56-56s56 25.072 56 56v6.166c5.675.952 10 5.888 10 11.834v14c0 6.052-4.48 11.058-10.305 11.881-2.067 19.806-14.458 36.541-31.695 44.73z" id="a"/><path d="M165.96 29.295c36.976 3.03 66.04 34 66.04 71.757V110H32v-8.948c0-38.1 29.592-69.287 67.045-71.832-.03.373-.045.75-.045 1.128 0 11.863 14.998 21.48 33.5 21.48 18.502 0 33.5-9.617 33.5-21.48 0-.353-.013-.704-.04-1.053z" id="c"/><path id="e" d="M0 0h264v280H0z"/><path d="M85.718 185.073c.67 3.438 1.092 6.93.812 10.34-.41 4.991-1.345 9.654-.846 14.703 1.036 10.502 5.408 20.484 9.017 30.508 1.734 4.815 9.357 10.482 6.23 14.46-3.127 3.977-13.815-5.47-16.206-10.05-2.433-4.663-4.646-9.408-7.18-14.034 1.627 7.077 2.44 10.07 4.123 17.14.879 3.69 5.28 12.746-1.601 14.215-8.943 1.91-9.29-12.589-10.174-16.91-1.472-7.183-3.106-9.973-5.51-16.97-.478 5.344.352 10.912-.804 16.202-.697 3.19-4.357 5.829-6.555 8.534-7.532 9.275-9.325-6.284-11.235-10.551-3.305 2.401-10.5 7.16-14.908 4.139-3.255-2.231-1.187-6.273-.43-9.033 1.217-4.446 1.941-8.842-1.315-12.87-3.087 3.004-9.918 4.753-13.877 1.883-5.008-3.63-.616-8.937 1.628-12.703 3.654-6.129 3.814-12.27 4.682-18.944.123-.947.305-1.844.427-2.866.306-2.545 1.627-7.83.63-10.251-1.098-2.672-2.298-2.698-4.734-2.09-3.449.862-6.29 2.79-6.873 5.578-.843 4.024 3.568 5.611 3.929 9.12.776 7.55-8.703 4.005-11.523.617-4.11-4.936-4.24-10.398-1.879-16.013 1.265-3.005 3.258-5.678 5.225-8.378 2.556-3.508 3.323-3.93 2.88-7.647-.766-6.416-2.503-12.183-1.879-18.727.636-6.656 2.642-12.588 5.63-18.77 2.253-4.662 6.413-9.019 8.152-13.758 1.466-3.995 1.146-8.502 1.896-12.617.974-5.335 2.567-10.565 3.512-15.912 1.84-10.4 6.159-20.39 11.002-30.072 2.604-5.202 5.029-10.458 8.58-15.28 1.824-2.476 3.814-5.019 6.248-7.111 2.23-1.917 6.24-2.8 8.165-4.654 3.567-3.434.44-9.494 4.953-13.39 2.792-2.41 5.698-2.943 9.379-3.53 3.598-.575 2.408.28 4.87-2.306 2.385-2.505 4.193-5.773 8.243-6.718 5.163-1.203 9.289 2.182 13.66 3.804 6.426 2.383 10.447 1.688 16.756-.306 4.238-1.34 7.006-2.237 10.972.075 2.562 1.494 4.534 5.946 7.656 6.373 3.803.52 9.14-3.04 13.358-2.909 6.449.203 9.583 4.243 12.251 8.557 1.498 2.423 2.345 2.02 4.158 3.721 1.616 1.517 2.344 3.465 4.066 5.038 6.312 5.768 14.583 10.245 21.37 15.682 12.666 10.147 15.66 23.878 16.48 37.827.657 11.18-.365 24.312 6.743 34.313 3.651 5.137 7.69 9 9.71 14.98.74 2.187 2.363 5.795.831 7.983-1.809 2.584-6.36 2.61-8.316.142-1.897 5.874 4.572 14.355 8.038 19.226 4.834 6.79 11.097 14 12.243 22.052.455 3.198.708 16.237-7.542 11.432-.27 4.365-.967 4.984.34 9.206.886 2.859 2.08 8.615-3.864 8.095 2.257 6.175 5.88 14.765 2.483 21.16-5.588 10.517-11.893-2.733-13.57-7.485.1 3.28-3.426 9.19-7.84 4.63.349 5.413 2.513 13.778-.66 18.854-6.16 9.853-12.976-2.621-13.205-7.897-1.11 3.565-.275 12.137-7.592 10.15-6.325-1.715-4.04-10.09-2.816-13.869-2.01 3.557-4.482 8.853-4.871 12.869-.336 3.453 2.941 11.57-5.555 10.05-6.52-1.166-6.753-10.892-6.642-15.18.091-3.476 3.455-11.426 1.177-14.255-12.728 5.34.608 23.308-10.952 27.302-3.538 1.223-6.325-.594-7.78-3.188l-.54-1.451c.401-1.694-.358-2.562-2.277-2.605-1.216-1.478-2.015-1.434-2.801-3.651-2.313-6.52 2.191-15.19 5.429-21.005-3.352 3.057-6.053 7.256-9.69 9.915-2.46 1.8-6.086 2.312-8.385-.175-2.518-2.723-.139-5.334 1.22-7.817 2.999-5.485 7.726-8.68 12.667-13.082 4.319-3.848 8.169-8.18 12-12.367 2.557-2.794 5.001-5.799 7.051-8.973A72.074 72.074 0 00145 185h-4v-18.389a56.235 56.235 0 0025.804-24.98c.415-12.975 1.896-34.588.943-46.54-1.27-15.941-1.391-24.844-12.193-38.642-8.882-11.346-33.153-7.6-42.236-18.01-4.124 4.78-10.142 7.32-16.735 8.99-6.515 1.649-13.06 1.918-17.42 6.564-7.802 8.314-11.237 13.88-13.626 24.255-2.648 11.5-3.341 22.898-2.536 34.578.61 8.861.446 18.188 3.21 26.796A56.224 56.224 0 0093 166.61V185h-4c-1.1 0-2.194.025-3.282.073z" id="g"/></defs><g fill="none" fill-rule="evenodd"><g transform="translate(17 22)"><mask id="b" fill="#fff"><use xlink:href="#a"/></mask><use fill="#D0C6AC" xlink:href="#a"/><g mask="url(#b)" fill="#D08B5B"><path d="M-32 0h264v244H-32z"/></g><path d="M156 94v8c0 30.928-25.072 56-56 56s-56-25.072-56-56v-8c0 30.928 25.072 56 56 56s56-25.072 56-56z" fill-opacity=".1" fill="#000" mask="url(#b)"/></g><g transform="translate(-15 156)"><mask id="d" fill="#fff"><use xlink:href="#c"/></mask><use fill="#E6E6E6" xlink:href="#c"/><g mask="url(#d)" fill="#E6E6E6"><path d="M0 0h264v110H0z"/></g><g opacity=".6" mask="url(#d)" fill="#000" fill-opacity=".16"><ellipse cx="40.5" cy="27.848" rx="39.635" ry="26.914" transform="translate(92 4)"/></g></g><g fill="#000"><path d="M103 135c0 7.732 6.268 14 14 14s14-6.268 14-14" fill-opacity=".7"/><path d="M105 116c0 4.418 5.373 8 12 8s12-3.582 12-8" fill-opacity=".16"/><g transform="translate(61 76)" fill-opacity=".6"><circle cx="30" cy="22" r="6"/><circle cx="82" cy="22" r="6"/></g><g fill-rule="nonzero" fill-opacity=".6"><path d="M76.63 85.159c3.915-5.51 14.648-8.598 23.893-6.328a2 2 0 00.954-3.884c-10.737-2.637-23.165.94-28.107 7.894a2 2 0 003.26 2.318zM157.37 85.159c-3.915-5.51-14.648-8.598-23.893-6.328a2 2 0 01-.954-3.884c10.737-2.637 23.165.94 28.108 7.894a2 2 0 01-3.26 2.318z"/></g></g><g transform="translate(-15 -14)"><mask id="f" fill="#fff"><use xlink:href="#e"/></mask><g mask="url(#f)"><g transform="translate(15 14)"><mask id="h" fill="#fff"><use xlink:href="#g"/></mask><use fill="#8D5A5A" xlink:href="#g"/><g mask="url(#h)" fill="#2C1B18"><path d="M-15-14h264v280H-15z"/></g><path d="M85.718 185.073c-.361-1.85-.795-3.686-1.23-5.483-3.07-12.67-10.571-23.248-16.326-35.08a37.04 37.04 0 01-1.95-4.888A56.224 56.224 0 0093 166.61V185h-4c-1.1 0-2.194.025-3.282.073zm78.445 2.505A72.074 72.074 0 00145 185h-4v-18.389a56.238 56.238 0 0025.502-24.404c-.077 2.994-.01 5.972.373 8.849 1.07 8.044 4.001 15.31 2.64 23.58-.744 4.532-2.725 8.875-5.352 12.942z" fill-opacity=".24" fill="#000" mask="url(#h)"/><path d="M49.36 108.248c-.124-2.422-1.98-10.537.329-11.939 2.53-1.537 2.002 7.707 2.028 8.654.044 1.537 1.211 13.135-.927 13.084-2.132-.051-1.347-8.219-1.43-9.799zm8.435 57.75c-.009 1.014-1.072.953-1.832.688-.937-.328-.363-2.484-.413-3.191-.13-1.86-1.023-7.338.34-8.873 2.726-3.069 1.916 9.948 1.905 11.376zm-25.674 13.163c1.93-.054.144-37.832-2.821-37.79-2.083.03 1.361 37.827 2.821 37.79zm2.232 19.355c-2.397 0-1.957 8.462-.545 9.139 2.14 1.025 3.227-9.139.545-9.139zm15.237 3.539c.021 1.058-1.179 1.074-1.98.744-.908-.376-.528-3.506-.563-4.2-.114-2.188-2.017-10.672-.286-12.231 1.974-1.778 2.017.173 2.548 1.498 1.564 3.903.197 10.032.28 14.189zm140.652-79.722c.11 1.463 1.069 11.018-.524 11.746-2.742 1.254-1.561-4.65-1.55-5.413.107-7.437-.969-14.812-1.787-22.21-.155-1.404-2.625-12.224-.816-13.12 2.707-1.342 2.303 2.245 2.458 3.41 1.129 8.468 1.628 17.078 2.22 25.587zm-3.219 33.254c-2.532-.502-3.858 8.094-2.702 9.016 1.917 1.53 5.35-8.49 2.702-9.016zm-.268 37.798c-1.139-.226-9.433 15.733-8.75 16.635 1.299 1.719 12.829-15.82 8.75-16.635zm-20.422 7.374c-1.782-.803-9.334 10.75-7.406 11.619 1.748.786 9.561-10.652 7.406-11.62zm42.092-43.312c-2.15 0-2.055 11.822-.4 12.568 1.711.77 2.942-12.568.4-12.568zM178.14 48.844c-.609-.87-7.175-8.62-2.472-7.513 2.291.539 5.448 7.352 6.481 9.41.594 1.183 3.985 6.46.392 6.086-.977-.101-3.59-6.82-4.401-7.983zm-23.092-15.488c-.847.381-.832.739.042 1.072.847-.38.832-.738-.042-1.072zm-84.43 8.13c-2.004 1.844-9.542 12.519-12.125 12.626-4.707.195 4.278-9.025 5.297-10.198.455-.527 2.486-3.092 3.722-3.723 1.261-.643 5.444-.859 3.107 1.295zM43.255 69.981c-2.183-.43-5.835 10.264-4.56 11.555 1.923 1.95 7.007-11.07 4.56-11.555zm24.939 119.011c.412 1.341 4.631 11.08 3.571 12.361-1.621 1.958-2.087-.817-2.617-1.967-1.178-2.555-4.238-8.846-3.746-11.536.477-2.608 2.375-.201 2.792 1.142zm-8.207 22.824c-2.295 0-2.03 9.802-.663 10.385 2.116.902 3.478-10.385.663-10.385zm161.805-8.37c.137.604 2.054 5.563-.663 4.845-1.562-.413-1.802-4.785-2.201-6.11-1.23-4.086-5.28-9.163-5.632-13.194-.34-3.897 1.84-2.412 3.515.889 2.236 4.407 3.913 8.87 4.981 13.57zm-19.702-.495c-2.132-.01-2.235 10.773-.902 11.402 1.864.878 3.621-11.402.902-11.402zm6.16-88.297c1.582-.412-3.41-13.325-5.177-13.183-2.695.217 2.776 13.803 5.178 13.183zm-26.815 56.093c-.847.38-.832.738.043 1.071.846-.38.832-.738-.043-1.071zm-24.218 55.24c.794 0 1.121-1.223-.051-1.25-.775.006-1.184 1.25.051 1.25zM58.684 170.63c.03-1.909-2.469-.51-2.453 1.101.032 3.214 2.4 1.746 2.453-1.101zm-6.165-47.746c-.804 0-1.134 1.236.05 1.266.785-.006 1.198-1.266-.05-1.266zm-19.132 62.51c-.078-1.941-1.7.043-1.61.046.288.007 1.67 1.417 1.61-.046zM37.6 84.063c-2.368 0-2.025 5.754-.514 6.123 2.52.616 2.865-6.123.514-6.123zm12.613 124.263c-2.286 0-2.44 7.814-.863 8.3 2.451.754 3.243-8.3.863-8.3zm-18.756 5.606c-.872.391-.858.76.042 1.103.873-.39.858-.758-.042-1.103zm169.999 3.35c-2.32 0-2.23 9.554-.805 10.2 1.99.902 3.488-10.2.805-10.2zm-23.51 8.88c-2.411-.482-3.674 7.405-2.55 8.29 1.852 1.459 5.025-7.796 2.55-8.29zm-20.48 7.29c-1.998 0-1.508 3.574-.355 4.106 1.994.92 2.583-4.107.354-4.107zM86.48 19.508c-1.672 0-12.16 4.744-8.24 6.15 2.396.859 12.497-6.15 8.24-6.15z" fill-opacity=".3" fill="#FFF" mask="url(#h)"/></g></g></g></g></svg>