<?xml version="1.0" encoding="UTF-8"?>
<svg width="256px" height="145px" viewBox="0 0 256 145" version="1.1" xmlns="http://www.w3.org/2000/svg" xmlns:xlink="http://www.w3.org/1999/xlink">
  <g id="Page-1" stroke="none" stroke-width="1" fill="none" fill-rule="evenodd">
    <g id="docker" fill-rule="nonzero">
      <path d="M147.488,45.732 L170.354,45.732 L170.354,69.107 L181.915,69.107 C187.255,69.107 192.746,68.156 197.802,66.443 C200.287,65.6 203.075,64.428 205.526,62.953 C202.298,58.739 200.65,53.418 200.166,48.173 C199.506,41.038 200.946,31.752 205.774,26.168 L208.178,23.388 L211.042,25.691 C218.253,31.484 224.318,39.58 225.387,48.809 C234.07,46.255 244.265,46.859 251.918,51.276 L255.058,53.088 L253.406,56.314 C246.933,68.946 233.4,72.86 220.17,72.167 C200.373,121.476 157.272,144.82 105.013,144.82 C78.013,144.82 53.243,134.727 39.137,110.773 L38.906,110.383 L36.851,106.201 C32.083,95.657 30.499,84.106 31.573,72.564 L31.896,69.107 L51.45,69.107 L51.45,45.732 L74.315,45.732 L74.315,22.866 L120.048,22.866 L120.048,0 L147.488,0 L147.488,45.732 L147.488,45.732 Z" id="Shape" fill="#364548"></path>
      <path d="M221.57,54.38 C223.103,42.464 214.186,33.105 208.656,28.661 C202.283,36.029 201.293,55.339 211.291,63.469 C205.711,68.425 193.954,72.917 181.915,72.917 L35.37,72.917 C34.2,85.484 36.406,97.057 41.445,106.962 L43.112,110.012 C44.1675127,111.802187 45.3209301,113.532814 46.567,115.196 C52.592,115.583 58.147,115.716 63.229,115.604 L63.231,115.604 C73.218,115.384 81.367,114.204 87.543,112.064 C88.4506544,111.781666 89.418569,112.270613 89.7299126,113.16873 C90.0412562,114.066847 89.5836526,115.049968 88.696,115.39 C87.874,115.676 87.018,115.942 86.134,116.195 L86.131,116.195 C81.268,117.584 76.053,118.518 69.325,118.933 C69.725,118.94 68.909,118.993 68.907,118.993 C68.678,119.008 68.39,119.041 68.16,119.053 C65.512,119.202 62.654,119.233 59.732,119.233 C56.536,119.233 53.389,119.173 49.87,118.993 L49.78,119.053 C61.99,132.777 81.082,141.008 105.014,141.008 C155.662,141.008 198.622,118.556 217.646,68.151 C231.142,69.536 244.113,66.094 250.013,54.576 C240.615,49.153 228.529,50.882 221.57,54.38" id="Shape" fill="#22A0C8"></path>
      <path d="M221.57,54.38 C223.103,42.464 214.186,33.105 208.656,28.661 C202.283,36.029 201.293,55.339 211.291,63.469 C205.711,68.425 193.954,72.917 181.915,72.917 L44.048,72.917 C43.45,92.163 50.592,106.772 63.228,115.604 L63.231,115.604 C73.218,115.384 81.367,114.204 87.543,112.064 C88.4506544,111.781666 89.418569,112.270613 89.7299126,113.16873 C90.0412562,114.066847 89.5836526,115.049968 88.696,115.39 C87.874,115.676 87.018,115.942 86.134,116.195 L86.131,116.195 C81.268,117.584 75.605,118.638 68.877,119.053 C68.875,119.053 68.714,118.898 68.712,118.898 C85.949,127.74 110.942,127.708 139.597,116.701 C171.727,104.357 201.626,80.841 222.487,53.944 C222.173,54.086 221.867,54.231 221.57,54.38" id="Shape" fill="#37B1D9"></path>
      <path d="M35.645,88.186 C36.555,94.918 38.525,101.221 41.445,106.962 L43.112,110.012 C44.1673336,111.8023 45.3207574,113.532936 46.567,115.196 C52.593,115.583 58.148,115.716 63.231,115.604 C73.218,115.384 81.367,114.204 87.543,112.064 C88.4506544,111.781666 89.418569,112.270613 89.7299126,113.16873 C90.0412562,114.066847 89.5836526,115.049968 88.696,115.39 C87.874,115.676 87.018,115.942 86.134,116.195 L86.131,116.195 C81.268,117.584 75.635,118.578 68.907,118.994 C68.676,119.008 68.273,119.011 68.04,119.024 C65.394,119.172 62.565,119.263 59.642,119.263 C56.447,119.263 53.179,119.202 49.662,119.023 C61.872,132.747 81.082,141.008 105.014,141.008 C148.374,141.008 186.098,124.55 207.993,88.186 L35.645,88.186" id="Shape" fill="#1B81A5"></path>
      <path d="M45.367,88.186 C47.959,100.006 54.188,109.285 63.231,115.604 C73.218,115.384 81.367,114.204 87.543,112.064 C88.4506544,111.781666 89.418569,112.270613 89.7299126,113.16873 C90.0412562,114.066847 89.5836526,115.049968 88.696,115.39 C87.874,115.676 87.018,115.942 86.134,116.195 L86.131,116.195 C81.268,117.584 75.516,118.578 68.787,118.994 C86.023,127.834 110.944,127.707 139.597,116.701 C156.931,110.041 173.614,100.127 188.581,88.186 L45.367,88.186" id="Shape" fill="#1D91B4"></path>
      <path d="M55.26,49.543 L75.078,49.543 L75.078,69.361 L55.26,69.361 L55.26,49.543 Z M56.911,51.195 L58.475,51.195 L58.475,67.71 L56.911,67.71 L56.911,51.195 Z M59.851,51.195 L61.478,51.195 L61.478,67.71 L59.852,67.71 L59.852,51.195 L59.851,51.195 Z M62.853,51.195 L64.48,51.195 L64.48,67.71 L62.853,67.71 L62.853,51.195 Z M65.857,51.195 L67.483,51.195 L67.483,67.71 L65.857,67.71 L65.857,51.195 Z M68.86,51.195 L70.486,51.195 L70.486,67.71 L68.86,67.71 L68.86,51.195 Z M71.862,51.195 L73.427,51.195 L73.427,67.71 L71.862,67.71 L71.862,51.195 Z M78.126,26.677 L97.945,26.677 L97.945,46.494 L78.125,46.494 L78.125,26.677 L78.126,26.677 Z M79.778,28.329 L81.341,28.329 L81.341,44.843 L79.778,44.843 L79.778,28.329 Z M82.718,28.329 L84.344,28.329 L84.344,44.843 L82.719,44.843 L82.719,28.329 L82.718,28.329 Z M85.72,28.329 L87.346,28.329 L87.346,44.843 L85.72,44.843 L85.72,28.329 Z M88.723,28.329 L90.349,28.329 L90.349,44.843 L88.723,44.843 L88.723,28.329 Z M91.726,28.329 L93.353,28.329 L93.353,44.843 L91.726,44.843 L91.726,28.329 Z M94.728,28.329 L96.294,28.329 L96.294,44.843 L94.728,44.843 L94.728,28.329 Z" id="Shape" fill="#23A3C2"></path>
      <path d="M78.126,49.543 L97.945,49.543 L97.945,69.361 L78.125,69.361 L78.125,49.543 L78.126,49.543 Z M79.778,51.195 L81.341,51.195 L81.341,67.71 L79.778,67.71 L79.778,51.195 Z M82.718,51.195 L84.344,51.195 L84.344,67.71 L82.719,67.71 L82.719,51.195 L82.718,51.195 Z M85.72,51.195 L87.346,51.195 L87.346,67.71 L85.72,67.71 L85.72,51.195 Z M88.723,51.195 L90.349,51.195 L90.349,67.71 L88.723,67.71 L88.723,51.195 Z M91.726,51.195 L93.353,51.195 L93.353,67.71 L91.726,67.71 L91.726,51.195 Z M94.728,51.195 L96.294,51.195 L96.294,67.71 L94.728,67.71 L94.728,51.195 Z" id="Shape" fill="#34BBDE"></path>
      <path d="M100.993,49.543 L120.811,49.543 L120.811,69.361 L100.993,69.361 L100.993,49.543 Z M102.644,51.195 L104.207,51.195 L104.207,67.71 L102.644,67.71 L102.644,51.195 Z M105.584,51.195 L107.21,51.195 L107.21,67.71 L105.584,67.71 L105.584,51.195 Z M108.587,51.195 L110.213,51.195 L110.213,67.71 L108.587,67.71 L108.587,51.195 Z M111.59,51.195 L113.216,51.195 L113.216,67.71 L111.59,67.71 L111.59,51.195 Z M114.592,51.195 L116.22,51.195 L116.22,67.71 L114.592,67.71 L114.592,51.195 Z M117.595,51.195 L119.159,51.195 L119.159,67.71 L117.595,67.71 L117.595,51.195 L117.595,51.195 Z" id="Shape" fill="#23A3C2"></path>
      <path d="M100.993,26.677 L120.811,26.677 L120.811,46.494 L100.993,46.494 L100.993,26.677 Z M102.644,28.329 L104.207,28.329 L104.207,44.843 L102.644,44.843 L102.644,28.329 Z M105.584,28.329 L107.21,28.329 L107.21,44.843 L105.584,44.843 L105.584,28.329 Z M108.587,28.329 L110.213,28.329 L110.213,44.843 L108.587,44.843 L108.587,28.329 Z M111.59,28.329 L113.216,28.329 L113.216,44.843 L111.59,44.843 L111.59,28.329 Z M114.592,28.329 L116.22,28.329 L116.22,44.843 L114.592,44.843 L114.592,28.329 Z M117.595,28.329 L119.159,28.329 L119.159,44.843 L117.595,44.843 L117.595,28.329 L117.595,28.329 Z M123.859,49.543 L143.677,49.543 L143.677,69.361 L123.859,69.361 L123.859,49.543 Z M125.511,51.195 L127.074,51.195 L127.074,67.71 L125.511,67.71 L125.511,51.195 Z M128.451,51.195 L130.077,51.195 L130.077,67.71 L128.451,67.71 L128.451,51.195 Z M131.453,51.195 L133.079,51.195 L133.079,67.71 L131.453,67.71 L131.453,51.195 Z M134.456,51.195 L136.083,51.195 L136.083,67.71 L134.456,67.71 L134.456,51.195 Z M137.459,51.195 L139.086,51.195 L139.086,67.71 L137.459,67.71 L137.459,51.195 Z M140.462,51.195 L142.026,51.195 L142.026,67.71 L140.462,67.71 L140.462,51.195 Z" id="Shape" fill="#34BBDE"></path>
      <path d="M123.859,26.677 L143.677,26.677 L143.677,46.494 L123.859,46.494 L123.859,26.677 Z M125.511,28.329 L127.074,28.329 L127.074,44.843 L125.511,44.843 L125.511,28.329 Z M128.451,28.329 L130.077,28.329 L130.077,44.843 L128.451,44.843 L128.451,28.329 Z M131.453,28.329 L133.079,28.329 L133.079,44.843 L131.453,44.843 L131.453,28.329 Z M134.456,28.329 L136.083,28.329 L136.083,44.843 L134.456,44.843 L134.456,28.329 Z M137.459,28.329 L139.086,28.329 L139.086,44.843 L137.459,44.843 L137.459,28.329 Z M140.462,28.329 L142.026,28.329 L142.026,44.843 L140.462,44.843 L140.462,28.329 Z" id="Shape" fill="#23A3C2"></path>
      <path d="M123.859,3.81 L143.677,3.81 L143.677,23.63 L123.859,23.63 L123.859,3.81 Z M125.511,5.461 L127.074,5.461 L127.074,21.977 L125.511,21.977 L125.511,5.46 L125.511,5.461 Z M128.451,5.461 L130.077,5.461 L130.077,21.977 L128.451,21.977 L128.451,5.46 L128.451,5.461 Z M131.453,5.461 L133.079,5.461 L133.079,21.977 L131.453,21.977 L131.453,5.46 L131.453,5.461 Z M134.456,5.461 L136.083,5.461 L136.083,21.977 L134.456,21.977 L134.456,5.46 L134.456,5.461 Z M137.459,5.461 L139.086,5.461 L139.086,21.977 L137.459,21.977 L137.459,5.46 L137.459,5.461 Z M140.462,5.461 L142.026,5.461 L142.026,21.977 L140.462,21.977 L140.462,5.46 L140.462,5.461 Z" id="Shape" fill="#34BBDE"></path>
      <path d="M146.725,49.543 L166.543,49.543 L166.543,69.361 L146.725,69.361 L146.725,49.543 Z M148.375,51.195 L149.94,51.195 L149.94,67.71 L148.376,67.71 L148.376,51.195 L148.375,51.195 Z M151.315,51.195 L152.942,51.195 L152.942,67.71 L151.316,67.71 L151.316,51.195 L151.315,51.195 Z M154.319,51.195 L155.946,51.195 L155.946,67.71 L154.319,67.71 L154.319,51.195 Z M157.321,51.195 L158.948,51.195 L158.948,67.71 L157.321,67.71 L157.321,51.195 Z M160.325,51.195 L161.951,51.195 L161.951,67.71 L160.325,67.71 L160.325,51.195 Z M163.327,51.195 L164.891,51.195 L164.891,67.71 L163.327,67.71 L163.327,51.195 Z" id="Shape" fill="#23A3C2"></path>
      <path d="M96.704,101.492 C98.6749743,101.465707 100.507549,102.502273 101.500497,104.205061 C102.493445,105.907848 102.49306,108.01327 101.499489,109.715694 C100.505918,111.418118 98.6729645,112.454014 96.702,112.427 C93.7112229,112.386008 91.3083905,109.949571 91.3089376,106.958513 C91.3094846,103.967455 93.7132081,101.531898 96.704,101.492" id="Shape" fill="#D3ECEC"></path>
      <path d="M96.704,103.043 C97.204,103.043 97.681,103.137 98.121,103.308 C97.4967957,103.670365 97.1929751,104.406166 97.3796741,105.103362 C97.566373,105.800559 98.1972411,106.286064 98.919,106.288 C99.524,106.288 100.049,105.953 100.321,105.457 C100.982217,107.049837 100.523238,108.887747 99.1907993,109.98271 C97.8583611,111.077674 95.9663449,111.171751 94.5318572,110.214368 C93.0973695,109.256986 92.4583311,107.473672 92.9582749,105.823099 C93.4582187,104.172526 94.9793736,103.043516 96.704,103.043 M0,90.162 L254.327,90.162 C248.79,88.758 236.807,86.86 238.783,79.602 C228.713,91.254 204.43,87.777 198.301,82.032 C191.477,91.93 151.747,88.167 148.976,80.456 C140.42,90.497 113.909,90.497 105.353,80.456 C102.58,88.167 62.851,91.93 56.026,82.031 C49.898,87.777 25.616,91.254 15.546,79.603 C17.522,86.86 5.539,88.758 0,90.163" id="Shape" fill="#364548"></path>
      <path d="M111.237,140.89 C97.697,134.465 90.266,125.73 86.131,116.196 C81.101,117.631 75.056,118.549 68.031,118.943 C65.385,119.091 62.601,119.167 59.681,119.167 C56.313,119.167 52.764,119.067 49.038,118.87 C61.455,131.28 76.73,140.834 105.014,141.008 C107.102,141.008 109.174,140.968 111.237,140.89" id="Shape" fill="#BDD9D7"></path>
      <path d="M91.16,124.994 C89.287,122.451 87.47,119.255 86.134,116.194 C81.104,117.631 75.057,118.549 68.031,118.944 C72.857,121.563 79.758,123.99 91.161,124.994" id="Shape" fill="#D3ECEC"></path>
    </g>
  </g>
</svg>
