<svg xmlns="http://www.w3.org/2000/svg" width="300" height="300" viewBox="0 0 300 300">
  <g fill="none">
    <polygon fill="#2D3748" points="149.749 269.756 29.732 210.137 29.732 89.924 29.782 89.895 0 74.997 0 224.933 0 224.947 149.749 299.915 149.749 299.915 149.749 269.756"/>
    <polygon fill="#2D3748" points="59.95 105.01 59.899 105.039 59.899 194.977 149.749 239.612 149.749 149.979 149.749 149.965"/>
    <polygon fill="#718096" points="299.514 75.011 149.749 0 0 74.982 0 74.997 29.782 89.895 149.749 29.868 269.799 89.865 299.497 75.011 299.497 75.026 299.514 75.026"/>
    <polygon fill="#718096" points="238.324 89.967 148.475 45.056 58.659 89.996 148.458 134.951"/>
    <polygon fill="#4A5568" points="269.816 89.88 239.631 104.981 149.749 149.965 149.749 149.979 149.749 163.38 149.732 163.38 149.732 198.989 149.749 198.989 149.749 239.612 179.33 225.281 179.346 194.977 179.346 164.877 269.866 120.198 269.866 210.137 149.749 269.756 149.749 299.915 299.497 224.962 299.497 224.947 299.497 75.026"/>
  </g>
</svg>
