<svg width="375px" height="79px" viewBox="0 0 375 79" version="1.1" xmlns="http://www.w3.org/2000/svg" xmlns:xlink="http://www.w3.org/1999/xlink">
  <g id="Page-1" stroke="none" stroke-width="1" fill="none" fill-rule="evenodd">
    <g id="abstruse-logo-white-text" transform="translate(-121.000000, -12.000000)" fill="#354052" fill-rule="nonzero">
      <path d="M144.6,79.2 C146.066674,79.2 147.46666,79.166667 148.8,79.1 C150.13334,79.033333 151.199996,78.933334 152,78.8 L152,67.5 C151.399997,67.366666 150.500006,67.233334 149.3,67.1 C148.099994,66.966666 147.000005,66.9 146,66.9 C144.599993,66.9 143.28334,66.9833325 142.05,67.15 C140.816661,67.3166675 139.733338,67.633331 138.8,68.1 C137.866662,68.566669 137.133336,69.199996 136.6,70 C136.066664,70.800004 135.8,71.799994 135.8,73 C135.8,75.333345 136.583326,76.9499955 138.15,77.85 C139.716675,78.7500045 141.866653,79.2 144.6,79.2 Z M143.4,35.6 C147.800022,35.6 151.466652,36.099995 154.4,37.1 C157.333348,38.100005 159.683324,39.533324 161.45,41.4 C163.216676,43.266676 164.466663,45.53332 165.2,48.2 C165.933337,50.86668 166.3,53.833317 166.3,57.1 L166.3,88.1 C164.166656,88.566669 161.200019,89.1166635 157.4,89.75 C153.599981,90.3833365 149.000027,90.7 143.6,90.7 C140.199983,90.7 137.116681,90.400003 134.35,89.8 C131.58332,89.199997 129.20001,88.2166735 127.2,86.85 C125.19999,85.4833265 123.666672,83.700011 122.6,81.5 C121.533328,79.299989 121,76.600016 121,73.4 C121,70.333318 121.61666,67.733344 122.85,65.6 C124.083339,63.466656 125.733323,61.766673 127.8,60.5 C129.866677,59.233327 132.23332,58.3166695 134.9,57.75 C137.56668,57.1833305 140.333319,56.9 143.2,56.9 C145.133343,56.9 146.849992,56.9833325 148.35,57.15 C149.850008,57.3166675 151.066662,57.533332 152,57.8 L152,56.4 C152,53.866654 151.233341,51.833341 149.7,50.3 C148.166659,48.766659 145.500019,48 141.7,48 C139.166654,48 136.666679,48.1833315 134.2,48.55 C131.733321,48.9166685 129.600009,49.43333 127.8,50.1 L125.9,38.1 C126.766671,37.833332 127.849994,37.5500015 129.15,37.25 C130.450007,36.9499985 131.866659,36.6833345 133.4,36.45 C134.933341,36.2166655 136.549992,36.0166675 138.25,35.85 C139.950008,35.6833325 141.666658,35.6 143.4,35.6 Z M208.7,62.9 C208.7,53.299952 205.166702,48.5 198.1,48.5 C196.566659,48.5 195.050007,48.699998 193.55,49.1 C192.049992,49.500002 190.833338,49.999997 189.9,50.6 L189.9,77.7 C190.633337,77.833334 191.566661,77.9499995 192.7,78.05 C193.833339,78.1500005 195.06666,78.2 196.4,78.2 C200.466687,78.2 203.533323,76.800014 205.6,74 C207.666677,71.199986 208.7,67.500023 208.7,62.9 Z M223.9,63.3 C223.9,67.500021 223.283339,71.299983 222.05,74.7 C220.81666,78.100017 219.033345,80.999988 216.7,83.4 C214.366655,85.800012 211.500017,87.6499935 208.1,88.95 C204.699983,90.2500065 200.833355,90.9 196.5,90.9 C194.699991,90.9 192.816676,90.8166675 190.85,90.65 C188.883323,90.4833325 186.950009,90.266668 185.05,90 C183.14999,89.733332 181.333342,89.4166685 179.6,89.05 C177.866658,88.6833315 176.33334,88.300002 175,87.9 L175,14.4 L189.9,12 L189.9,38.2 C191.566675,37.466663 193.299991,36.900002 195.1,36.5 C196.900009,36.099998 198.833323,35.9 200.9,35.9 C204.633352,35.9 207.933319,36.5499935 210.8,37.85 C213.666681,39.1500065 216.066657,40.999988 218,43.4 C219.933343,45.800012 221.399995,48.6833165 222.4,52.05 C223.400005,55.4166835 223.9,59.166646 223.9,63.3 Z M245.7,78.9 C248.433347,78.9 250.366661,78.633336 251.5,78.1 C252.633339,77.566664 253.2,76.533341 253.2,75 C253.2,73.799994 252.466674,72.7500045 251,71.85 C249.533326,70.9499955 247.300015,69.933339 244.3,68.8 C241.966655,67.933329 239.850009,67.033338 237.95,66.1 C236.04999,65.166662 234.43334,64.0500065 233.1,62.75 C231.76666,61.4499935 230.733337,59.900009 230,58.1 C229.266663,56.299991 228.9,54.133346 228.9,51.6 C228.9,46.666642 230.733315,42.766681 234.4,39.9 C238.066685,37.033319 243.099968,35.6 249.5,35.6 C252.700016,35.6 255.766652,35.8833305 258.7,36.45 C261.633348,37.0166695 263.966658,37.63333 265.7,38.3 L263.1,49.9 C261.366658,49.299997 259.483343,48.766669 257.45,48.3 C255.416656,47.833331 253.133346,47.6 250.6,47.6 C245.93331,47.6 243.6,48.899987 243.6,51.5 C243.6,52.100003 243.699999,52.633331 243.9,53.1 C244.100001,53.566669 244.499997,54.0166645 245.1,54.45 C245.700003,54.8833355 246.516661,55.3499975 247.55,55.85 C248.583338,56.3500025 249.899992,56.899997 251.5,57.5 C254.766683,58.700006 257.466656,59.8833275 259.6,61.05 C261.733344,62.2166725 263.41666,63.4833265 264.65,64.85 C265.883339,66.2166735 266.749997,67.733325 267.25,69.4 C267.750002,71.066675 268,72.999989 268,75.2 C268,80.400026 266.050019,84.33332 262.15,87 C258.24998,89.66668 252.733369,91 245.6,91 C240.93331,91 237.050015,90.600004 233.95,89.8 C230.849984,88.999996 228.700006,88.333336 227.5,87.8 L230,75.7 C232.533346,76.700005 235.13332,77.4833305 237.8,78.05 C240.46668,78.6166695 243.099987,78.9 245.7,78.9 Z M273.799999,23.9 L288.699999,21.5 L288.699999,37 L306.599999,37 L306.599999,49.4 L288.699999,49.4 L288.699999,67.9 C288.699999,71.033349 289.249994,73.533324 290.349999,75.4 C291.450005,77.266676 293.666649,78.2 296.999999,78.2 C298.600007,78.2 300.249991,78.0500015 301.949999,77.75 C303.650008,77.4499985 305.199992,77.033336 306.599999,76.5 L308.699999,88.1 C306.89999,88.833337 304.90001,89.466664 302.699999,90 C300.499988,90.533336 297.800015,90.8 294.599999,90.8 C290.533312,90.8 287.166679,90.2500055 284.499999,89.15 C281.833319,88.0499945 279.700007,86.5166765 278.099999,84.55 C276.499991,82.5833235 275.383336,80.200014 274.749999,77.4 C274.116663,74.599986 273.799999,71.500017 273.799999,68.1 L273.799999,23.9 Z M345.599999,50.2 C344.266659,49.866665 342.700008,49.5166685 340.899999,49.15 C339.09999,48.7833315 337.166676,48.6 335.099999,48.6 C334.166661,48.6 333.050006,48.6833325 331.749999,48.85 C330.449993,49.0166675 329.466669,49.199999 328.799999,49.4 L328.799999,89.6 L313.899999,89.6 L313.899999,39.8 C316.566679,38.866662 319.716648,37.9833375 323.349999,37.15 C326.983351,36.3166625 331.03331,35.9 335.499999,35.9 C336.300003,35.9 337.26666,35.9499995 338.399999,36.05 C339.533338,36.1500005 340.66666,36.2833325 341.799999,36.45 C342.933338,36.6166675 344.06666,36.8166655 345.199999,37.05 C346.333338,37.2833345 347.299995,37.566665 348.099999,37.9 L345.599999,50.2 Z M396.199999,87.8 C393.666653,88.533337 390.400019,89.2166635 386.399999,89.85 C382.399979,90.4833365 378.200021,90.8 373.799999,90.8 C369.33331,90.8 365.616681,90.200006 362.649999,89 C359.683318,87.799994 357.333341,86.1166775 355.599999,83.95 C353.866657,81.7833225 352.633336,79.200015 351.899999,76.2 C351.166662,73.199985 350.799999,69.900018 350.799999,66.3 L350.799999,37 L365.699999,37 L365.699999,64.5 C365.699999,69.300024 366.333326,72.766656 367.599999,74.9 C368.866672,77.033344 371.233315,78.1 374.699999,78.1 C375.766671,78.1 376.899993,78.0500005 378.099999,77.95 C379.300005,77.8499995 380.366661,77.733334 381.299999,77.6 L381.299999,37 L396.199999,37 L396.199999,87.8 Z M420.499999,78.9 C423.233346,78.9 425.16666,78.633336 426.299999,78.1 C427.433338,77.566664 427.999999,76.533341 427.999999,75 C427.999999,73.799994 427.266673,72.7500045 425.799999,71.85 C424.333325,70.9499955 422.100014,69.933339 419.099999,68.8 C416.766654,67.933329 414.650008,67.033338 412.749999,66.1 C410.849989,65.166662 409.233339,64.0500065 407.899999,62.75 C406.566659,61.4499935 405.533336,59.900009 404.799999,58.1 C404.066662,56.299991 403.699999,54.133346 403.699999,51.6 C403.699999,46.666642 405.533314,42.766681 409.199999,39.9 C412.866684,37.033319 417.899967,35.6 424.299999,35.6 C427.500015,35.6 430.566651,35.8833305 433.499999,36.45 C436.433347,37.0166695 438.766657,37.63333 440.499999,38.3 L437.899999,49.9 C436.166657,49.299997 434.283342,48.766669 432.249999,48.3 C430.216655,47.833331 427.933345,47.6 425.399999,47.6 C420.733309,47.6 418.399999,48.899987 418.399999,51.5 C418.399999,52.100003 418.499998,52.633331 418.699999,53.1 C418.9,53.566669 419.299996,54.0166645 419.899999,54.45 C420.500002,54.8833355 421.31666,55.3499975 422.349999,55.85 C423.383337,56.3500025 424.699991,56.899997 426.299999,57.5 C429.566682,58.700006 432.266655,59.8833275 434.399999,61.05 C436.533343,62.2166725 438.216659,63.4833265 439.449999,64.85 C440.683338,66.2166735 441.549996,67.733325 442.049999,69.4 C442.550001,71.066675 442.799999,72.999989 442.799999,75.2 C442.799999,80.400026 440.850018,84.33332 436.949999,87 C433.049979,89.66668 427.533368,91 420.399999,91 C415.733309,91 411.850014,90.600004 408.749999,89.8 C405.649983,88.999996 403.500005,88.333336 402.299999,87.8 L404.799999,75.7 C407.333345,76.700005 409.933319,77.4833305 412.599999,78.05 C415.266679,78.6166695 417.899986,78.9 420.499999,78.9 Z M446.599999,63.7 C446.599999,59.03331 447.316658,54.9500175 448.749999,51.45 C450.183339,47.9499825 452.066654,45.033345 454.399999,42.7 C456.733344,40.366655 459.41665,38.600006 462.449999,37.4 C465.483347,36.199994 468.599983,35.6 471.799999,35.6 C479.266703,35.6 485.166644,37.8833105 489.499999,42.45 C493.833354,47.0166895 495.999999,53.733289 495.999999,62.6 C495.999999,63.466671 495.966666,64.4166615 495.899999,65.45 C495.833332,66.4833385 495.766666,67.399996 495.699999,68.2 L461.899999,68.2 C462.233334,71.266682 463.666653,73.699991 466.199999,75.5 C468.733345,77.300009 472.133311,78.2 476.399999,78.2 C479.133346,78.2 481.816652,77.9500025 484.449999,77.45 C487.083345,76.9499975 489.233324,76.333337 490.899999,75.6 L492.899999,87.7 C492.099995,88.100002 491.033339,88.499998 489.699999,88.9 C488.366659,89.300002 486.88334,89.6499985 485.249999,89.95 C483.616657,90.2500015 481.866675,90.499999 479.999999,90.7 C478.133323,90.900001 476.266675,91 474.399999,91 C469.666642,91 465.550016,90.300007 462.049999,88.9 C458.549981,87.499993 455.65001,85.5833455 453.349999,83.15 C451.049987,80.7166545 449.350004,77.83335 448.249999,74.5 C447.149993,71.16665 446.599999,67.566686 446.599999,63.7 Z M481.599999,58 C481.533332,56.733327 481.316667,55.500006 480.949999,54.3 C480.58333,53.099994 480.016669,52.033338 479.249999,51.1 C478.483328,50.166662 477.516671,49.400003 476.349999,48.8 C475.183326,48.199997 473.733341,47.9 471.999999,47.9 C470.333324,47.9 468.900005,48.1833305 467.699999,48.75 C466.499993,49.3166695 465.500003,50.066662 464.699999,51 C463.899995,51.933338 463.283334,53.0166605 462.849999,54.25 C462.416663,55.4833395 462.1,56.733327 461.899999,58 L481.599999,58 Z" id="abstruse"></path>
    </g>
  </g>
</svg>
