<svg xmlns="http://www.w3.org/2000/svg" width="1326" height="300" viewBox="0 0 1326 300">
  <g fill="none">
    <polygon fill="#38A169" points="149.749 269.756 29.732 210.137 29.732 89.924 29.782 89.895 0 74.997 0 224.933 0 224.947 149.749 299.915 149.749 299.915 149.749 269.756"/>
    <polygon fill="#38A169" points="59.95 105.01 59.899 105.039 59.899 194.977 149.749 239.612 149.749 149.979 149.749 149.965"/>
    <polygon fill="#68D391" points="299.514 75.011 149.749 0 0 74.982 0 74.997 29.782 89.895 149.749 29.868 269.799 89.865 299.497 75.011 299.497 75.026 299.514 75.026"/>
    <polygon fill="#68D391" points="238.324 89.967 148.475 45.056 58.659 89.996 148.458 134.951"/>
    <polygon fill="#48BB78" points="269.816 89.88 239.631 104.981 149.749 149.965 149.749 149.979 149.749 163.38 149.732 163.38 149.732 198.989 149.749 198.989 149.749 239.612 179.33 225.281 179.346 194.977 179.346 164.877 269.866 120.198 269.866 210.137 149.749 269.756 149.749 299.915 299.497 224.962 299.497 224.947 299.497 75.026"/>
    <path fill="#4E5859" d="M56.7594937,161.620253 C60.2869375,161.620253 63.6539924,161.540085 66.8607595,161.379747 C70.0675266,161.219408 72.6329018,160.978905 74.556962,160.658228 L74.556962,133.481013 C73.1139168,133.160336 70.9493815,132.839664 68.0632911,132.518987 C65.1772008,132.198311 62.5316576,132.037975 60.1265823,132.037975 C56.7594768,132.037975 53.592843,132.238395 50.6265823,132.639241 C47.6603239,133.040086 45.0548635,133.801682 42.8101266,134.924051 C40.5653896,136.046419 38.8016942,137.569611 37.5189873,139.493671 C36.2362805,141.417731 35.5949367,143.82277 35.5949367,146.708861 C35.5949367,152.320703 37.4788853,156.20885 41.2468354,158.373418 C45.014788,160.537986 50.1856211,161.620253 56.7594937,161.620253 Z M53.8734177,56.7594937 C64.4557491,56.7594937 73.2742263,57.9620253 80.3291139,60.3670886 C87.3840015,62.7721519 93.0358425,66.2193868 97.2848101,70.7088608 C101.533778,75.1983347 104.540076,80.649757 106.303797,87.0632911 C108.067519,93.4768253 108.949367,100.611775 108.949367,108.468354 L108.949367,183.025316 C103.81854,184.147685 96.68359,185.470457 87.5443038,186.993671 C78.4050176,188.516885 67.3418371,189.278481 54.3544304,189.278481 C46.1771743,189.278481 38.7616378,188.556969 32.1075949,187.113924 C25.4535544,185.670879 19.721543,183.305924 14.9113924,180.018987 C10.1012418,176.732051 6.41351494,172.443064 3.84810127,167.151899 C1.28268759,161.860733 0,155.367127 0,147.670886 C0,140.295322 1.48310633,134.04222 4.44936709,128.911392 C7.41562544,123.780565 11.3839414,119.691998 16.3544304,116.64557 C21.3249194,113.599141 27.0168456,111.394522 33.4303797,110.031646 C39.8439139,108.66877 46.4978558,107.987342 53.3924051,107.987342 C58.0422173,107.987342 62.1708668,108.187762 65.778481,108.588608 C69.3860952,108.989453 72.3122251,109.510545 74.556962,110.151899 L74.556962,106.78481 C74.556962,100.691953 72.7130986,95.8017062 69.0253165,92.1139241 C65.3375343,88.4261419 58.9240963,86.5822785 49.7848101,86.5822785 C43.6919527,86.5822785 37.6793546,87.0232023 31.7468354,87.9050633 C25.8143163,88.7869242 20.6835659,90.0295278 16.3544304,91.6329114 L11.7848101,62.7721519 C13.8692087,62.1307985 16.4746691,61.4493707 19.6012658,60.7278481 C22.7278649,60.0063255 26.1350027,59.3649817 29.8227848,58.8037975 C33.510567,58.2426132 37.3987149,57.7616054 41.4873418,57.3607595 C45.5759686,56.9599136 49.7046205,56.7594937 53.8734177,56.7594937 Z M210.924051,122.417722 C210.924051,99.3289985 202.426245,87.7848101 185.43038,87.7848101 C181.742598,87.7848101 178.094954,88.265818 174.487342,89.2278481 C170.879728,90.1898734 167.953598,91.3924051 165.708861,92.835443 L165.708861,158.012658 C167.472583,158.333335 169.717286,158.613923 172.443038,158.85443 C175.16879,159.094938 178.135005,159.21519 181.341772,159.21519 C191.122412,159.21519 198.497865,155.848135 203.468354,149.113924 C208.438843,142.379713 210.924051,133.481068 210.924051,122.417722 Z M247.481013,123.379747 C247.481013,133.481063 245.997904,142.620212 243.031646,150.797468 C240.065385,158.974724 235.776399,165.949338 230.164557,171.721519 C224.552715,177.4937 217.658269,181.943022 209.481013,185.06962 C201.303757,188.196218 192.004272,189.759494 181.582278,189.759494 C177.253143,189.759494 172.723651,189.559074 167.993671,189.158228 C163.263688,188.757382 158.613946,188.23629 154.044304,187.594937 C149.474659,186.953583 145.105506,186.191988 140.936709,185.310127 C136.767912,184.428266 133.080185,183.506334 129.873418,182.544304 L129.873418,5.7721519 L165.708861,0 L165.708861,63.0126582 C169.71732,61.2489363 173.886054,59.8860808 178.21519,58.9240506 C182.544325,57.9620205 187.194068,57.4810127 192.164557,57.4810127 C201.143505,57.4810127 209.080134,59.0442882 215.974684,62.1708861 C222.869233,65.297484 228.641327,69.7468066 233.291139,75.5189873 C237.940952,81.2911681 241.468342,88.2256979 243.873418,96.3227848 C246.278493,104.419872 247.481013,113.438769 247.481013,123.379747 Z M299.911392,160.898734 C306.485265,160.898734 311.135007,160.25739 313.860759,158.974684 C316.586512,157.691977 317.949367,155.206769 317.949367,151.518987 C317.949367,148.632897 316.185672,146.107606 312.658228,143.943038 C309.130784,141.77847 303.75953,139.333347 296.544304,136.607595 C290.932461,134.523196 285.841794,132.358661 281.272152,130.113924 C276.702508,127.869187 272.814362,125.18356 269.607595,122.056962 C266.400828,118.930364 263.915621,115.202553 262.151899,110.873418 C260.388177,106.544282 259.506329,101.333364 259.506329,95.2405063 C259.506329,83.3754681 263.915568,73.9958151 272.734177,67.1012658 C281.552787,60.2067166 293.658151,56.7594937 309.050633,56.7594937 C316.746874,56.7594937 324.122328,57.4409215 331.177215,58.8037975 C338.232103,60.1666735 343.843861,61.649781 348.012658,63.2531646 L341.759494,91.1518987 C337.590696,89.7088535 333.061205,88.4261659 328.170886,87.3037975 C323.280565,86.181429 317.78906,85.6202532 311.696203,85.6202532 C300.472518,85.6202532 294.860759,88.7468042 294.860759,95 C294.860759,96.443038 295.101263,97.7257328 295.582278,98.8481013 C296.063294,99.9704697 297.025316,101.052737 298.468354,102.094937 C299.9114,103.137136 301.875514,104.259494 304.360759,105.462025 C306.846003,106.664563 310.012639,107.987335 313.860759,109.43038 C321.717339,112.31647 328.210945,115.162433 333.341772,117.968354 C338.472599,120.774276 342.521081,123.820659 345.487342,127.107595 C348.4536,130.394531 350.537967,134.042174 351.740506,138.050633 C352.943043,142.059092 353.544304,146.708834 353.544304,152 C353.544304,164.506392 348.854476,173.966213 339.474684,180.379747 C330.094889,186.793281 316.82709,190 299.670886,190 C288.447201,190 279.107631,189.037975 271.651899,187.113924 C264.196164,185.189864 259.025331,183.586504 256.139241,182.303797 L262.151899,153.202532 C268.244756,155.607607 274.497858,157.491554 280.911392,158.85443 C287.324927,160.217306 293.658197,160.898734 299.911392,160.898734 Z M367.493668,28.6202532 L403.329112,22.8481013 L403.329112,60.1265823 L446.379744,60.1265823 L446.379744,89.9493671 L403.329112,89.9493671 L403.329112,134.443038 C403.329112,141.978941 404.651884,147.991539 407.297466,152.481013 C409.94305,156.970487 415.274219,159.21519 423.291137,159.21519 C427.139257,159.21519 431.107573,158.854434 435.1962,158.132911 C439.284829,157.411389 443.012639,156.409289 446.379744,155.126582 L451.430377,183.025316 C447.101242,184.789038 442.291163,186.31223 436.999998,187.594937 C431.708832,188.877644 425.215226,189.518987 417.518985,189.518987 C407.738345,189.518987 399.64138,188.196216 393.227846,185.550633 C386.814312,182.90505 381.683561,179.217323 377.835441,174.487342 C373.98732,169.75736 371.301694,164.02535 369.778479,157.291139 C368.255265,150.556928 367.493668,143.101307 367.493668,134.924051 L367.493668,28.6202532 Z M540.177213,91.8734177 C536.970446,91.0717259 533.202551,90.2299622 528.873415,89.3481013 C524.54428,88.4662403 519.894537,88.0253165 514.924048,88.0253165 C512.679311,88.0253165 509.993685,88.2257364 506.867086,88.6265823 C503.740489,89.0274282 501.375533,89.468352 499.772149,89.9493671 L499.772149,186.632911 L463.936706,186.632911 L463.936706,66.8607595 C470.350241,64.6160225 477.926115,62.4915712 486.664555,60.4873418 C495.402996,58.4831123 505.143404,57.4810127 515.886074,57.4810127 C517.810134,57.4810127 520.135005,57.6012646 522.860757,57.8417722 C525.586509,58.0822797 528.31222,58.4029516 531.037972,58.8037975 C533.763724,59.2046434 536.489435,59.6856512 539.215187,60.2468354 C541.940939,60.8080197 544.265811,61.4894475 546.189871,62.2911392 L540.177213,91.8734177 Z M661.873415,182.303797 C655.780558,184.067519 647.924096,185.710963 638.303795,187.234177 C628.683494,188.757392 618.582329,189.518987 607.999998,189.518987 C597.257328,189.518987 588.3186,188.075964 581.183542,185.189873 C574.048486,182.303783 568.396643,178.2553 564.227846,173.044304 C560.059048,167.833307 557.092833,161.620289 555.329112,154.405063 C553.56539,147.189837 552.683542,139.253208 552.683542,130.594937 L552.683542,60.1265823 L588.518985,60.1265823 L588.518985,126.265823 C588.518985,137.810184 590.042176,146.147654 593.088605,151.278481 C596.135034,156.409308 601.82696,158.974684 610.164555,158.974684 C612.729968,158.974684 615.455679,158.854432 618.34177,158.613924 C621.227846,158.373417 623.793235,158.092829 626.037972,157.772152 L626.037972,60.1265823 L661.873415,60.1265823 L661.873415,182.303797 Z M720.316453,160.898734 C726.890326,160.898734 731.540068,160.25739 734.26582,158.974684 C736.991572,157.691977 738.354428,155.206769 738.354428,151.518987 C738.354428,148.632897 736.590733,146.107606 733.063289,143.943038 C729.535845,141.77847 724.164591,139.333347 716.949365,136.607595 C711.337522,134.523196 706.246855,132.358661 701.677213,130.113924 C697.107568,127.869187 693.219423,125.18356 690.012656,122.056962 C686.805889,118.930364 684.320682,115.202553 682.55696,110.873418 C680.793238,106.544282 679.91139,101.333364 679.91139,95.2405063 C679.91139,83.3754681 684.320629,73.9958151 693.139238,67.1012658 C701.957848,60.2067166 714.063212,56.7594937 729.455694,56.7594937 C737.151935,56.7594937 744.527388,57.4409215 751.582276,58.8037975 C758.637164,60.1666735 764.248922,61.649781 768.417719,63.2531646 L762.164555,91.1518987 C757.995757,89.7088535 753.466266,88.4261659 748.575947,87.3037975 C743.685626,86.181429 738.194121,85.6202532 732.101263,85.6202532 C720.877579,85.6202532 715.26582,88.7468042 715.26582,95 C715.26582,96.443038 715.506324,97.7257328 715.987339,98.8481013 C716.468354,99.9704697 717.430377,101.052737 718.873415,102.094937 C720.316461,103.137136 722.280575,104.259494 724.76582,105.462025 C727.251064,106.664563 730.4177,107.987335 734.26582,109.43038 C742.1224,112.31647 748.616006,115.162433 753.746833,117.968354 C758.87766,120.774276 762.926142,123.820659 765.892403,127.107595 C768.858661,130.394531 770.943028,134.042174 772.145567,138.050633 C773.348104,142.059092 773.949365,146.708834 773.949365,152 C773.949365,164.506392 769.259537,173.966213 759.879744,180.379747 C750.499949,186.793281 737.232151,190 720.075947,190 C708.852262,190 699.512692,189.037975 692.05696,187.113924 C684.601225,185.189864 679.430392,183.586504 676.544301,182.303797 L682.55696,153.202532 C688.649817,155.607607 694.902919,157.491554 701.316453,158.85443 C707.729987,160.217306 714.063257,160.898734 720.316453,160.898734 Z M783.088605,124.341772 C783.088605,113.118087 784.812215,103.29751 788.259491,94.8797468 C791.706765,86.4619832 796.236256,79.4472854 801.848099,73.835443 C807.459941,68.2236006 813.913462,63.9746835 821.208858,61.0886076 C828.504252,58.2025172 835.999959,56.7594937 843.6962,56.7594937 C861.654096,56.7594937 875.843827,62.2509999 886.26582,73.2341772 C896.687813,84.2173545 901.898732,100.371201 901.898732,121.696203 C901.898732,123.780601 901.818564,126.065388 901.658225,128.550633 C901.497887,131.035877 901.337551,133.240497 901.177213,135.164557 L819.886074,135.164557 C820.687765,142.540121 824.134988,148.392383 830.227846,152.721519 C836.320703,157.050655 844.497837,159.21519 854.759491,159.21519 C861.333364,159.21519 867.786885,158.61393 874.120251,157.411392 C880.453615,156.208855 885.62445,154.725747 889.632909,152.962025 L894.443036,182.063291 C892.518985,183.025316 889.9536,183.987337 886.746833,184.949367 C883.540066,185.911397 879.97259,186.753161 876.044301,187.474684 C872.116011,188.196206 867.907193,188.797466 863.417719,189.278481 C858.928245,189.759494 854.438839,190 849.949365,190 C838.565342,190 828.664595,188.316473 820.246833,184.949367 C811.829068,181.582262 804.854454,176.972603 799.322782,171.120253 C793.791108,165.267903 789.702541,158.333373 787.05696,150.316456 C784.411376,142.299538 783.088605,133.641397 783.088605,124.341772 Z M867.26582,110.632911 C867.105482,107.586483 866.584389,104.620268 865.702529,101.734177 C864.820667,98.8480868 863.457812,96.2827116 861.613922,94.0379747 C859.770029,91.7932377 857.445158,89.9493671 854.639238,88.5063291 C851.833316,87.0632839 848.34601,86.3417722 844.177213,86.3417722 C840.168754,86.3417722 836.721517,87.0231999 833.835441,88.3860759 C830.94935,89.748952 828.544311,91.5527314 826.620251,93.7974684 C824.6962,96.0422053 823.213082,98.6476645 822.170884,101.613924 C821.128683,104.580184 820.367089,107.586483 819.886074,110.632911 L867.26582,110.632911 Z" transform="translate(424 40)"/>
  </g>
</svg>
