<svg width="37px" height="46px" viewBox="0 0 37 46" version="1.1" xmlns="http://www.w3.org/2000/svg" xmlns:xlink="http://www.w3.org/1999/xlink">
  <g id="Page-1" stroke="none" stroke-width="1" fill="none" fill-rule="evenodd">
    <g id="noun_839026_cc" transform="translate(-4.000000, 0.000000)" fill-rule="nonzero" fill="#FFFFFF">
      <g id="Group" transform="translate(4.000000, 0.000000)">
        <path d="M28.102,19.679 C29.313,19.42 30.43,18.419 30.612,16.199 C30.762,14.382 30.296,13.446 29.608,12.969 C31.518,5.184 26.25,3.66 26.25,3.66 C26.25,3.66 22.313,-3.019 14.632,1.668 C13.655,2.264 12.136,3.406 11.231,4.585 C9.778,6.131 8.789,8.644 8.634,12.714 C7.696,13.072 6.959,13.978 7.142,16.198 C7.334,18.519 8.545,19.507 9.819,19.709 C11.539,23.898 14.935,27.35 18.954,27.35 C22.982,27.35 26.385,23.882 28.102,19.679 Z M18.954,25.397 C14.307,25.397 10.565,19.087 10.565,13.862 C10.565,13.146 10.588,12.482 10.632,11.866 C17.429,12.163 21.449,9.438 23.637,7.074 C25.712,9.142 26.79,11.754 27.341,13.693 C27.341,13.749 27.342,13.804 27.342,13.861 C27.343,19.087 23.602,25.397 18.954,25.397 Z" id="Shape"></path>
        <path d="M16.292,33.297 L16.83,31.07 C16.892,30.813 17.025,30.593 17.205,30.424 C17.15,30.385 17.096,30.344 17.043,30.301 L12.237,26.322 L9.312,27.006 C4.359,28.171 0.869,32.354 0.869,37.152 L0.869,43.452 C0.869,44.692 1.972,45.681 3.292,45.681 L15.673,45.681 L17.561,34.919 C16.713,34.908 16.092,34.125 16.292,33.297 Z" id="Shape"></path>
        <path d="M28.42,27.006 L25.535,26.322 L20.734,30.301 C20.681,30.344 20.629,30.385 20.574,30.424 C20.755,30.593 20.888,30.813 20.951,31.07 L21.488,33.297 C21.689,34.124 21.068,34.908 20.219,34.92 L22.107,45.682 L34.488,45.682 C35.808,45.682 36.812,44.694 36.812,43.453 L36.812,37.153 C36.814,32.354 33.373,28.171 28.42,27.006 Z" id="Shape"></path>
      </g>
    </g>
  </g>
</svg>
